G75*
%MOIN*%
%OFA0B0*%
%FSLAX24Y24*%
%IPPOS*%
%LPD*%
%AMOC8*
5,1,8,0,0,1.08239X$1,22.5*
%
%ADD10C,0.0417*%
%ADD11C,0.0186*%
%ADD12R,0.0415X0.0190*%
%ADD13R,0.0434X0.0356*%
%ADD14R,0.0513X0.0474*%
%ADD15R,0.0430X0.0390*%
%ADD16R,0.0356X0.0434*%
%ADD17R,0.0769X0.0434*%
%ADD18C,0.0397*%
%ADD19R,0.0330X0.0580*%
%ADD20R,0.0316X0.0710*%
%ADD21R,0.0710X0.0316*%
%ADD22R,0.0395X0.0395*%
%ADD23C,0.0237*%
%ADD24C,0.0552*%
%ADD25C,0.0493*%
%ADD26C,0.0436*%
D10*
X011045Y017064D03*
X011295Y017497D03*
X011545Y017930D03*
X011795Y018363D03*
X012045Y018796D03*
X012295Y019229D03*
D11*
X022721Y019315D02*
X022628Y019408D01*
X022925Y019328D01*
X023079Y019061D01*
X022999Y018764D01*
X022732Y018610D01*
X022435Y018690D01*
X022281Y018957D01*
X022361Y019254D01*
X022628Y019408D01*
X022648Y019257D01*
X022832Y019208D01*
X022928Y019041D01*
X022879Y018857D01*
X022712Y018761D01*
X022528Y018810D01*
X022432Y018977D01*
X022481Y019161D01*
X022648Y019257D01*
X022667Y019108D01*
X022741Y019088D01*
X022779Y019022D01*
X022759Y018948D01*
X022693Y018910D01*
X022619Y018930D01*
X022581Y018996D01*
X022601Y019070D01*
X022667Y019108D01*
X023339Y018203D02*
X023246Y018296D01*
X023543Y018216D01*
X023697Y017949D01*
X023617Y017652D01*
X023350Y017498D01*
X023053Y017578D01*
X022899Y017845D01*
X022979Y018142D01*
X023246Y018296D01*
X023266Y018145D01*
X023450Y018096D01*
X023546Y017929D01*
X023497Y017745D01*
X023330Y017649D01*
X023146Y017698D01*
X023050Y017865D01*
X023099Y018049D01*
X023266Y018145D01*
X023285Y017996D01*
X023359Y017976D01*
X023397Y017910D01*
X023377Y017836D01*
X023311Y017798D01*
X023237Y017818D01*
X023199Y017884D01*
X023219Y017958D01*
X023285Y017996D01*
D12*
G36*
X017400Y017164D02*
X017692Y017456D01*
X017826Y017322D01*
X017534Y017030D01*
X017400Y017164D01*
G37*
G36*
X017261Y017303D02*
X017553Y017595D01*
X017687Y017461D01*
X017395Y017169D01*
X017261Y017303D01*
G37*
G36*
X017121Y017442D02*
X017413Y017734D01*
X017547Y017600D01*
X017255Y017308D01*
X017121Y017442D01*
G37*
G36*
X017408Y017739D02*
X017116Y017447D01*
X016982Y017581D01*
X017274Y017873D01*
X017408Y017739D01*
G37*
G36*
X016873Y017447D02*
X016581Y017739D01*
X016715Y017873D01*
X017007Y017581D01*
X016873Y017447D01*
G37*
G36*
X016734Y017308D02*
X016442Y017600D01*
X016576Y017734D01*
X016868Y017442D01*
X016734Y017308D01*
G37*
G36*
X016595Y017169D02*
X016303Y017461D01*
X016437Y017595D01*
X016729Y017303D01*
X016595Y017169D01*
G37*
G36*
X016456Y017030D02*
X016164Y017322D01*
X016298Y017456D01*
X016590Y017164D01*
X016456Y017030D01*
G37*
G36*
X016164Y016763D02*
X016456Y017055D01*
X016590Y016921D01*
X016298Y016629D01*
X016164Y016763D01*
G37*
G36*
X016303Y016624D02*
X016595Y016916D01*
X016729Y016782D01*
X016437Y016490D01*
X016303Y016624D01*
G37*
G36*
X016442Y016485D02*
X016734Y016777D01*
X016868Y016643D01*
X016576Y016351D01*
X016442Y016485D01*
G37*
G36*
X016581Y016345D02*
X016873Y016637D01*
X017007Y016503D01*
X016715Y016211D01*
X016581Y016345D01*
G37*
G36*
X017274Y016211D02*
X016982Y016503D01*
X017116Y016637D01*
X017408Y016345D01*
X017274Y016211D01*
G37*
G36*
X017413Y016351D02*
X017121Y016643D01*
X017255Y016777D01*
X017547Y016485D01*
X017413Y016351D01*
G37*
G36*
X017553Y016490D02*
X017261Y016782D01*
X017395Y016916D01*
X017687Y016624D01*
X017553Y016490D01*
G37*
G36*
X017692Y016629D02*
X017400Y016921D01*
X017534Y017055D01*
X017826Y016763D01*
X017692Y016629D01*
G37*
D13*
X017815Y017973D03*
X017815Y018485D03*
D14*
X017669Y015849D03*
X017000Y015849D03*
D15*
X013004Y015618D03*
X013004Y016378D03*
X012204Y015998D03*
X021115Y015980D03*
X021115Y016740D03*
X021915Y016360D03*
D16*
X020586Y016654D03*
X020586Y015994D03*
X020074Y015994D03*
X020074Y016654D03*
X014221Y016349D03*
X013709Y016349D03*
X013709Y015664D03*
X014221Y015664D03*
D17*
X014386Y010466D03*
X014386Y011057D03*
X014386Y011647D03*
X014386Y012238D03*
X014386Y012828D03*
X014386Y013419D03*
X014386Y014009D03*
X014386Y014600D03*
X019603Y014600D03*
X019603Y014009D03*
X019603Y013419D03*
X019603Y012828D03*
X019603Y012238D03*
X019603Y011647D03*
X019603Y011057D03*
X019603Y010466D03*
D18*
X017245Y003815D02*
X017245Y003498D01*
X016745Y003498D02*
X016745Y003815D01*
X003738Y016736D02*
X003421Y016736D01*
X003421Y017236D02*
X003738Y017236D01*
X016745Y030270D02*
X016745Y030587D01*
X017245Y030587D02*
X017245Y030270D01*
X030222Y017293D02*
X030539Y017293D01*
X030539Y016793D02*
X030222Y016793D01*
D19*
X020395Y018929D03*
X019895Y018929D03*
X015345Y018529D03*
X014845Y018529D03*
D20*
X016899Y019558D03*
X017490Y019558D03*
X018080Y019558D03*
X018080Y021054D03*
X017490Y021054D03*
X016899Y021054D03*
D21*
X016742Y020306D03*
D22*
X016699Y029444D03*
X017290Y029444D03*
X029396Y017338D03*
X029396Y016747D03*
X017290Y004641D03*
X016699Y004641D03*
X004725Y016674D03*
X004725Y017264D03*
D23*
X013011Y021035D03*
X013798Y022398D03*
D24*
X019795Y020829D03*
X020305Y015094D03*
X012220Y015069D03*
D25*
X018195Y022294D03*
D26*
X020070Y023664D03*
M02*
