%
M48
M72
T01C0.0118
T02C0.0157
T03C0.0197
T04C0.0217
T05C0.0236
T06C0.0276
T07C0.0315
T08C0.0400
%
T01
X12570Y12044
X13240Y11689
X11875Y12824
X12615Y13289
X15125Y13094
X15270Y12224
X15220Y11229
X15270Y10874
X15755Y11229
X16060Y10759
X17685Y11294
X17805Y10784
X18405Y10979
X18285Y11644
X18905Y13089
X20255Y11719
X20635Y11729
X20885Y11329
X21524Y13298
X21015Y13909
X21180Y14482
X20945Y15204
X21462Y15213
X22587Y15467
X20445Y17064
X19395Y18329
X18335Y18134
X18380Y17279
X18150Y16209
X18895Y15774
X17605Y15194
X17010Y15214
X16640Y15264
X15995Y16129
X14735Y15966
X14735Y16929
X15815Y17899
X16345Y18629
X16880Y18529
X17290Y18519
X15810Y19384
X15495Y19129
X15200Y19389
X14840Y19129
X14760Y19529
X15975Y20699
X15975Y21094
X15975Y21539
X15318Y21573
X14630Y21000
X13960Y20779
X12561Y20643
X13385Y19284
X13045Y18014
X11910Y17404
X15795Y22908
X16555Y23739
X17245Y24759
X19570Y23164
X19353Y21451
X20215Y21199
X20995Y21129
X20320Y19529
X18755Y19389
X17045Y28799
X16335Y29249
X4725Y17699
X5145Y16919
X17135Y5359
X16225Y4639
X28815Y17089
X29205Y16319
T02
X13798Y22398
X13011Y21035
T03
X22098Y14640
X30381Y16793
X30381Y17293
X17245Y30428
X16745Y30428
X3580Y17236
X3580Y16736
X16745Y3657
X17245Y3657
T04
X11045Y17064
X11295Y17497
X11545Y17930
X11795Y18363
X12045Y18796
X12295Y19229
T05
X20070Y23664
T06
X18195Y22294
T07
X19795Y20829
X20305Y15094
X12220Y15069
T08
X22680Y19009
X23298Y17897
M30
