G75*
%MOIN*%
%OFA0B0*%
%FSLAX24Y24*%
%IPPOS*%
%LPD*%
%AMOC8*
5,1,8,0,0,1.08239X$1,22.5*
%
%ADD10R,0.1969X0.1969*%
%ADD11R,0.0394X0.0118*%
%ADD12R,0.0089X0.0089*%
%ADD13R,0.0276X0.0669*%
%ADD14R,0.0276X0.0354*%
%ADD15R,0.0354X0.0276*%
%ADD16C,0.0100*%
%ADD17R,0.1030X0.1030*%
%ADD18R,0.0315X0.0315*%
%ADD19R,0.0472X0.0217*%
%ADD20R,0.0350X0.0310*%
%ADD21C,0.0337*%
%ADD22C,0.0170*%
%ADD23R,0.0217X0.0472*%
%ADD24R,0.0433X0.0394*%
%ADD25R,0.0138X0.0315*%
%ADD26R,0.0310X0.0350*%
%ADD27C,0.0317*%
%ADD28R,0.0500X0.0250*%
%ADD29R,0.0157X0.0787*%
%ADD30R,0.0984X0.0591*%
%ADD31C,0.0060*%
%ADD32C,0.0197*%
%ADD33C,0.0472*%
%ADD34C,0.0238*%
%ADD35C,0.0413*%
%ADD36C,0.0080*%
%ADD37C,0.0320*%
%ADD38C,0.0356*%
%ADD39C,0.0394*%
%ADD40C,0.0315*%
%ADD41C,0.0787*%
%ADD42C,0.0220*%
%ADD43C,0.0200*%
%ADD44C,0.0260*%
%ADD45C,0.0240*%
%ADD46C,0.0400*%
%ADD47C,0.0360*%
%ADD48C,0.0317*%
D10*
G36*
X016995Y011714D02*
X015604Y013105D01*
X016995Y014496D01*
X018386Y013105D01*
X016995Y011714D01*
G37*
D11*
G36*
X017155Y011637D02*
X017433Y011359D01*
X017349Y011275D01*
X017071Y011553D01*
X017155Y011637D01*
G37*
G36*
X017294Y011776D02*
X017572Y011498D01*
X017488Y011414D01*
X017210Y011692D01*
X017294Y011776D01*
G37*
G36*
X017434Y011915D02*
X017712Y011637D01*
X017628Y011553D01*
X017350Y011831D01*
X017434Y011915D01*
G37*
G36*
X017573Y012054D02*
X017851Y011776D01*
X017767Y011692D01*
X017489Y011970D01*
X017573Y012054D01*
G37*
G36*
X017712Y012194D02*
X017990Y011916D01*
X017906Y011832D01*
X017628Y012110D01*
X017712Y012194D01*
G37*
G36*
X017851Y012333D02*
X018129Y012055D01*
X018045Y011971D01*
X017767Y012249D01*
X017851Y012333D01*
G37*
G36*
X017990Y012472D02*
X018268Y012194D01*
X018184Y012110D01*
X017906Y012388D01*
X017990Y012472D01*
G37*
G36*
X018130Y012611D02*
X018408Y012333D01*
X018324Y012249D01*
X018046Y012527D01*
X018130Y012611D01*
G37*
G36*
X018269Y012750D02*
X018547Y012472D01*
X018463Y012388D01*
X018185Y012666D01*
X018269Y012750D01*
G37*
G36*
X018408Y012890D02*
X018686Y012612D01*
X018602Y012528D01*
X018324Y012806D01*
X018408Y012890D01*
G37*
G36*
X018547Y013029D02*
X018825Y012751D01*
X018741Y012667D01*
X018463Y012945D01*
X018547Y013029D01*
G37*
G36*
X018463Y013266D02*
X018741Y013544D01*
X018825Y013460D01*
X018547Y013182D01*
X018463Y013266D01*
G37*
G36*
X018324Y013405D02*
X018602Y013683D01*
X018686Y013599D01*
X018408Y013321D01*
X018324Y013405D01*
G37*
G36*
X018185Y013544D02*
X018463Y013822D01*
X018547Y013738D01*
X018269Y013460D01*
X018185Y013544D01*
G37*
G36*
X018046Y013683D02*
X018324Y013961D01*
X018408Y013877D01*
X018130Y013599D01*
X018046Y013683D01*
G37*
G36*
X017906Y013823D02*
X018184Y014101D01*
X018268Y014017D01*
X017990Y013739D01*
X017906Y013823D01*
G37*
G36*
X017767Y013962D02*
X018045Y014240D01*
X018129Y014156D01*
X017851Y013878D01*
X017767Y013962D01*
G37*
G36*
X017628Y014101D02*
X017906Y014379D01*
X017990Y014295D01*
X017712Y014017D01*
X017628Y014101D01*
G37*
G36*
X017489Y014240D02*
X017767Y014518D01*
X017851Y014434D01*
X017573Y014156D01*
X017489Y014240D01*
G37*
G36*
X017350Y014379D02*
X017628Y014657D01*
X017712Y014573D01*
X017434Y014295D01*
X017350Y014379D01*
G37*
G36*
X017210Y014519D02*
X017488Y014797D01*
X017572Y014713D01*
X017294Y014435D01*
X017210Y014519D01*
G37*
G36*
X017071Y014658D02*
X017349Y014936D01*
X017433Y014852D01*
X017155Y014574D01*
X017071Y014658D01*
G37*
G36*
X016834Y014574D02*
X016556Y014852D01*
X016640Y014936D01*
X016918Y014658D01*
X016834Y014574D01*
G37*
G36*
X016695Y014435D02*
X016417Y014713D01*
X016501Y014797D01*
X016779Y014519D01*
X016695Y014435D01*
G37*
G36*
X016556Y014295D02*
X016278Y014573D01*
X016362Y014657D01*
X016640Y014379D01*
X016556Y014295D01*
G37*
G36*
X016417Y014156D02*
X016139Y014434D01*
X016223Y014518D01*
X016501Y014240D01*
X016417Y014156D01*
G37*
G36*
X016277Y014017D02*
X015999Y014295D01*
X016083Y014379D01*
X016361Y014101D01*
X016277Y014017D01*
G37*
G36*
X016138Y013878D02*
X015860Y014156D01*
X015944Y014240D01*
X016222Y013962D01*
X016138Y013878D01*
G37*
G36*
X015999Y013739D02*
X015721Y014017D01*
X015805Y014101D01*
X016083Y013823D01*
X015999Y013739D01*
G37*
G36*
X015860Y013599D02*
X015582Y013877D01*
X015666Y013961D01*
X015944Y013683D01*
X015860Y013599D01*
G37*
G36*
X015721Y013460D02*
X015443Y013738D01*
X015527Y013822D01*
X015805Y013544D01*
X015721Y013460D01*
G37*
G36*
X015582Y013321D02*
X015304Y013599D01*
X015388Y013683D01*
X015666Y013405D01*
X015582Y013321D01*
G37*
G36*
X015442Y013182D02*
X015164Y013460D01*
X015248Y013544D01*
X015526Y013266D01*
X015442Y013182D01*
G37*
G36*
X015526Y012945D02*
X015248Y012667D01*
X015164Y012751D01*
X015442Y013029D01*
X015526Y012945D01*
G37*
G36*
X015666Y012806D02*
X015388Y012528D01*
X015304Y012612D01*
X015582Y012890D01*
X015666Y012806D01*
G37*
G36*
X015805Y012666D02*
X015527Y012388D01*
X015443Y012472D01*
X015721Y012750D01*
X015805Y012666D01*
G37*
G36*
X015944Y012527D02*
X015666Y012249D01*
X015582Y012333D01*
X015860Y012611D01*
X015944Y012527D01*
G37*
G36*
X016083Y012388D02*
X015805Y012110D01*
X015721Y012194D01*
X015999Y012472D01*
X016083Y012388D01*
G37*
G36*
X016222Y012249D02*
X015944Y011971D01*
X015860Y012055D01*
X016138Y012333D01*
X016222Y012249D01*
G37*
G36*
X016361Y012110D02*
X016083Y011832D01*
X015999Y011916D01*
X016277Y012194D01*
X016361Y012110D01*
G37*
G36*
X016501Y011970D02*
X016223Y011692D01*
X016139Y011776D01*
X016417Y012054D01*
X016501Y011970D01*
G37*
G36*
X016640Y011831D02*
X016362Y011553D01*
X016278Y011637D01*
X016556Y011915D01*
X016640Y011831D01*
G37*
G36*
X016779Y011692D02*
X016501Y011414D01*
X016417Y011498D01*
X016695Y011776D01*
X016779Y011692D01*
G37*
G36*
X016918Y011553D02*
X016640Y011275D01*
X016556Y011359D01*
X016834Y011637D01*
X016918Y011553D01*
G37*
D12*
G36*
X016995Y014804D02*
X016933Y014866D01*
X016995Y014928D01*
X017057Y014866D01*
X016995Y014804D01*
G37*
D13*
X014662Y010804D03*
X014190Y010804D03*
X013717Y010804D03*
D14*
X015209Y010434D03*
X015721Y010434D03*
X018279Y010434D03*
X018791Y010434D03*
X019319Y012479D03*
X019831Y012479D03*
X020441Y012480D03*
X020953Y012480D03*
X020946Y013066D03*
X020434Y013066D03*
X019856Y015974D03*
X019344Y015974D03*
X019146Y016909D03*
X019658Y016909D03*
X020267Y016491D03*
X020779Y016491D03*
X019856Y019349D03*
X019344Y019349D03*
X018336Y018629D03*
X017824Y018629D03*
X016931Y021379D03*
X016419Y021379D03*
X019145Y022499D03*
X019657Y022499D03*
X014441Y017949D03*
X013929Y017949D03*
X016739Y028142D03*
X017251Y028142D03*
X017251Y006019D03*
X016739Y006019D03*
D15*
X014455Y012023D03*
X014455Y012535D03*
X013835Y016953D03*
X013835Y017465D03*
X016295Y019013D03*
X016295Y019525D03*
X016865Y019525D03*
X016865Y019013D03*
X017465Y020948D03*
X017465Y021460D03*
X018389Y021580D03*
X018389Y021068D03*
X020160Y022348D03*
X020160Y022860D03*
X028018Y017298D03*
X028018Y016786D03*
X005935Y016733D03*
X005935Y017245D03*
D16*
X015818Y022664D02*
X015795Y022908D01*
X016295Y019525D02*
X016865Y019525D01*
X016667Y018086D02*
X016879Y017874D01*
X016738Y017733D02*
X016526Y017945D01*
X016387Y017805D02*
X016599Y017593D01*
X016450Y017444D02*
X016238Y017656D01*
X016097Y017516D02*
X016309Y017304D01*
X016169Y017163D02*
X015957Y017375D01*
X016176Y016923D02*
X015964Y016711D01*
X016105Y016570D02*
X016317Y016782D01*
X016457Y016642D02*
X016245Y016430D01*
X016394Y016281D02*
X016606Y016493D01*
X016746Y016353D02*
X016534Y016141D01*
X016675Y016000D02*
X016887Y016212D01*
X017127Y016205D02*
X017339Y015993D01*
X017479Y016134D02*
X017267Y016346D01*
X017408Y016486D02*
X017620Y016274D01*
X017769Y016423D02*
X017557Y016635D01*
X017696Y016775D02*
X017908Y016563D01*
X018050Y016704D02*
X017838Y016916D01*
X017831Y017156D02*
X018043Y017368D01*
X017902Y017509D02*
X017690Y017297D01*
X017550Y017437D02*
X017762Y017649D01*
X017613Y017798D02*
X017401Y017586D01*
X017261Y017726D02*
X017473Y017938D01*
X017332Y018079D02*
X017120Y017867D01*
X018380Y017279D02*
X018585Y017279D01*
X018916Y017611D01*
X018916Y017960D01*
X019395Y018064D02*
X019395Y017459D01*
X019355Y017419D01*
X019126Y016929D02*
X019146Y016909D01*
X019658Y016909D02*
X019995Y016909D01*
X019995Y017389D01*
X020024Y017419D01*
X020246Y017064D02*
X020091Y016909D01*
X019995Y016909D01*
X020246Y017064D02*
X020445Y017064D01*
X020795Y017064D01*
X020795Y016506D01*
X020779Y016491D01*
X021355Y016804D02*
X021355Y016883D01*
X021174Y017064D01*
X021025Y017064D01*
X021180Y017219D01*
X021180Y017542D01*
X020806Y017542D02*
X020806Y017653D01*
X020500Y017959D01*
X019941Y017959D01*
X019940Y017960D01*
X019940Y018334D02*
X020285Y018334D01*
X020445Y018494D01*
X020445Y019404D01*
X020320Y019529D01*
X020140Y019349D01*
X019856Y019349D01*
X019344Y019349D02*
X019344Y020080D01*
X019295Y020129D01*
X020825Y019154D02*
X020825Y018568D01*
X020804Y018568D01*
X020806Y018566D01*
X021195Y018551D02*
X021195Y018129D01*
X021295Y018029D01*
X021555Y018029D01*
X021795Y018029D01*
X021945Y018029D01*
X022295Y018029D01*
X021554Y018566D02*
X021554Y019095D01*
X021494Y019154D01*
X021695Y020829D02*
X021695Y021529D01*
X020876Y022348D01*
X020160Y022348D01*
X020160Y022860D02*
X020644Y022860D01*
X020720Y022784D01*
X020795Y017064D02*
X021025Y017064D01*
D17*
G36*
X017731Y017045D02*
X017003Y016317D01*
X016275Y017045D01*
X017003Y017773D01*
X017731Y017045D01*
G37*
D18*
X020755Y022784D03*
X020755Y023374D03*
X017290Y029248D03*
X016699Y029248D03*
X004725Y017254D03*
X004725Y016664D03*
X016699Y010629D03*
X017290Y010629D03*
X017290Y004838D03*
X016699Y004838D03*
X029199Y016747D03*
X029199Y017338D03*
D19*
X019940Y017960D03*
X019940Y018334D03*
X019940Y018708D03*
X018916Y018708D03*
X018916Y017960D03*
D20*
X019003Y021069D03*
X019003Y021829D03*
X019803Y021449D03*
X020725Y014281D03*
X020725Y013521D03*
X021525Y013901D03*
D21*
X012295Y019229D03*
X012045Y018796D03*
X011795Y018363D03*
X011545Y017930D03*
X011295Y017497D03*
X011045Y017064D03*
D22*
X022717Y019288D02*
X022632Y019373D01*
X022904Y019300D01*
X023044Y019057D01*
X022971Y018785D01*
X022728Y018645D01*
X022456Y018718D01*
X022316Y018961D01*
X022389Y019233D01*
X022632Y019373D01*
X022651Y019236D01*
X022819Y019191D01*
X022907Y019038D01*
X022862Y018870D01*
X022709Y018782D01*
X022541Y018827D01*
X022453Y018980D01*
X022498Y019148D01*
X022651Y019236D01*
X022668Y019100D01*
X022736Y019081D01*
X022771Y019021D01*
X022752Y018953D01*
X022692Y018918D01*
X022624Y018937D01*
X022589Y018997D01*
X022608Y019065D01*
X022668Y019100D01*
X023335Y018176D02*
X023250Y018261D01*
X023522Y018188D01*
X023662Y017945D01*
X023589Y017673D01*
X023346Y017533D01*
X023074Y017606D01*
X022934Y017849D01*
X023007Y018121D01*
X023250Y018261D01*
X023269Y018124D01*
X023437Y018079D01*
X023525Y017926D01*
X023480Y017758D01*
X023327Y017670D01*
X023159Y017715D01*
X023071Y017868D01*
X023116Y018036D01*
X023269Y018124D01*
X023286Y017988D01*
X023354Y017969D01*
X023389Y017909D01*
X023370Y017841D01*
X023310Y017806D01*
X023242Y017825D01*
X023207Y017885D01*
X023226Y017953D01*
X023286Y017988D01*
D23*
X021554Y017542D03*
X021180Y017542D03*
X020806Y017542D03*
X020806Y018566D03*
X021180Y018566D03*
X021554Y018566D03*
D24*
X021494Y019154D03*
X020825Y019154D03*
X020024Y017419D03*
X019355Y017419D03*
X021355Y016804D03*
X022024Y016804D03*
D25*
X014391Y018614D03*
X013879Y018614D03*
X013879Y019284D03*
X014135Y019284D03*
X014391Y019284D03*
D26*
X013425Y018369D03*
X012665Y018369D03*
X013045Y017569D03*
D27*
X003738Y017236D02*
X003421Y017236D01*
X003421Y016736D02*
X003738Y016736D01*
X016745Y003815D02*
X016745Y003498D01*
X017245Y003498D02*
X017245Y003815D01*
X030222Y016793D02*
X030539Y016793D01*
X030539Y017293D02*
X030222Y017293D01*
X017245Y030270D02*
X017245Y030587D01*
X016745Y030587D02*
X016745Y030270D01*
D28*
X015349Y021019D03*
X015800Y018454D03*
X012946Y015624D03*
X018695Y015229D03*
X018695Y014779D03*
X019595Y014779D03*
X019595Y015229D03*
X019600Y014329D03*
X019595Y013879D03*
X019595Y011229D03*
X019595Y010809D03*
X019605Y010389D03*
D29*
G36*
X013785Y020997D02*
X013707Y020861D01*
X013027Y021253D01*
X013105Y021389D01*
X013785Y020997D01*
G37*
G36*
X013913Y021218D02*
X013835Y021082D01*
X013155Y021474D01*
X013233Y021610D01*
X013913Y021218D01*
G37*
G36*
X014040Y021440D02*
X013962Y021304D01*
X013282Y021696D01*
X013360Y021832D01*
X014040Y021440D01*
G37*
G36*
X014168Y021662D02*
X014090Y021526D01*
X013410Y021918D01*
X013488Y022054D01*
X014168Y021662D01*
G37*
G36*
X014296Y021883D02*
X014218Y021747D01*
X013538Y022139D01*
X013616Y022275D01*
X014296Y021883D01*
G37*
D30*
G36*
X013155Y022428D02*
X012663Y021577D01*
X012153Y021872D01*
X012645Y022723D01*
X013155Y022428D01*
G37*
G36*
X013884Y023689D02*
X013392Y022838D01*
X012882Y023133D01*
X013374Y023984D01*
X013884Y023689D01*
G37*
G36*
X012427Y021166D02*
X011935Y020315D01*
X011425Y020610D01*
X011917Y021461D01*
X012427Y021166D01*
G37*
D31*
X013895Y020131D02*
X013901Y020125D01*
X014391Y020125D01*
X014895Y019664D02*
X016156Y019664D01*
X016295Y019525D01*
X015810Y019384D02*
X015810Y019044D01*
X015370Y018604D01*
X015370Y015844D01*
X016598Y014616D01*
X016615Y014609D01*
X016736Y014748D02*
X015530Y015954D01*
X015530Y018184D01*
X015800Y018454D01*
X016345Y018429D02*
X016345Y018629D01*
X016345Y018963D01*
X016295Y019013D01*
X016345Y018429D02*
X015815Y017899D01*
X015700Y017784D01*
X015700Y017632D01*
X016063Y017269D01*
X016203Y017410D02*
X016035Y017578D01*
X016035Y017729D01*
X016135Y017829D01*
X016135Y017989D01*
X016675Y018529D01*
X016880Y018529D01*
X016880Y018998D01*
X016865Y019013D01*
X016615Y018269D02*
X017475Y018269D01*
X017824Y018618D01*
X017824Y018629D01*
X018336Y018629D02*
X018336Y018135D01*
X018335Y018134D01*
X018310Y018109D01*
X017375Y018109D01*
X017239Y017973D01*
X017226Y017973D01*
X016632Y017839D02*
X016455Y018016D01*
X016455Y018109D01*
X016615Y018269D01*
X015495Y019129D02*
X015195Y018829D01*
X015195Y015741D01*
X016459Y014476D01*
X016327Y014332D02*
X016320Y014337D01*
X015035Y015622D01*
X015035Y018924D01*
X015200Y019089D01*
X015200Y019389D01*
X014895Y019664D02*
X014760Y019529D01*
X014840Y019129D02*
X014840Y017034D01*
X014735Y016929D01*
X014441Y017465D02*
X014441Y016260D01*
X014735Y015966D01*
X014735Y015644D01*
X016187Y014191D01*
X016180Y014198D01*
X016183Y014191D01*
X016048Y014055D02*
X016038Y014055D01*
X014420Y015674D01*
X014420Y015979D01*
X013835Y016564D01*
X013835Y016953D01*
X013835Y017465D02*
X014441Y017465D01*
X014441Y017949D01*
X014441Y018175D01*
X014595Y018329D01*
X014595Y018929D01*
X014295Y018929D01*
X014135Y019089D01*
X014135Y019284D01*
X013879Y019284D02*
X013385Y019284D01*
X013385Y019284D01*
X012905Y018939D02*
X014070Y018939D01*
X014276Y018733D01*
X014391Y018733D01*
X014391Y018614D01*
X013879Y018614D02*
X013879Y018329D01*
X013425Y018329D01*
X013425Y018369D01*
X013879Y018329D02*
X013879Y017999D01*
X013929Y017949D01*
X013045Y017569D02*
X013045Y017124D01*
X014270Y015899D01*
X014270Y015552D01*
X015902Y013920D01*
X016041Y014059D02*
X016048Y014055D01*
X015624Y013641D02*
X015629Y013634D01*
X015295Y013969D01*
X015295Y014279D01*
X014115Y015459D01*
X014115Y015809D01*
X012495Y017429D01*
X012495Y017663D01*
X012050Y017674D02*
X013975Y015749D01*
X013975Y015384D01*
X015140Y014219D01*
X015140Y013844D01*
X015484Y013500D01*
X015489Y013500D01*
X015489Y013495D01*
X015485Y013502D01*
X015348Y013361D02*
X014995Y013714D01*
X014995Y014129D01*
X013835Y015289D01*
X013835Y015654D01*
X012085Y017404D01*
X011910Y017404D01*
X012130Y017129D02*
X011663Y017129D01*
X012130Y017129D02*
X013675Y015584D01*
X013675Y015214D01*
X014455Y014434D01*
X014455Y012535D01*
X014496Y012494D01*
X015270Y012494D01*
X015491Y012716D01*
X015485Y012709D01*
X015481Y012716D01*
X015485Y012709D02*
X015491Y012706D01*
X015617Y012576D02*
X015624Y012569D01*
X015622Y012576D01*
X015270Y012224D01*
X015069Y012023D01*
X014455Y012023D01*
X014145Y012064D02*
X014035Y011954D01*
X012660Y011954D01*
X012570Y012044D01*
X012195Y011894D02*
X012195Y012504D01*
X011875Y012824D01*
X012195Y011894D02*
X013260Y010829D01*
X013260Y010519D01*
X013500Y010279D01*
X014045Y010279D01*
X014190Y010424D01*
X014190Y010804D01*
X013725Y010811D02*
X013717Y010804D01*
X013720Y010806D01*
X013725Y010811D02*
X013725Y011324D01*
X013880Y011479D01*
X014660Y011479D01*
X014875Y011694D01*
X015305Y011694D01*
X015909Y012298D01*
X015902Y012291D01*
X016030Y012159D02*
X016030Y012149D01*
X015395Y011514D01*
X014935Y011514D01*
X014662Y011241D01*
X014662Y010804D01*
X015270Y010874D02*
X015270Y010495D01*
X015209Y010434D01*
X015270Y010343D01*
X015721Y010434D02*
X016190Y010434D01*
X016325Y010569D01*
X016325Y011322D01*
X016598Y011595D01*
X016605Y011579D01*
X016737Y011456D02*
X016495Y011213D01*
X016495Y010834D01*
X016699Y010629D01*
X017290Y010629D02*
X017385Y010629D01*
X017625Y010389D01*
X018234Y010389D01*
X018279Y010434D01*
X017805Y010784D02*
X017425Y011144D01*
X017425Y011299D01*
X017261Y011463D01*
X017252Y011456D01*
X017385Y011594D02*
X017391Y011595D01*
X017392Y011602D01*
X017385Y011594D02*
X017685Y011294D01*
X017750Y011234D01*
X018005Y010979D01*
X018405Y010979D01*
X018495Y010889D01*
X018655Y010889D01*
X018795Y010749D01*
X018795Y010438D01*
X019165Y010809D02*
X018585Y011389D01*
X018155Y011389D01*
X017663Y011880D01*
X017670Y011873D01*
X017531Y011734D02*
X017524Y011740D01*
X017685Y011579D01*
X017755Y011579D01*
X018105Y011229D01*
X018535Y011229D01*
X018660Y011104D01*
X019375Y010389D01*
X019605Y010389D01*
X019595Y010809D02*
X019165Y010809D01*
X019060Y011229D02*
X019595Y011229D01*
X019840Y011539D02*
X018970Y011539D01*
X018465Y012044D01*
X018340Y012044D01*
X018086Y012298D01*
X018087Y012291D01*
X017945Y012159D02*
X017948Y012152D01*
X017945Y012159D02*
X018210Y011894D01*
X018395Y011894D01*
X019060Y011229D01*
X018660Y011109D02*
X018660Y011104D01*
X018285Y011644D02*
X018178Y011644D01*
X017809Y012013D01*
X018227Y012430D02*
X018222Y012437D01*
X018465Y012194D01*
X018545Y012194D01*
X019030Y011709D01*
X019900Y011709D01*
X020280Y011329D01*
X020885Y011329D01*
X021145Y011219D02*
X020965Y011039D01*
X020340Y011039D01*
X019840Y011539D01*
X020110Y011864D02*
X020255Y011719D01*
X020110Y011864D02*
X019075Y011864D01*
X018362Y012576D01*
X018366Y012569D01*
X018505Y012709D02*
X019185Y012029D01*
X020335Y012029D01*
X020635Y011729D01*
X020953Y012211D02*
X021145Y012019D01*
X021145Y011219D01*
X020953Y012211D02*
X020953Y012480D01*
X020953Y013058D01*
X020946Y013066D01*
X020435Y013066D02*
X020435Y013799D01*
X020725Y014090D01*
X020725Y014281D01*
X021015Y013909D02*
X021462Y014356D01*
X021462Y015213D01*
X021180Y014969D02*
X021180Y014482D01*
X021180Y014969D02*
X020945Y015204D01*
X020305Y015094D02*
X020305Y013909D01*
X019980Y013584D01*
X019315Y013584D01*
X019170Y013729D01*
X018732Y013729D01*
X018505Y013502D01*
X018644Y013363D02*
X018904Y013089D01*
X018905Y013089D01*
X018644Y012848D02*
X019013Y012479D01*
X019319Y012479D01*
X019831Y012479D02*
X019831Y013433D01*
X019830Y013434D01*
X019980Y013584D01*
X019595Y013879D02*
X018604Y013879D01*
X018366Y013641D01*
X018227Y013780D02*
X018575Y014129D01*
X019195Y014129D01*
X019395Y014329D01*
X019600Y014329D01*
X019595Y014779D02*
X019490Y014779D01*
X019040Y014329D01*
X018497Y014329D01*
X018087Y013920D01*
X017948Y014059D02*
X018358Y014469D01*
X018965Y014469D01*
X019195Y014699D01*
X019195Y015029D01*
X019395Y015229D01*
X019595Y015229D01*
X019595Y014779D02*
X019425Y014779D01*
X020115Y015474D02*
X018350Y015474D01*
X018195Y015319D01*
X018195Y015139D01*
X017525Y014469D01*
X017531Y014476D01*
X017394Y014609D02*
X018050Y015264D01*
X018050Y016109D01*
X018150Y016209D01*
X018150Y016321D01*
X017802Y016669D01*
X017663Y016529D02*
X017895Y016297D01*
X017895Y015629D01*
X017735Y015469D01*
X017265Y015469D01*
X017010Y015214D01*
X016640Y015264D02*
X017005Y015629D01*
X017545Y015639D01*
X017725Y015819D01*
X017725Y016169D01*
X017514Y016370D01*
X017514Y016380D01*
X017373Y016240D02*
X017575Y016038D01*
X017575Y015969D01*
X017395Y015789D01*
X016335Y015789D01*
X015995Y016129D01*
X015685Y016039D02*
X015685Y016439D01*
X015692Y016439D01*
X016070Y016817D01*
X015685Y016039D02*
X016460Y015264D01*
X016640Y015264D01*
X016737Y014755D02*
X016736Y014748D01*
X017245Y014750D02*
X017605Y015109D01*
X017605Y015194D01*
X017252Y014755D02*
X017245Y014750D01*
X017391Y014616D02*
X017394Y014609D01*
X017670Y014337D02*
X018562Y015229D01*
X018695Y015229D01*
X018695Y014779D02*
X018395Y014779D01*
X017807Y014191D01*
X017809Y014198D01*
X018895Y015774D02*
X018895Y015789D01*
X019080Y015974D01*
X019344Y015974D01*
X019856Y015974D02*
X019856Y016358D01*
X019660Y016554D01*
X018920Y016554D01*
X018695Y016329D01*
X018270Y016329D01*
X018150Y016209D01*
X018553Y016532D02*
X018950Y016929D01*
X018380Y017279D02*
X018363Y017262D01*
X017937Y017262D01*
X019658Y016909D02*
X019660Y016907D01*
X019660Y016554D01*
X020267Y016491D02*
X020267Y015626D01*
X020115Y015474D01*
X021554Y017542D02*
X021555Y017543D01*
X021555Y018029D01*
X021781Y018015D02*
X021795Y018029D01*
X021725Y020080D02*
X021774Y020129D01*
X021725Y020080D02*
X019344Y020080D01*
X018643Y019389D02*
X018639Y019385D01*
X017465Y020948D02*
X017464Y020949D01*
X016995Y021379D02*
X016931Y021379D01*
X016419Y021379D02*
X016370Y021379D01*
X015349Y021019D02*
X014648Y021019D01*
X014630Y021000D01*
X012905Y018939D02*
X012695Y018729D01*
X012695Y018399D01*
X012665Y018369D01*
X012946Y015624D02*
X013390Y015624D01*
X013515Y015499D01*
X013515Y015139D01*
X014145Y014509D01*
X014145Y012064D01*
X014580Y011629D02*
X013595Y011629D01*
X013260Y011294D01*
X013260Y010829D01*
X014580Y011629D02*
X014810Y011859D01*
X015270Y011859D01*
X015545Y012134D01*
X015545Y012214D01*
X015768Y012437D01*
X015763Y012430D01*
X016030Y012159D02*
X016041Y012152D01*
X016185Y012020D02*
X016185Y012005D01*
X016175Y012005D01*
X015865Y011694D01*
X015820Y011694D01*
X015355Y011229D01*
X015220Y011229D01*
X015755Y011229D02*
X015755Y011299D01*
X016327Y011871D01*
X016320Y011873D01*
X016327Y011876D01*
X016459Y011734D02*
X016466Y011700D01*
X016431Y011700D01*
X016431Y011695D01*
X016060Y011324D01*
X016060Y010759D01*
X016421Y011695D02*
X016431Y011695D01*
X016180Y012013D02*
X016185Y012020D01*
X015352Y012846D02*
X015345Y012848D01*
X015352Y012866D01*
X015125Y013094D01*
X015351Y012855D02*
X015345Y012848D01*
X015348Y013356D02*
X015345Y013363D01*
X020434Y013066D02*
X020435Y013066D01*
X019351Y021449D02*
X018825Y021449D01*
X018695Y021579D01*
X018390Y021579D01*
X018389Y021580D01*
X018389Y021823D01*
X019065Y022499D01*
X019145Y022499D01*
X019165Y022499D01*
X019353Y021451D02*
X019351Y021449D01*
X020720Y022784D02*
X020755Y022784D01*
D32*
X021462Y021061D02*
X021695Y020829D01*
X021730Y020794D01*
X021774Y020750D01*
X021695Y020129D02*
X021695Y020029D01*
X021180Y018566D02*
X021195Y018551D01*
X022664Y017160D02*
X022756Y017068D01*
X023145Y016679D02*
X023145Y016527D01*
X019795Y020829D02*
X019243Y020829D01*
X019003Y021069D01*
D33*
X019795Y020829D03*
X020305Y015094D03*
X012220Y015069D03*
D34*
X012615Y013289D03*
X011875Y012824D03*
X012570Y012044D03*
X013240Y011689D03*
X015220Y011229D03*
X015270Y010874D03*
X015755Y011229D03*
X016060Y010759D03*
X015270Y012224D03*
X015125Y013094D03*
X016640Y015264D03*
X017010Y015214D03*
X017605Y015194D03*
X018150Y016209D03*
X018895Y015774D03*
X018380Y017279D03*
X018335Y018134D03*
X019395Y018329D03*
X018755Y019389D03*
X020320Y019529D03*
X020215Y021199D03*
X020995Y021129D03*
X019353Y021451D03*
X019570Y023164D03*
X017245Y024759D03*
X016555Y023739D03*
X015795Y022908D03*
X015975Y021539D03*
X015975Y021094D03*
X015975Y020699D03*
X015318Y021573D03*
X014630Y021000D03*
X013960Y020779D03*
X012561Y020643D03*
X013385Y019284D03*
X013045Y018014D03*
X011910Y017404D03*
X014735Y016929D03*
X014735Y015966D03*
X015995Y016129D03*
X015815Y017899D03*
X016345Y018629D03*
X016880Y018529D03*
X017290Y018519D03*
X015810Y019384D03*
X015495Y019129D03*
X015200Y019389D03*
X014840Y019129D03*
X014760Y019529D03*
X020445Y017064D03*
X020945Y015204D03*
X021462Y015213D03*
X021180Y014482D03*
X021015Y013909D03*
X021524Y013298D03*
X020635Y011729D03*
X020255Y011719D03*
X020885Y011329D03*
X018905Y013089D03*
X018285Y011644D03*
X018405Y010979D03*
X017805Y010784D03*
X017685Y011294D03*
X022587Y015467D03*
X028815Y017089D03*
X029205Y016319D03*
X017135Y005359D03*
X016225Y004639D03*
X005145Y016919D03*
X004725Y017699D03*
X016335Y029249D03*
X017045Y028799D03*
D35*
X018195Y022294D03*
D36*
X012460Y011809D02*
X011890Y011809D01*
X011875Y011837D02*
X011875Y014294D01*
X011800Y014369D02*
X010489Y014369D01*
X010435Y014469D02*
X010435Y016926D01*
X010438Y016929D02*
X010495Y016929D01*
X010495Y016986D02*
X010495Y016759D01*
X010695Y016559D01*
X010800Y016454D01*
X011545Y016454D01*
X011880Y016119D01*
X011880Y015569D01*
X011615Y015304D01*
X011615Y014554D01*
X011720Y014449D01*
X012215Y013954D01*
X012215Y013434D01*
X012320Y013329D01*
X012356Y013293D01*
X012356Y013237D01*
X012395Y013142D01*
X012468Y013069D01*
X012563Y013030D01*
X012666Y013030D01*
X012762Y013069D01*
X012834Y013142D01*
X012874Y013237D01*
X012874Y013340D01*
X012834Y013436D01*
X012762Y013509D01*
X012666Y013548D01*
X012610Y013548D01*
X012575Y013584D01*
X012575Y014104D01*
X011975Y014704D01*
X011975Y015154D01*
X012134Y015314D01*
X012134Y015314D01*
X012240Y015419D01*
X012240Y016269D01*
X012134Y016374D01*
X011694Y016814D01*
X011142Y016814D01*
X011172Y016826D01*
X011216Y016856D01*
X011253Y016893D01*
X011270Y016918D01*
X011050Y017045D01*
X011064Y017069D01*
X011285Y016942D01*
X011303Y016986D01*
X011313Y017037D01*
X011313Y017090D01*
X011303Y017142D01*
X011283Y017189D01*
X011348Y017189D01*
X011588Y016949D01*
X011737Y016949D01*
X011747Y016959D01*
X012059Y016959D01*
X013129Y015889D01*
X012638Y015889D01*
X012556Y015807D01*
X012556Y015441D01*
X012638Y015359D01*
X013254Y015359D01*
X013334Y015439D01*
X013345Y015429D01*
X013345Y015069D01*
X013444Y014969D01*
X013975Y014439D01*
X013975Y012134D01*
X013964Y012124D01*
X012817Y012124D01*
X012789Y012191D01*
X012717Y012264D01*
X012621Y012303D01*
X012518Y012303D01*
X012423Y012264D01*
X012350Y012191D01*
X012311Y012095D01*
X012311Y011992D01*
X012350Y011897D01*
X012423Y011824D01*
X012518Y011785D01*
X012588Y011785D01*
X012589Y011784D01*
X012999Y011784D01*
X012981Y011740D01*
X012981Y011637D01*
X013020Y011542D01*
X013093Y011469D01*
X013188Y011430D01*
X013291Y011430D01*
X013387Y011469D01*
X013459Y011542D01*
X013487Y011609D01*
X013769Y011609D01*
X013654Y011494D01*
X013555Y011394D01*
X013555Y011279D01*
X013522Y011279D01*
X013440Y011197D01*
X013440Y010411D01*
X013522Y010329D01*
X013913Y010329D01*
X013982Y010398D01*
X013995Y010385D01*
X014032Y010369D01*
X014161Y010369D01*
X014161Y010775D01*
X014219Y010775D01*
X014219Y010369D01*
X014347Y010369D01*
X014384Y010385D01*
X014398Y010398D01*
X014466Y010329D01*
X014858Y010329D01*
X014931Y010402D01*
X014931Y010199D01*
X015013Y010117D01*
X015405Y010117D01*
X015465Y010177D01*
X015525Y010117D01*
X015916Y010117D01*
X015998Y010199D01*
X015998Y010264D01*
X016260Y010264D01*
X016395Y010399D01*
X016406Y010410D01*
X016484Y010331D01*
X016915Y010331D01*
X016995Y010411D01*
X016995Y009793D01*
X017155Y009791D02*
X017155Y010331D01*
X017075Y010331D02*
X017442Y010331D01*
X017455Y010319D01*
X017554Y010219D01*
X017723Y010219D01*
X017686Y010182D01*
X017676Y010158D01*
X017308Y009790D01*
X013294Y009825D01*
X013277Y009833D01*
X013166Y009896D01*
X013050Y009968D01*
X012950Y010049D01*
X017567Y010049D01*
X017635Y010117D02*
X017635Y010219D01*
X017713Y010209D02*
X015998Y010209D01*
X016035Y010264D02*
X016035Y009801D01*
X016195Y009800D02*
X016195Y010264D01*
X016355Y010359D02*
X016355Y009798D01*
X016515Y009797D02*
X016515Y010331D01*
X016447Y010369D02*
X016365Y010369D01*
X016675Y010331D02*
X016675Y009796D01*
X016835Y009794D02*
X016835Y010331D01*
X016952Y010369D02*
X017037Y010369D01*
X017075Y010331D02*
X016995Y010411D01*
X017315Y010331D02*
X017315Y009797D01*
X017407Y009889D02*
X013179Y009889D01*
X013155Y009903D02*
X013155Y011444D01*
X013073Y011489D02*
X012064Y011489D01*
X012035Y011543D02*
X012035Y014134D01*
X011960Y014209D02*
X010576Y014209D01*
X010595Y014174D02*
X010595Y016659D01*
X010645Y016609D02*
X010118Y016609D01*
X010115Y016606D02*
X010115Y015059D01*
X010142Y015009D02*
X011615Y015009D01*
X011615Y015169D02*
X010055Y015169D01*
X009968Y015329D02*
X011640Y015329D01*
X011715Y015404D02*
X011715Y016284D01*
X011710Y016289D02*
X009687Y016289D01*
X009684Y016449D02*
X011550Y016449D01*
X011555Y016444D02*
X011555Y012423D01*
X011541Y012449D02*
X013975Y012449D01*
X013975Y012609D02*
X011453Y012609D01*
X011395Y012716D02*
X011395Y013184D01*
X011388Y013181D02*
X011407Y013189D01*
X011422Y013227D01*
X011447Y013260D01*
X011444Y013281D01*
X011453Y013303D01*
X011465Y013312D01*
X011474Y013357D01*
X011492Y013401D01*
X011486Y013415D01*
X011491Y013442D01*
X011509Y013469D01*
X011503Y013499D01*
X011509Y013529D01*
X011491Y013556D01*
X011485Y013586D01*
X011492Y013603D01*
X011474Y013643D01*
X011465Y013686D01*
X011450Y013696D01*
X011446Y013706D01*
X011449Y013719D01*
X011422Y013759D01*
X011403Y013803D01*
X011390Y013808D01*
X011374Y013832D01*
X011370Y013859D01*
X011342Y013880D01*
X011322Y013909D01*
X011295Y013915D01*
X011275Y013930D01*
X011269Y013947D01*
X011229Y013965D01*
X011194Y013991D01*
X011176Y013988D01*
X011155Y013998D01*
X011138Y014018D01*
X011102Y014021D01*
X011069Y014036D01*
X011044Y014026D01*
X011012Y014029D01*
X011000Y014039D01*
X010954Y014035D01*
X010908Y014039D01*
X010896Y014029D01*
X010875Y014027D01*
X010851Y014036D01*
X010817Y014021D01*
X010781Y014017D01*
X010764Y013997D01*
X010759Y013995D01*
X010757Y013996D01*
X010705Y013971D01*
X009698Y015828D01*
X009683Y016480D01*
X009931Y016480D01*
X010030Y016522D01*
X010106Y016598D01*
X010495Y016986D01*
X010495Y016769D02*
X010278Y016769D01*
X010275Y016766D02*
X010275Y014764D01*
X010315Y014689D02*
X011615Y014689D01*
X011615Y014849D02*
X010229Y014849D01*
X010402Y014529D02*
X011640Y014529D01*
X011715Y014454D02*
X011715Y012130D01*
X011715Y012129D02*
X012325Y012129D01*
X012355Y012195D02*
X012355Y013294D01*
X012356Y013249D02*
X011439Y013249D01*
X011388Y013181D02*
X011373Y013162D01*
X011370Y013139D01*
X011338Y013115D01*
X011315Y013084D01*
X011292Y013081D01*
X011284Y013075D01*
X011283Y013068D01*
X011237Y013039D01*
X011224Y013030D01*
X012465Y010754D01*
X012466Y010754D01*
X012494Y010701D01*
X012523Y010649D01*
X012523Y010648D01*
X012595Y010515D01*
X012595Y010515D01*
X012692Y010335D01*
X012849Y010134D01*
X012950Y010049D01*
X012995Y010012D02*
X012995Y011604D01*
X012981Y011649D02*
X011977Y011649D01*
X011803Y011969D02*
X012320Y011969D01*
X012355Y011893D02*
X012355Y010957D01*
X012326Y011009D02*
X013440Y011009D01*
X013440Y011169D02*
X012239Y011169D01*
X012195Y011250D02*
X012195Y013974D01*
X012215Y013889D02*
X011336Y013889D01*
X011395Y013806D02*
X011395Y016454D01*
X011235Y016454D02*
X011235Y013962D01*
X011075Y014033D02*
X011075Y016454D01*
X010915Y016454D02*
X010915Y014038D01*
X010755Y013995D02*
X010755Y016499D01*
X010695Y016559D02*
X010695Y016559D01*
X010875Y016634D02*
X011620Y016634D01*
X012060Y016194D01*
X012060Y015494D01*
X011795Y015229D01*
X011795Y014629D01*
X012395Y014029D01*
X012395Y013509D01*
X012615Y013289D01*
X012515Y013050D02*
X012515Y012302D01*
X012484Y012289D02*
X011628Y012289D01*
X011366Y012769D02*
X013975Y012769D01*
X013975Y012929D02*
X011279Y012929D01*
X011235Y013010D02*
X011235Y013038D01*
X011319Y013089D02*
X012448Y013089D01*
X012675Y013033D02*
X012675Y012281D01*
X012655Y012289D02*
X013975Y012289D01*
X013969Y012129D02*
X012815Y012129D01*
X012835Y012124D02*
X012835Y013143D01*
X012781Y013089D02*
X013975Y013089D01*
X013975Y013249D02*
X012874Y013249D01*
X012845Y013409D02*
X013975Y013409D01*
X013975Y013569D02*
X012589Y013569D01*
X012675Y013545D02*
X012675Y015359D01*
X012835Y015359D02*
X012835Y013435D01*
X012575Y013729D02*
X013975Y013729D01*
X013975Y013889D02*
X012575Y013889D01*
X012575Y014049D02*
X013975Y014049D01*
X013975Y014209D02*
X012469Y014209D01*
X012515Y014164D02*
X012515Y016504D01*
X012569Y016449D02*
X012059Y016449D01*
X012035Y016474D02*
X012035Y016959D01*
X012089Y016929D02*
X011250Y016929D01*
X011235Y016938D02*
X011235Y016971D01*
X011235Y016875D02*
X011235Y016814D01*
X011395Y016814D02*
X011395Y017142D01*
X011448Y017089D02*
X011313Y017089D01*
X011075Y017063D02*
X011075Y017030D01*
X010875Y016634D02*
X010675Y016834D01*
X010675Y018184D01*
X011290Y018799D01*
X012042Y018799D01*
X012045Y018796D01*
X012472Y018369D01*
X012665Y018369D01*
X013045Y018014D02*
X013045Y017569D01*
X013340Y017569D02*
X013558Y017569D01*
X013558Y017623D02*
X013558Y017494D01*
X013806Y017494D01*
X013806Y017436D01*
X013558Y017436D01*
X013558Y017307D01*
X013573Y017270D01*
X013601Y017242D01*
X013629Y017231D01*
X013600Y017231D01*
X013518Y017149D01*
X013518Y016892D01*
X013215Y017194D01*
X013215Y017254D01*
X013258Y017254D01*
X013340Y017336D01*
X013340Y017802D01*
X013267Y017874D01*
X013304Y017962D01*
X013304Y018054D01*
X013638Y018054D01*
X013651Y018067D01*
X013651Y017714D01*
X013662Y017703D01*
X013638Y017703D01*
X013601Y017687D01*
X013573Y017659D01*
X013558Y017623D01*
X013635Y017701D02*
X013635Y018054D01*
X013651Y018049D02*
X013304Y018049D01*
X013315Y018054D02*
X013315Y017827D01*
X013273Y017889D02*
X013651Y017889D01*
X013651Y017729D02*
X013340Y017729D01*
X013340Y017409D02*
X013558Y017409D01*
X013635Y017436D02*
X013635Y017494D01*
X013795Y017494D02*
X013795Y017436D01*
X013864Y017436D02*
X013864Y017494D01*
X014112Y017494D01*
X014112Y017623D01*
X014108Y017632D01*
X014125Y017632D01*
X014207Y017714D01*
X014207Y017743D01*
X014218Y017715D01*
X014246Y017687D01*
X014283Y017672D01*
X014412Y017672D01*
X014412Y017920D01*
X014470Y017920D01*
X014470Y017672D01*
X014598Y017672D01*
X014635Y017687D01*
X014663Y017715D01*
X014670Y017731D01*
X014670Y017182D01*
X014588Y017149D01*
X014515Y017076D01*
X014476Y016980D01*
X014476Y016877D01*
X014515Y016782D01*
X014588Y016709D01*
X014683Y016670D01*
X014786Y016670D01*
X014865Y016702D01*
X014865Y015552D01*
X014945Y015471D01*
X014964Y015452D01*
X014964Y015452D01*
X015990Y014427D01*
X015971Y014408D01*
X015999Y014380D01*
X015999Y014380D01*
X015999Y014380D01*
X015971Y014408D01*
X015948Y014386D01*
X014590Y015744D01*
X014590Y016049D01*
X014005Y016634D01*
X014005Y016675D01*
X014070Y016675D01*
X014152Y016757D01*
X014152Y017149D01*
X014070Y017231D01*
X014041Y017231D01*
X014069Y017242D01*
X014097Y017270D01*
X014112Y017307D01*
X014112Y017436D01*
X013864Y017436D01*
X013955Y017436D02*
X013955Y017494D01*
X014112Y017569D02*
X014670Y017569D01*
X014595Y017672D02*
X014595Y017151D01*
X014528Y017089D02*
X014152Y017089D01*
X014115Y017186D02*
X014115Y017632D01*
X014207Y017729D02*
X014212Y017729D01*
X014275Y017675D02*
X014275Y016364D01*
X014350Y016289D02*
X014865Y016289D01*
X014865Y016449D02*
X014190Y016449D01*
X014115Y016524D02*
X014115Y016720D01*
X014152Y016769D02*
X014528Y016769D01*
X014595Y016707D02*
X014595Y015739D01*
X014590Y015809D02*
X014865Y015809D01*
X014865Y015969D02*
X014590Y015969D01*
X014510Y016129D02*
X014865Y016129D01*
X014435Y016204D02*
X014435Y017920D01*
X014412Y017889D02*
X014470Y017889D01*
X014470Y017978D02*
X014412Y017978D01*
X014412Y018226D01*
X014283Y018226D01*
X014246Y018211D01*
X014218Y018183D01*
X014207Y018155D01*
X014207Y018184D01*
X014125Y018266D01*
X014049Y018266D01*
X014049Y018360D01*
X014088Y018399D01*
X014088Y018681D01*
X014182Y018587D01*
X014182Y018399D01*
X014264Y018317D01*
X014518Y018317D01*
X014600Y018399D01*
X014600Y018830D01*
X014518Y018912D01*
X014337Y018912D01*
X014240Y019009D01*
X014241Y019009D01*
X014240Y019009D02*
X014223Y019026D01*
X014224Y019026D01*
X014264Y018986D01*
X014518Y018986D01*
X014589Y019058D01*
X014620Y018982D01*
X014670Y018933D01*
X014670Y018167D01*
X014663Y018183D01*
X014635Y018211D01*
X014598Y018226D01*
X014470Y018226D01*
X014470Y017978D01*
X014435Y017978D02*
X014435Y018317D01*
X014412Y018209D02*
X014470Y018209D01*
X014595Y018226D02*
X014595Y018394D01*
X014570Y018369D02*
X014670Y018369D01*
X014670Y018529D02*
X014600Y018529D01*
X014600Y018689D02*
X014670Y018689D01*
X014670Y018849D02*
X014580Y018849D01*
X014595Y018835D02*
X014595Y019044D01*
X014609Y019009D02*
X014540Y019009D01*
X014435Y018986D02*
X014435Y018912D01*
X014275Y018974D02*
X014275Y018986D01*
X014224Y019026D02*
X014224Y019026D01*
X014135Y019284D02*
X014135Y019284D01*
X014135Y019541D01*
X014211Y019541D01*
X014211Y019789D01*
X013368Y019789D01*
X013198Y019464D01*
X013238Y019504D01*
X013333Y019543D01*
X013436Y019543D01*
X013532Y019504D01*
X013581Y019454D01*
X013670Y019454D01*
X013670Y019499D01*
X013752Y019581D01*
X014006Y019581D01*
X014046Y019541D01*
X014046Y019541D01*
X014135Y019541D01*
X014135Y019284D01*
X014135Y019329D02*
X014135Y019329D01*
X014135Y019489D02*
X014135Y019489D01*
X014115Y019541D02*
X014115Y019789D01*
X013955Y019789D02*
X013955Y019581D01*
X013795Y019581D02*
X013795Y019789D01*
X013635Y019789D02*
X013635Y019454D01*
X013670Y019489D02*
X013546Y019489D01*
X013475Y019527D02*
X013475Y019789D01*
X013315Y019687D02*
X013315Y019535D01*
X013223Y019489D02*
X013211Y019489D01*
X013295Y019649D02*
X014211Y019649D01*
X014391Y019284D02*
X014391Y020125D01*
X014395Y020129D01*
X014040Y020699D02*
X015975Y020699D01*
X017025Y020699D01*
X017095Y020629D01*
X017765Y020629D01*
X017965Y020829D01*
X017965Y021494D01*
X017512Y021947D01*
X017507Y021947D01*
X017085Y022369D01*
X014269Y022369D01*
X013917Y022018D01*
X013917Y022011D01*
X013834Y021790D02*
X013789Y021790D01*
X014142Y021579D01*
X014315Y021579D01*
X014884Y022147D01*
X016975Y022149D01*
X017465Y021659D01*
X017465Y021460D01*
X017824Y021889D02*
X018219Y021889D01*
X018219Y021893D02*
X018219Y021858D01*
X018154Y021858D01*
X018072Y021776D01*
X018072Y021642D01*
X017586Y022127D01*
X017581Y022127D01*
X017159Y022549D01*
X017010Y022549D01*
X014813Y022549D01*
X015030Y022964D01*
X015020Y023594D01*
X015023Y023993D01*
X015565Y023993D01*
X015745Y024068D01*
X015745Y024068D01*
X015884Y024206D01*
X015884Y024206D01*
X015913Y024277D01*
X018078Y024271D01*
X018105Y024206D01*
X018243Y024069D01*
X018423Y023994D01*
X020314Y023994D01*
X020570Y023957D01*
X020694Y023913D01*
X020814Y023867D01*
X020934Y023802D01*
X021042Y023739D01*
X021140Y023659D01*
X021239Y023569D01*
X021404Y023368D01*
X021440Y023301D01*
X021439Y023298D01*
X021468Y023248D01*
X021496Y023197D01*
X021498Y023197D01*
X022797Y020951D01*
X022795Y020950D01*
X022786Y020951D01*
X022744Y020920D01*
X022699Y020893D01*
X022697Y020885D01*
X022692Y020881D01*
X022675Y020880D01*
X022646Y020846D01*
X022610Y020819D01*
X022607Y020802D01*
X022587Y020779D01*
X022562Y020769D01*
X022549Y020736D01*
X022526Y020709D01*
X022528Y020682D01*
X022514Y020648D01*
X022496Y020633D01*
X022493Y020594D01*
X022478Y020557D01*
X022487Y020536D01*
X022485Y020517D01*
X022475Y020504D01*
X022479Y020459D01*
X022475Y020414D01*
X022485Y020401D01*
X022487Y020382D01*
X022478Y020361D01*
X022493Y020324D01*
X022496Y020285D01*
X022514Y020270D01*
X022528Y020236D01*
X022526Y020209D01*
X022549Y020182D01*
X022562Y020149D01*
X022587Y020139D01*
X022607Y020116D01*
X022610Y020099D01*
X022646Y020072D01*
X022675Y020038D01*
X022692Y020037D01*
X022704Y020028D01*
X022711Y020011D01*
X022751Y019993D01*
X022786Y019967D01*
X022804Y019970D01*
X022824Y019960D01*
X022841Y019941D01*
X022877Y019937D01*
X022911Y019922D01*
X022935Y019931D01*
X022956Y019929D01*
X022968Y019919D01*
X023014Y019923D01*
X023060Y019919D01*
X023072Y019929D01*
X023104Y019932D01*
X023129Y019922D01*
X023162Y019937D01*
X023198Y019940D01*
X023215Y019960D01*
X023227Y019966D01*
X023237Y019964D01*
X023281Y019990D01*
X023329Y020011D01*
X023332Y020020D01*
X023333Y020020D01*
X023807Y019204D01*
X023228Y018869D01*
X023287Y019089D01*
X023214Y019214D01*
X023214Y019250D01*
X023133Y019446D01*
X022226Y020352D01*
X022024Y020555D01*
X022024Y020800D01*
X022012Y020828D01*
X022012Y020849D01*
X021997Y020864D01*
X021986Y020891D01*
X021942Y020936D01*
X021885Y020993D01*
X021885Y021608D01*
X020988Y022504D01*
X021052Y022568D01*
X021052Y022999D01*
X020970Y023081D01*
X020539Y023081D01*
X020508Y023050D01*
X020477Y023050D01*
X020477Y023056D01*
X020395Y023138D01*
X019925Y023138D01*
X019843Y023056D01*
X019843Y022816D01*
X019461Y022816D01*
X019401Y022756D01*
X019341Y022816D01*
X018949Y022816D01*
X018867Y022734D01*
X018867Y022542D01*
X018318Y021993D01*
X018219Y021893D01*
X018275Y021949D02*
X018275Y024055D01*
X018243Y024069D02*
X018243Y024069D01*
X018183Y024129D02*
X015806Y024129D01*
X015875Y024198D02*
X015875Y022549D01*
X016035Y022549D02*
X016035Y024276D01*
X016195Y024276D02*
X016195Y022549D01*
X016355Y022549D02*
X016355Y024276D01*
X016515Y024275D02*
X016515Y022549D01*
X016675Y022549D02*
X016675Y024275D01*
X016835Y024274D02*
X016835Y022549D01*
X016995Y022549D02*
X016995Y024274D01*
X017155Y024274D02*
X017155Y022549D01*
X017179Y022529D02*
X018854Y022529D01*
X018755Y022429D02*
X018755Y023994D01*
X018915Y023994D02*
X018915Y022782D01*
X018867Y022689D02*
X014886Y022689D01*
X014915Y022744D02*
X014915Y022549D01*
X015075Y022549D02*
X015075Y023993D01*
X015023Y023969D02*
X020489Y023969D01*
X020515Y023965D02*
X020515Y023591D01*
X020513Y023588D02*
X020497Y023552D01*
X020497Y023413D01*
X020716Y023413D01*
X020716Y023335D01*
X020794Y023335D01*
X020794Y023413D01*
X021012Y023413D01*
X021012Y023552D01*
X020997Y023588D01*
X020969Y023616D01*
X020932Y023632D01*
X020794Y023632D01*
X020794Y023413D01*
X020716Y023413D01*
X020716Y023632D01*
X020577Y023632D01*
X020541Y023616D01*
X020513Y023588D01*
X020497Y023489D02*
X015021Y023489D01*
X015020Y023649D02*
X021151Y023649D01*
X021155Y023646D02*
X021155Y022338D01*
X021123Y022369D02*
X021977Y022369D01*
X021955Y022407D02*
X021955Y020923D01*
X021948Y020929D02*
X022756Y020929D01*
X022755Y020928D02*
X022755Y021024D01*
X022717Y021089D02*
X021885Y021089D01*
X021885Y021249D02*
X022625Y021249D01*
X022595Y021301D02*
X022595Y020788D01*
X022563Y020769D02*
X022024Y020769D01*
X022024Y020609D02*
X022494Y020609D01*
X022478Y020449D02*
X022130Y020449D01*
X022115Y020464D02*
X022115Y022131D01*
X022069Y022209D02*
X021283Y022209D01*
X021315Y022178D02*
X021315Y023477D01*
X021305Y023489D02*
X021012Y023489D01*
X020995Y023413D02*
X020995Y023335D01*
X021012Y023335D02*
X020794Y023335D01*
X020794Y023117D01*
X020932Y023117D01*
X020969Y023132D01*
X020997Y023160D01*
X021012Y023197D01*
X021012Y023335D01*
X021012Y023329D02*
X021425Y023329D01*
X021475Y023236D02*
X021475Y022018D01*
X021443Y022049D02*
X022162Y022049D01*
X022255Y021889D02*
X021603Y021889D01*
X021635Y021858D02*
X021635Y022960D01*
X021607Y023009D02*
X021042Y023009D01*
X020995Y023057D02*
X020995Y023158D01*
X021001Y023169D02*
X021514Y023169D01*
X021699Y022849D02*
X021052Y022849D01*
X021052Y022689D02*
X021792Y022689D01*
X021795Y022684D02*
X021795Y021698D01*
X021763Y021729D02*
X022347Y021729D01*
X022275Y021854D02*
X022275Y020304D01*
X022290Y020289D02*
X022496Y020289D01*
X022435Y020144D02*
X022435Y021577D01*
X022440Y021569D02*
X021885Y021569D01*
X021885Y021409D02*
X022532Y021409D01*
X021942Y020936D02*
X021942Y020936D01*
X021524Y020646D02*
X021524Y020636D01*
X021392Y020581D01*
X021280Y020469D01*
X017859Y020469D01*
X017945Y020554D01*
X018039Y020649D01*
X018145Y020754D01*
X018145Y020856D01*
X018155Y020846D01*
X018192Y020830D01*
X018360Y020830D01*
X018360Y021039D01*
X018418Y021039D01*
X018418Y021097D01*
X018666Y021097D01*
X018666Y021226D01*
X018651Y021263D01*
X018623Y021291D01*
X018595Y021302D01*
X018624Y021302D01*
X018678Y021356D01*
X018748Y021286D01*
X018743Y021281D01*
X018728Y021244D01*
X018728Y021107D01*
X018965Y021107D01*
X018965Y021032D01*
X018728Y021032D01*
X018728Y020895D01*
X018743Y020858D01*
X018771Y020830D01*
X018808Y020814D01*
X018965Y020814D01*
X018965Y021032D01*
X019040Y021032D01*
X019040Y020814D01*
X019198Y020814D01*
X019234Y020830D01*
X019262Y020858D01*
X019278Y020895D01*
X019278Y021032D01*
X019040Y021032D01*
X019040Y021107D01*
X019278Y021107D01*
X019278Y021201D01*
X019301Y021192D01*
X019404Y021192D01*
X019495Y021229D01*
X019570Y021154D01*
X019940Y021154D01*
X019985Y021077D01*
X019995Y021052D01*
X020005Y021042D01*
X020016Y021023D01*
X020049Y020998D01*
X020068Y020979D01*
X020081Y020974D01*
X020099Y020961D01*
X020138Y020950D01*
X020163Y020940D01*
X020178Y020940D01*
X020199Y020934D01*
X020239Y020940D01*
X020266Y020940D01*
X020280Y020945D01*
X020301Y020948D01*
X020337Y020969D01*
X020362Y020979D01*
X020372Y020989D01*
X020390Y021000D01*
X020415Y021033D01*
X020434Y021052D01*
X020440Y021065D01*
X020453Y021083D01*
X020463Y021123D01*
X020474Y021147D01*
X020474Y021162D01*
X020479Y021183D01*
X020474Y021224D01*
X020474Y021250D01*
X020468Y021264D01*
X020465Y021285D01*
X020445Y021321D01*
X020434Y021346D01*
X020424Y021356D01*
X020378Y021435D01*
X020365Y021466D01*
X020352Y021479D01*
X020343Y021495D01*
X020316Y021515D01*
X020235Y021596D01*
X020162Y021669D01*
X020074Y021706D01*
X020036Y021744D01*
X019570Y021744D01*
X019497Y021671D01*
X019493Y021673D01*
X019725Y021904D01*
X019769Y021949D01*
X019875Y022054D01*
X019875Y022120D01*
X019875Y021744D01*
X020035Y021744D02*
X020035Y022070D01*
X019925Y022070D02*
X020395Y022070D01*
X020477Y022152D01*
X020477Y022158D01*
X020797Y022158D01*
X021505Y021450D01*
X021505Y021354D01*
X021444Y021379D01*
X021068Y021379D01*
X021046Y021388D01*
X020943Y021388D01*
X020848Y021349D01*
X020775Y021276D01*
X020736Y021180D01*
X020736Y021077D01*
X020775Y020982D01*
X020848Y020909D01*
X020943Y020870D01*
X021046Y020870D01*
X021068Y020879D01*
X021291Y020879D01*
X021524Y020646D01*
X021475Y020616D02*
X021475Y020695D01*
X021459Y020609D02*
X017999Y020609D01*
X017955Y020564D02*
X017955Y020469D01*
X018115Y020469D02*
X018115Y020724D01*
X018145Y020769D02*
X021401Y020769D01*
X021315Y020855D02*
X021315Y020504D01*
X021155Y020469D02*
X021155Y020879D01*
X020995Y020870D02*
X020995Y020469D01*
X020835Y020469D02*
X020835Y020923D01*
X020828Y020929D02*
X019278Y020929D01*
X019235Y020830D02*
X019235Y020469D01*
X019395Y020469D02*
X019395Y021192D01*
X019555Y021169D02*
X019555Y020469D01*
X019715Y020469D02*
X019715Y021154D01*
X019875Y021154D02*
X019875Y020469D01*
X020035Y020469D02*
X020035Y021009D01*
X019978Y021089D02*
X019040Y021089D01*
X019075Y021107D02*
X019075Y021032D01*
X019003Y021069D02*
X019001Y021068D01*
X018389Y021068D01*
X018418Y021089D02*
X018965Y021089D01*
X018915Y021107D02*
X018915Y021032D01*
X018965Y020929D02*
X019040Y020929D01*
X019075Y020814D02*
X019075Y020469D01*
X018915Y020469D02*
X018915Y020814D01*
X018755Y020846D02*
X018755Y020469D01*
X018595Y020469D02*
X018595Y020834D01*
X018586Y020830D02*
X018623Y020846D01*
X018651Y020874D01*
X018666Y020910D01*
X018666Y021039D01*
X018418Y021039D01*
X018418Y020830D01*
X018586Y020830D01*
X018666Y020929D02*
X018728Y020929D01*
X018755Y021032D02*
X018755Y021107D01*
X018730Y021249D02*
X018656Y021249D01*
X018595Y021097D02*
X018595Y021039D01*
X018435Y021039D02*
X018435Y021097D01*
X018418Y020929D02*
X018360Y020929D01*
X018435Y020830D02*
X018435Y020469D01*
X018275Y020469D02*
X018275Y020830D01*
X017464Y020949D02*
X016120Y020949D01*
X015975Y021094D01*
X015739Y021202D02*
X015657Y021284D01*
X015041Y021284D01*
X014959Y021202D01*
X014959Y021189D01*
X014807Y021189D01*
X014777Y021220D01*
X014681Y021259D01*
X014578Y021259D01*
X014483Y021220D01*
X014410Y021147D01*
X014371Y021052D01*
X014371Y020949D01*
X014400Y020879D01*
X014199Y020879D01*
X014179Y020926D01*
X014107Y020999D01*
X014020Y021034D01*
X014106Y021199D01*
X014459Y021199D01*
X014565Y021304D01*
X014565Y021304D01*
X015019Y021759D01*
X015829Y021759D01*
X015828Y021759D01*
X015755Y021686D01*
X015716Y021590D01*
X015716Y021487D01*
X015755Y021392D01*
X015828Y021319D01*
X015835Y021316D01*
X015828Y021314D01*
X015755Y021241D01*
X015739Y021202D01*
X015715Y021227D02*
X015715Y021759D01*
X015798Y021729D02*
X014989Y021729D01*
X015075Y021759D02*
X015075Y021284D01*
X015006Y021249D02*
X014706Y021249D01*
X014755Y021229D02*
X014755Y021494D01*
X014829Y021569D02*
X015716Y021569D01*
X015748Y021409D02*
X014669Y021409D01*
X014595Y021334D02*
X014595Y021259D01*
X014553Y021249D02*
X014509Y021249D01*
X014435Y021199D02*
X014435Y021172D01*
X014386Y021089D02*
X014049Y021089D01*
X014115Y020990D02*
X014115Y021199D01*
X014275Y021199D02*
X014275Y020879D01*
X014176Y020929D02*
X014379Y020929D01*
X014040Y020699D02*
X013960Y020779D01*
X013995Y021379D02*
X013661Y021568D01*
X013995Y021379D02*
X014385Y021379D01*
X014945Y021939D01*
X016715Y021939D01*
X016935Y021709D01*
X016935Y021383D01*
X016931Y021379D01*
X016419Y021379D02*
X016135Y021379D01*
X015975Y021539D01*
X015763Y021249D02*
X015692Y021249D01*
X015555Y021284D02*
X015555Y021759D01*
X015395Y021759D02*
X015395Y021284D01*
X015235Y021284D02*
X015235Y021759D01*
X014915Y021654D02*
X014915Y021189D01*
X013895Y020131D02*
X013895Y020129D01*
X013406Y021125D02*
X012959Y021385D01*
X012918Y021364D01*
X012654Y022150D01*
X012918Y021364D02*
X012758Y021285D01*
X012662Y021117D01*
X012561Y020643D01*
X011926Y020888D01*
X012685Y020119D02*
X012725Y020129D01*
X011795Y018363D02*
X012495Y017663D01*
X012050Y017674D02*
X011801Y017674D01*
X011545Y017930D01*
X011295Y017497D02*
X011663Y017129D01*
X011555Y016982D02*
X011555Y016814D01*
X011715Y016794D02*
X011715Y016949D01*
X011875Y016959D02*
X011875Y016634D01*
X011899Y016609D02*
X012409Y016609D01*
X012355Y016664D02*
X012355Y014324D01*
X012309Y014369D02*
X013975Y014369D01*
X013955Y014459D02*
X013955Y012124D01*
X013795Y012124D02*
X013795Y014619D01*
X013724Y014689D02*
X011989Y014689D01*
X012035Y014644D02*
X012035Y015214D01*
X011989Y015169D02*
X013345Y015169D01*
X013345Y015329D02*
X012149Y015329D01*
X012195Y015374D02*
X012195Y014484D01*
X012149Y014529D02*
X013884Y014529D01*
X013635Y014779D02*
X013635Y012124D01*
X013475Y012124D02*
X013475Y014939D01*
X013404Y015009D02*
X011975Y015009D01*
X011975Y014849D02*
X013564Y014849D01*
X013315Y015420D02*
X013315Y012124D01*
X013155Y012124D02*
X013155Y015359D01*
X012995Y015359D02*
X012995Y012124D01*
X012995Y011784D02*
X012995Y011774D01*
X012835Y011784D02*
X012835Y010153D01*
X012791Y010209D02*
X014931Y010209D01*
X014931Y010369D02*
X014898Y010369D01*
X014915Y010386D02*
X014915Y009811D01*
X015075Y009810D02*
X015075Y010117D01*
X015235Y010117D02*
X015235Y009808D01*
X015395Y009807D02*
X015395Y010117D01*
X015555Y010117D02*
X015555Y009806D01*
X015715Y009804D02*
X015715Y010117D01*
X015875Y010117D02*
X015875Y009803D01*
X014755Y009813D02*
X014755Y010329D01*
X014595Y010329D02*
X014595Y009814D01*
X014435Y009815D02*
X014435Y010361D01*
X014427Y010369D02*
X013953Y010369D01*
X013955Y010371D02*
X013955Y009820D01*
X014115Y009818D02*
X014115Y010369D01*
X014275Y010369D02*
X014275Y009817D01*
X013795Y009821D02*
X013795Y010329D01*
X013635Y010329D02*
X013635Y009822D01*
X013475Y009824D02*
X013475Y010376D01*
X013482Y010369D02*
X012673Y010369D01*
X012675Y010366D02*
X012675Y011784D01*
X012515Y011786D02*
X012515Y010663D01*
X012501Y010689D02*
X013440Y010689D01*
X013440Y010849D02*
X012414Y010849D01*
X012587Y010529D02*
X013440Y010529D01*
X013315Y009825D02*
X013315Y011440D01*
X013406Y011489D02*
X013649Y011489D01*
X013635Y011474D02*
X013635Y011609D01*
X013475Y011579D02*
X013475Y011232D01*
X013555Y011329D02*
X012152Y011329D01*
X013240Y011689D02*
X013340Y011789D01*
X014250Y011789D01*
X014455Y011994D01*
X014455Y012023D01*
X014435Y011309D02*
X014435Y011247D01*
X014466Y011279D02*
X014398Y011210D01*
X014384Y011223D01*
X014347Y011239D01*
X014219Y011239D01*
X014219Y010833D01*
X014161Y010833D01*
X014161Y011239D01*
X014032Y011239D01*
X013995Y011223D01*
X013982Y011210D01*
X013916Y011275D01*
X013950Y011309D01*
X014492Y011309D01*
X014492Y011279D01*
X014466Y011279D01*
X014275Y011309D02*
X014275Y011239D01*
X014219Y011169D02*
X014161Y011169D01*
X014115Y011239D02*
X014115Y011309D01*
X013955Y011309D02*
X013955Y011237D01*
X014161Y011009D02*
X014219Y011009D01*
X014219Y010849D02*
X014161Y010849D01*
X014161Y010689D02*
X014219Y010689D01*
X014219Y010529D02*
X014161Y010529D01*
X015519Y012149D02*
X015529Y012172D01*
X015529Y012243D01*
X015530Y012244D01*
X015553Y012220D01*
X015572Y012201D01*
X015519Y012149D01*
X015555Y012184D02*
X015555Y012219D01*
X015553Y012220D02*
X015581Y012248D01*
X015581Y012248D01*
X015581Y012248D01*
X015553Y012220D01*
X015555Y012222D02*
X015555Y012222D01*
X016665Y011135D02*
X016698Y011135D01*
X017023Y011460D01*
X017140Y011343D01*
X017293Y011190D01*
X017330Y011175D01*
X017370Y011175D01*
X017406Y011190D01*
X017435Y011219D01*
X017465Y011147D01*
X017538Y011074D01*
X017633Y011035D01*
X017708Y011035D01*
X017835Y010909D01*
X017934Y010809D01*
X018208Y010809D01*
X018258Y010759D01*
X018278Y010751D01*
X018083Y010751D01*
X018001Y010669D01*
X018001Y010559D01*
X017695Y010559D01*
X017588Y010667D01*
X017588Y010844D01*
X017506Y010926D01*
X017075Y010926D01*
X016995Y010847D01*
X016995Y011432D01*
X016892Y011329D02*
X017154Y011329D01*
X017155Y011328D02*
X017155Y010926D01*
X017315Y010926D02*
X017315Y011181D01*
X017456Y011169D02*
X016732Y011169D01*
X016675Y011135D02*
X016675Y010926D01*
X016665Y010926D02*
X016665Y011135D01*
X016665Y011009D02*
X017734Y011009D01*
X017795Y010949D02*
X017795Y010559D01*
X017955Y010559D02*
X017955Y010809D01*
X017894Y010849D02*
X017583Y010849D01*
X017475Y010926D02*
X017475Y011138D01*
X017635Y011035D02*
X017635Y010619D01*
X017588Y010689D02*
X018021Y010689D01*
X018115Y010751D02*
X018115Y010809D01*
X018275Y010752D02*
X018275Y010751D01*
X018791Y010434D02*
X018795Y010438D01*
X017475Y010299D02*
X017475Y009957D01*
X016995Y010847D02*
X016915Y010926D01*
X016665Y010926D01*
X016835Y010926D02*
X016835Y011272D01*
X017140Y011343D02*
X017251Y011454D01*
X017140Y011343D01*
X017155Y011358D02*
X017155Y011358D01*
X017251Y011454D02*
X017251Y011454D01*
X016997Y010849D02*
X016992Y010849D01*
X018965Y012767D02*
X018965Y012808D01*
X018944Y012830D01*
X018956Y012830D01*
X019052Y012869D01*
X019124Y012942D01*
X019164Y013037D01*
X019164Y013140D01*
X019124Y013236D01*
X019052Y013309D01*
X018956Y013348D01*
X018911Y013348D01*
X018965Y013402D01*
X018965Y013518D01*
X018800Y013684D01*
X018743Y013684D01*
X018718Y013709D01*
X019205Y013709D01*
X019205Y013696D01*
X019287Y013614D01*
X019903Y013614D01*
X019985Y013696D01*
X019985Y014062D01*
X019945Y014101D01*
X019990Y014146D01*
X019990Y014512D01*
X019945Y014556D01*
X019985Y014596D01*
X019985Y014962D01*
X019943Y015004D01*
X019985Y015046D01*
X019985Y015304D01*
X020185Y015304D01*
X020285Y015404D01*
X020437Y015556D01*
X020437Y016174D01*
X020463Y016174D01*
X020545Y016256D01*
X020545Y016284D01*
X020556Y016257D01*
X020585Y016229D01*
X020621Y016214D01*
X020750Y016214D01*
X020750Y016462D01*
X020808Y016462D01*
X020808Y016520D01*
X020750Y016520D01*
X020750Y016768D01*
X020621Y016768D01*
X020585Y016753D01*
X020556Y016724D01*
X020545Y016697D01*
X020545Y016726D01*
X020463Y016808D01*
X020071Y016808D01*
X019989Y016726D01*
X019989Y016256D01*
X019994Y016251D01*
X019885Y016251D01*
X019885Y016003D01*
X020093Y016003D01*
X020093Y016171D01*
X020092Y016174D01*
X020097Y016174D01*
X020097Y015697D01*
X020044Y015644D01*
X019121Y015644D01*
X019133Y015672D01*
X019148Y015657D01*
X019540Y015657D01*
X019622Y015739D01*
X019622Y015768D01*
X019633Y015740D01*
X019661Y015712D01*
X019698Y015697D01*
X019827Y015697D01*
X019827Y015945D01*
X019885Y015945D01*
X019885Y016003D01*
X019827Y016003D01*
X019827Y016251D01*
X019698Y016251D01*
X019661Y016236D01*
X019633Y016208D01*
X019622Y016180D01*
X019622Y016209D01*
X019540Y016291D01*
X019148Y016291D01*
X019066Y016209D01*
X019066Y016144D01*
X019009Y016144D01*
X018910Y016044D01*
X018898Y016033D01*
X018843Y016033D01*
X018748Y015994D01*
X018675Y015921D01*
X018636Y015825D01*
X018636Y015722D01*
X018668Y015644D01*
X018279Y015644D01*
X018180Y015544D01*
X018025Y015389D01*
X018025Y015209D01*
X017621Y014806D01*
X017601Y014825D01*
X017573Y014797D01*
X017573Y014797D01*
X017573Y014797D01*
X017601Y014826D01*
X017582Y014845D01*
X017682Y014945D01*
X017752Y014974D01*
X017824Y015047D01*
X017864Y015142D01*
X017864Y015245D01*
X017831Y015325D01*
X017905Y015399D01*
X018065Y015559D01*
X018065Y016367D01*
X017993Y016439D01*
X018001Y016443D01*
X018015Y016457D01*
X018029Y016471D01*
X018048Y016505D01*
X018051Y016514D01*
X018128Y016514D01*
X018240Y016625D01*
X018240Y016783D01*
X017983Y017040D01*
X018035Y017092D01*
X018200Y017092D01*
X018233Y017059D01*
X018328Y017020D01*
X018384Y017020D01*
X018592Y016812D01*
X018383Y016602D01*
X018383Y016461D01*
X018482Y016362D01*
X018623Y016362D01*
X018902Y016640D01*
X018950Y016592D01*
X019342Y016592D01*
X019424Y016674D01*
X019424Y016703D01*
X019435Y016675D01*
X019464Y016647D01*
X019500Y016632D01*
X019629Y016632D01*
X019629Y016880D01*
X019687Y016880D01*
X019687Y016938D01*
X019896Y016938D01*
X019896Y017106D01*
X019889Y017122D01*
X019984Y017122D01*
X019984Y017379D01*
X020064Y017379D01*
X020064Y017122D01*
X020261Y017122D01*
X020298Y017137D01*
X020326Y017165D01*
X020341Y017202D01*
X020341Y017379D01*
X020064Y017379D01*
X020064Y017459D01*
X020341Y017459D01*
X020341Y017636D01*
X020326Y017672D01*
X020298Y017701D01*
X020261Y017716D01*
X020238Y017716D01*
X020291Y017769D01*
X020421Y017769D01*
X020557Y017633D01*
X020557Y017248D01*
X020639Y017166D01*
X020972Y017166D01*
X021024Y017217D01*
X021052Y017206D01*
X021166Y017206D01*
X021166Y017528D01*
X021194Y017528D01*
X021194Y017206D01*
X021308Y017206D01*
X021336Y017217D01*
X021388Y017166D01*
X021720Y017166D01*
X021765Y017211D01*
X021765Y017141D01*
X021750Y017141D01*
X021668Y017059D01*
X021668Y017030D01*
X021656Y017057D01*
X021628Y017086D01*
X021592Y017101D01*
X021395Y017101D01*
X021395Y016844D01*
X021315Y016844D01*
X021315Y016764D01*
X021039Y016764D01*
X021039Y016587D01*
X021054Y016550D01*
X021082Y016522D01*
X021119Y016507D01*
X021315Y016507D01*
X021315Y016764D01*
X021395Y016764D01*
X021395Y016507D01*
X021592Y016507D01*
X021628Y016522D01*
X021656Y016550D01*
X021668Y016578D01*
X021668Y016549D01*
X021750Y016467D01*
X022299Y016467D01*
X022381Y016549D01*
X022381Y016966D01*
X022859Y016488D01*
X022906Y016441D01*
X022906Y016428D01*
X023046Y016289D01*
X021015Y016289D01*
X021017Y016294D02*
X021017Y016462D01*
X020808Y016462D01*
X020808Y016214D01*
X020937Y016214D01*
X020973Y016229D01*
X021002Y016257D01*
X021017Y016294D01*
X020995Y016250D02*
X020995Y015463D01*
X020996Y015463D02*
X020893Y015463D01*
X020798Y015424D01*
X020725Y015351D01*
X020686Y015255D01*
X020686Y015152D01*
X020725Y015057D01*
X020798Y014984D01*
X020893Y014945D01*
X020963Y014945D01*
X021010Y014899D01*
X021010Y014679D01*
X020960Y014629D01*
X020938Y014576D01*
X020492Y014576D01*
X020410Y014494D01*
X020410Y014068D01*
X020437Y014041D01*
X020364Y013969D01*
X020265Y013869D01*
X020265Y013383D01*
X020238Y013383D01*
X020156Y013301D01*
X020156Y012830D01*
X020238Y012748D01*
X020262Y012748D01*
X020247Y012742D01*
X020219Y012714D01*
X020204Y012677D01*
X020204Y012509D01*
X020412Y012509D01*
X020412Y012451D01*
X020470Y012451D01*
X020470Y012203D01*
X020599Y012203D01*
X020636Y012218D01*
X020664Y012246D01*
X020675Y012274D01*
X020675Y012245D01*
X020757Y012163D01*
X020783Y012163D01*
X020783Y012140D01*
X020975Y011949D01*
X020975Y011572D01*
X020936Y011588D01*
X020857Y011588D01*
X020894Y011677D01*
X020894Y011780D01*
X020854Y011876D01*
X020782Y011949D01*
X020686Y011988D01*
X020616Y011988D01*
X020405Y012199D01*
X019552Y012199D01*
X019597Y012244D01*
X019597Y012273D01*
X019608Y012245D01*
X019636Y012217D01*
X019673Y012202D01*
X019802Y012202D01*
X019802Y012450D01*
X019860Y012450D01*
X019860Y012508D01*
X020068Y012508D01*
X020068Y012676D01*
X020053Y012713D01*
X020025Y012741D01*
X019988Y012756D01*
X019860Y012756D01*
X019860Y012508D01*
X019802Y012508D01*
X019802Y012756D01*
X019673Y012756D01*
X019636Y012741D01*
X019608Y012713D01*
X019597Y012685D01*
X019597Y012714D01*
X019515Y012796D01*
X019123Y012796D01*
X019041Y012714D01*
X019041Y012691D01*
X018965Y012767D01*
X018965Y012769D02*
X019096Y012769D01*
X019075Y012748D02*
X019075Y012893D01*
X019111Y012929D02*
X020156Y012929D01*
X020195Y012792D02*
X020195Y012199D01*
X020219Y012246D02*
X020247Y012218D01*
X020284Y012203D01*
X020412Y012203D01*
X020412Y012451D01*
X020204Y012451D01*
X020204Y012283D01*
X020219Y012246D01*
X020204Y012289D02*
X020068Y012289D01*
X020068Y012282D02*
X020068Y012450D01*
X019860Y012450D01*
X019860Y012202D01*
X019988Y012202D01*
X020025Y012217D01*
X020053Y012245D01*
X020068Y012282D01*
X020035Y012227D02*
X020035Y012199D01*
X019875Y012199D02*
X019875Y012202D01*
X019860Y012289D02*
X019802Y012289D01*
X019715Y012202D02*
X019715Y012199D01*
X019555Y012199D02*
X019555Y012202D01*
X019802Y012449D02*
X019860Y012449D01*
X019875Y012450D02*
X019875Y012508D01*
X019860Y012609D02*
X019802Y012609D01*
X019875Y012756D02*
X019875Y013614D01*
X019985Y013729D02*
X020265Y013729D01*
X020265Y013569D02*
X018914Y013569D01*
X018915Y013569D02*
X018915Y013709D01*
X019075Y013709D02*
X019075Y013285D01*
X019111Y013249D02*
X020156Y013249D01*
X020195Y013339D02*
X020195Y015314D01*
X020210Y015329D02*
X020716Y015329D01*
X020835Y015439D02*
X020835Y016214D01*
X020808Y016289D02*
X020750Y016289D01*
X020675Y016214D02*
X020675Y014576D01*
X020835Y014576D02*
X020835Y014969D01*
X020773Y015009D02*
X019948Y015009D01*
X019985Y015169D02*
X020686Y015169D01*
X020995Y014914D02*
X020995Y014664D01*
X021010Y014689D02*
X019985Y014689D01*
X019985Y014849D02*
X021010Y014849D01*
X021203Y015258D02*
X021164Y015351D01*
X021092Y015424D01*
X020996Y015463D01*
X021155Y015360D02*
X021155Y016507D01*
X021017Y016520D02*
X021017Y016688D01*
X021002Y016724D01*
X020973Y016753D01*
X020937Y016768D01*
X020808Y016768D01*
X020808Y016520D01*
X021017Y016520D01*
X020995Y016520D02*
X020995Y016462D01*
X021017Y016449D02*
X022898Y016449D01*
X022915Y016420D02*
X022915Y014615D01*
X022989Y014689D02*
X022396Y014689D01*
X022396Y014699D02*
X022351Y014809D01*
X022267Y014893D01*
X022157Y014938D01*
X022038Y014938D01*
X021929Y014893D01*
X021845Y014809D01*
X021806Y014716D01*
X021632Y014542D01*
X021632Y015017D01*
X021681Y015067D01*
X021721Y015162D01*
X021721Y015265D01*
X021681Y015360D01*
X021609Y015433D01*
X021513Y015473D01*
X021410Y015473D01*
X021315Y015433D01*
X021242Y015360D01*
X021203Y015265D01*
X021203Y015258D01*
X021229Y015329D02*
X021173Y015329D01*
X021315Y015433D02*
X021315Y016507D01*
X021315Y016609D02*
X021395Y016609D01*
X021475Y016507D02*
X021475Y015473D01*
X021635Y015407D02*
X021635Y016529D01*
X021795Y016467D02*
X021795Y014705D01*
X021779Y014689D02*
X021632Y014689D01*
X021635Y014545D02*
X021635Y015020D01*
X021632Y015009D02*
X023181Y015009D01*
X023181Y014881D02*
X023181Y015223D01*
X023222Y015322D01*
X023293Y015394D01*
X023293Y015551D01*
X023297Y015561D01*
X023297Y016050D01*
X023059Y016289D01*
X023046Y016289D01*
X023075Y016273D02*
X023075Y014775D01*
X023149Y014849D02*
X022311Y014849D01*
X022275Y014885D02*
X022275Y016467D01*
X022115Y016467D02*
X022115Y014938D01*
X021955Y014904D02*
X021955Y016467D01*
X022024Y016804D02*
X021945Y016884D01*
X021945Y018029D01*
X021555Y018567D02*
X021554Y018566D01*
X021005Y018198D02*
X021005Y018050D01*
X021105Y017950D01*
X021194Y017861D01*
X021194Y017556D01*
X021166Y017556D01*
X021166Y017878D01*
X021052Y017878D01*
X021024Y017867D01*
X020972Y017918D01*
X020809Y017918D01*
X020690Y018038D01*
X020578Y018149D01*
X020294Y018149D01*
X020265Y018178D01*
X020276Y018206D01*
X020276Y018320D01*
X019954Y018320D01*
X019954Y018348D01*
X020276Y018348D01*
X020276Y018462D01*
X020265Y018490D01*
X020316Y018542D01*
X020316Y018874D01*
X020234Y018956D01*
X019646Y018956D01*
X019578Y018888D01*
X019499Y018888D01*
X019320Y018709D01*
X019293Y018681D01*
X019293Y018874D01*
X019211Y018956D01*
X018622Y018956D01*
X018543Y018878D01*
X018530Y018891D01*
X018493Y018906D01*
X018365Y018906D01*
X018365Y018658D01*
X018307Y018658D01*
X018307Y018906D01*
X018178Y018906D01*
X018141Y018891D01*
X018113Y018863D01*
X018102Y018835D01*
X018102Y018864D01*
X018020Y018946D01*
X017628Y018946D01*
X017546Y018864D01*
X017546Y018581D01*
X017545Y018580D01*
X017509Y018666D01*
X017470Y018705D01*
X017470Y019205D01*
X018572Y019205D01*
X018608Y019169D01*
X018703Y019130D01*
X018806Y019130D01*
X018902Y019169D01*
X018974Y019242D01*
X019014Y019337D01*
X019014Y019440D01*
X018974Y019536D01*
X018902Y019609D01*
X018806Y019648D01*
X018703Y019648D01*
X018608Y019609D01*
X018568Y019569D01*
X018564Y019565D01*
X017182Y019565D01*
X017182Y019721D01*
X017114Y019789D01*
X019154Y019789D01*
X019154Y019666D01*
X019148Y019666D01*
X019066Y019584D01*
X019066Y019114D01*
X019148Y019032D01*
X019540Y019032D01*
X019622Y019114D01*
X019622Y019143D01*
X019633Y019115D01*
X019661Y019087D01*
X019698Y019072D01*
X019827Y019072D01*
X019827Y019320D01*
X019885Y019320D01*
X019885Y019378D01*
X020093Y019378D01*
X020093Y019546D01*
X020078Y019583D01*
X020050Y019611D01*
X020013Y019626D01*
X019885Y019626D01*
X019885Y019378D01*
X019827Y019378D01*
X019827Y019626D01*
X019698Y019626D01*
X019661Y019611D01*
X019633Y019583D01*
X019622Y019555D01*
X019622Y019584D01*
X019540Y019666D01*
X019534Y019666D01*
X019534Y019789D01*
X021280Y019789D01*
X021472Y019597D01*
X021578Y019491D01*
X021220Y019491D01*
X021160Y019431D01*
X021100Y019491D01*
X020551Y019491D01*
X020469Y019409D01*
X020469Y018899D01*
X020551Y018817D01*
X020557Y018817D01*
X020557Y018272D01*
X020639Y018190D01*
X020972Y018190D01*
X020993Y018210D01*
X021005Y018198D01*
X020995Y018208D02*
X020995Y017896D01*
X021001Y017889D02*
X021166Y017889D01*
X021155Y017878D02*
X021155Y017900D01*
X021166Y017729D02*
X021194Y017729D01*
X021194Y017569D02*
X021166Y017569D01*
X021166Y017409D02*
X021194Y017409D01*
X021194Y017249D02*
X021166Y017249D01*
X021155Y017206D02*
X021155Y017101D01*
X021119Y017101D02*
X021082Y017086D01*
X021054Y017057D01*
X021039Y017021D01*
X021039Y016844D01*
X021315Y016844D01*
X021315Y017101D01*
X021119Y017101D01*
X021090Y017089D02*
X019896Y017089D01*
X019875Y016938D02*
X019875Y016880D01*
X019896Y016880D02*
X019687Y016880D01*
X019687Y016632D01*
X019816Y016632D01*
X019852Y016647D01*
X019881Y016675D01*
X019896Y016712D01*
X019896Y016880D01*
X019896Y016769D02*
X020033Y016769D01*
X020035Y016771D02*
X020035Y017379D01*
X020064Y017409D02*
X020557Y017409D01*
X020557Y017569D02*
X020341Y017569D01*
X020195Y017459D02*
X020195Y017379D01*
X020064Y017249D02*
X019984Y017249D01*
X020195Y017122D02*
X020195Y016808D01*
X020355Y016808D02*
X020355Y017769D01*
X020251Y017729D02*
X020461Y017729D01*
X020515Y017675D02*
X020515Y016756D01*
X020502Y016769D02*
X021315Y016769D01*
X021315Y016764D02*
X021315Y016844D01*
X021315Y016929D02*
X021395Y016929D01*
X021395Y017089D02*
X021315Y017089D01*
X021315Y017101D02*
X021315Y017209D01*
X021475Y017166D02*
X021475Y017101D01*
X021620Y017089D02*
X021698Y017089D01*
X021635Y017079D02*
X021635Y017166D01*
X021155Y016844D02*
X021155Y016764D01*
X020995Y016731D02*
X020995Y017189D01*
X020835Y017166D02*
X020835Y016768D01*
X020675Y016768D02*
X020675Y017166D01*
X020557Y017249D02*
X020341Y017249D01*
X019875Y016669D02*
X019875Y016003D01*
X019885Y015969D02*
X020097Y015969D01*
X020093Y015945D02*
X019885Y015945D01*
X019885Y015697D01*
X020013Y015697D01*
X020050Y015712D01*
X020078Y015740D01*
X020093Y015777D01*
X020093Y015945D01*
X020035Y015945D02*
X020035Y016003D01*
X020093Y016129D02*
X020097Y016129D01*
X019989Y016289D02*
X019542Y016289D01*
X019555Y016276D02*
X019555Y016632D01*
X019629Y016769D02*
X019687Y016769D01*
X019715Y016880D02*
X019715Y016938D01*
X019687Y016929D02*
X021039Y016929D01*
X021017Y016609D02*
X021039Y016609D01*
X020835Y016520D02*
X020835Y016462D01*
X020808Y016449D02*
X020750Y016449D01*
X020750Y016609D02*
X020808Y016609D01*
X020515Y016225D02*
X020515Y014576D01*
X020446Y014529D02*
X019973Y014529D01*
X019990Y014369D02*
X020410Y014369D01*
X020410Y014209D02*
X019990Y014209D01*
X019985Y014049D02*
X020429Y014049D01*
X020355Y013959D02*
X020355Y015474D01*
X020370Y015489D02*
X023293Y015489D01*
X023297Y015649D02*
X020437Y015649D01*
X020437Y015809D02*
X023297Y015809D01*
X023297Y015969D02*
X020437Y015969D01*
X020437Y016129D02*
X023218Y016129D01*
X023235Y016113D02*
X023235Y015335D01*
X023228Y015329D02*
X021694Y015329D01*
X021721Y015169D02*
X023181Y015169D01*
X023181Y014881D02*
X022825Y014525D01*
X022664Y014525D01*
X022564Y014484D01*
X022168Y014087D01*
X022168Y014087D01*
X022083Y014002D01*
X022007Y013926D01*
X021966Y013827D01*
X021966Y013294D01*
X021319Y012648D01*
X021243Y012572D01*
X021231Y012542D01*
X021231Y012715D01*
X021170Y012777D01*
X021224Y012830D01*
X021224Y013301D01*
X021142Y013383D01*
X021000Y013383D01*
X021000Y013483D01*
X020763Y013483D01*
X020763Y013558D01*
X021000Y013558D01*
X021000Y013650D01*
X021066Y013650D01*
X021162Y013689D01*
X021210Y013738D01*
X021210Y013688D01*
X021292Y013606D01*
X021758Y013606D01*
X021840Y013688D01*
X021840Y014015D01*
X021990Y014164D01*
X022174Y014349D01*
X022267Y014387D01*
X022351Y014471D01*
X022396Y014581D01*
X022396Y014699D01*
X022375Y014529D02*
X022829Y014529D01*
X022755Y014525D02*
X022755Y016593D01*
X022738Y016609D02*
X022381Y016609D01*
X022381Y016769D02*
X022578Y016769D01*
X022595Y016753D02*
X022595Y014496D01*
X022449Y014369D02*
X022223Y014369D01*
X022275Y014395D02*
X022275Y014194D01*
X022289Y014209D02*
X022034Y014209D01*
X021955Y014129D02*
X021955Y013283D01*
X021920Y013249D02*
X021224Y013249D01*
X021155Y013369D02*
X021155Y013687D01*
X021201Y013729D02*
X021210Y013729D01*
X021315Y013606D02*
X021315Y012643D01*
X021280Y012609D02*
X021231Y012609D01*
X021177Y012769D02*
X021440Y012769D01*
X021475Y012803D02*
X021475Y013606D01*
X021635Y013606D02*
X021635Y012963D01*
X021600Y012929D02*
X021224Y012929D01*
X021224Y013089D02*
X021760Y013089D01*
X021795Y013123D02*
X021795Y013642D01*
X021840Y013729D02*
X021966Y013729D01*
X021966Y013569D02*
X021000Y013569D01*
X020995Y013558D02*
X020995Y013483D01*
X021000Y013409D02*
X021966Y013409D01*
X021992Y013889D02*
X021840Y013889D01*
X021874Y014049D02*
X022130Y014049D01*
X022115Y014034D02*
X022115Y014289D01*
X022435Y014354D02*
X022435Y016913D01*
X022418Y016929D02*
X022381Y016929D01*
X021006Y018049D02*
X020678Y018049D01*
X020675Y018053D02*
X020675Y018190D01*
X020620Y018209D02*
X020276Y018209D01*
X020355Y018149D02*
X020355Y019789D01*
X020515Y019789D02*
X020515Y019455D01*
X020549Y019489D02*
X020093Y019489D01*
X020035Y019378D02*
X020035Y019320D01*
X020093Y019320D02*
X019885Y019320D01*
X019885Y019072D01*
X020013Y019072D01*
X020050Y019087D01*
X020078Y019115D01*
X020093Y019152D01*
X020093Y019320D01*
X020093Y019169D02*
X020469Y019169D01*
X020469Y019329D02*
X019885Y019329D01*
X019875Y019320D02*
X019875Y018956D01*
X020035Y018956D02*
X020035Y019081D01*
X019885Y019169D02*
X019827Y019169D01*
X019715Y019072D02*
X019715Y018956D01*
X019555Y018888D02*
X019555Y019047D01*
X019395Y019032D02*
X019395Y018784D01*
X019460Y018849D02*
X019293Y018849D01*
X019235Y018932D02*
X019235Y019032D01*
X019075Y019105D02*
X019075Y018956D01*
X018915Y018956D02*
X018915Y019183D01*
X018901Y019169D02*
X019066Y019169D01*
X019066Y019329D02*
X019010Y019329D01*
X018994Y019489D02*
X019066Y019489D01*
X019075Y019593D02*
X019075Y019789D01*
X019131Y019649D02*
X017182Y019649D01*
X017155Y019748D02*
X017155Y019789D01*
X017315Y019789D02*
X017315Y019565D01*
X017475Y019565D02*
X017475Y019789D01*
X017635Y019789D02*
X017635Y019565D01*
X017795Y019565D02*
X017795Y019789D01*
X017955Y019789D02*
X017955Y019565D01*
X018115Y019565D02*
X018115Y019789D01*
X018275Y019789D02*
X018275Y019565D01*
X018435Y019565D02*
X018435Y019789D01*
X018595Y019789D02*
X018595Y019595D01*
X018568Y019569D02*
X018568Y019569D01*
X018643Y019389D02*
X018755Y019389D01*
X018639Y019385D02*
X017295Y019385D01*
X017005Y019385D01*
X016865Y019525D01*
X017290Y019380D02*
X017295Y019385D01*
X017290Y019380D02*
X017290Y018519D01*
X017475Y018700D02*
X017475Y019205D01*
X017470Y019169D02*
X018609Y019169D01*
X018595Y019183D02*
X018595Y018929D01*
X018435Y018906D02*
X018435Y019205D01*
X018275Y019205D02*
X018275Y018906D01*
X018307Y018849D02*
X018365Y018849D01*
X018365Y018689D02*
X018307Y018689D01*
X018307Y018600D02*
X018365Y018600D01*
X018365Y018352D01*
X018493Y018352D01*
X018530Y018367D01*
X018558Y018395D01*
X018573Y018432D01*
X018573Y018509D01*
X018622Y018460D01*
X019169Y018460D01*
X019136Y018380D01*
X019136Y018277D01*
X019164Y018208D01*
X018622Y018208D01*
X018540Y018126D01*
X018540Y017794D01*
X018622Y017712D01*
X018726Y017712D01*
X018726Y017689D01*
X018531Y017494D01*
X018527Y017499D01*
X018431Y017538D01*
X018328Y017538D01*
X018233Y017499D01*
X018207Y017473D01*
X018121Y017558D01*
X018092Y017558D01*
X018092Y017587D01*
X017981Y017699D01*
X017952Y017699D01*
X017952Y017728D01*
X017840Y017839D01*
X017803Y017839D01*
X017803Y017877D01*
X017691Y017988D01*
X017663Y017988D01*
X017663Y018017D01*
X017563Y018117D01*
X017758Y018312D01*
X018020Y018312D01*
X018102Y018394D01*
X018102Y018423D01*
X018113Y018395D01*
X018141Y018367D01*
X018178Y018352D01*
X018307Y018352D01*
X018307Y018600D01*
X018307Y018529D02*
X018365Y018529D01*
X018365Y018369D02*
X018307Y018369D01*
X018275Y018352D02*
X018275Y017516D01*
X018435Y017537D02*
X018435Y018352D01*
X018532Y018369D02*
X019136Y018369D01*
X019075Y018460D02*
X019075Y018208D01*
X019164Y018209D02*
X017655Y018209D01*
X017635Y018189D02*
X017635Y018045D01*
X017631Y018049D02*
X018540Y018049D01*
X018595Y018181D02*
X018595Y018487D01*
X018755Y018460D02*
X018755Y018208D01*
X018915Y018208D02*
X018915Y018460D01*
X019293Y018689D02*
X019300Y018689D01*
X019395Y018529D02*
X019395Y018329D01*
X019395Y018064D01*
X019500Y017959D01*
X019939Y017959D01*
X019940Y017960D01*
X020035Y018320D02*
X020035Y018348D01*
X020195Y018348D02*
X020195Y018320D01*
X020276Y018369D02*
X020557Y018369D01*
X020557Y018529D02*
X020303Y018529D01*
X020316Y018689D02*
X020557Y018689D01*
X020519Y018849D02*
X020316Y018849D01*
X020195Y018956D02*
X020195Y019789D01*
X020035Y019789D02*
X020035Y019617D01*
X019885Y019489D02*
X019827Y019489D01*
X019875Y019378D02*
X019875Y019789D01*
X019715Y019789D02*
X019715Y019626D01*
X019557Y019649D02*
X021420Y019649D01*
X021472Y019597D02*
X021472Y019597D01*
X021475Y019594D02*
X021475Y019491D01*
X021315Y019491D02*
X021315Y019754D01*
X021155Y019789D02*
X021155Y019436D01*
X021101Y019489D02*
X021218Y019489D01*
X020995Y019491D02*
X020995Y019789D01*
X020835Y019789D02*
X020835Y019491D01*
X020675Y019491D02*
X020675Y019789D01*
X020675Y020469D02*
X020675Y022158D01*
X020515Y022158D02*
X020515Y020469D01*
X020355Y020469D02*
X020355Y020977D01*
X020455Y021089D02*
X020736Y021089D01*
X020764Y021249D02*
X020474Y021249D01*
X020393Y021409D02*
X021505Y021409D01*
X021475Y021366D02*
X021475Y021480D01*
X021386Y021569D02*
X020262Y021569D01*
X020195Y021637D02*
X020195Y022070D01*
X020355Y022070D02*
X020355Y021477D01*
X020051Y021729D02*
X021226Y021729D01*
X021155Y021800D02*
X021155Y021379D01*
X021315Y021379D02*
X021315Y021640D01*
X021066Y021889D02*
X019709Y021889D01*
X019715Y021894D02*
X019715Y021744D01*
X019555Y021729D02*
X019555Y021734D01*
X019554Y021729D02*
X019549Y021729D01*
X019395Y021829D02*
X019545Y021979D01*
X019695Y022129D01*
X019695Y022461D01*
X019657Y022499D01*
X019715Y022816D02*
X019715Y023994D01*
X019875Y023994D02*
X019875Y023088D01*
X019843Y023009D02*
X015029Y023009D01*
X015027Y023169D02*
X020509Y023169D01*
X020513Y023160D02*
X020541Y023132D01*
X020577Y023117D01*
X020716Y023117D01*
X020716Y023335D01*
X020497Y023335D01*
X020497Y023197D01*
X020513Y023160D01*
X020515Y023158D02*
X020515Y023057D01*
X020675Y023081D02*
X020675Y023117D01*
X020716Y023169D02*
X020794Y023169D01*
X020835Y023117D02*
X020835Y023081D01*
X020794Y023329D02*
X020716Y023329D01*
X020675Y023335D02*
X020675Y023413D01*
X020716Y023489D02*
X020794Y023489D01*
X020835Y023413D02*
X020835Y023335D01*
X020755Y023374D02*
X020755Y023617D01*
X020704Y023668D01*
X020074Y023668D01*
X020070Y023664D01*
X020035Y023994D02*
X020035Y023138D01*
X020195Y023138D02*
X020195Y023994D01*
X020355Y023988D02*
X020355Y023138D01*
X020497Y023329D02*
X015024Y023329D01*
X014970Y022849D02*
X019843Y022849D01*
X019555Y022816D02*
X019555Y023994D01*
X019395Y023994D02*
X019395Y022762D01*
X019235Y022816D02*
X019235Y023994D01*
X019075Y023994D02*
X019075Y022816D01*
X018694Y022369D02*
X017339Y022369D01*
X017315Y022394D02*
X017315Y024273D01*
X017475Y024273D02*
X017475Y022234D01*
X017499Y022209D02*
X018534Y022209D01*
X018595Y022269D02*
X018595Y023994D01*
X018435Y023994D02*
X018435Y022109D01*
X018374Y022049D02*
X017664Y022049D01*
X017635Y022079D02*
X017635Y024272D01*
X017795Y024272D02*
X017795Y021919D01*
X017955Y021759D02*
X017955Y024272D01*
X018105Y024206D02*
X018105Y024206D01*
X018115Y024197D02*
X018115Y021819D01*
X018072Y021729D02*
X017984Y021729D01*
X019003Y021829D02*
X019395Y021829D01*
X019869Y022049D02*
X020906Y022049D01*
X020835Y022120D02*
X020835Y021335D01*
X020995Y021388D02*
X020995Y021960D01*
X020995Y022498D02*
X020995Y022511D01*
X021013Y022529D02*
X021884Y022529D01*
X020995Y023591D02*
X020995Y023767D01*
X020922Y023809D02*
X015021Y023809D01*
X015235Y023993D02*
X015235Y022549D01*
X015395Y022549D02*
X015395Y023993D01*
X015555Y023993D02*
X015555Y022549D01*
X015715Y022549D02*
X015715Y024056D01*
X013736Y023329D02*
X013383Y023411D01*
X017635Y019205D02*
X017635Y018946D01*
X017546Y018849D02*
X017470Y018849D01*
X017470Y019009D02*
X020469Y019009D01*
X020515Y018853D02*
X020515Y018149D01*
X020835Y018190D02*
X020835Y017918D01*
X020991Y018209D02*
X020994Y018209D01*
X020806Y018566D02*
X020805Y018567D01*
X019940Y018708D02*
X019574Y018708D01*
X019395Y018529D01*
X018755Y018956D02*
X018755Y019130D01*
X018915Y019595D02*
X018915Y019789D01*
X018755Y019789D02*
X018755Y019648D01*
X018115Y019205D02*
X018115Y018864D01*
X018107Y018849D02*
X018102Y018849D01*
X017955Y018946D02*
X017955Y019205D01*
X017795Y019205D02*
X017795Y018946D01*
X017546Y018689D02*
X017486Y018689D01*
X017795Y018312D02*
X017795Y017885D01*
X017791Y017889D02*
X018540Y017889D01*
X018595Y017739D02*
X018595Y017558D01*
X018606Y017569D02*
X018092Y017569D01*
X018115Y017558D02*
X018115Y018393D01*
X018139Y018369D02*
X018077Y018369D01*
X017955Y018312D02*
X017955Y017699D01*
X017951Y017729D02*
X018605Y017729D01*
X018380Y017279D02*
X018730Y016929D01*
X018950Y016929D01*
X019126Y016929D01*
X019075Y016592D02*
X019075Y016218D01*
X019146Y016289D02*
X018065Y016289D01*
X018065Y016129D02*
X018994Y016129D01*
X018915Y016049D02*
X018915Y016627D01*
X018933Y016609D02*
X018870Y016609D01*
X018755Y016494D02*
X018755Y015996D01*
X018723Y015969D02*
X018065Y015969D01*
X018065Y015809D02*
X018636Y015809D01*
X018666Y015649D02*
X018065Y015649D01*
X018124Y015489D02*
X017995Y015489D01*
X017955Y015449D02*
X017955Y015139D01*
X017984Y015169D02*
X017864Y015169D01*
X017835Y015329D02*
X018025Y015329D01*
X018115Y015479D02*
X018115Y016514D01*
X018015Y016457D02*
X017802Y016669D01*
X017802Y016669D01*
X018015Y016457D01*
X018007Y016449D02*
X018395Y016449D01*
X018435Y016409D02*
X018435Y015644D01*
X018595Y015644D02*
X018595Y016362D01*
X018710Y016449D02*
X019989Y016449D01*
X019989Y016609D02*
X019359Y016609D01*
X019395Y016645D02*
X019395Y016291D01*
X019235Y016291D02*
X019235Y016592D01*
X019715Y016632D02*
X019715Y016251D01*
X019827Y016129D02*
X019885Y016129D01*
X019875Y015945D02*
X019875Y015644D01*
X020035Y015644D02*
X020035Y015706D01*
X020049Y015649D02*
X019123Y015649D01*
X019235Y015644D02*
X019235Y015657D01*
X019395Y015644D02*
X019395Y015657D01*
X019555Y015644D02*
X019555Y015672D01*
X019715Y015697D02*
X019715Y015644D01*
X019827Y015809D02*
X019885Y015809D01*
X020093Y015809D02*
X020097Y015809D01*
X020035Y015304D02*
X020035Y012731D01*
X020068Y012609D02*
X020204Y012609D01*
X020204Y012449D02*
X020068Y012449D01*
X020035Y012450D02*
X020035Y012508D01*
X020218Y012769D02*
X019542Y012769D01*
X019555Y012756D02*
X019555Y013614D01*
X019715Y013614D02*
X019715Y012756D01*
X019395Y012796D02*
X019395Y013614D01*
X019235Y013666D02*
X019235Y012796D01*
X019164Y013089D02*
X020156Y013089D01*
X020265Y013409D02*
X018965Y013409D01*
X018915Y013352D02*
X018915Y013348D01*
X018755Y013684D02*
X018755Y013709D01*
X019985Y013889D02*
X020284Y013889D01*
X020652Y013776D02*
X020756Y013879D01*
X020756Y013857D01*
X020790Y013776D01*
X020763Y013776D01*
X020763Y013558D01*
X020688Y013558D01*
X020688Y013776D01*
X020652Y013776D01*
X020675Y013776D02*
X020675Y013799D01*
X020688Y013729D02*
X020763Y013729D01*
X020763Y013569D02*
X020688Y013569D01*
X020835Y013558D02*
X020835Y013483D01*
X020355Y012509D02*
X020355Y012451D01*
X020412Y012449D02*
X020470Y012449D01*
X020470Y012289D02*
X020412Y012289D01*
X020355Y012203D02*
X020355Y012199D01*
X020475Y012129D02*
X020794Y012129D01*
X020835Y012089D02*
X020835Y011895D01*
X020882Y011809D02*
X020975Y011809D01*
X020975Y011649D02*
X020882Y011649D01*
X020954Y011969D02*
X020732Y011969D01*
X020675Y011988D02*
X020675Y012273D01*
X020515Y012203D02*
X020515Y012089D01*
X021632Y014849D02*
X021885Y014849D01*
X018549Y016769D02*
X018240Y016769D01*
X018223Y016609D02*
X018389Y016609D01*
X018435Y016654D02*
X018435Y016969D01*
X018475Y016929D02*
X018093Y016929D01*
X018115Y016907D02*
X018115Y017092D01*
X018032Y017089D02*
X018203Y017089D01*
X018275Y017042D02*
X018275Y015639D01*
X017725Y015699D02*
X017725Y015879D01*
X017565Y015719D01*
X017485Y015639D01*
X017664Y015639D01*
X017725Y015699D01*
X017674Y015649D02*
X017495Y015649D01*
X017635Y015639D02*
X017635Y015789D01*
X017655Y015809D02*
X017725Y015809D01*
X017174Y015619D02*
X017028Y015473D01*
X016958Y015473D01*
X016863Y015434D01*
X016790Y015361D01*
X016751Y015265D01*
X016751Y015162D01*
X016790Y015067D01*
X016863Y014995D01*
X016821Y014953D01*
X016698Y015076D01*
X016648Y015076D01*
X015700Y016024D01*
X015700Y017392D01*
X015767Y017325D01*
X015767Y017297D01*
X016052Y017011D01*
X015964Y016923D01*
X016070Y016817D01*
X015858Y016605D01*
X015872Y016591D01*
X015906Y016571D01*
X015915Y016569D01*
X015915Y016491D01*
X016018Y016388D01*
X015943Y016388D01*
X015848Y016349D01*
X015775Y016276D01*
X015736Y016180D01*
X015736Y016077D01*
X015775Y015982D01*
X015848Y015909D01*
X015943Y015870D01*
X016013Y015870D01*
X016264Y015619D01*
X017174Y015619D01*
X017155Y015619D02*
X017155Y015599D01*
X017044Y015489D02*
X016235Y015489D01*
X016195Y015529D02*
X016195Y015689D01*
X016234Y015649D02*
X016075Y015649D01*
X016035Y015689D02*
X016035Y015849D01*
X016074Y015809D02*
X015915Y015809D01*
X015875Y015849D02*
X015875Y015898D01*
X015788Y015969D02*
X015755Y015969D01*
X015715Y016009D02*
X015715Y017377D01*
X015700Y017249D02*
X015814Y017249D01*
X015875Y017188D02*
X015875Y016834D01*
X015844Y016803D02*
X015824Y016769D01*
X015700Y016769D01*
X015814Y016731D02*
X015814Y016691D01*
X015824Y016653D01*
X015844Y016619D01*
X015858Y016605D01*
X016070Y016817D01*
X016070Y016817D01*
X016070Y016817D01*
X015964Y016923D01*
X015844Y016803D01*
X015824Y016769D02*
X015814Y016731D01*
X015875Y016622D02*
X015875Y016622D01*
X015862Y016609D02*
X015862Y016609D01*
X015853Y016609D02*
X015700Y016609D01*
X015700Y016449D02*
X015957Y016449D01*
X015875Y016360D02*
X015875Y016589D01*
X016022Y016769D02*
X016022Y016769D01*
X016035Y016782D02*
X016035Y016782D01*
X016035Y016852D02*
X016035Y016852D01*
X015970Y016929D02*
X015700Y016929D01*
X015700Y017089D02*
X015974Y017089D01*
X016035Y017028D02*
X016035Y016994D01*
X015788Y016289D02*
X015700Y016289D01*
X015700Y016129D02*
X015736Y016129D01*
X016355Y015619D02*
X016355Y015369D01*
X016395Y015329D02*
X016777Y015329D01*
X016835Y015405D02*
X016835Y015619D01*
X016995Y015619D02*
X016995Y015473D01*
X016675Y015619D02*
X016675Y015076D01*
X016765Y015009D02*
X016848Y015009D01*
X016835Y015023D02*
X016835Y014967D01*
X016751Y015169D02*
X016555Y015169D01*
X016515Y015209D02*
X016515Y015619D01*
X015715Y014702D02*
X015715Y014619D01*
X015728Y014689D02*
X015645Y014689D01*
X015555Y014779D02*
X015555Y014862D01*
X015568Y014849D02*
X015485Y014849D01*
X015395Y014939D02*
X015395Y015022D01*
X015408Y015009D02*
X015325Y015009D01*
X015235Y015099D02*
X015235Y015182D01*
X015248Y015169D02*
X015165Y015169D01*
X015075Y015259D02*
X015075Y015342D01*
X015088Y015329D02*
X015005Y015329D01*
X014915Y015419D02*
X014915Y015502D01*
X014928Y015489D02*
X014845Y015489D01*
X014755Y015579D02*
X014755Y016670D01*
X014865Y016609D02*
X014030Y016609D01*
X014152Y016929D02*
X014476Y016929D01*
X014670Y017249D02*
X014075Y017249D01*
X014112Y017409D02*
X014670Y017409D01*
X014669Y017729D02*
X014670Y017729D01*
X014470Y017729D02*
X014412Y017729D01*
X014412Y018049D02*
X014470Y018049D01*
X014637Y018209D02*
X014670Y018209D01*
X014275Y018223D02*
X014275Y018317D01*
X014212Y018369D02*
X014058Y018369D01*
X014115Y018266D02*
X014115Y018654D01*
X014088Y018529D02*
X014182Y018529D01*
X014182Y018209D02*
X014244Y018209D01*
X013475Y018054D02*
X013475Y016934D01*
X013480Y016929D02*
X013518Y016929D01*
X013518Y017089D02*
X013320Y017089D01*
X013315Y017094D02*
X013315Y017311D01*
X013215Y017249D02*
X013594Y017249D01*
X012675Y016344D02*
X012675Y015889D01*
X012558Y015809D02*
X012240Y015809D01*
X012240Y015969D02*
X013049Y015969D01*
X012995Y016024D02*
X012995Y015889D01*
X012835Y015889D02*
X012835Y016184D01*
X012889Y016129D02*
X012240Y016129D01*
X012219Y016289D02*
X012729Y016289D01*
X012556Y015649D02*
X012240Y015649D01*
X012240Y015489D02*
X012556Y015489D01*
X011875Y015564D02*
X011875Y016124D01*
X011870Y016129D02*
X009691Y016129D01*
X009694Y015969D02*
X011880Y015969D01*
X011880Y015809D02*
X009708Y015809D01*
X009795Y015649D02*
X009795Y016480D01*
X009955Y016490D02*
X009955Y015354D01*
X009882Y015489D02*
X011800Y015489D01*
X011880Y015649D02*
X009795Y015649D01*
X010662Y014049D02*
X012120Y014049D01*
X012215Y013729D02*
X011442Y013729D01*
X011489Y013569D02*
X012215Y013569D01*
X012240Y013409D02*
X011488Y013409D01*
X012195Y016314D02*
X012195Y016824D01*
X012249Y016769D02*
X011739Y016769D01*
X014685Y015649D02*
X014865Y015649D01*
X015805Y014529D02*
X015888Y014529D01*
X015875Y014542D02*
X015875Y014459D01*
X015348Y013361D02*
X015348Y013356D01*
X017585Y014849D02*
X017664Y014849D01*
X017635Y014819D02*
X017635Y014899D01*
X017795Y014979D02*
X017795Y015018D01*
X017786Y015009D02*
X017824Y015009D01*
X017955Y016516D02*
X017955Y016516D01*
X017862Y016609D02*
X017862Y016609D01*
X017226Y017973D02*
X017120Y018079D01*
X017140Y018099D01*
X016923Y018099D01*
X017031Y017991D01*
X017120Y018079D01*
X017226Y017973D01*
X017226Y017973D01*
X017155Y018044D02*
X017155Y018044D01*
X017150Y018049D02*
X017150Y018049D01*
X017090Y018049D02*
X016973Y018049D01*
X016995Y018027D02*
X016995Y018099D01*
X019555Y019651D02*
X019555Y019789D01*
X020195Y020469D02*
X020195Y020935D01*
X019235Y021032D02*
X019235Y021107D01*
X019925Y022070D02*
X019875Y022120D01*
X020515Y023335D02*
X020515Y023413D01*
X020675Y023632D02*
X020675Y023920D01*
X020835Y023856D02*
X020835Y023632D01*
X022226Y020352D02*
X022226Y020352D01*
X022450Y020129D02*
X022596Y020129D01*
X022595Y020130D02*
X022595Y019984D01*
X022610Y019969D02*
X022783Y019969D01*
X022800Y019969D02*
X022805Y019969D01*
X022755Y019990D02*
X022755Y019824D01*
X022770Y019809D02*
X023455Y019809D01*
X023395Y019913D02*
X023395Y018966D01*
X023470Y019009D02*
X023265Y019009D01*
X023235Y018896D02*
X023235Y018873D01*
X023240Y019169D02*
X023746Y019169D01*
X023715Y019151D02*
X023715Y019362D01*
X023734Y019329D02*
X023181Y019329D01*
X023235Y019178D02*
X023235Y019964D01*
X023246Y019969D02*
X023362Y019969D01*
X023075Y019929D02*
X023075Y019504D01*
X023090Y019489D02*
X023641Y019489D01*
X023555Y019638D02*
X023555Y019058D01*
X023548Y019649D02*
X022930Y019649D01*
X022915Y019664D02*
X022915Y019924D01*
X028018Y016786D02*
X028512Y016786D01*
X028815Y017089D01*
X029063Y017338D01*
X029199Y017338D01*
X029199Y016747D02*
X029199Y016324D01*
X029205Y016319D01*
X017290Y005204D02*
X017290Y004838D01*
X017290Y005204D02*
X017135Y005359D01*
X016739Y005755D01*
X016739Y006019D01*
X016699Y004838D02*
X016501Y004639D01*
X016225Y004639D01*
X004889Y016664D02*
X004725Y016664D01*
X004889Y016664D02*
X005145Y016919D01*
X005471Y017245D01*
X005935Y017245D01*
X004725Y017254D02*
X004725Y017699D01*
X016335Y029248D02*
X016335Y029249D01*
X016335Y029248D02*
X016699Y029248D01*
X017045Y028799D02*
X017290Y029044D01*
X017290Y029248D01*
X017045Y028799D02*
X016739Y028493D01*
X016739Y028142D01*
D37*
X016995Y023329D02*
X013736Y023329D01*
X016995Y023329D02*
X018030Y022294D01*
X018195Y022294D01*
X020305Y015094D02*
X020360Y015094D01*
X020595Y014859D01*
D38*
X020070Y023664D03*
D39*
X022680Y019009D02*
X022295Y018623D01*
X022295Y018029D01*
X022295Y017529D01*
X022664Y017160D01*
X023145Y016679D01*
X023595Y016229D01*
D40*
X023595Y016149D01*
X023595Y015529D01*
D41*
X022680Y019009D02*
X022680Y019144D01*
X021774Y020050D01*
X021695Y020129D01*
D42*
X021774Y020129D02*
X021774Y020050D01*
X021774Y020129D02*
X021774Y020750D01*
X021730Y020794D02*
X021395Y021129D01*
X020995Y021129D01*
X017251Y024873D02*
X017251Y028142D01*
X017251Y028385D01*
X017745Y028879D01*
X017745Y029928D01*
X017245Y030428D01*
X028905Y017809D02*
X029865Y017809D01*
X030381Y017293D01*
X028905Y017809D02*
X028394Y017298D01*
X028018Y017298D01*
X024744Y017298D01*
X023595Y016149D01*
D43*
X005938Y016736D02*
X005935Y016733D01*
D44*
X005952Y016750D01*
X009877Y016750D01*
X010313Y017186D01*
X010313Y018343D01*
X011768Y019789D01*
X005935Y016733D02*
X005580Y016733D01*
X005085Y016238D01*
X004078Y016238D01*
X003580Y016736D01*
X017245Y009359D02*
X017245Y007869D01*
X017251Y007863D02*
X017251Y006019D01*
X017251Y005933D02*
X017765Y005419D01*
X017765Y004176D01*
X017245Y003657D01*
X017915Y010029D02*
X020375Y010029D01*
X021475Y011129D01*
X021472Y011131D02*
X021472Y012419D01*
X022236Y013182D01*
X022236Y013773D01*
X022397Y013934D01*
X022717Y014255D01*
X022937Y014255D01*
X023451Y014769D01*
X023451Y015169D01*
X023563Y015282D01*
X023563Y015497D01*
D45*
X023595Y015529D01*
X022098Y014640D02*
X021841Y014383D01*
X021525Y014068D01*
X021525Y013901D01*
X022397Y013934D02*
X022397Y013934D01*
X021472Y011131D02*
X021475Y011129D01*
X017915Y010029D02*
X017245Y009359D01*
X017245Y007869D02*
X017251Y007863D01*
X017251Y006019D02*
X017251Y005933D01*
X020215Y021199D02*
X020145Y021319D01*
X020015Y021449D01*
X019803Y021449D01*
X019803Y021449D01*
X017245Y024759D02*
X017251Y024873D01*
D46*
X014395Y020129D02*
X012725Y020129D01*
X012385Y019789D01*
X014395Y020129D02*
X021695Y020129D01*
D47*
X012385Y019789D02*
X011768Y019789D01*
D48*
X022098Y014640D03*
M02*
