G75*
%MOIN*%
%OFA0B0*%
%FSLAX24Y24*%
%IPPOS*%
%LPD*%
%AMOC8*
5,1,8,0,0,1.08239X$1,22.5*
%
%ADD10R,0.0394X0.0118*%
%ADD11R,0.1000X0.1000*%
%ADD12R,0.0276X0.0669*%
%ADD13R,0.0276X0.0354*%
%ADD14R,0.0354X0.0276*%
%ADD15R,0.0190X0.0190*%
%ADD16C,0.0100*%
%ADD17R,0.0315X0.0315*%
%ADD18R,0.0472X0.0217*%
%ADD19R,0.0350X0.0310*%
%ADD20R,0.0217X0.0472*%
%ADD21R,0.0433X0.0394*%
%ADD22R,0.0138X0.0315*%
%ADD23R,0.0310X0.0350*%
%ADD24R,0.0500X0.0250*%
%ADD25R,0.0591X0.0709*%
%ADD26R,0.0276X0.0591*%
%ADD27R,0.0157X0.0787*%
D10*
G36*
X015526Y012945D02*
X015248Y012667D01*
X015164Y012751D01*
X015442Y013029D01*
X015526Y012945D01*
G37*
G36*
X015666Y012806D02*
X015388Y012528D01*
X015304Y012612D01*
X015582Y012890D01*
X015666Y012806D01*
G37*
G36*
X015805Y012666D02*
X015527Y012388D01*
X015443Y012472D01*
X015721Y012750D01*
X015805Y012666D01*
G37*
G36*
X015944Y012527D02*
X015666Y012249D01*
X015582Y012333D01*
X015860Y012611D01*
X015944Y012527D01*
G37*
G36*
X016083Y012388D02*
X015805Y012110D01*
X015721Y012194D01*
X015999Y012472D01*
X016083Y012388D01*
G37*
G36*
X016222Y012249D02*
X015944Y011971D01*
X015860Y012055D01*
X016138Y012333D01*
X016222Y012249D01*
G37*
G36*
X016361Y012110D02*
X016083Y011832D01*
X015999Y011916D01*
X016277Y012194D01*
X016361Y012110D01*
G37*
G36*
X016501Y011970D02*
X016223Y011692D01*
X016139Y011776D01*
X016417Y012054D01*
X016501Y011970D01*
G37*
G36*
X016640Y011831D02*
X016362Y011553D01*
X016278Y011637D01*
X016556Y011915D01*
X016640Y011831D01*
G37*
G36*
X016779Y011692D02*
X016501Y011414D01*
X016417Y011498D01*
X016695Y011776D01*
X016779Y011692D01*
G37*
G36*
X016918Y011553D02*
X016640Y011275D01*
X016556Y011359D01*
X016834Y011637D01*
X016918Y011553D01*
G37*
G36*
X017155Y011637D02*
X017433Y011359D01*
X017349Y011275D01*
X017071Y011553D01*
X017155Y011637D01*
G37*
G36*
X017294Y011776D02*
X017572Y011498D01*
X017488Y011414D01*
X017210Y011692D01*
X017294Y011776D01*
G37*
G36*
X017434Y011915D02*
X017712Y011637D01*
X017628Y011553D01*
X017350Y011831D01*
X017434Y011915D01*
G37*
G36*
X017573Y012054D02*
X017851Y011776D01*
X017767Y011692D01*
X017489Y011970D01*
X017573Y012054D01*
G37*
G36*
X017712Y012194D02*
X017990Y011916D01*
X017906Y011832D01*
X017628Y012110D01*
X017712Y012194D01*
G37*
G36*
X017851Y012333D02*
X018129Y012055D01*
X018045Y011971D01*
X017767Y012249D01*
X017851Y012333D01*
G37*
G36*
X017990Y012472D02*
X018268Y012194D01*
X018184Y012110D01*
X017906Y012388D01*
X017990Y012472D01*
G37*
G36*
X018130Y012611D02*
X018408Y012333D01*
X018324Y012249D01*
X018046Y012527D01*
X018130Y012611D01*
G37*
G36*
X018269Y012750D02*
X018547Y012472D01*
X018463Y012388D01*
X018185Y012666D01*
X018269Y012750D01*
G37*
G36*
X018408Y012890D02*
X018686Y012612D01*
X018602Y012528D01*
X018324Y012806D01*
X018408Y012890D01*
G37*
G36*
X018547Y013029D02*
X018825Y012751D01*
X018741Y012667D01*
X018463Y012945D01*
X018547Y013029D01*
G37*
G36*
X018463Y013266D02*
X018741Y013544D01*
X018825Y013460D01*
X018547Y013182D01*
X018463Y013266D01*
G37*
G36*
X018324Y013405D02*
X018602Y013683D01*
X018686Y013599D01*
X018408Y013321D01*
X018324Y013405D01*
G37*
G36*
X018185Y013544D02*
X018463Y013822D01*
X018547Y013738D01*
X018269Y013460D01*
X018185Y013544D01*
G37*
G36*
X018046Y013683D02*
X018324Y013961D01*
X018408Y013877D01*
X018130Y013599D01*
X018046Y013683D01*
G37*
G36*
X017906Y013823D02*
X018184Y014101D01*
X018268Y014017D01*
X017990Y013739D01*
X017906Y013823D01*
G37*
G36*
X017767Y013962D02*
X018045Y014240D01*
X018129Y014156D01*
X017851Y013878D01*
X017767Y013962D01*
G37*
G36*
X017628Y014101D02*
X017906Y014379D01*
X017990Y014295D01*
X017712Y014017D01*
X017628Y014101D01*
G37*
G36*
X017489Y014240D02*
X017767Y014518D01*
X017851Y014434D01*
X017573Y014156D01*
X017489Y014240D01*
G37*
G36*
X017350Y014379D02*
X017628Y014657D01*
X017712Y014573D01*
X017434Y014295D01*
X017350Y014379D01*
G37*
G36*
X017210Y014519D02*
X017488Y014797D01*
X017572Y014713D01*
X017294Y014435D01*
X017210Y014519D01*
G37*
G36*
X017071Y014658D02*
X017349Y014936D01*
X017433Y014852D01*
X017155Y014574D01*
X017071Y014658D01*
G37*
G36*
X016834Y014574D02*
X016556Y014852D01*
X016640Y014936D01*
X016918Y014658D01*
X016834Y014574D01*
G37*
G36*
X016695Y014435D02*
X016417Y014713D01*
X016501Y014797D01*
X016779Y014519D01*
X016695Y014435D01*
G37*
G36*
X016556Y014295D02*
X016278Y014573D01*
X016362Y014657D01*
X016640Y014379D01*
X016556Y014295D01*
G37*
G36*
X016417Y014156D02*
X016139Y014434D01*
X016223Y014518D01*
X016501Y014240D01*
X016417Y014156D01*
G37*
G36*
X016277Y014017D02*
X015999Y014295D01*
X016083Y014379D01*
X016361Y014101D01*
X016277Y014017D01*
G37*
G36*
X016138Y013878D02*
X015860Y014156D01*
X015944Y014240D01*
X016222Y013962D01*
X016138Y013878D01*
G37*
G36*
X015999Y013739D02*
X015721Y014017D01*
X015805Y014101D01*
X016083Y013823D01*
X015999Y013739D01*
G37*
G36*
X015860Y013599D02*
X015582Y013877D01*
X015666Y013961D01*
X015944Y013683D01*
X015860Y013599D01*
G37*
G36*
X015721Y013460D02*
X015443Y013738D01*
X015527Y013822D01*
X015805Y013544D01*
X015721Y013460D01*
G37*
G36*
X015582Y013321D02*
X015304Y013599D01*
X015388Y013683D01*
X015666Y013405D01*
X015582Y013321D01*
G37*
G36*
X015442Y013182D02*
X015164Y013460D01*
X015248Y013544D01*
X015526Y013266D01*
X015442Y013182D01*
G37*
D11*
G36*
X016995Y012398D02*
X016288Y013105D01*
X016995Y013812D01*
X017702Y013105D01*
X016995Y012398D01*
G37*
D12*
X013717Y010804D03*
X014190Y010804D03*
X014662Y010804D03*
D13*
X015209Y010434D03*
X015721Y010434D03*
X018279Y010434D03*
X018791Y010434D03*
X019319Y012479D03*
X019831Y012479D03*
X020441Y012480D03*
X020953Y012480D03*
X020946Y013066D03*
X020434Y013066D03*
X019856Y015974D03*
X019344Y015974D03*
X019146Y016909D03*
X019658Y016909D03*
X020267Y016491D03*
X020779Y016491D03*
X019856Y019349D03*
X019344Y019349D03*
X018336Y018629D03*
X017824Y018629D03*
X016931Y021379D03*
X016419Y021379D03*
X019145Y022499D03*
X019657Y022499D03*
X014441Y017949D03*
X013929Y017949D03*
X016739Y028142D03*
X017251Y028142D03*
X017251Y006019D03*
X016739Y006019D03*
D14*
X014455Y012023D03*
X014455Y012535D03*
X013835Y016953D03*
X013835Y017465D03*
X016295Y019013D03*
X016295Y019525D03*
X016865Y019525D03*
X016865Y019013D03*
X017465Y020948D03*
X017465Y021460D03*
X018389Y021580D03*
X018389Y021068D03*
X020160Y022348D03*
X020160Y022860D03*
X028018Y017298D03*
X028018Y016786D03*
X005935Y016733D03*
X005935Y017245D03*
D15*
G36*
X016803Y017035D02*
X016669Y016901D01*
X016535Y017035D01*
X016669Y017169D01*
X016803Y017035D01*
G37*
G36*
X017143Y016703D02*
X017009Y016569D01*
X016875Y016703D01*
X017009Y016837D01*
X017143Y016703D01*
G37*
G36*
X017482Y017042D02*
X017348Y016908D01*
X017214Y017042D01*
X017348Y017176D01*
X017482Y017042D01*
G37*
G36*
X017157Y017389D02*
X017023Y017255D01*
X016889Y017389D01*
X017023Y017523D01*
X017157Y017389D01*
G37*
D16*
X017401Y017586D02*
X017613Y017798D01*
X017473Y017938D02*
X017261Y017726D01*
X017120Y017867D02*
X017332Y018079D01*
X016879Y017874D02*
X016667Y018086D01*
X016526Y017945D02*
X016738Y017733D01*
X016599Y017593D02*
X016387Y017805D01*
X016238Y017656D02*
X016450Y017444D01*
X016309Y017304D02*
X016097Y017516D01*
X015957Y017375D02*
X016169Y017163D01*
X016176Y016923D02*
X015964Y016711D01*
X016105Y016570D02*
X016317Y016782D01*
X016457Y016642D02*
X016245Y016430D01*
X016394Y016281D02*
X016606Y016493D01*
X016746Y016353D02*
X016534Y016141D01*
X016675Y016000D02*
X016887Y016212D01*
X017127Y016205D02*
X017339Y015993D01*
X017479Y016134D02*
X017267Y016346D01*
X017408Y016486D02*
X017620Y016274D01*
X017769Y016423D02*
X017557Y016635D01*
X017696Y016775D02*
X017908Y016563D01*
X018050Y016704D02*
X017838Y016916D01*
X017831Y017156D02*
X018043Y017368D01*
X017902Y017509D02*
X017690Y017297D01*
X017550Y017437D02*
X017762Y017649D01*
D17*
X020755Y022784D03*
X020755Y023374D03*
X017290Y029248D03*
X016699Y029248D03*
X004725Y017254D03*
X004725Y016664D03*
X016699Y010629D03*
X017290Y010629D03*
X017290Y004838D03*
X016699Y004838D03*
X029199Y016747D03*
X029199Y017338D03*
D18*
X019940Y017960D03*
X019940Y018334D03*
X019940Y018708D03*
X018916Y018708D03*
X018916Y017960D03*
D19*
X019003Y021069D03*
X019003Y021829D03*
X019803Y021449D03*
X020725Y014281D03*
X020725Y013521D03*
X021525Y013901D03*
D20*
X021554Y017542D03*
X021180Y017542D03*
X020806Y017542D03*
X020806Y018566D03*
X021180Y018566D03*
X021554Y018566D03*
D21*
X021494Y019154D03*
X020825Y019154D03*
X020024Y017419D03*
X019355Y017419D03*
X021355Y016804D03*
X022024Y016804D03*
D22*
X014391Y018614D03*
X013879Y018614D03*
X013879Y019284D03*
X014135Y019284D03*
X014391Y019284D03*
D23*
X013425Y018369D03*
X012665Y018369D03*
X013045Y017569D03*
D24*
X012946Y015624D03*
X015800Y018454D03*
X015349Y021019D03*
X018695Y015229D03*
X018695Y014779D03*
X019595Y014779D03*
X019595Y015229D03*
X019600Y014329D03*
X019595Y013879D03*
X019595Y011229D03*
X019595Y010809D03*
X019605Y010389D03*
D25*
G36*
X012007Y020439D02*
X011497Y020734D01*
X011851Y021347D01*
X012361Y021052D01*
X012007Y020439D01*
G37*
G36*
X013457Y022952D02*
X012947Y023247D01*
X013301Y023860D01*
X013811Y023565D01*
X013457Y022952D01*
G37*
D26*
G36*
X012627Y021826D02*
X012387Y021964D01*
X012681Y022474D01*
X012921Y022336D01*
X012627Y021826D01*
G37*
D27*
G36*
X013913Y021218D02*
X013835Y021082D01*
X013155Y021474D01*
X013233Y021610D01*
X013913Y021218D01*
G37*
G36*
X014040Y021440D02*
X013962Y021304D01*
X013282Y021696D01*
X013360Y021832D01*
X014040Y021440D01*
G37*
G36*
X014168Y021662D02*
X014090Y021526D01*
X013410Y021918D01*
X013488Y022054D01*
X014168Y021662D01*
G37*
G36*
X014296Y021883D02*
X014218Y021747D01*
X013538Y022139D01*
X013616Y022275D01*
X014296Y021883D01*
G37*
G36*
X013785Y020997D02*
X013707Y020861D01*
X013027Y021253D01*
X013105Y021389D01*
X013785Y020997D01*
G37*
M02*
