G75*
%MOIN*%
%OFA0B0*%
%FSLAX24Y24*%
%IPPOS*%
%LPD*%
%AMOC8*
5,1,8,0,0,1.08239X$1,22.5*
%
%ADD10R,0.0474X0.0198*%
%ADD11R,0.1000X0.1000*%
%ADD12R,0.0356X0.0749*%
%ADD13R,0.0356X0.0434*%
%ADD14R,0.0434X0.0356*%
%ADD15C,0.0180*%
%ADD16R,0.1110X0.1110*%
%ADD17R,0.0395X0.0395*%
%ADD18R,0.0552X0.0297*%
%ADD19R,0.0430X0.0390*%
%ADD20C,0.0417*%
%ADD21C,0.0186*%
%ADD22R,0.0297X0.0552*%
%ADD23R,0.0513X0.0474*%
%ADD24R,0.0218X0.0395*%
%ADD25R,0.0390X0.0430*%
%ADD26C,0.0397*%
%ADD27R,0.0580X0.0330*%
%ADD28R,0.0669X0.0787*%
%ADD29R,0.0669X0.1063*%
%ADD30R,0.0237X0.0867*%
%ADD31C,0.0237*%
%ADD32C,0.0552*%
%ADD33C,0.0493*%
%ADD34C,0.0436*%
D10*
G36*
X015582Y012945D02*
X015248Y012611D01*
X015108Y012751D01*
X015442Y013085D01*
X015582Y012945D01*
G37*
G36*
X015722Y012806D02*
X015388Y012472D01*
X015248Y012612D01*
X015582Y012946D01*
X015722Y012806D01*
G37*
G36*
X015861Y012666D02*
X015527Y012332D01*
X015387Y012472D01*
X015721Y012806D01*
X015861Y012666D01*
G37*
G36*
X016000Y012527D02*
X015666Y012193D01*
X015526Y012333D01*
X015860Y012667D01*
X016000Y012527D01*
G37*
G36*
X016139Y012388D02*
X015805Y012054D01*
X015665Y012194D01*
X015999Y012528D01*
X016139Y012388D01*
G37*
G36*
X016278Y012249D02*
X015944Y011915D01*
X015804Y012055D01*
X016138Y012389D01*
X016278Y012249D01*
G37*
G36*
X016417Y012110D02*
X016083Y011776D01*
X015943Y011916D01*
X016277Y012250D01*
X016417Y012110D01*
G37*
G36*
X016557Y011970D02*
X016223Y011636D01*
X016083Y011776D01*
X016417Y012110D01*
X016557Y011970D01*
G37*
G36*
X016696Y011831D02*
X016362Y011497D01*
X016222Y011637D01*
X016556Y011971D01*
X016696Y011831D01*
G37*
G36*
X016835Y011692D02*
X016501Y011358D01*
X016361Y011498D01*
X016695Y011832D01*
X016835Y011692D01*
G37*
G36*
X016974Y011553D02*
X016640Y011219D01*
X016500Y011359D01*
X016834Y011693D01*
X016974Y011553D01*
G37*
G36*
X017155Y011693D02*
X017489Y011359D01*
X017349Y011219D01*
X017015Y011553D01*
X017155Y011693D01*
G37*
G36*
X017294Y011832D02*
X017628Y011498D01*
X017488Y011358D01*
X017154Y011692D01*
X017294Y011832D01*
G37*
G36*
X017434Y011971D02*
X017768Y011637D01*
X017628Y011497D01*
X017294Y011831D01*
X017434Y011971D01*
G37*
G36*
X017573Y012110D02*
X017907Y011776D01*
X017767Y011636D01*
X017433Y011970D01*
X017573Y012110D01*
G37*
G36*
X017712Y012250D02*
X018046Y011916D01*
X017906Y011776D01*
X017572Y012110D01*
X017712Y012250D01*
G37*
G36*
X017851Y012389D02*
X018185Y012055D01*
X018045Y011915D01*
X017711Y012249D01*
X017851Y012389D01*
G37*
G36*
X017990Y012528D02*
X018324Y012194D01*
X018184Y012054D01*
X017850Y012388D01*
X017990Y012528D01*
G37*
G36*
X018130Y012667D02*
X018464Y012333D01*
X018324Y012193D01*
X017990Y012527D01*
X018130Y012667D01*
G37*
G36*
X018269Y012806D02*
X018603Y012472D01*
X018463Y012332D01*
X018129Y012666D01*
X018269Y012806D01*
G37*
G36*
X018408Y012946D02*
X018742Y012612D01*
X018602Y012472D01*
X018268Y012806D01*
X018408Y012946D01*
G37*
G36*
X018547Y013085D02*
X018881Y012751D01*
X018741Y012611D01*
X018407Y012945D01*
X018547Y013085D01*
G37*
G36*
X018407Y013266D02*
X018741Y013600D01*
X018881Y013460D01*
X018547Y013126D01*
X018407Y013266D01*
G37*
G36*
X018268Y013405D02*
X018602Y013739D01*
X018742Y013599D01*
X018408Y013265D01*
X018268Y013405D01*
G37*
G36*
X018129Y013544D02*
X018463Y013878D01*
X018603Y013738D01*
X018269Y013404D01*
X018129Y013544D01*
G37*
G36*
X017990Y013683D02*
X018324Y014017D01*
X018464Y013877D01*
X018130Y013543D01*
X017990Y013683D01*
G37*
G36*
X017850Y013823D02*
X018184Y014157D01*
X018324Y014017D01*
X017990Y013683D01*
X017850Y013823D01*
G37*
G36*
X017711Y013962D02*
X018045Y014296D01*
X018185Y014156D01*
X017851Y013822D01*
X017711Y013962D01*
G37*
G36*
X017572Y014101D02*
X017906Y014435D01*
X018046Y014295D01*
X017712Y013961D01*
X017572Y014101D01*
G37*
G36*
X017433Y014240D02*
X017767Y014574D01*
X017907Y014434D01*
X017573Y014100D01*
X017433Y014240D01*
G37*
G36*
X017294Y014379D02*
X017628Y014713D01*
X017768Y014573D01*
X017434Y014239D01*
X017294Y014379D01*
G37*
G36*
X017154Y014519D02*
X017488Y014853D01*
X017628Y014713D01*
X017294Y014379D01*
X017154Y014519D01*
G37*
G36*
X017015Y014658D02*
X017349Y014992D01*
X017489Y014852D01*
X017155Y014518D01*
X017015Y014658D01*
G37*
G36*
X016834Y014518D02*
X016500Y014852D01*
X016640Y014992D01*
X016974Y014658D01*
X016834Y014518D01*
G37*
G36*
X016695Y014379D02*
X016361Y014713D01*
X016501Y014853D01*
X016835Y014519D01*
X016695Y014379D01*
G37*
G36*
X016556Y014239D02*
X016222Y014573D01*
X016362Y014713D01*
X016696Y014379D01*
X016556Y014239D01*
G37*
G36*
X016417Y014100D02*
X016083Y014434D01*
X016223Y014574D01*
X016557Y014240D01*
X016417Y014100D01*
G37*
G36*
X016277Y013961D02*
X015943Y014295D01*
X016083Y014435D01*
X016417Y014101D01*
X016277Y013961D01*
G37*
G36*
X016138Y013822D02*
X015804Y014156D01*
X015944Y014296D01*
X016278Y013962D01*
X016138Y013822D01*
G37*
G36*
X015999Y013683D02*
X015665Y014017D01*
X015805Y014157D01*
X016139Y013823D01*
X015999Y013683D01*
G37*
G36*
X015860Y013543D02*
X015526Y013877D01*
X015666Y014017D01*
X016000Y013683D01*
X015860Y013543D01*
G37*
G36*
X015721Y013404D02*
X015387Y013738D01*
X015527Y013878D01*
X015861Y013544D01*
X015721Y013404D01*
G37*
G36*
X015582Y013265D02*
X015248Y013599D01*
X015388Y013739D01*
X015722Y013405D01*
X015582Y013265D01*
G37*
G36*
X015442Y013126D02*
X015108Y013460D01*
X015248Y013600D01*
X015582Y013266D01*
X015442Y013126D01*
G37*
D11*
G36*
X016995Y012398D02*
X016288Y013105D01*
X016995Y013812D01*
X017702Y013105D01*
X016995Y012398D01*
G37*
D12*
X013717Y010804D03*
X014190Y010804D03*
X014662Y010804D03*
D13*
X015209Y010434D03*
X015721Y010434D03*
X018279Y010434D03*
X018791Y010434D03*
X019319Y012479D03*
X019831Y012479D03*
X020441Y012480D03*
X020953Y012480D03*
X020946Y013066D03*
X020434Y013066D03*
X019856Y015974D03*
X019344Y015974D03*
X019146Y016909D03*
X019658Y016909D03*
X020267Y016491D03*
X020779Y016491D03*
X019856Y019349D03*
X019344Y019349D03*
X018336Y018629D03*
X017824Y018629D03*
X016931Y021379D03*
X016419Y021379D03*
X019145Y022499D03*
X019657Y022499D03*
X014441Y017949D03*
X013929Y017949D03*
X016739Y028142D03*
X017251Y028142D03*
X017251Y006019D03*
X016739Y006019D03*
D14*
X014455Y012023D03*
X014455Y012535D03*
X013835Y016953D03*
X013835Y017465D03*
X016295Y019013D03*
X016295Y019525D03*
X016865Y019525D03*
X016865Y019013D03*
X017465Y020948D03*
X017465Y021460D03*
X018389Y021580D03*
X018389Y021068D03*
X020160Y022348D03*
X020160Y022860D03*
X028018Y017298D03*
X028018Y016786D03*
X005935Y016733D03*
X005935Y017245D03*
D15*
X015957Y017375D02*
X016169Y017163D01*
X016309Y017304D02*
X016097Y017516D01*
X016238Y017656D02*
X016450Y017444D01*
X016599Y017593D02*
X016387Y017805D01*
X016526Y017945D02*
X016738Y017733D01*
X016879Y017874D02*
X016667Y018086D01*
X017120Y017867D02*
X017332Y018079D01*
X017473Y017938D02*
X017261Y017726D01*
X017401Y017586D02*
X017613Y017798D01*
X017762Y017649D02*
X017550Y017437D01*
X017690Y017297D02*
X017902Y017509D01*
X018043Y017368D02*
X017831Y017156D01*
X017838Y016916D02*
X018050Y016704D01*
X017908Y016563D02*
X017696Y016775D01*
X017557Y016635D02*
X017769Y016423D01*
X017620Y016274D02*
X017408Y016486D01*
X017267Y016346D02*
X017479Y016134D01*
X017339Y015993D02*
X017127Y016205D01*
X016887Y016212D02*
X016675Y016000D01*
X016534Y016141D02*
X016746Y016353D01*
X016606Y016493D02*
X016394Y016281D01*
X016245Y016430D02*
X016457Y016642D01*
X016317Y016782D02*
X016105Y016570D01*
X015964Y016711D02*
X016176Y016923D01*
D16*
G36*
X017787Y017045D02*
X017003Y016261D01*
X016219Y017045D01*
X017003Y017829D01*
X017787Y017045D01*
G37*
D17*
X020755Y022784D03*
X020755Y023374D03*
X017290Y029248D03*
X016699Y029248D03*
X004725Y017254D03*
X004725Y016664D03*
X016699Y010629D03*
X017290Y010629D03*
X017290Y004838D03*
X016699Y004838D03*
X029199Y016747D03*
X029199Y017338D03*
D18*
X019940Y017960D03*
X019940Y018334D03*
X019940Y018708D03*
X018916Y018708D03*
X018916Y017960D03*
D19*
X019003Y021069D03*
X019003Y021829D03*
X019803Y021449D03*
X020725Y014281D03*
X020725Y013521D03*
X021525Y013901D03*
D20*
X012295Y019229D03*
X012045Y018796D03*
X011795Y018363D03*
X011545Y017930D03*
X011295Y017497D03*
X011045Y017064D03*
D21*
X022721Y019315D02*
X022628Y019408D01*
X022925Y019328D01*
X023079Y019061D01*
X022999Y018764D01*
X022732Y018610D01*
X022435Y018690D01*
X022281Y018957D01*
X022361Y019254D01*
X022628Y019408D01*
X022648Y019257D01*
X022832Y019208D01*
X022928Y019041D01*
X022879Y018857D01*
X022712Y018761D01*
X022528Y018810D01*
X022432Y018977D01*
X022481Y019161D01*
X022648Y019257D01*
X022667Y019108D01*
X022741Y019088D01*
X022779Y019022D01*
X022759Y018948D01*
X022693Y018910D01*
X022619Y018930D01*
X022581Y018996D01*
X022601Y019070D01*
X022667Y019108D01*
X023339Y018203D02*
X023246Y018296D01*
X023543Y018216D01*
X023697Y017949D01*
X023617Y017652D01*
X023350Y017498D01*
X023053Y017578D01*
X022899Y017845D01*
X022979Y018142D01*
X023246Y018296D01*
X023266Y018145D01*
X023450Y018096D01*
X023546Y017929D01*
X023497Y017745D01*
X023330Y017649D01*
X023146Y017698D01*
X023050Y017865D01*
X023099Y018049D01*
X023266Y018145D01*
X023285Y017996D01*
X023359Y017976D01*
X023397Y017910D01*
X023377Y017836D01*
X023311Y017798D01*
X023237Y017818D01*
X023199Y017884D01*
X023219Y017958D01*
X023285Y017996D01*
D22*
X021554Y017542D03*
X021180Y017542D03*
X020806Y017542D03*
X020806Y018566D03*
X021180Y018566D03*
X021554Y018566D03*
D23*
X021494Y019154D03*
X020825Y019154D03*
X020024Y017419D03*
X019355Y017419D03*
X021355Y016804D03*
X022024Y016804D03*
D24*
X014391Y018614D03*
X013879Y018614D03*
X013879Y019284D03*
X014135Y019284D03*
X014391Y019284D03*
D25*
X013425Y018369D03*
X012665Y018369D03*
X013045Y017569D03*
D26*
X003738Y017236D02*
X003421Y017236D01*
X003421Y016736D02*
X003738Y016736D01*
X016745Y003815D02*
X016745Y003498D01*
X017245Y003498D02*
X017245Y003815D01*
X030222Y016793D02*
X030539Y016793D01*
X030539Y017293D02*
X030222Y017293D01*
X017245Y030270D02*
X017245Y030587D01*
X016745Y030587D02*
X016745Y030270D01*
D27*
X015349Y021019D03*
X015800Y018454D03*
X012946Y015624D03*
X018695Y015229D03*
X018695Y014779D03*
X019595Y014779D03*
X019595Y015229D03*
X019600Y014329D03*
X019595Y013879D03*
X019595Y011229D03*
X019595Y010809D03*
X019605Y010389D03*
D28*
G36*
X012021Y020386D02*
X011444Y020720D01*
X011837Y021400D01*
X012414Y021066D01*
X012021Y020386D01*
G37*
G36*
X013471Y022899D02*
X012894Y023233D01*
X013287Y023913D01*
X013864Y023579D01*
X013471Y022899D01*
G37*
D29*
G36*
X012677Y021524D02*
X012100Y021858D01*
X012631Y022776D01*
X013208Y022442D01*
X012677Y021524D01*
G37*
D30*
G36*
X013839Y021011D02*
X013721Y020807D01*
X012973Y021239D01*
X013091Y021443D01*
X013839Y021011D01*
G37*
G36*
X013967Y021232D02*
X013849Y021028D01*
X013101Y021460D01*
X013219Y021664D01*
X013967Y021232D01*
G37*
G36*
X014094Y021454D02*
X013976Y021250D01*
X013228Y021682D01*
X013346Y021886D01*
X014094Y021454D01*
G37*
G36*
X014222Y021676D02*
X014104Y021472D01*
X013356Y021904D01*
X013474Y022108D01*
X014222Y021676D01*
G37*
G36*
X014350Y021897D02*
X014232Y021693D01*
X013484Y022125D01*
X013602Y022329D01*
X014350Y021897D01*
G37*
D31*
X013798Y022398D03*
X013011Y021035D03*
D32*
X012220Y015069D03*
X019795Y020829D03*
X020305Y015094D03*
D33*
X018195Y022294D03*
D34*
X020070Y023664D03*
M02*
