G75*
%MOIN*%
%OFA0B0*%
%FSLAX24Y24*%
%IPPOS*%
%LPD*%
%AMOC8*
5,1,8,0,0,1.08239X$1,22.5*
%
%ADD10R,0.4400X0.5000*%
%ADD11R,0.0650X0.0660*%
%ADD12C,0.0050*%
%ADD13C,0.0080*%
%ADD14C,0.0160*%
%ADD15C,0.0220*%
%ADD16C,0.0060*%
%ADD17R,0.0160X0.0280*%
%ADD18R,0.0098X0.0098*%
%ADD19R,0.0017X0.0017*%
%ADD20R,0.0100X0.0017*%
%ADD21R,0.0150X0.0017*%
%ADD22R,0.0133X0.0017*%
%ADD23R,0.0184X0.0017*%
%ADD24R,0.0233X0.0017*%
%ADD25R,0.0216X0.0017*%
%ADD26R,0.0267X0.0017*%
%ADD27R,0.0250X0.0017*%
%ADD28R,0.0317X0.0017*%
%ADD29R,0.0034X0.0017*%
%ADD30R,0.0033X0.0017*%
%ADD31R,0.0300X0.0017*%
%ADD32R,0.0334X0.0017*%
%ADD33R,0.0067X0.0017*%
%ADD34R,0.0084X0.0017*%
%ADD35R,0.0333X0.0017*%
%ADD36R,0.0383X0.0017*%
%ADD37R,0.0116X0.0017*%
%ADD38R,0.0417X0.0017*%
%ADD39R,0.0150X0.0017*%
%ADD40R,0.0134X0.0017*%
%ADD41R,0.0600X0.0017*%
%ADD42R,0.0616X0.0017*%
%ADD43R,0.0633X0.0017*%
%ADD44R,0.0633X0.0017*%
%ADD45R,0.0667X0.0017*%
%ADD46R,0.0667X0.0017*%
%ADD47R,0.0650X0.0017*%
%ADD48R,0.0666X0.0017*%
%ADD49R,0.0650X0.0017*%
%ADD50R,0.0134X0.0017*%
%ADD51R,0.0083X0.0017*%
%ADD52R,0.0200X0.0017*%
%ADD53R,0.0184X0.0017*%
%ADD54R,0.0117X0.0017*%
%ADD55R,0.0217X0.0017*%
%ADD56R,0.0116X0.0017*%
%ADD57R,0.0100X0.0017*%
%ADD58R,0.0250X0.0017*%
%ADD59R,0.0233X0.0017*%
%ADD60R,0.0117X0.0017*%
%ADD61R,0.0283X0.0017*%
%ADD62R,0.0634X0.0017*%
%ADD63R,0.0400X0.0017*%
%ADD64R,0.0317X0.0017*%
%ADD65R,0.0417X0.0017*%
%ADD66R,0.0350X0.0017*%
%ADD67R,0.0634X0.0017*%
%ADD68R,0.0617X0.0017*%
%ADD69R,0.0416X0.0017*%
%ADD70R,0.0400X0.0017*%
%ADD71R,0.0434X0.0017*%
%ADD72R,0.0367X0.0017*%
%ADD73R,0.0617X0.0017*%
%ADD74R,0.0183X0.0017*%
%ADD75R,0.0167X0.0017*%
%ADD76R,0.0166X0.0017*%
%ADD77R,0.0600X0.0017*%
%ADD78R,0.0183X0.0017*%
%ADD79R,0.0083X0.0017*%
%ADD80R,0.0084X0.0017*%
%ADD81R,0.0683X0.0017*%
%ADD82R,0.0434X0.0017*%
%ADD83R,0.0700X0.0017*%
%ADD84R,0.0366X0.0017*%
%ADD85R,0.0384X0.0017*%
%ADD86R,0.0717X0.0017*%
%ADD87R,0.0700X0.0017*%
%ADD88R,0.0350X0.0017*%
%ADD89R,0.0717X0.0017*%
%ADD90R,0.0300X0.0017*%
%ADD91R,0.0734X0.0017*%
%ADD92R,0.0684X0.0017*%
%ADD93R,0.0133X0.0017*%
%ADD94R,0.0166X0.0017*%
%ADD95R,0.0033X0.0017*%
%ADD96R,0.0016X0.0017*%
%ADD97R,0.0017X0.0017*%
%ADD98R,0.0716X0.0017*%
%ADD99R,0.0733X0.0017*%
%ADD100R,0.0383X0.0017*%
%ADD101R,0.0316X0.0017*%
%ADD102R,0.0800X0.0017*%
%ADD103R,0.0817X0.0017*%
%ADD104R,0.0367X0.0017*%
%ADD105R,0.0884X0.0017*%
%ADD106R,0.0900X0.0017*%
%ADD107R,0.0900X0.0017*%
%ADD108R,0.0917X0.0017*%
%ADD109R,0.0333X0.0017*%
%ADD110R,0.0334X0.0017*%
%ADD111R,0.0234X0.0017*%
%ADD112R,0.0266X0.0017*%
%ADD113R,0.0917X0.0017*%
%ADD114R,0.0284X0.0017*%
%ADD115R,0.0283X0.0017*%
%ADD116R,0.0884X0.0017*%
%ADD117R,0.0934X0.0017*%
%ADD118R,0.0867X0.0017*%
%ADD119R,0.0783X0.0017*%
%ADD120R,0.0800X0.0017*%
%ADD121R,0.0217X0.0017*%
%ADD122R,0.0200X0.0017*%
%ADD123R,0.0216X0.0017*%
%ADD124R,0.0733X0.0017*%
%ADD125R,0.0316X0.0017*%
%ADD126R,0.0050X0.0017*%
%ADD127R,0.0783X0.0017*%
%ADD128R,0.0767X0.0017*%
%ADD129R,0.1683X0.0017*%
%ADD130R,0.1666X0.0017*%
%ADD131R,0.1650X0.0017*%
%ADD132R,0.1634X0.0017*%
%ADD133R,0.1634X0.0017*%
%ADD134R,0.0433X0.0017*%
%ADD135R,0.1600X0.0017*%
%ADD136R,0.1600X0.0017*%
%ADD137R,0.0433X0.0017*%
%ADD138R,0.1583X0.0017*%
%ADD139R,0.0284X0.0017*%
%ADD140R,0.1666X0.0017*%
%ADD141R,0.1700X0.0017*%
%ADD142R,0.1734X0.0017*%
%ADD143R,0.1734X0.0017*%
%ADD144R,0.0050X0.0017*%
%ADD145R,0.1750X0.0017*%
%ADD146R,0.1783X0.0017*%
%ADD147R,0.1783X0.0017*%
%ADD148R,0.0384X0.0017*%
%ADD149R,0.1817X0.0017*%
%ADD150R,0.1850X0.0017*%
%ADD151R,0.1866X0.0017*%
%ADD152R,0.0167X0.0017*%
%ADD153R,0.1917X0.0017*%
%ADD154R,0.0066X0.0017*%
%ADD155R,0.1934X0.0017*%
%ADD156R,0.1917X0.0017*%
%ADD157R,0.1883X0.0017*%
%ADD158R,0.0866X0.0017*%
%ADD159R,0.0566X0.0017*%
%ADD160R,0.0466X0.0017*%
%ADD161R,0.0466X0.0017*%
%ADD162R,0.0450X0.0017*%
%ADD163R,0.0450X0.0017*%
%ADD164R,0.0210X0.0010*%
%ADD165R,0.0060X0.0010*%
%ADD166R,0.0310X0.0010*%
%ADD167R,0.0190X0.0010*%
%ADD168R,0.0350X0.0010*%
%ADD169R,0.0240X0.0010*%
%ADD170R,0.0380X0.0010*%
%ADD171R,0.0270X0.0010*%
%ADD172R,0.0390X0.0010*%
%ADD173R,0.0280X0.0010*%
%ADD174R,0.0410X0.0010*%
%ADD175R,0.0300X0.0010*%
%ADD176R,0.0420X0.0010*%
%ADD177R,0.0100X0.0010*%
%ADD178R,0.0140X0.0010*%
%ADD179R,0.0170X0.0010*%
%ADD180R,0.0120X0.0010*%
%ADD181R,0.0180X0.0010*%
%ADD182R,0.0200X0.0010*%
%ADD183R,0.0110X0.0010*%
%ADD184R,0.0340X0.0010*%
%ADD185R,0.0250X0.0010*%
%ADD186R,0.0050X0.0010*%
%ADD187R,0.0370X0.0010*%
%ADD188R,0.0080X0.0010*%
%ADD189R,0.0320X0.0010*%
%ADD190R,0.0290X0.0010*%
%ADD191R,0.0360X0.0010*%
%ADD192R,0.0330X0.0010*%
%ADD193R,0.0220X0.0010*%
%ADD194R,0.0260X0.0010*%
%ADD195R,0.0430X0.0010*%
%ADD196R,0.0440X0.0010*%
%ADD197R,0.0450X0.0010*%
%ADD198R,0.0150X0.0010*%
%ADD199R,0.0130X0.0010*%
%ADD200R,0.0160X0.0010*%
%ADD201R,0.0230X0.0010*%
%ADD202R,0.0040X0.0010*%
%ADD203R,0.0090X0.0010*%
%ADD204R,0.0070X0.0010*%
%ADD205R,0.0030X0.0010*%
%ADD206R,0.0020X0.0010*%
%ADD207R,0.0460X0.0010*%
%ADD208R,0.0400X0.0010*%
%ADD209R,0.0279X0.0009*%
%ADD210R,0.0396X0.0009*%
%ADD211R,0.0477X0.0009*%
%ADD212R,0.0387X0.0009*%
%ADD213R,0.0531X0.0009*%
%ADD214R,0.0108X0.0009*%
%ADD215R,0.0585X0.0009*%
%ADD216R,0.0594X0.0009*%
%ADD217R,0.0153X0.0009*%
%ADD218R,0.0657X0.0009*%
%ADD219R,0.0639X0.0009*%
%ADD220R,0.0639X0.0009*%
%ADD221R,0.0180X0.0009*%
%ADD222R,0.0711X0.0009*%
%ADD223R,0.0684X0.0009*%
%ADD224R,0.0207X0.0009*%
%ADD225R,0.0747X0.0009*%
%ADD226R,0.0720X0.0009*%
%ADD227R,0.0225X0.0009*%
%ADD228R,0.0774X0.0009*%
%ADD229R,0.0756X0.0009*%
%ADD230R,0.0243X0.0009*%
%ADD231R,0.0801X0.0009*%
%ADD232R,0.0783X0.0009*%
%ADD233R,0.0243X0.0009*%
%ADD234R,0.0837X0.0009*%
%ADD235R,0.0819X0.0009*%
%ADD236R,0.0819X0.0009*%
%ADD237R,0.0261X0.0009*%
%ADD238R,0.0846X0.0009*%
%ADD239R,0.0864X0.0009*%
%ADD240R,0.0873X0.0009*%
%ADD241R,0.0882X0.0009*%
%ADD242R,0.0891X0.0009*%
%ADD243R,0.0261X0.0009*%
%ADD244R,0.0891X0.0009*%
%ADD245R,0.0909X0.0009*%
%ADD246R,0.0909X0.0009*%
%ADD247R,0.0909X0.0009*%
%ADD248R,0.0927X0.0009*%
%ADD249R,0.0945X0.0009*%
%ADD250R,0.0954X0.0009*%
%ADD251R,0.0972X0.0009*%
%ADD252R,0.0972X0.0009*%
%ADD253R,0.0279X0.0009*%
%ADD254R,0.0963X0.0009*%
%ADD255R,0.0981X0.0009*%
%ADD256R,0.0999X0.0009*%
%ADD257R,0.0981X0.0009*%
%ADD258R,0.1008X0.0009*%
%ADD259R,0.0990X0.0009*%
%ADD260R,0.1017X0.0009*%
%ADD261R,0.1017X0.0009*%
%ADD262R,0.0459X0.0009*%
%ADD263R,0.0522X0.0009*%
%ADD264R,0.0522X0.0009*%
%ADD265R,0.1008X0.0009*%
%ADD266R,0.0351X0.0009*%
%ADD267R,0.0342X0.0009*%
%ADD268R,0.0342X0.0009*%
%ADD269R,0.0315X0.0009*%
%ADD270R,0.0297X0.0009*%
%ADD271R,0.0297X0.0009*%
%ADD272R,0.0306X0.0009*%
%ADD273R,0.0279X0.0009*%
%ADD274R,0.1026X0.0009*%
%ADD275R,0.0288X0.0009*%
%ADD276R,0.0270X0.0009*%
%ADD277R,0.0414X0.0009*%
%ADD278R,0.0387X0.0009*%
%ADD279R,0.0270X0.0009*%
%ADD280R,0.0360X0.0009*%
%ADD281R,0.0342X0.0009*%
%ADD282R,0.0333X0.0009*%
%ADD283R,0.0306X0.0009*%
%ADD284R,0.0279X0.0009*%
%ADD285R,0.0207X0.0009*%
%ADD286R,0.0189X0.0009*%
%ADD287R,0.0189X0.0009*%
%ADD288R,0.0153X0.0009*%
%ADD289R,0.0099X0.0009*%
%ADD290R,0.0099X0.0009*%
%ADD291R,0.0477X0.0009*%
%ADD292R,0.0477X0.0009*%
%ADD293R,0.0612X0.0009*%
%ADD294R,0.0612X0.0009*%
%ADD295R,0.0648X0.0009*%
%ADD296R,0.0675X0.0009*%
%ADD297R,0.0702X0.0009*%
%ADD298R,0.0702X0.0009*%
%ADD299R,0.0720X0.0009*%
%ADD300R,0.0738X0.0009*%
%ADD301R,0.0747X0.0009*%
%ADD302R,0.0747X0.0009*%
%ADD303R,0.0747X0.0009*%
%ADD304R,0.0756X0.0009*%
%ADD305R,0.0729X0.0009*%
%ADD306R,0.0729X0.0009*%
%ADD307R,0.0324X0.0009*%
%ADD308R,0.0603X0.0009*%
%ADD309R,0.0684X0.0009*%
%ADD310R,0.0621X0.0009*%
%ADD311R,0.0657X0.0009*%
%ADD312R,0.0675X0.0009*%
%ADD313R,0.0288X0.0009*%
%ADD314R,0.0657X0.0009*%
%ADD315R,0.0369X0.0009*%
%ADD316R,0.0477X0.0009*%
%ADD317R,0.0666X0.0009*%
%ADD318R,0.0693X0.0009*%
%ADD319R,0.0234X0.0009*%
%ADD320R,0.0963X0.0009*%
%ADD321R,0.0225X0.0009*%
%ADD322R,0.0693X0.0009*%
%ADD323R,0.0945X0.0009*%
%ADD324R,0.0936X0.0009*%
%ADD325R,0.0171X0.0009*%
%ADD326R,0.0918X0.0009*%
%ADD327R,0.0900X0.0009*%
%ADD328R,0.0846X0.0009*%
%ADD329R,0.0666X0.0009*%
%ADD330R,0.0828X0.0009*%
%ADD331R,0.0378X0.0009*%
%ADD332R,0.0801X0.0009*%
%ADD333R,0.0774X0.0009*%
%ADD334R,0.0711X0.0009*%
%ADD335R,0.0576X0.0009*%
%ADD336R,0.0459X0.0009*%
%ADD337R,0.0297X0.0009*%
%ADD338R,0.1035X0.0009*%
%ADD339R,0.1026X0.0009*%
%ADD340R,0.0990X0.0009*%
%ADD341R,0.0918X0.0009*%
%ADD342R,0.0234X0.0009*%
%ADD343R,0.0819X0.0009*%
%ADD344R,0.0783X0.0009*%
D10*
X016995Y012429D03*
D11*
G36*
X017457Y017048D02*
X016997Y016588D01*
X016531Y017054D01*
X016991Y017514D01*
X017457Y017048D01*
G37*
D12*
X017187Y017836D02*
X017097Y017836D01*
X017052Y017881D01*
X017052Y018106D01*
X016938Y018106D02*
X016938Y017971D01*
X016848Y018016D01*
X016802Y018016D01*
X016757Y017971D01*
X016757Y017881D01*
X016802Y017836D01*
X016893Y017836D01*
X016938Y017881D01*
X016938Y018106D02*
X016757Y018106D01*
X017232Y018106D02*
X017232Y017881D01*
X017187Y017836D01*
X017643Y018725D02*
X017598Y018770D01*
X017598Y018950D01*
X017643Y018995D01*
X017733Y018995D01*
X017778Y018950D01*
X017778Y018905D01*
X017733Y018860D01*
X017598Y018860D01*
X017643Y018725D02*
X017733Y018725D01*
X017778Y018770D01*
X017893Y018770D02*
X017938Y018725D01*
X018028Y018725D01*
X018073Y018770D01*
X018073Y018950D01*
X018028Y018995D01*
X017938Y018995D01*
X017893Y018950D01*
X018356Y019676D02*
X018356Y020858D01*
X016623Y020858D01*
X016623Y019676D01*
X018356Y019676D01*
X018750Y019053D02*
X018750Y018873D01*
X018841Y018782D01*
X018931Y018873D01*
X018931Y019053D01*
X019045Y019008D02*
X019045Y018963D01*
X019090Y018918D01*
X019045Y018873D01*
X019045Y018828D01*
X019090Y018782D01*
X019180Y018782D01*
X019225Y018828D01*
X019328Y018828D02*
X019328Y018782D01*
X019373Y018782D01*
X019373Y018828D01*
X019328Y018828D01*
X019487Y018828D02*
X019532Y018782D01*
X019622Y018782D01*
X019667Y018828D01*
X019577Y018918D02*
X019532Y018918D01*
X019487Y018873D01*
X019487Y018828D01*
X019532Y018918D02*
X019487Y018963D01*
X019487Y019008D01*
X019532Y019053D01*
X019622Y019053D01*
X019667Y019008D01*
X019225Y019008D02*
X019180Y019053D01*
X019090Y019053D01*
X019045Y019008D01*
X019090Y018918D02*
X019135Y018918D01*
X020627Y018851D02*
X020627Y019031D01*
X020672Y019076D01*
X020807Y019076D01*
X020807Y018805D01*
X020672Y018805D01*
X020627Y018851D01*
X020922Y018805D02*
X020922Y019076D01*
X021102Y019076D02*
X020922Y018805D01*
X021102Y018805D02*
X021102Y019076D01*
X021217Y019031D02*
X021262Y019076D01*
X021352Y019076D01*
X021397Y019031D01*
X021397Y018851D01*
X021352Y018805D01*
X021262Y018805D01*
X021217Y018851D01*
X021217Y018941D01*
X021307Y018941D01*
X021288Y017304D02*
X021379Y017259D01*
X021469Y017169D01*
X021333Y017169D01*
X021288Y017124D01*
X021288Y017079D01*
X021333Y017034D01*
X021424Y017034D01*
X021469Y017079D01*
X021469Y017169D01*
X021583Y017304D02*
X021763Y017304D01*
X021673Y017304D02*
X021673Y017034D01*
X019848Y016787D02*
X019848Y016516D01*
X019848Y016607D02*
X019713Y016607D01*
X019668Y016652D01*
X019668Y016742D01*
X019713Y016787D01*
X019848Y016787D01*
X019758Y016607D02*
X019668Y016516D01*
X019553Y016516D02*
X019373Y016516D01*
X019463Y016516D02*
X019463Y016787D01*
X019553Y016697D01*
X019258Y016697D02*
X019213Y016652D01*
X019078Y016652D01*
X019078Y016562D02*
X019078Y016742D01*
X019123Y016787D01*
X019213Y016787D01*
X019258Y016742D01*
X019258Y016697D01*
X019258Y016562D02*
X019213Y016516D01*
X019123Y016516D01*
X019078Y016562D01*
X019132Y016145D02*
X019087Y016100D01*
X019267Y015920D01*
X019222Y015875D01*
X019132Y015875D01*
X019087Y015920D01*
X019087Y016100D01*
X019132Y016145D02*
X019222Y016145D01*
X019267Y016100D01*
X019267Y015920D01*
X019381Y015875D02*
X019562Y015875D01*
X019381Y016055D01*
X019381Y016100D01*
X019426Y016145D01*
X019517Y016145D01*
X019562Y016100D01*
X019676Y016100D02*
X019676Y016010D01*
X019721Y015965D01*
X019856Y015965D01*
X019766Y015965D02*
X019676Y015875D01*
X019856Y015875D02*
X019856Y016145D01*
X019721Y016145D01*
X019676Y016100D01*
X020243Y015108D02*
X020243Y009832D01*
X017197Y012343D02*
X017152Y012297D01*
X017062Y012297D01*
X017017Y012343D01*
X017017Y012568D01*
X016903Y012523D02*
X016903Y012478D01*
X016858Y012433D01*
X016767Y012433D01*
X016722Y012388D01*
X016722Y012343D01*
X016767Y012297D01*
X016858Y012297D01*
X016903Y012343D01*
X016903Y012388D01*
X016858Y012433D01*
X016767Y012433D02*
X016722Y012478D01*
X016722Y012523D01*
X016767Y012568D01*
X016858Y012568D01*
X016903Y012523D01*
X017197Y012568D02*
X017197Y012343D01*
X015219Y015520D02*
X015219Y015790D01*
X015084Y015790D01*
X015039Y015745D01*
X015039Y015655D01*
X015084Y015610D01*
X015219Y015610D01*
X015129Y015610D02*
X015039Y015520D01*
X014924Y015520D02*
X014744Y015520D01*
X014834Y015520D02*
X014834Y015790D01*
X014924Y015700D01*
X014629Y015790D02*
X014449Y015790D01*
X014449Y015745D01*
X014629Y015565D01*
X014629Y015520D01*
X014584Y016227D02*
X014629Y016272D01*
X014629Y016317D01*
X014584Y016362D01*
X014494Y016362D01*
X014449Y016317D01*
X014449Y016272D01*
X014494Y016227D01*
X014584Y016227D01*
X014584Y016362D02*
X014629Y016407D01*
X014629Y016452D01*
X014584Y016497D01*
X014494Y016497D01*
X014449Y016452D01*
X014449Y016407D01*
X014494Y016362D01*
X014744Y016227D02*
X014924Y016227D01*
X014834Y016227D02*
X014834Y016497D01*
X014924Y016407D01*
X015039Y016362D02*
X015084Y016317D01*
X015219Y016317D01*
X015219Y016227D02*
X015219Y016497D01*
X015084Y016497D01*
X015039Y016452D01*
X015039Y016362D01*
X015129Y016317D02*
X015039Y016227D01*
X015908Y015954D02*
X016088Y015774D01*
X016043Y015728D01*
X015953Y015728D01*
X015908Y015774D01*
X015908Y015954D01*
X015953Y015999D01*
X016043Y015999D01*
X016088Y015954D01*
X016088Y015774D01*
X016203Y015728D02*
X016383Y015728D01*
X016293Y015728D02*
X016293Y015999D01*
X016383Y015909D01*
X016498Y015954D02*
X016543Y015999D01*
X016633Y015999D01*
X016678Y015954D01*
X016678Y015774D01*
X016633Y015728D01*
X016543Y015728D01*
X016498Y015774D01*
X016285Y018394D02*
X016330Y018439D01*
X016285Y018394D02*
X016195Y018394D01*
X016150Y018439D01*
X016150Y018484D01*
X016195Y018529D01*
X016285Y018529D01*
X016330Y018574D01*
X016330Y018619D01*
X016285Y018664D01*
X016195Y018664D01*
X016150Y018619D01*
X016035Y018664D02*
X015900Y018664D01*
X015855Y018619D01*
X015855Y018439D01*
X015900Y018394D01*
X016035Y018394D01*
X016035Y018664D01*
X015740Y018574D02*
X015650Y018664D01*
X015560Y018574D01*
X015560Y018394D01*
X015560Y018529D02*
X015740Y018529D01*
X015740Y018574D02*
X015740Y018394D01*
X014635Y018439D02*
X014590Y018394D01*
X014500Y018394D01*
X014455Y018439D01*
X014455Y018484D01*
X014500Y018529D01*
X014590Y018529D01*
X014635Y018574D01*
X014635Y018619D01*
X014590Y018664D01*
X014500Y018664D01*
X014455Y018619D01*
X014340Y018619D02*
X014340Y018439D01*
X014295Y018394D01*
X014205Y018394D01*
X014160Y018439D01*
X014045Y018394D02*
X013865Y018394D01*
X014045Y018394D02*
X014045Y018664D01*
X014160Y018619D02*
X014205Y018664D01*
X014295Y018664D01*
X014340Y018619D01*
X016985Y019991D02*
X016987Y020011D01*
X016992Y020031D01*
X017002Y020049D01*
X017014Y020066D01*
X017029Y020080D01*
X017047Y020090D01*
X017066Y020098D01*
X017086Y020102D01*
X017106Y020102D01*
X017126Y020098D01*
X017145Y020090D01*
X017163Y020080D01*
X017178Y020066D01*
X017190Y020049D01*
X017200Y020031D01*
X017205Y020011D01*
X017207Y019991D01*
X017205Y019971D01*
X017200Y019951D01*
X017190Y019933D01*
X017178Y019916D01*
X017163Y019902D01*
X017145Y019892D01*
X017126Y019884D01*
X017106Y019880D01*
X017086Y019880D01*
X017066Y019884D01*
X017047Y019892D01*
X017029Y019902D01*
X017014Y019916D01*
X017002Y019933D01*
X016992Y019951D01*
X016987Y019971D01*
X016985Y019991D01*
X013747Y015108D02*
X013747Y009832D01*
X013747Y015108D02*
X020243Y015108D01*
X029637Y016411D02*
X029637Y016591D01*
X029637Y016706D02*
X029637Y016886D01*
X029637Y017000D02*
X029637Y017135D01*
X029682Y017180D01*
X029862Y017180D01*
X029907Y017135D01*
X029907Y017000D01*
X029637Y017000D01*
X029772Y016796D02*
X029772Y016706D01*
X029907Y016706D02*
X029637Y016706D01*
X029907Y016706D02*
X029907Y016886D01*
X029817Y017295D02*
X029907Y017385D01*
X029637Y017385D01*
X029637Y017295D02*
X029637Y017475D01*
X029637Y017590D02*
X029637Y017770D01*
X029637Y017680D02*
X029907Y017680D01*
X029817Y017590D01*
X029907Y016411D02*
X029637Y016411D01*
X017481Y004388D02*
X017481Y004118D01*
X017301Y004118D01*
X017186Y004118D02*
X017006Y004118D01*
X016891Y004118D02*
X016756Y004118D01*
X016711Y004163D01*
X016711Y004343D01*
X016756Y004388D01*
X016891Y004388D01*
X016891Y004118D01*
X017096Y004253D02*
X017186Y004253D01*
X017186Y004388D02*
X017186Y004118D01*
X017186Y004388D02*
X017006Y004388D01*
X016597Y004343D02*
X016597Y004298D01*
X016552Y004253D01*
X016417Y004253D01*
X016417Y004163D02*
X016417Y004343D01*
X016462Y004388D01*
X016552Y004388D01*
X016597Y004343D01*
X016597Y004163D02*
X016552Y004118D01*
X016462Y004118D01*
X016417Y004163D01*
X004397Y016531D02*
X004127Y016531D01*
X004127Y016712D01*
X004127Y016826D02*
X004127Y017006D01*
X004127Y017121D02*
X004127Y017256D01*
X004172Y017301D01*
X004352Y017301D01*
X004397Y017256D01*
X004397Y017121D01*
X004127Y017121D01*
X004262Y016916D02*
X004262Y016826D01*
X004397Y016826D02*
X004127Y016826D01*
X004397Y016826D02*
X004397Y017006D01*
X004262Y017415D02*
X004262Y017595D01*
X004127Y017550D02*
X004397Y017550D01*
X004262Y017415D01*
X016638Y028905D02*
X016638Y028951D01*
X016458Y029131D01*
X016458Y029176D01*
X016638Y029176D01*
X016752Y029131D02*
X016797Y029176D01*
X016932Y029176D01*
X016932Y028905D01*
X016797Y028905D01*
X016752Y028951D01*
X016752Y029131D01*
X017047Y029176D02*
X017227Y029176D01*
X017227Y028905D01*
X017047Y028905D01*
X017137Y029041D02*
X017227Y029041D01*
X017342Y028905D02*
X017522Y028905D01*
X017522Y029176D01*
D13*
X012262Y011938D02*
X012198Y011701D01*
X012435Y011637D01*
X012736Y011811D01*
X012562Y012111D02*
X012262Y011938D01*
X012084Y012072D02*
X012211Y012546D01*
X011911Y012373D01*
X011879Y012254D01*
X011966Y012104D01*
X012084Y012072D01*
X012384Y012246D01*
X012416Y012364D01*
X012329Y012515D01*
X012211Y012546D01*
X011808Y012551D02*
X011764Y012626D01*
X011689Y012583D01*
X011733Y012507D01*
X011808Y012551D01*
X011670Y012790D02*
X011551Y012822D01*
X011464Y012972D01*
X011496Y013090D01*
X011571Y013134D01*
X011690Y013102D01*
X011777Y012952D01*
X011895Y012920D01*
X011970Y012963D01*
X012002Y013082D01*
X011915Y013232D01*
X011797Y013264D01*
X011722Y013221D01*
X011690Y013102D01*
X011777Y012952D02*
X011745Y012833D01*
X011670Y012790D01*
X016183Y016944D02*
X016189Y017147D01*
X016828Y017822D02*
X016995Y017989D01*
X017162Y017822D01*
X017774Y017209D02*
X017941Y017042D01*
X017774Y016875D01*
X017162Y016263D02*
X016995Y016096D01*
X016828Y016263D01*
D14*
X017803Y018229D02*
X017827Y018229D01*
D15*
X017335Y015861D02*
X017335Y015837D01*
D16*
X021365Y015790D02*
X021665Y015790D01*
X021665Y016930D01*
X021365Y016930D01*
X021365Y015790D01*
X012754Y015428D02*
X012454Y015428D01*
X012454Y016568D01*
X012754Y016568D01*
X012754Y015428D01*
D17*
X013965Y015664D03*
X013965Y016349D03*
X020330Y016654D03*
X020330Y015994D03*
D18*
X029396Y016993D03*
X016946Y004641D03*
X004725Y017018D03*
X016946Y029444D03*
D19*
X018968Y021508D03*
X020451Y021508D03*
D20*
X020443Y021525D03*
X019327Y021642D03*
X018977Y021525D03*
X018043Y022642D03*
X017893Y022842D03*
X017893Y022992D03*
X018210Y022942D03*
X018210Y022925D03*
X018210Y022892D03*
X017377Y022892D03*
X017377Y022875D03*
X017377Y022842D03*
X017377Y022825D03*
X017377Y022925D03*
X017377Y022942D03*
X017377Y022975D03*
X017377Y022992D03*
X017193Y022992D03*
X017193Y022842D03*
X017193Y022825D03*
X017010Y022642D03*
X016677Y022675D03*
X016677Y022692D03*
X016677Y022725D03*
X016677Y022742D03*
X016677Y022775D03*
X016677Y022792D03*
X016677Y022825D03*
X016677Y022842D03*
X016677Y022875D03*
X016677Y022892D03*
X016677Y022925D03*
X016677Y022942D03*
X016677Y022975D03*
X016677Y022992D03*
X016677Y023142D03*
X016877Y023025D03*
X016893Y023042D03*
X016877Y022992D03*
X016877Y022975D03*
X016360Y022975D03*
X016360Y022992D03*
X016360Y022942D03*
X016360Y022925D03*
X016360Y022892D03*
X016360Y022875D03*
X016360Y022842D03*
X016360Y022825D03*
X016360Y022792D03*
X016360Y022775D03*
X016360Y022742D03*
X016360Y022725D03*
X016360Y022692D03*
X016360Y022675D03*
X016660Y022342D03*
X016660Y022325D03*
X016660Y022142D03*
X016660Y022125D03*
X016660Y022092D03*
X016660Y022075D03*
X016660Y022042D03*
X016660Y022025D03*
X016660Y021992D03*
X016660Y021975D03*
X016660Y021942D03*
X016660Y021925D03*
X016660Y021892D03*
X016660Y021875D03*
X016660Y021842D03*
X016660Y021825D03*
X016877Y021842D03*
X016877Y021975D03*
X016877Y021992D03*
X016877Y022025D03*
X016877Y022042D03*
X016877Y022142D03*
X016877Y022175D03*
X016877Y022192D03*
X016893Y022225D03*
X017193Y022025D03*
X017377Y022025D03*
X017377Y022042D03*
X017377Y022075D03*
X017377Y022092D03*
X017377Y022125D03*
X017377Y022142D03*
X017377Y022175D03*
X017377Y021992D03*
X017377Y021975D03*
X017377Y021942D03*
X017377Y021925D03*
X017377Y021892D03*
X017377Y021875D03*
X017377Y021842D03*
X017377Y021825D03*
X017693Y021825D03*
X016293Y021992D03*
X016293Y022025D03*
X016293Y022042D03*
X016293Y022142D03*
X016293Y022175D03*
X016293Y022192D03*
X016177Y021825D03*
X015743Y022075D03*
X015760Y022125D03*
X015760Y022142D03*
X015777Y022175D03*
X015777Y022192D03*
X015793Y022225D03*
X015793Y022242D03*
X015810Y022275D03*
X015810Y022292D03*
X015577Y022125D03*
X015593Y022075D03*
X015610Y022042D03*
X015610Y022025D03*
X015427Y022075D03*
X015427Y022092D03*
X015443Y022125D03*
X015443Y022142D03*
X015410Y022042D03*
X015410Y022025D03*
X015277Y022042D03*
X015260Y022075D03*
X015260Y022092D03*
X015260Y022125D03*
X015243Y022175D03*
X015243Y022192D03*
X015227Y022225D03*
X015227Y022242D03*
X015210Y022275D03*
X015210Y022292D03*
X015193Y022325D03*
X015193Y022342D03*
X015293Y022642D03*
X015460Y022842D03*
X015460Y022975D03*
X015460Y022992D03*
X015677Y023075D03*
X015943Y022775D03*
X015793Y022642D03*
X015510Y022342D03*
X015510Y022325D03*
X015077Y022025D03*
X014543Y022025D03*
X014543Y022042D03*
X014543Y022075D03*
X014543Y022092D03*
X014543Y022125D03*
X014543Y022142D03*
X014543Y021992D03*
X014543Y021975D03*
X014543Y021942D03*
X014543Y021925D03*
X014543Y021892D03*
X014543Y021875D03*
X014543Y021842D03*
X014543Y021825D03*
X014160Y021975D03*
X014177Y022042D03*
X014160Y022192D03*
X013893Y021942D03*
X014543Y022325D03*
X014543Y022342D03*
X014627Y022675D03*
X014627Y022825D03*
X014627Y022842D03*
X014627Y022875D03*
X014627Y022892D03*
X014627Y022925D03*
X014627Y022942D03*
X014627Y022975D03*
X014627Y022992D03*
X014627Y023025D03*
X014627Y023042D03*
X014627Y023075D03*
X014627Y023092D03*
X014627Y023125D03*
X014627Y023142D03*
X014410Y023142D03*
X014410Y022942D03*
X014410Y022925D03*
X014410Y022892D03*
X014410Y022875D03*
X014410Y022842D03*
X014410Y022825D03*
X014410Y022792D03*
X014410Y022775D03*
X014410Y022742D03*
X014410Y022725D03*
X014410Y022692D03*
X014410Y022675D03*
X014060Y022825D03*
X014060Y022842D03*
X014060Y022875D03*
X014060Y022892D03*
X014060Y022925D03*
X014060Y022942D03*
X014060Y022975D03*
X014060Y022992D03*
X013610Y022992D03*
X013610Y022975D03*
X013593Y023042D03*
X013610Y022842D03*
X013610Y022825D03*
X013593Y022792D03*
X013443Y022642D03*
X014943Y022875D03*
X014943Y022892D03*
X014943Y022925D03*
X014943Y022942D03*
X014943Y022975D03*
X014943Y022992D03*
X014943Y023025D03*
X014943Y023042D03*
X014943Y023075D03*
X014943Y023092D03*
X014943Y023125D03*
X014943Y023142D03*
X015143Y022942D03*
X015143Y022925D03*
X015143Y022892D03*
X015143Y022875D03*
D21*
X015185Y023075D03*
X015435Y022775D03*
X015502Y022242D03*
X015668Y021892D03*
X016002Y022225D03*
X016185Y022342D03*
X016252Y022242D03*
X016468Y022342D03*
X016635Y022225D03*
X016268Y021942D03*
X017152Y023075D03*
X017418Y023075D03*
X017668Y022775D03*
X017935Y023075D03*
X017502Y022342D03*
X017418Y022242D03*
X017668Y022225D03*
X018985Y023375D03*
X020435Y021542D03*
X014918Y022775D03*
X014518Y022225D03*
X014352Y022342D03*
X014035Y022775D03*
X013902Y022242D03*
X013335Y023075D03*
D22*
X013776Y023075D03*
X014043Y023042D03*
X014043Y022792D03*
X014393Y023042D03*
X014643Y022775D03*
X014926Y022792D03*
X015443Y022792D03*
X015643Y022775D03*
X015443Y023042D03*
X015926Y022992D03*
X015993Y022192D03*
X015993Y022175D03*
X015993Y021992D03*
X015993Y021975D03*
X015676Y021875D03*
X015343Y021875D03*
X015343Y021892D03*
X014943Y021825D03*
X014776Y022242D03*
X014143Y021942D03*
X013893Y022225D03*
X016276Y022225D03*
X017176Y022042D03*
X017393Y022225D03*
X017676Y022192D03*
X017393Y022775D03*
X017676Y022792D03*
X017676Y023025D03*
X017676Y023042D03*
X018193Y023042D03*
X018193Y022792D03*
X018176Y022775D03*
X018976Y021542D03*
D23*
X018985Y021558D03*
X020435Y021558D03*
X018985Y023358D03*
X017035Y023158D03*
X013885Y023158D03*
D24*
X014226Y023142D03*
X018993Y023342D03*
X020426Y021575D03*
D25*
X018985Y021575D03*
X017035Y022342D03*
D26*
X015726Y022875D03*
X013443Y023142D03*
X018993Y023325D03*
X020426Y021592D03*
D27*
X018985Y021592D03*
X018052Y022675D03*
X016485Y023142D03*
X015302Y022675D03*
X013885Y022675D03*
X013435Y022675D03*
X020418Y023342D03*
D28*
X019001Y023308D03*
X018051Y022708D03*
X016551Y022258D03*
X015301Y022708D03*
X020418Y021608D03*
D29*
X020060Y021608D03*
D30*
X019343Y021608D03*
X013893Y021958D03*
D31*
X018993Y021608D03*
D32*
X020410Y021625D03*
X014010Y022275D03*
D33*
X014326Y022242D03*
X015793Y023175D03*
X016443Y022242D03*
X016876Y021825D03*
X017026Y023175D03*
X020076Y021625D03*
D34*
X019335Y021625D03*
X017485Y022642D03*
X017135Y022242D03*
X015985Y021825D03*
X015735Y022042D03*
X015585Y022092D03*
X013885Y022642D03*
D35*
X014426Y022275D03*
X015793Y022925D03*
X016543Y022275D03*
X018993Y021625D03*
D36*
X019001Y021642D03*
X020401Y021642D03*
X019701Y023575D03*
X019701Y023592D03*
X019701Y023625D03*
X017551Y023125D03*
X017551Y022725D03*
X017551Y022275D03*
X017018Y022075D03*
X017018Y021875D03*
X016118Y021875D03*
X016118Y021892D03*
X016118Y022275D03*
X016118Y022292D03*
X014918Y022275D03*
D37*
X015085Y021992D03*
X015085Y021975D03*
X015285Y022025D03*
X015985Y022025D03*
X015985Y022042D03*
X015985Y022075D03*
X015985Y022092D03*
X015985Y022125D03*
X015985Y022142D03*
X015985Y022325D03*
X015985Y022342D03*
X015985Y022375D03*
X015985Y022392D03*
X015985Y022425D03*
X015985Y022442D03*
X015985Y022475D03*
X015985Y022492D03*
X015985Y022525D03*
X015985Y022542D03*
X015635Y022792D03*
X015635Y022825D03*
X015635Y022842D03*
X015935Y023025D03*
X015935Y023042D03*
X014935Y022842D03*
X014935Y022825D03*
X014635Y022792D03*
X014535Y022192D03*
X014535Y022175D03*
X014135Y022242D03*
X013585Y022775D03*
X013285Y022975D03*
X013285Y022992D03*
X015985Y021842D03*
X016285Y021975D03*
X016885Y021942D03*
X017185Y021942D03*
X017385Y022192D03*
X017685Y022175D03*
X017685Y022142D03*
X017685Y022125D03*
X017685Y022092D03*
X017685Y022075D03*
X017685Y022042D03*
X017685Y022025D03*
X017685Y021992D03*
X017685Y021975D03*
X017685Y021942D03*
X017685Y021925D03*
X017685Y021892D03*
X017685Y021875D03*
X017685Y021842D03*
X017685Y022325D03*
X017685Y022342D03*
X017685Y022375D03*
X017685Y022392D03*
X017685Y022425D03*
X017685Y022442D03*
X017685Y022475D03*
X017685Y022492D03*
X017685Y022525D03*
X017685Y022542D03*
X017685Y022575D03*
X017685Y022592D03*
X017685Y022625D03*
X017685Y022642D03*
X017685Y022675D03*
X017685Y022825D03*
X017685Y022842D03*
X017685Y022875D03*
X017685Y022892D03*
X017685Y022925D03*
X017685Y022942D03*
X017685Y022975D03*
X017685Y022992D03*
X017885Y022975D03*
X017885Y022942D03*
X017885Y022925D03*
X017885Y022892D03*
X017885Y022875D03*
X017385Y022792D03*
X017185Y022792D03*
X017185Y023025D03*
X017185Y023042D03*
X017385Y023042D03*
X017385Y023025D03*
X018985Y023392D03*
X020435Y023392D03*
X020085Y021642D03*
D38*
X020401Y021658D03*
X019001Y021658D03*
X019701Y023508D03*
X014901Y022058D03*
D39*
X015352Y021908D03*
X015668Y021908D03*
X016002Y021958D03*
X015935Y022758D03*
X015418Y022758D03*
X014385Y023058D03*
X014035Y023058D03*
X016485Y023158D03*
X016652Y023058D03*
X017152Y022758D03*
X017502Y022658D03*
X017668Y023058D03*
X017502Y023158D03*
X018168Y022758D03*
X020102Y021658D03*
D40*
X019310Y021658D03*
X017910Y023058D03*
X017410Y022758D03*
X015660Y022758D03*
X015510Y022258D03*
X014760Y021958D03*
X013310Y023058D03*
D41*
X019177Y021942D03*
X019193Y021975D03*
X019210Y021992D03*
X020210Y021992D03*
X020327Y021675D03*
D42*
X020335Y021692D03*
X020235Y021942D03*
X019085Y021675D03*
D43*
X019076Y021692D03*
X020243Y021925D03*
X020276Y021842D03*
X020293Y021825D03*
X020276Y022692D03*
D44*
X020276Y021858D03*
X020343Y021708D03*
X019143Y021858D03*
D45*
X019093Y021758D03*
X019076Y021708D03*
X020326Y021758D03*
D46*
X020343Y021725D03*
X020243Y022192D03*
X019143Y022225D03*
X019126Y022242D03*
X019126Y021825D03*
X019093Y021775D03*
X019076Y021742D03*
X019076Y021725D03*
X019143Y022692D03*
X019176Y022742D03*
D47*
X019168Y022725D03*
X019152Y021875D03*
X019135Y021842D03*
X020202Y022042D03*
X020268Y022225D03*
X020285Y022242D03*
X020302Y021792D03*
X020318Y021775D03*
X020335Y021742D03*
X020252Y022725D03*
D48*
X019160Y022192D03*
X019210Y022075D03*
X019110Y021792D03*
D49*
X019118Y021808D03*
X019152Y022208D03*
X019152Y022708D03*
X020252Y022208D03*
X020202Y022058D03*
X020302Y021808D03*
D50*
X017910Y022775D03*
X017910Y022792D03*
X017910Y023042D03*
X016910Y023075D03*
X016660Y023042D03*
X015910Y023075D03*
X015510Y022292D03*
X015510Y022275D03*
X015060Y022042D03*
X014760Y021942D03*
X014010Y021825D03*
X017060Y021825D03*
D51*
X016301Y022075D03*
X016301Y022092D03*
X016301Y022125D03*
X015751Y022092D03*
X015718Y022025D03*
X015568Y022142D03*
X015251Y022142D03*
X015018Y022242D03*
X014818Y022642D03*
X014751Y021825D03*
X015351Y021825D03*
X015668Y021825D03*
X013768Y022775D03*
X013601Y023025D03*
D52*
X014493Y022242D03*
X014943Y021842D03*
X015343Y021975D03*
X015343Y021992D03*
X015510Y022175D03*
X016027Y022242D03*
X016177Y022325D03*
X016610Y022242D03*
X016927Y021925D03*
X017060Y021842D03*
X017493Y022675D03*
D53*
X016185Y021842D03*
X015035Y021925D03*
X015885Y022975D03*
D54*
X015468Y022942D03*
X015468Y022925D03*
X015468Y022892D03*
X015468Y022875D03*
X015451Y022825D03*
X015451Y023025D03*
X015151Y023025D03*
X015151Y023042D03*
X015151Y022992D03*
X015151Y022975D03*
X015151Y022842D03*
X015151Y022825D03*
X015151Y022792D03*
X015168Y022775D03*
X014768Y022225D03*
X014751Y022192D03*
X014751Y022175D03*
X014751Y022142D03*
X014751Y022042D03*
X014751Y022025D03*
X014751Y021992D03*
X014751Y021975D03*
X014751Y021842D03*
X015068Y021942D03*
X015351Y021842D03*
X015668Y021842D03*
X015818Y022325D03*
X015818Y022342D03*
X016651Y022192D03*
X016651Y022175D03*
X016901Y022242D03*
X017201Y021992D03*
X017201Y021975D03*
X017168Y022775D03*
X017201Y022975D03*
X016668Y023025D03*
X016368Y023025D03*
X016368Y023042D03*
X017901Y023025D03*
X017901Y022825D03*
X018201Y022825D03*
X018201Y022842D03*
X018201Y022875D03*
X018201Y022975D03*
X018201Y022992D03*
X018201Y023025D03*
X014401Y023025D03*
X014401Y022992D03*
X014401Y022975D03*
X014051Y023025D03*
X013568Y023075D03*
X013301Y023042D03*
X013301Y023025D03*
X013868Y022192D03*
X013868Y022175D03*
X013851Y022142D03*
X014151Y022225D03*
X014168Y022175D03*
X014168Y022142D03*
X014168Y022025D03*
X014168Y021992D03*
D55*
X014001Y021842D03*
X014018Y022325D03*
X014351Y022325D03*
X014918Y022342D03*
X014818Y022675D03*
X014801Y021925D03*
X016468Y022325D03*
D56*
X016285Y022208D03*
X016285Y021958D03*
X015985Y022008D03*
X015985Y022058D03*
X015985Y022108D03*
X015985Y022158D03*
X015985Y022308D03*
X015985Y022358D03*
X015985Y022408D03*
X015985Y022458D03*
X015985Y022508D03*
X015985Y022558D03*
X015635Y022808D03*
X015935Y023008D03*
X014935Y022858D03*
X014935Y022808D03*
X014635Y022808D03*
X014535Y022158D03*
X013585Y023058D03*
X013285Y023008D03*
X015985Y021858D03*
X016885Y021958D03*
X017385Y022208D03*
X017685Y022158D03*
X017685Y022108D03*
X017685Y022058D03*
X017685Y022008D03*
X017685Y021958D03*
X017685Y021908D03*
X017685Y021858D03*
X017685Y022358D03*
X017685Y022408D03*
X017685Y022458D03*
X017685Y022508D03*
X017685Y022558D03*
X017685Y022608D03*
X017685Y022658D03*
X017685Y022858D03*
X017685Y022908D03*
X017685Y022958D03*
X017685Y023008D03*
X017685Y023158D03*
X017885Y022958D03*
X017885Y022908D03*
X017885Y022858D03*
X017185Y022808D03*
D57*
X017377Y022808D03*
X017377Y022858D03*
X017377Y022908D03*
X017377Y022958D03*
X017377Y023008D03*
X017193Y023008D03*
X016877Y023008D03*
X016677Y022958D03*
X016677Y022908D03*
X016677Y022858D03*
X016677Y022808D03*
X016677Y022758D03*
X016677Y022708D03*
X016677Y022658D03*
X016910Y022758D03*
X016660Y022308D03*
X016660Y022108D03*
X016660Y022058D03*
X016660Y022008D03*
X016660Y021958D03*
X016660Y021908D03*
X016660Y021858D03*
X016877Y021858D03*
X016877Y022008D03*
X016877Y022158D03*
X016877Y022208D03*
X017193Y022008D03*
X017193Y021958D03*
X017377Y021958D03*
X017377Y021908D03*
X017377Y021858D03*
X017377Y022008D03*
X017377Y022058D03*
X017377Y022108D03*
X017377Y022158D03*
X018210Y022908D03*
X016677Y023158D03*
X016360Y023008D03*
X016360Y022958D03*
X016360Y022908D03*
X016360Y022858D03*
X016360Y022808D03*
X016360Y022758D03*
X016360Y022708D03*
X016360Y022658D03*
X016293Y022158D03*
X016293Y022008D03*
X015793Y022258D03*
X015810Y022308D03*
X015560Y022158D03*
X015577Y022108D03*
X015593Y022058D03*
X015610Y022008D03*
X015427Y022058D03*
X015443Y022108D03*
X015293Y022008D03*
X015260Y022108D03*
X015243Y022158D03*
X015210Y022308D03*
X015510Y022308D03*
X015077Y022008D03*
X015077Y021958D03*
X014543Y021958D03*
X014543Y021908D03*
X014543Y021858D03*
X014543Y022008D03*
X014543Y022058D03*
X014543Y022108D03*
X014543Y022308D03*
X014627Y022658D03*
X014627Y022858D03*
X014627Y022908D03*
X014627Y022958D03*
X014627Y023008D03*
X014627Y023058D03*
X014627Y023108D03*
X014627Y023158D03*
X014410Y023158D03*
X014410Y022958D03*
X014410Y022908D03*
X014410Y022858D03*
X014410Y022808D03*
X014410Y022758D03*
X014410Y022708D03*
X014410Y022658D03*
X014060Y022858D03*
X014060Y022908D03*
X014060Y022958D03*
X013610Y023008D03*
X013610Y022858D03*
X013327Y022758D03*
X013860Y022158D03*
X014160Y022208D03*
X014160Y021958D03*
X014943Y022908D03*
X014943Y022958D03*
X014943Y023008D03*
X014943Y023058D03*
X014943Y023108D03*
X014943Y023158D03*
X015143Y022958D03*
X015143Y022908D03*
X015460Y022858D03*
D58*
X016185Y022308D03*
X017068Y021858D03*
X014952Y021858D03*
D59*
X016176Y021858D03*
X016476Y022308D03*
D60*
X016651Y022158D03*
X016668Y023008D03*
X016901Y023058D03*
X017168Y023058D03*
X017201Y022858D03*
X017901Y022808D03*
X017901Y023008D03*
X018201Y023008D03*
X018201Y022958D03*
X018201Y022858D03*
X018201Y022808D03*
X015668Y021858D03*
X015351Y021858D03*
X015268Y022058D03*
X014751Y022008D03*
X014751Y021858D03*
X014751Y022158D03*
X014751Y022208D03*
X014168Y022158D03*
X014168Y022008D03*
X013768Y022758D03*
X013568Y022758D03*
X014051Y022808D03*
X014051Y023008D03*
X014401Y023008D03*
X015151Y023008D03*
X015168Y023058D03*
X015151Y022858D03*
X015151Y022808D03*
X015451Y022808D03*
X015468Y022908D03*
X015468Y022958D03*
X015451Y023008D03*
D61*
X014001Y021858D03*
D62*
X019160Y021892D03*
X019210Y022042D03*
X020210Y022025D03*
X020260Y021892D03*
X020260Y021875D03*
D63*
X020393Y023275D03*
X019710Y023542D03*
X019010Y023275D03*
X017543Y023092D03*
X017543Y022742D03*
X017027Y021892D03*
X016127Y021925D03*
X015810Y022725D03*
X016527Y023092D03*
X014777Y022742D03*
X014777Y022725D03*
X014893Y022075D03*
X014893Y021875D03*
X013893Y022742D03*
D64*
X014301Y023092D03*
X014851Y022125D03*
X014001Y021875D03*
X015301Y023125D03*
X015751Y022892D03*
X015801Y022942D03*
X017018Y022692D03*
X018051Y023125D03*
D65*
X019701Y023475D03*
X019701Y023492D03*
X019701Y023525D03*
X014901Y021892D03*
D66*
X014418Y022292D03*
X014002Y021892D03*
X015302Y022725D03*
X015302Y023092D03*
X015802Y022692D03*
X016535Y022292D03*
X017035Y022292D03*
X017035Y023092D03*
X018052Y022725D03*
X019002Y023292D03*
X019702Y023675D03*
X020402Y023292D03*
X014285Y023125D03*
X013885Y023125D03*
D67*
X019210Y022058D03*
X020260Y021908D03*
X020260Y022708D03*
X019710Y023308D03*
D68*
X020201Y022008D03*
X020218Y021958D03*
X019168Y021908D03*
D69*
X017035Y021908D03*
D70*
X017027Y022058D03*
X017543Y022258D03*
X016527Y023108D03*
X016127Y022258D03*
X016127Y021908D03*
D71*
X014910Y021908D03*
X014010Y022058D03*
X014010Y022108D03*
X019010Y023258D03*
X019710Y023458D03*
D72*
X017026Y022258D03*
X014876Y022108D03*
X013993Y021908D03*
D73*
X019168Y021925D03*
X019218Y022025D03*
X020218Y021975D03*
D74*
X017651Y022242D03*
X017501Y022325D03*
X017151Y021925D03*
X017651Y023075D03*
X015668Y021992D03*
X015668Y021975D03*
X015501Y022192D03*
X014368Y023075D03*
X014101Y021925D03*
D75*
X014026Y022342D03*
X015343Y021942D03*
X015343Y021925D03*
X015676Y021925D03*
X015676Y021942D03*
X016393Y023075D03*
X016643Y023075D03*
X020426Y023375D03*
D76*
X018160Y023075D03*
X016010Y021942D03*
X015510Y022225D03*
X015410Y023075D03*
X014010Y023075D03*
X013910Y021925D03*
D77*
X019193Y021958D03*
X019210Y022008D03*
D78*
X018051Y022658D03*
X015668Y021958D03*
X015351Y021958D03*
X015301Y022658D03*
X015301Y023158D03*
X013451Y023158D03*
D79*
X013768Y023058D03*
X013601Y022808D03*
X015218Y022258D03*
X015451Y022158D03*
X015401Y022008D03*
X015718Y022008D03*
X015751Y022108D03*
X015768Y022158D03*
X016301Y022108D03*
X016301Y022058D03*
X018968Y023408D03*
D80*
X020435Y023408D03*
X015785Y022208D03*
X015735Y022058D03*
X015235Y022208D03*
D81*
X019218Y022092D03*
X020201Y022075D03*
D82*
X015810Y022742D03*
X014010Y022125D03*
X014010Y022092D03*
X014010Y022075D03*
D83*
X019210Y022125D03*
X020210Y022092D03*
X020327Y022675D03*
X019710Y023292D03*
D84*
X019710Y023642D03*
X017560Y023142D03*
X017560Y022692D03*
X017560Y022292D03*
X017010Y022092D03*
X015310Y022742D03*
X014760Y022692D03*
X014910Y022292D03*
D85*
X014885Y022092D03*
X013885Y022725D03*
X013885Y023092D03*
X016535Y023125D03*
D86*
X020218Y022758D03*
X020218Y022158D03*
X020201Y022108D03*
D87*
X019210Y022108D03*
X019193Y022158D03*
X019193Y022758D03*
D88*
X019702Y023658D03*
X017568Y022308D03*
X017002Y022108D03*
X017035Y023108D03*
X015302Y023108D03*
X014018Y022258D03*
X013885Y022708D03*
D89*
X019218Y022775D03*
X019201Y022142D03*
X020201Y022125D03*
D90*
X016977Y022125D03*
X014010Y022292D03*
X013427Y022692D03*
X013443Y023125D03*
D91*
X020210Y022142D03*
D92*
X020235Y022175D03*
X020235Y022742D03*
X019185Y022175D03*
D93*
X018176Y023058D03*
X017926Y022758D03*
X017676Y022808D03*
X017393Y023058D03*
X017676Y022208D03*
X016643Y022208D03*
X015993Y022208D03*
X015926Y023058D03*
X015426Y023058D03*
X015176Y022758D03*
X014526Y022208D03*
X013876Y022208D03*
X016376Y023058D03*
D94*
X015660Y022858D03*
X015510Y022208D03*
X014910Y022758D03*
X014810Y022658D03*
X014660Y022758D03*
X014210Y023158D03*
X014010Y022758D03*
X017660Y022758D03*
D95*
X017143Y022225D03*
X017493Y023175D03*
X015026Y022225D03*
X020443Y023425D03*
D96*
X016435Y022225D03*
D97*
X016901Y022792D03*
X014318Y022225D03*
X013768Y022792D03*
D98*
X020335Y022258D03*
D99*
X019076Y022258D03*
D100*
X019701Y023558D03*
X019701Y023608D03*
X017551Y023108D03*
X017551Y022708D03*
X015801Y022708D03*
X014901Y022258D03*
X014768Y022708D03*
D101*
X014435Y022258D03*
D102*
X020393Y022275D03*
D103*
X019018Y022275D03*
D104*
X018043Y022742D03*
X018043Y023092D03*
X017043Y022275D03*
X017026Y022725D03*
X017026Y022742D03*
X015793Y023092D03*
X015776Y023125D03*
X013443Y023092D03*
X013443Y022742D03*
X013426Y022725D03*
D105*
X018935Y022542D03*
X018935Y022525D03*
X018935Y022492D03*
X018935Y022475D03*
X018935Y022442D03*
X018935Y022425D03*
X018935Y022392D03*
X020435Y022292D03*
D106*
X020477Y022342D03*
X020477Y022375D03*
X020477Y022392D03*
X020477Y022425D03*
X020477Y022442D03*
X020477Y022475D03*
X020477Y022492D03*
X020477Y022525D03*
X020477Y022542D03*
X020477Y022575D03*
X020477Y022592D03*
X020460Y022625D03*
X018943Y022592D03*
X018943Y022575D03*
X018943Y022375D03*
X018943Y022342D03*
X018977Y022292D03*
D107*
X018943Y022358D03*
X018943Y022558D03*
X020477Y022558D03*
X020477Y022508D03*
X020477Y022458D03*
X020477Y022408D03*
X020477Y022358D03*
X020460Y022308D03*
X020477Y022608D03*
D108*
X018951Y022608D03*
X018951Y022308D03*
D109*
X018043Y023108D03*
X017026Y022708D03*
X017026Y022308D03*
X015776Y022908D03*
X014293Y023108D03*
X013443Y023108D03*
X013426Y022708D03*
D110*
X014910Y022308D03*
X020410Y023308D03*
D111*
X014360Y022308D03*
D112*
X014010Y022308D03*
D113*
X018951Y022325D03*
X020468Y022325D03*
D114*
X017035Y022325D03*
X017035Y023142D03*
D115*
X017018Y022675D03*
X015801Y022675D03*
X015301Y022692D03*
X014918Y022325D03*
X015301Y023142D03*
X018051Y023142D03*
X018051Y022692D03*
X020418Y023325D03*
D116*
X018935Y022508D03*
X018935Y022458D03*
X018935Y022408D03*
D117*
X018960Y022625D03*
D118*
X018993Y022642D03*
X020426Y022642D03*
D119*
X020368Y022658D03*
D120*
X019043Y022658D03*
D121*
X017018Y022658D03*
X015801Y022658D03*
D122*
X015793Y023158D03*
X013893Y022658D03*
X020427Y023358D03*
D123*
X013435Y022658D03*
D124*
X019093Y022675D03*
X020193Y022775D03*
D125*
X017035Y023125D03*
X015785Y023142D03*
X013885Y023142D03*
X013885Y022692D03*
D126*
X013768Y023042D03*
X013885Y023175D03*
X014185Y023075D03*
X013318Y022775D03*
X015302Y023175D03*
X015952Y022792D03*
X016485Y023175D03*
X016902Y022775D03*
X018035Y023175D03*
X018968Y023425D03*
D127*
X019701Y023275D03*
X020168Y022792D03*
D128*
X019243Y022792D03*
D129*
X019718Y022808D03*
D130*
X019710Y022825D03*
D131*
X019718Y022842D03*
X019718Y022992D03*
D132*
X019710Y022858D03*
D133*
X019710Y022875D03*
X019710Y022975D03*
D134*
X017043Y022942D03*
X017043Y022925D03*
X017043Y022892D03*
X017043Y022875D03*
X013443Y022875D03*
X013443Y022892D03*
X013443Y022925D03*
X013443Y022942D03*
D135*
X019710Y022892D03*
D136*
X019710Y022908D03*
X019710Y022958D03*
D137*
X020393Y023258D03*
X017043Y022958D03*
X017043Y022908D03*
X013443Y022908D03*
X013443Y022958D03*
D138*
X019718Y022942D03*
X019718Y022925D03*
D139*
X015835Y022958D03*
D140*
X019710Y023008D03*
D141*
X019710Y023025D03*
D142*
X019710Y023042D03*
D143*
X019710Y023058D03*
D144*
X015668Y023058D03*
D145*
X019702Y023075D03*
D146*
X019701Y023092D03*
D147*
X019701Y023108D03*
D148*
X015785Y023108D03*
X013885Y023108D03*
D149*
X019701Y023125D03*
D150*
X019702Y023142D03*
X019702Y023242D03*
D151*
X019710Y023158D03*
D152*
X018043Y023158D03*
D153*
X019701Y023175D03*
D154*
X014210Y023175D03*
X013460Y023175D03*
D155*
X019710Y023192D03*
D156*
X019701Y023208D03*
D157*
X019701Y023225D03*
D158*
X019710Y023258D03*
D159*
X019710Y023325D03*
D160*
X019710Y023342D03*
X019710Y023375D03*
D161*
X019710Y023358D03*
D162*
X019702Y023392D03*
X019702Y023425D03*
X019702Y023442D03*
D163*
X019702Y023408D03*
D164*
G36*
X011989Y021247D02*
X011885Y021066D01*
X011877Y021071D01*
X011981Y021252D01*
X011989Y021247D01*
G37*
G36*
X010992Y018520D02*
X010888Y018339D01*
X010880Y018344D01*
X010984Y018525D01*
X010992Y018520D01*
G37*
G36*
X010657Y018240D02*
X010553Y018059D01*
X010545Y018064D01*
X010649Y018245D01*
X010657Y018240D01*
G37*
D165*
G36*
X010457Y018332D02*
X010428Y018281D01*
X010419Y018286D01*
X010448Y018337D01*
X010457Y018332D01*
G37*
G36*
X010302Y018064D02*
X010273Y018013D01*
X010264Y018018D01*
X010293Y018069D01*
X010302Y018064D01*
G37*
G36*
X010727Y017819D02*
X010698Y017768D01*
X010689Y017773D01*
X010718Y017824D01*
X010727Y017819D01*
G37*
G36*
X010079Y017177D02*
X010050Y017126D01*
X010041Y017131D01*
X010070Y017182D01*
X010079Y017177D01*
G37*
G36*
X009972Y016811D02*
X009943Y016760D01*
X009934Y016765D01*
X009963Y016816D01*
X009972Y016811D01*
G37*
G36*
X010084Y016746D02*
X010055Y016695D01*
X010046Y016700D01*
X010075Y016751D01*
X010084Y016746D01*
G37*
G36*
X009468Y016859D02*
X009439Y016808D01*
X009430Y016813D01*
X009459Y016864D01*
X009468Y016859D01*
G37*
G36*
X011232Y018693D02*
X011203Y018642D01*
X011194Y018647D01*
X011223Y018698D01*
X011232Y018693D01*
G37*
G36*
X011259Y019220D02*
X011230Y019169D01*
X011221Y019174D01*
X011250Y019225D01*
X011259Y019220D01*
G37*
G36*
X011637Y019395D02*
X011608Y019344D01*
X011599Y019349D01*
X011628Y019400D01*
X011637Y019395D01*
G37*
G36*
X011635Y019592D02*
X011606Y019541D01*
X011597Y019546D01*
X011626Y019597D01*
X011635Y019592D01*
G37*
G36*
X011546Y020059D02*
X011517Y020008D01*
X011508Y020013D01*
X011537Y020064D01*
X011546Y020059D01*
G37*
G36*
X011443Y020119D02*
X011414Y020068D01*
X011405Y020073D01*
X011434Y020124D01*
X011443Y020119D01*
G37*
G36*
X011818Y020710D02*
X011789Y020659D01*
X011780Y020664D01*
X011809Y020715D01*
X011818Y020710D01*
G37*
D166*
G36*
X012206Y020763D02*
X012052Y020496D01*
X012044Y020501D01*
X012198Y020768D01*
X012206Y020763D01*
G37*
G36*
X012234Y020770D02*
X012080Y020503D01*
X012072Y020508D01*
X012226Y020775D01*
X012234Y020770D01*
G37*
G36*
X012220Y020766D02*
X012066Y020499D01*
X012058Y020504D01*
X012212Y020771D01*
X012220Y020766D01*
G37*
G36*
X012518Y021183D02*
X012364Y020916D01*
X012356Y020921D01*
X012510Y021188D01*
X012518Y021183D01*
G37*
G36*
X012043Y021319D02*
X011889Y021052D01*
X011881Y021057D01*
X012035Y021324D01*
X012043Y021319D01*
G37*
G36*
X011332Y019848D02*
X011178Y019581D01*
X011170Y019586D01*
X011324Y019853D01*
X011332Y019848D01*
G37*
G36*
X009647Y017010D02*
X009493Y016743D01*
X009485Y016748D01*
X009639Y017015D01*
X009647Y017010D01*
G37*
G36*
X009633Y017006D02*
X009479Y016739D01*
X009471Y016744D01*
X009625Y017011D01*
X009633Y017006D01*
G37*
G36*
X009620Y017002D02*
X009466Y016735D01*
X009458Y016740D01*
X009612Y017007D01*
X009620Y017002D01*
G37*
D167*
G36*
X009526Y016941D02*
X009432Y016778D01*
X009424Y016783D01*
X009518Y016946D01*
X009526Y016941D01*
G37*
G36*
X010090Y017216D02*
X009996Y017053D01*
X009988Y017058D01*
X010082Y017221D01*
X010090Y017216D01*
G37*
G36*
X010922Y018998D02*
X010828Y018835D01*
X010820Y018840D01*
X010914Y019003D01*
X010922Y018998D01*
G37*
G36*
X010906Y019031D02*
X010812Y018868D01*
X010804Y018873D01*
X010898Y019036D01*
X010906Y019031D01*
G37*
G36*
X011270Y019260D02*
X011176Y019097D01*
X011168Y019102D01*
X011262Y019265D01*
X011270Y019260D01*
G37*
G36*
X012267Y020728D02*
X012173Y020565D01*
X012165Y020570D01*
X012259Y020733D01*
X012267Y020728D01*
G37*
D168*
G36*
X012515Y021197D02*
X012341Y020894D01*
X012333Y020899D01*
X012507Y021202D01*
X012515Y021197D01*
G37*
G36*
X012066Y021341D02*
X011892Y021038D01*
X011884Y021043D01*
X012058Y021346D01*
X012066Y021341D01*
G37*
G36*
X011355Y019869D02*
X011181Y019566D01*
X011173Y019571D01*
X011347Y019874D01*
X011355Y019869D01*
G37*
D169*
G36*
X011674Y019720D02*
X011555Y019513D01*
X011546Y019518D01*
X011665Y019725D01*
X011674Y019720D01*
G37*
G36*
X010603Y018225D02*
X010484Y018018D01*
X010475Y018023D01*
X010594Y018230D01*
X010603Y018225D01*
G37*
G36*
X010594Y018230D02*
X010475Y018023D01*
X010466Y018028D01*
X010585Y018235D01*
X010594Y018230D01*
G37*
G36*
X009551Y016962D02*
X009432Y016755D01*
X009423Y016760D01*
X009542Y016967D01*
X009551Y016962D01*
G37*
D170*
G36*
X012507Y021202D02*
X012318Y020873D01*
X012309Y020878D01*
X012498Y021207D01*
X012507Y021202D01*
G37*
G36*
X012091Y021362D02*
X011902Y021033D01*
X011893Y021038D01*
X012082Y021367D01*
X012091Y021362D01*
G37*
D171*
G36*
X012181Y021239D02*
X012047Y021006D01*
X012039Y021011D01*
X012173Y021244D01*
X012181Y021239D01*
G37*
G36*
X012260Y020755D02*
X012126Y020522D01*
X012118Y020527D01*
X012252Y020760D01*
X012260Y020755D01*
G37*
G36*
X011675Y019742D02*
X011541Y019509D01*
X011533Y019514D01*
X011667Y019747D01*
X011675Y019742D01*
G37*
G36*
X011180Y019266D02*
X011046Y019033D01*
X011038Y019038D01*
X011172Y019271D01*
X011180Y019266D01*
G37*
G36*
X010000Y017222D02*
X009866Y016989D01*
X009858Y016994D01*
X009992Y017227D01*
X010000Y017222D01*
G37*
G36*
X009574Y016983D02*
X009440Y016750D01*
X009432Y016755D01*
X009566Y016988D01*
X009574Y016983D01*
G37*
D172*
G36*
X009969Y017448D02*
X009775Y017111D01*
X009767Y017116D01*
X009961Y017453D01*
X009969Y017448D01*
G37*
G36*
X010241Y017879D02*
X010047Y017542D01*
X010039Y017547D01*
X010233Y017884D01*
X010241Y017879D01*
G37*
G36*
X010198Y017304D02*
X010004Y016967D01*
X009996Y016972D01*
X010190Y017309D01*
X010198Y017304D01*
G37*
G36*
X010216Y017236D02*
X010022Y016899D01*
X010014Y016904D01*
X010208Y017241D01*
X010216Y017236D01*
G37*
G36*
X011002Y018618D02*
X010808Y018281D01*
X010800Y018286D01*
X010994Y018623D01*
X011002Y018618D01*
G37*
G36*
X010743Y018768D02*
X010549Y018431D01*
X010541Y018436D01*
X010735Y018773D01*
X010743Y018768D01*
G37*
G36*
X011149Y019491D02*
X010955Y019154D01*
X010947Y019159D01*
X011141Y019496D01*
X011149Y019491D01*
G37*
G36*
X011393Y019894D02*
X011199Y019557D01*
X011191Y019562D01*
X011385Y019899D01*
X011393Y019894D01*
G37*
G36*
X011771Y020529D02*
X011577Y020192D01*
X011569Y020197D01*
X011763Y020534D01*
X011771Y020529D01*
G37*
G36*
X012104Y021365D02*
X011910Y021028D01*
X011902Y021033D01*
X012096Y021370D01*
X012104Y021365D01*
G37*
G36*
X012177Y021392D02*
X011983Y021055D01*
X011975Y021060D01*
X012169Y021397D01*
X012177Y021392D01*
G37*
G36*
X011378Y019348D02*
X011184Y019011D01*
X011176Y019016D01*
X011370Y019353D01*
X011378Y019348D01*
G37*
G36*
X011396Y019280D02*
X011202Y018943D01*
X011194Y018948D01*
X011388Y019285D01*
X011396Y019280D01*
G37*
D173*
G36*
X011254Y019292D02*
X011115Y019051D01*
X011106Y019056D01*
X011245Y019297D01*
X011254Y019292D01*
G37*
G36*
X011672Y019755D02*
X011533Y019514D01*
X011524Y019519D01*
X011663Y019760D01*
X011672Y019755D01*
G37*
G36*
X011668Y019769D02*
X011529Y019528D01*
X011520Y019533D01*
X011659Y019774D01*
X011668Y019769D01*
G37*
G36*
X012178Y020733D02*
X012039Y020492D01*
X012030Y020497D01*
X012169Y020738D01*
X012178Y020733D01*
G37*
G36*
X010999Y018550D02*
X010860Y018309D01*
X010851Y018314D01*
X010990Y018555D01*
X010999Y018550D01*
G37*
G36*
X010687Y018730D02*
X010548Y018489D01*
X010539Y018494D01*
X010678Y018735D01*
X010687Y018730D01*
G37*
G36*
X010074Y017248D02*
X009935Y017007D01*
X009926Y017012D01*
X010065Y017253D01*
X010074Y017248D01*
G37*
G36*
X009661Y017013D02*
X009522Y016772D01*
X009513Y016777D01*
X009652Y017018D01*
X009661Y017013D01*
G37*
G36*
X009588Y016986D02*
X009449Y016745D01*
X009440Y016750D01*
X009579Y016991D01*
X009588Y016986D01*
G37*
D174*
G36*
X009983Y017452D02*
X009779Y017097D01*
X009771Y017102D01*
X009975Y017457D01*
X009983Y017452D01*
G37*
G36*
X010255Y017883D02*
X010051Y017528D01*
X010043Y017533D01*
X010247Y017888D01*
X010255Y017883D01*
G37*
G36*
X010480Y017753D02*
X010276Y017398D01*
X010268Y017403D01*
X010472Y017758D01*
X010480Y017753D01*
G37*
G36*
X010999Y018632D02*
X010795Y018277D01*
X010787Y018282D01*
X010991Y018637D01*
X010999Y018632D01*
G37*
G36*
X010756Y018772D02*
X010552Y018417D01*
X010544Y018422D01*
X010748Y018777D01*
X010756Y018772D01*
G37*
G36*
X011163Y019495D02*
X010959Y019140D01*
X010951Y019145D01*
X011155Y019500D01*
X011163Y019495D01*
G37*
G36*
X011785Y020533D02*
X011581Y020178D01*
X011573Y020183D01*
X011777Y020538D01*
X011785Y020533D01*
G37*
G36*
X012010Y020403D02*
X011806Y020048D01*
X011798Y020053D01*
X012002Y020408D01*
X012010Y020403D01*
G37*
G36*
X012122Y021378D02*
X011918Y021023D01*
X011910Y021028D01*
X012114Y021383D01*
X012122Y021378D01*
G37*
D175*
G36*
X012199Y021229D02*
X012050Y020970D01*
X012041Y020975D01*
X012190Y021234D01*
X012199Y021229D01*
G37*
G36*
X012203Y021216D02*
X012054Y020957D01*
X012045Y020962D01*
X012194Y021221D01*
X012203Y021216D01*
G37*
G36*
X012243Y020765D02*
X012094Y020506D01*
X012085Y020511D01*
X012234Y020770D01*
X012243Y020765D01*
G37*
G36*
X012015Y020331D02*
X011866Y020072D01*
X011857Y020077D01*
X012006Y020336D01*
X012015Y020331D01*
G37*
G36*
X011118Y019498D02*
X010969Y019239D01*
X010960Y019244D01*
X011109Y019503D01*
X011118Y019498D01*
G37*
G36*
X011223Y019299D02*
X011074Y019040D01*
X011065Y019045D01*
X011214Y019304D01*
X011223Y019299D01*
G37*
G36*
X011209Y019295D02*
X011060Y019036D01*
X011051Y019041D01*
X011200Y019300D01*
X011209Y019295D01*
G37*
G36*
X010857Y018725D02*
X010708Y018466D01*
X010699Y018471D01*
X010848Y018730D01*
X010857Y018725D01*
G37*
G36*
X010196Y017860D02*
X010047Y017601D01*
X010038Y017606D01*
X010187Y017865D01*
X010196Y017860D01*
G37*
G36*
X010485Y017681D02*
X010336Y017422D01*
X010327Y017427D01*
X010476Y017686D01*
X010485Y017681D01*
G37*
G36*
X009938Y017454D02*
X009789Y017195D01*
X009780Y017200D01*
X009929Y017459D01*
X009938Y017454D01*
G37*
G36*
X010043Y017255D02*
X009894Y016996D01*
X009885Y017001D01*
X010034Y017260D01*
X010043Y017255D01*
G37*
G36*
X010029Y017251D02*
X009880Y016992D01*
X009871Y016997D01*
X010020Y017256D01*
X010029Y017251D01*
G37*
G36*
X009607Y016999D02*
X009458Y016740D01*
X009449Y016745D01*
X009598Y017004D01*
X009607Y016999D01*
G37*
D176*
G36*
X010207Y017299D02*
X009998Y016936D01*
X009989Y016941D01*
X010198Y017304D01*
X010207Y017299D01*
G37*
G36*
X010211Y017285D02*
X010002Y016922D01*
X009993Y016927D01*
X010202Y017290D01*
X010211Y017285D01*
G37*
G36*
X010214Y017272D02*
X010005Y016909D01*
X009996Y016914D01*
X010205Y017277D01*
X010214Y017272D01*
G37*
G36*
X011394Y019316D02*
X011185Y018953D01*
X011176Y018958D01*
X011385Y019321D01*
X011394Y019316D01*
G37*
G36*
X011387Y019343D02*
X011178Y018980D01*
X011169Y018985D01*
X011378Y019348D01*
X011387Y019343D01*
G37*
G36*
X011391Y019329D02*
X011182Y018966D01*
X011173Y018971D01*
X011382Y019334D01*
X011391Y019329D01*
G37*
G36*
X011412Y019906D02*
X011203Y019543D01*
X011194Y019548D01*
X011403Y019911D01*
X011412Y019906D01*
G37*
G36*
X012494Y021221D02*
X012285Y020858D01*
X012276Y020863D01*
X012485Y021226D01*
X012494Y021221D01*
G37*
G36*
X012164Y021388D02*
X011955Y021025D01*
X011946Y021030D01*
X012155Y021393D01*
X012164Y021388D01*
G37*
G36*
X012150Y021385D02*
X011941Y021022D01*
X011932Y021027D01*
X012141Y021390D01*
X012150Y021385D01*
G37*
G36*
X012137Y021381D02*
X011928Y021018D01*
X011919Y021023D01*
X012128Y021386D01*
X012137Y021381D01*
G37*
D177*
G36*
X011837Y020722D02*
X011788Y020637D01*
X011779Y020642D01*
X011828Y020727D01*
X011837Y020722D01*
G37*
G36*
X011846Y020717D02*
X011797Y020632D01*
X011788Y020637D01*
X011837Y020722D01*
X011846Y020717D01*
G37*
G36*
X011854Y020712D02*
X011805Y020627D01*
X011796Y020632D01*
X011845Y020717D01*
X011854Y020712D01*
G37*
G36*
X011478Y020121D02*
X011429Y020036D01*
X011420Y020041D01*
X011469Y020126D01*
X011478Y020121D01*
G37*
G36*
X011470Y020126D02*
X011421Y020041D01*
X011412Y020046D01*
X011461Y020131D01*
X011470Y020126D01*
G37*
G36*
X011461Y020131D02*
X011412Y020046D01*
X011403Y020051D01*
X011452Y020136D01*
X011461Y020131D01*
G37*
G36*
X011530Y020091D02*
X011481Y020006D01*
X011472Y020011D01*
X011521Y020096D01*
X011530Y020091D01*
G37*
G36*
X011539Y020086D02*
X011490Y020001D01*
X011481Y020006D01*
X011530Y020091D01*
X011539Y020086D01*
G37*
G36*
X011548Y020081D02*
X011499Y019996D01*
X011490Y020001D01*
X011539Y020086D01*
X011548Y020081D01*
G37*
G36*
X011621Y019427D02*
X011572Y019342D01*
X011563Y019347D01*
X011612Y019432D01*
X011621Y019427D01*
G37*
G36*
X011629Y019422D02*
X011580Y019337D01*
X011571Y019342D01*
X011620Y019427D01*
X011629Y019422D01*
G37*
G36*
X011224Y018720D02*
X011175Y018635D01*
X011166Y018640D01*
X011215Y018725D01*
X011224Y018720D01*
G37*
G36*
X011216Y018725D02*
X011167Y018640D01*
X011158Y018645D01*
X011207Y018730D01*
X011216Y018725D01*
G37*
G36*
X010957Y018678D02*
X010908Y018593D01*
X010899Y018598D01*
X010948Y018683D01*
X010957Y018678D01*
G37*
G36*
X010949Y018683D02*
X010900Y018598D01*
X010891Y018603D01*
X010940Y018688D01*
X010949Y018683D01*
G37*
G36*
X010862Y019033D02*
X010813Y018948D01*
X010804Y018953D01*
X010853Y019038D01*
X010862Y019033D01*
G37*
G36*
X010644Y018455D02*
X010595Y018370D01*
X010586Y018375D01*
X010635Y018460D01*
X010644Y018455D01*
G37*
G36*
X010652Y018450D02*
X010603Y018365D01*
X010594Y018370D01*
X010643Y018455D01*
X010652Y018450D01*
G37*
G36*
X010493Y018334D02*
X010444Y018249D01*
X010435Y018254D01*
X010484Y018339D01*
X010493Y018334D01*
G37*
G36*
X010484Y018339D02*
X010435Y018254D01*
X010426Y018259D01*
X010475Y018344D01*
X010484Y018339D01*
G37*
G36*
X010476Y018344D02*
X010427Y018259D01*
X010418Y018264D01*
X010467Y018349D01*
X010476Y018344D01*
G37*
G36*
X010770Y018174D02*
X010721Y018089D01*
X010712Y018094D01*
X010761Y018179D01*
X010770Y018174D01*
G37*
G36*
X010779Y018169D02*
X010730Y018084D01*
X010721Y018089D01*
X010770Y018174D01*
X010779Y018169D01*
G37*
G36*
X010788Y018164D02*
X010739Y018079D01*
X010730Y018084D01*
X010779Y018169D01*
X010788Y018164D01*
G37*
G36*
X010711Y017851D02*
X010662Y017766D01*
X010653Y017771D01*
X010702Y017856D01*
X010711Y017851D01*
G37*
G36*
X010719Y017846D02*
X010670Y017761D01*
X010661Y017766D01*
X010710Y017851D01*
X010719Y017846D01*
G37*
G36*
X010430Y017805D02*
X010381Y017720D01*
X010372Y017725D01*
X010421Y017810D01*
X010430Y017805D01*
G37*
G36*
X010421Y017810D02*
X010372Y017725D01*
X010363Y017730D01*
X010412Y017815D01*
X010421Y017810D01*
G37*
G36*
X010335Y017860D02*
X010286Y017775D01*
X010277Y017780D01*
X010326Y017865D01*
X010335Y017860D01*
G37*
G36*
X010326Y017865D02*
X010277Y017780D01*
X010268Y017785D01*
X010317Y017870D01*
X010326Y017865D01*
G37*
G36*
X010338Y018066D02*
X010289Y017981D01*
X010280Y017986D01*
X010329Y018071D01*
X010338Y018066D01*
G37*
G36*
X010329Y018071D02*
X010280Y017986D01*
X010271Y017991D01*
X010320Y018076D01*
X010329Y018071D01*
G37*
G36*
X009930Y016858D02*
X009881Y016773D01*
X009872Y016778D01*
X009921Y016863D01*
X009930Y016858D01*
G37*
G36*
X009938Y016853D02*
X009889Y016768D01*
X009880Y016773D01*
X009929Y016858D01*
X009938Y016853D01*
G37*
G36*
X009947Y016848D02*
X009898Y016763D01*
X009889Y016768D01*
X009938Y016853D01*
X009947Y016848D01*
G37*
G36*
X009999Y016818D02*
X009950Y016733D01*
X009941Y016738D01*
X009990Y016823D01*
X009999Y016818D01*
G37*
G36*
X010008Y016813D02*
X009959Y016728D01*
X009950Y016733D01*
X009999Y016818D01*
X010008Y016813D01*
G37*
G36*
X010016Y016808D02*
X009967Y016723D01*
X009958Y016728D01*
X010007Y016813D01*
X010016Y016808D01*
G37*
G36*
X010060Y016783D02*
X010011Y016698D01*
X010002Y016703D01*
X010051Y016788D01*
X010060Y016783D01*
G37*
G36*
X010068Y016778D02*
X010019Y016693D01*
X010010Y016698D01*
X010059Y016783D01*
X010068Y016778D01*
G37*
G36*
X010077Y016773D02*
X010028Y016688D01*
X010019Y016693D01*
X010068Y016778D01*
X010077Y016773D01*
G37*
D178*
G36*
X009866Y017149D02*
X009797Y017028D01*
X009788Y017033D01*
X009857Y017154D01*
X009866Y017149D01*
G37*
G36*
X009670Y017009D02*
X009601Y016888D01*
X009592Y016893D01*
X009661Y017014D01*
X009670Y017009D01*
G37*
G36*
X010195Y017318D02*
X010126Y017197D01*
X010117Y017202D01*
X010186Y017323D01*
X010195Y017318D01*
G37*
G36*
X010310Y017517D02*
X010241Y017396D01*
X010232Y017401D01*
X010301Y017522D01*
X010310Y017517D01*
G37*
G36*
X010666Y018235D02*
X010597Y018114D01*
X010588Y018119D01*
X010657Y018240D01*
X010666Y018235D01*
G37*
G36*
X010876Y019038D02*
X010807Y018917D01*
X010798Y018922D01*
X010867Y019043D01*
X010876Y019038D01*
G37*
G36*
X011046Y019193D02*
X010977Y019072D01*
X010968Y019077D01*
X011037Y019198D01*
X011046Y019193D01*
G37*
G36*
X011375Y019362D02*
X011306Y019241D01*
X011297Y019246D01*
X011366Y019367D01*
X011375Y019362D01*
G37*
G36*
X011998Y020422D02*
X011929Y020301D01*
X011920Y020306D01*
X011989Y020427D01*
X011998Y020422D01*
G37*
G36*
X012100Y020617D02*
X012031Y020496D01*
X012022Y020501D01*
X012091Y020622D01*
X012100Y020617D01*
G37*
G36*
X012291Y020969D02*
X012222Y020848D01*
X012213Y020853D01*
X012282Y020974D01*
X012291Y020969D01*
G37*
G36*
X012186Y021387D02*
X012117Y021266D01*
X012108Y021271D01*
X012177Y021392D01*
X012186Y021387D01*
G37*
D179*
G36*
X011089Y019468D02*
X011005Y019321D01*
X010997Y019326D01*
X011081Y019473D01*
X011089Y019468D01*
G37*
G36*
X011346Y019113D02*
X011262Y018966D01*
X011254Y018971D01*
X011338Y019118D01*
X011346Y019113D01*
G37*
G36*
X010889Y019041D02*
X010805Y018894D01*
X010797Y018899D01*
X010881Y019046D01*
X010889Y019041D01*
G37*
G36*
X009909Y017425D02*
X009825Y017278D01*
X009817Y017283D01*
X009901Y017430D01*
X009909Y017425D01*
G37*
G36*
X010166Y017069D02*
X010082Y016922D01*
X010074Y016927D01*
X010158Y017074D01*
X010166Y017069D01*
G37*
D180*
G36*
X010186Y017323D02*
X010127Y017220D01*
X010118Y017225D01*
X010177Y017328D01*
X010186Y017323D01*
G37*
G36*
X010174Y017341D02*
X010115Y017238D01*
X010106Y017243D01*
X010165Y017346D01*
X010174Y017341D01*
G37*
G36*
X010165Y017346D02*
X010106Y017243D01*
X010097Y017248D01*
X010156Y017351D01*
X010165Y017346D01*
G37*
G36*
X010156Y017351D02*
X010097Y017248D01*
X010088Y017253D01*
X010147Y017356D01*
X010156Y017351D01*
G37*
G36*
X010148Y017356D02*
X010089Y017253D01*
X010080Y017258D01*
X010139Y017361D01*
X010148Y017356D01*
G37*
G36*
X010139Y017361D02*
X010080Y017258D01*
X010071Y017263D01*
X010130Y017366D01*
X010139Y017361D01*
G37*
G36*
X010130Y017366D02*
X010071Y017263D01*
X010062Y017268D01*
X010121Y017371D01*
X010130Y017366D01*
G37*
G36*
X010122Y017371D02*
X010063Y017268D01*
X010054Y017273D01*
X010113Y017376D01*
X010122Y017371D01*
G37*
G36*
X010113Y017376D02*
X010054Y017273D01*
X010045Y017278D01*
X010104Y017381D01*
X010113Y017376D01*
G37*
G36*
X010104Y017381D02*
X010045Y017278D01*
X010036Y017283D01*
X010095Y017386D01*
X010104Y017381D01*
G37*
G36*
X010096Y017386D02*
X010037Y017283D01*
X010028Y017288D01*
X010087Y017391D01*
X010096Y017386D01*
G37*
G36*
X010087Y017391D02*
X010028Y017288D01*
X010019Y017293D01*
X010078Y017396D01*
X010087Y017391D01*
G37*
G36*
X010078Y017396D02*
X010019Y017293D01*
X010010Y017298D01*
X010069Y017401D01*
X010078Y017396D01*
G37*
G36*
X010070Y017401D02*
X010011Y017298D01*
X010002Y017303D01*
X010061Y017406D01*
X010070Y017401D01*
G37*
G36*
X010061Y017406D02*
X010002Y017303D01*
X009993Y017308D01*
X010052Y017411D01*
X010061Y017406D01*
G37*
G36*
X010052Y017411D02*
X009993Y017308D01*
X009984Y017313D01*
X010043Y017416D01*
X010052Y017411D01*
G37*
G36*
X010044Y017416D02*
X009985Y017313D01*
X009976Y017318D01*
X010035Y017421D01*
X010044Y017416D01*
G37*
G36*
X010035Y017421D02*
X009976Y017318D01*
X009967Y017323D01*
X010026Y017426D01*
X010035Y017421D01*
G37*
G36*
X010026Y017426D02*
X009967Y017323D01*
X009958Y017328D01*
X010017Y017431D01*
X010026Y017426D01*
G37*
G36*
X010139Y017581D02*
X010080Y017478D01*
X010071Y017483D01*
X010130Y017586D01*
X010139Y017581D01*
G37*
G36*
X010147Y017576D02*
X010088Y017473D01*
X010079Y017478D01*
X010138Y017581D01*
X010147Y017576D01*
G37*
G36*
X010156Y017571D02*
X010097Y017468D01*
X010088Y017473D01*
X010147Y017576D01*
X010156Y017571D01*
G37*
G36*
X010165Y017566D02*
X010106Y017463D01*
X010097Y017468D01*
X010156Y017571D01*
X010165Y017566D01*
G37*
G36*
X010173Y017561D02*
X010114Y017458D01*
X010105Y017463D01*
X010164Y017566D01*
X010173Y017561D01*
G37*
G36*
X010182Y017556D02*
X010123Y017453D01*
X010114Y017458D01*
X010173Y017561D01*
X010182Y017556D01*
G37*
G36*
X010191Y017551D02*
X010132Y017448D01*
X010123Y017453D01*
X010182Y017556D01*
X010191Y017551D01*
G37*
G36*
X010199Y017546D02*
X010140Y017443D01*
X010131Y017448D01*
X010190Y017551D01*
X010199Y017546D01*
G37*
G36*
X010208Y017541D02*
X010149Y017438D01*
X010140Y017443D01*
X010199Y017546D01*
X010208Y017541D01*
G37*
G36*
X010217Y017536D02*
X010158Y017433D01*
X010149Y017438D01*
X010208Y017541D01*
X010217Y017536D01*
G37*
G36*
X010225Y017531D02*
X010166Y017428D01*
X010157Y017433D01*
X010216Y017536D01*
X010225Y017531D01*
G37*
G36*
X010234Y017526D02*
X010175Y017423D01*
X010166Y017428D01*
X010225Y017531D01*
X010234Y017526D01*
G37*
G36*
X010243Y017521D02*
X010184Y017418D01*
X010175Y017423D01*
X010234Y017526D01*
X010243Y017521D01*
G37*
G36*
X010251Y017516D02*
X010192Y017413D01*
X010183Y017418D01*
X010242Y017521D01*
X010251Y017516D01*
G37*
G36*
X010260Y017511D02*
X010201Y017408D01*
X010192Y017413D01*
X010251Y017516D01*
X010260Y017511D01*
G37*
G36*
X010291Y017504D02*
X010232Y017401D01*
X010223Y017406D01*
X010282Y017509D01*
X010291Y017504D01*
G37*
G36*
X010269Y017506D02*
X010210Y017403D01*
X010201Y017408D01*
X010260Y017511D01*
X010269Y017506D01*
G37*
G36*
X010322Y017879D02*
X010263Y017776D01*
X010254Y017781D01*
X010313Y017884D01*
X010322Y017879D01*
G37*
G36*
X010412Y018035D02*
X010353Y017932D01*
X010344Y017937D01*
X010403Y018040D01*
X010412Y018035D01*
G37*
G36*
X010421Y018030D02*
X010362Y017927D01*
X010353Y017932D01*
X010412Y018035D01*
X010421Y018030D01*
G37*
G36*
X010430Y018025D02*
X010371Y017922D01*
X010362Y017927D01*
X010421Y018030D01*
X010430Y018025D01*
G37*
G36*
X010438Y018020D02*
X010379Y017917D01*
X010370Y017922D01*
X010429Y018025D01*
X010438Y018020D01*
G37*
G36*
X010447Y018015D02*
X010388Y017912D01*
X010379Y017917D01*
X010438Y018020D01*
X010447Y018015D01*
G37*
G36*
X010456Y018010D02*
X010397Y017907D01*
X010388Y017912D01*
X010447Y018015D01*
X010456Y018010D01*
G37*
G36*
X010464Y018005D02*
X010405Y017902D01*
X010396Y017907D01*
X010455Y018010D01*
X010464Y018005D01*
G37*
G36*
X010473Y018000D02*
X010414Y017897D01*
X010405Y017902D01*
X010464Y018005D01*
X010473Y018000D01*
G37*
G36*
X010482Y017995D02*
X010423Y017892D01*
X010414Y017897D01*
X010473Y018000D01*
X010482Y017995D01*
G37*
G36*
X010490Y017990D02*
X010431Y017887D01*
X010422Y017892D01*
X010481Y017995D01*
X010490Y017990D01*
G37*
G36*
X010499Y017985D02*
X010440Y017882D01*
X010431Y017887D01*
X010490Y017990D01*
X010499Y017985D01*
G37*
G36*
X010508Y017980D02*
X010449Y017877D01*
X010440Y017882D01*
X010499Y017985D01*
X010508Y017980D01*
G37*
G36*
X010516Y017975D02*
X010457Y017872D01*
X010448Y017877D01*
X010507Y017980D01*
X010516Y017975D01*
G37*
G36*
X010525Y017970D02*
X010466Y017867D01*
X010457Y017872D01*
X010516Y017975D01*
X010525Y017970D01*
G37*
G36*
X010534Y017965D02*
X010475Y017862D01*
X010466Y017867D01*
X010525Y017970D01*
X010534Y017965D01*
G37*
G36*
X010542Y017960D02*
X010483Y017857D01*
X010474Y017862D01*
X010533Y017965D01*
X010542Y017960D01*
G37*
G36*
X010551Y017955D02*
X010492Y017852D01*
X010483Y017857D01*
X010542Y017960D01*
X010551Y017955D01*
G37*
G36*
X010560Y017950D02*
X010501Y017847D01*
X010492Y017852D01*
X010551Y017955D01*
X010560Y017950D01*
G37*
G36*
X010568Y017945D02*
X010509Y017842D01*
X010500Y017847D01*
X010559Y017950D01*
X010568Y017945D01*
G37*
G36*
X010577Y017940D02*
X010518Y017837D01*
X010509Y017842D01*
X010568Y017945D01*
X010577Y017940D01*
G37*
G36*
X010586Y017935D02*
X010527Y017832D01*
X010518Y017837D01*
X010577Y017940D01*
X010586Y017935D01*
G37*
G36*
X010594Y017930D02*
X010535Y017827D01*
X010526Y017832D01*
X010585Y017935D01*
X010594Y017930D01*
G37*
G36*
X010603Y017925D02*
X010544Y017822D01*
X010535Y017827D01*
X010594Y017930D01*
X010603Y017925D01*
G37*
G36*
X010612Y017920D02*
X010553Y017817D01*
X010544Y017822D01*
X010603Y017925D01*
X010612Y017920D01*
G37*
G36*
X010620Y017915D02*
X010561Y017812D01*
X010552Y017817D01*
X010611Y017920D01*
X010620Y017915D01*
G37*
G36*
X010629Y017910D02*
X010570Y017807D01*
X010561Y017812D01*
X010620Y017915D01*
X010629Y017910D01*
G37*
G36*
X010638Y017905D02*
X010579Y017802D01*
X010570Y017807D01*
X010629Y017910D01*
X010638Y017905D01*
G37*
G36*
X010646Y017900D02*
X010587Y017797D01*
X010578Y017802D01*
X010637Y017905D01*
X010646Y017900D01*
G37*
G36*
X010655Y017895D02*
X010596Y017792D01*
X010587Y017797D01*
X010646Y017900D01*
X010655Y017895D01*
G37*
G36*
X010664Y017890D02*
X010605Y017787D01*
X010596Y017792D01*
X010655Y017895D01*
X010664Y017890D01*
G37*
G36*
X010672Y017885D02*
X010613Y017782D01*
X010604Y017787D01*
X010663Y017890D01*
X010672Y017885D01*
G37*
G36*
X010681Y017880D02*
X010622Y017777D01*
X010613Y017782D01*
X010672Y017885D01*
X010681Y017880D01*
G37*
G36*
X010690Y017875D02*
X010631Y017772D01*
X010622Y017777D01*
X010681Y017880D01*
X010690Y017875D01*
G37*
G36*
X010698Y017870D02*
X010639Y017767D01*
X010630Y017772D01*
X010689Y017875D01*
X010698Y017870D01*
G37*
G36*
X010707Y017865D02*
X010648Y017762D01*
X010639Y017767D01*
X010698Y017870D01*
X010707Y017865D01*
G37*
G36*
X010767Y018188D02*
X010708Y018085D01*
X010699Y018090D01*
X010758Y018193D01*
X010767Y018188D01*
G37*
G36*
X010758Y018193D02*
X010699Y018090D01*
X010690Y018095D01*
X010749Y018198D01*
X010758Y018193D01*
G37*
G36*
X010749Y018198D02*
X010690Y018095D01*
X010681Y018100D01*
X010740Y018203D01*
X010749Y018198D01*
G37*
G36*
X010741Y018203D02*
X010682Y018100D01*
X010673Y018105D01*
X010732Y018208D01*
X010741Y018203D01*
G37*
G36*
X010732Y018208D02*
X010673Y018105D01*
X010664Y018110D01*
X010723Y018213D01*
X010732Y018208D01*
G37*
G36*
X010723Y018213D02*
X010664Y018110D01*
X010655Y018115D01*
X010714Y018218D01*
X010723Y018213D01*
G37*
G36*
X010715Y018218D02*
X010656Y018115D01*
X010647Y018120D01*
X010706Y018223D01*
X010715Y018218D01*
G37*
G36*
X010706Y018223D02*
X010647Y018120D01*
X010638Y018125D01*
X010697Y018228D01*
X010706Y018223D01*
G37*
G36*
X010697Y018228D02*
X010638Y018125D01*
X010629Y018130D01*
X010688Y018233D01*
X010697Y018228D01*
G37*
G36*
X010675Y018230D02*
X010616Y018127D01*
X010607Y018132D01*
X010666Y018235D01*
X010675Y018230D01*
G37*
G36*
X010775Y018403D02*
X010716Y018300D01*
X010707Y018305D01*
X010766Y018408D01*
X010775Y018403D01*
G37*
G36*
X010810Y018383D02*
X010751Y018280D01*
X010742Y018285D01*
X010801Y018388D01*
X010810Y018383D01*
G37*
G36*
X010845Y018744D02*
X010786Y018641D01*
X010777Y018646D01*
X010836Y018749D01*
X010845Y018744D01*
G37*
G36*
X010815Y018772D02*
X010756Y018669D01*
X010747Y018674D01*
X010806Y018777D01*
X010815Y018772D01*
G37*
G36*
X010909Y018914D02*
X010850Y018811D01*
X010841Y018816D01*
X010900Y018919D01*
X010909Y018914D01*
G37*
G36*
X010917Y018909D02*
X010858Y018806D01*
X010849Y018811D01*
X010908Y018914D01*
X010917Y018909D01*
G37*
G36*
X010926Y018904D02*
X010867Y018801D01*
X010858Y018806D01*
X010917Y018909D01*
X010926Y018904D01*
G37*
G36*
X010935Y018899D02*
X010876Y018796D01*
X010867Y018801D01*
X010926Y018904D01*
X010935Y018899D01*
G37*
G36*
X010943Y018894D02*
X010884Y018791D01*
X010875Y018796D01*
X010934Y018899D01*
X010943Y018894D01*
G37*
G36*
X010952Y018889D02*
X010893Y018786D01*
X010884Y018791D01*
X010943Y018894D01*
X010952Y018889D01*
G37*
G36*
X010961Y018884D02*
X010902Y018781D01*
X010893Y018786D01*
X010952Y018889D01*
X010961Y018884D01*
G37*
G36*
X010969Y018879D02*
X010910Y018776D01*
X010901Y018781D01*
X010960Y018884D01*
X010969Y018879D01*
G37*
G36*
X010978Y018874D02*
X010919Y018771D01*
X010910Y018776D01*
X010969Y018879D01*
X010978Y018874D01*
G37*
G36*
X010987Y018869D02*
X010928Y018766D01*
X010919Y018771D01*
X010978Y018874D01*
X010987Y018869D01*
G37*
G36*
X010995Y018864D02*
X010936Y018761D01*
X010927Y018766D01*
X010986Y018869D01*
X010995Y018864D01*
G37*
G36*
X011004Y018859D02*
X010945Y018756D01*
X010936Y018761D01*
X010995Y018864D01*
X011004Y018859D01*
G37*
G36*
X011013Y018854D02*
X010954Y018751D01*
X010945Y018756D01*
X011004Y018859D01*
X011013Y018854D01*
G37*
G36*
X011021Y018849D02*
X010962Y018746D01*
X010953Y018751D01*
X011012Y018854D01*
X011021Y018849D01*
G37*
G36*
X011030Y018844D02*
X010971Y018741D01*
X010962Y018746D01*
X011021Y018849D01*
X011030Y018844D01*
G37*
G36*
X011039Y018839D02*
X010980Y018736D01*
X010971Y018741D01*
X011030Y018844D01*
X011039Y018839D01*
G37*
G36*
X011047Y018834D02*
X010988Y018731D01*
X010979Y018736D01*
X011038Y018839D01*
X011047Y018834D01*
G37*
G36*
X011056Y018829D02*
X010997Y018726D01*
X010988Y018731D01*
X011047Y018834D01*
X011056Y018829D01*
G37*
G36*
X011065Y018824D02*
X011006Y018721D01*
X010997Y018726D01*
X011056Y018829D01*
X011065Y018824D01*
G37*
G36*
X011073Y018819D02*
X011014Y018716D01*
X011005Y018721D01*
X011064Y018824D01*
X011073Y018819D01*
G37*
G36*
X011082Y018814D02*
X011023Y018711D01*
X011014Y018716D01*
X011073Y018819D01*
X011082Y018814D01*
G37*
G36*
X011091Y018809D02*
X011032Y018706D01*
X011023Y018711D01*
X011082Y018814D01*
X011091Y018809D01*
G37*
G36*
X011099Y018804D02*
X011040Y018701D01*
X011031Y018706D01*
X011090Y018809D01*
X011099Y018804D01*
G37*
G36*
X011108Y018799D02*
X011049Y018696D01*
X011040Y018701D01*
X011099Y018804D01*
X011108Y018799D01*
G37*
G36*
X011117Y018794D02*
X011058Y018691D01*
X011049Y018696D01*
X011108Y018799D01*
X011117Y018794D01*
G37*
G36*
X011125Y018789D02*
X011066Y018686D01*
X011057Y018691D01*
X011116Y018794D01*
X011125Y018789D01*
G37*
G36*
X011134Y018784D02*
X011075Y018681D01*
X011066Y018686D01*
X011125Y018789D01*
X011134Y018784D01*
G37*
G36*
X011143Y018779D02*
X011084Y018676D01*
X011075Y018681D01*
X011134Y018784D01*
X011143Y018779D01*
G37*
G36*
X011151Y018774D02*
X011092Y018671D01*
X011083Y018676D01*
X011142Y018779D01*
X011151Y018774D01*
G37*
G36*
X011160Y018769D02*
X011101Y018666D01*
X011092Y018671D01*
X011151Y018774D01*
X011160Y018769D01*
G37*
G36*
X011169Y018764D02*
X011110Y018661D01*
X011101Y018666D01*
X011160Y018769D01*
X011169Y018764D01*
G37*
G36*
X011177Y018759D02*
X011118Y018656D01*
X011109Y018661D01*
X011168Y018764D01*
X011177Y018759D01*
G37*
G36*
X011186Y018754D02*
X011127Y018651D01*
X011118Y018656D01*
X011177Y018759D01*
X011186Y018754D01*
G37*
G36*
X011195Y018749D02*
X011136Y018646D01*
X011127Y018651D01*
X011186Y018754D01*
X011195Y018749D01*
G37*
G36*
X011203Y018744D02*
X011144Y018641D01*
X011135Y018646D01*
X011194Y018749D01*
X011203Y018744D01*
G37*
G36*
X011212Y018739D02*
X011153Y018636D01*
X011144Y018641D01*
X011203Y018744D01*
X011212Y018739D01*
G37*
G36*
X011088Y019146D02*
X011029Y019043D01*
X011020Y019048D01*
X011079Y019151D01*
X011088Y019146D01*
G37*
G36*
X011045Y019171D02*
X010986Y019068D01*
X010977Y019073D01*
X011036Y019176D01*
X011045Y019171D01*
G37*
G36*
X011215Y019465D02*
X011156Y019362D01*
X011147Y019367D01*
X011206Y019470D01*
X011215Y019465D01*
G37*
G36*
X011224Y019460D02*
X011165Y019357D01*
X011156Y019362D01*
X011215Y019465D01*
X011224Y019460D01*
G37*
G36*
X011232Y019455D02*
X011173Y019352D01*
X011164Y019357D01*
X011223Y019460D01*
X011232Y019455D01*
G37*
G36*
X011241Y019450D02*
X011182Y019347D01*
X011173Y019352D01*
X011232Y019455D01*
X011241Y019450D01*
G37*
G36*
X011250Y019445D02*
X011191Y019342D01*
X011182Y019347D01*
X011241Y019450D01*
X011250Y019445D01*
G37*
G36*
X011258Y019440D02*
X011199Y019337D01*
X011190Y019342D01*
X011249Y019445D01*
X011258Y019440D01*
G37*
G36*
X011267Y019435D02*
X011208Y019332D01*
X011199Y019337D01*
X011258Y019440D01*
X011267Y019435D01*
G37*
G36*
X011276Y019430D02*
X011217Y019327D01*
X011208Y019332D01*
X011267Y019435D01*
X011276Y019430D01*
G37*
G36*
X011284Y019425D02*
X011225Y019322D01*
X011216Y019327D01*
X011275Y019430D01*
X011284Y019425D01*
G37*
G36*
X011293Y019420D02*
X011234Y019317D01*
X011225Y019322D01*
X011284Y019425D01*
X011293Y019420D01*
G37*
G36*
X011302Y019415D02*
X011243Y019312D01*
X011234Y019317D01*
X011293Y019420D01*
X011302Y019415D01*
G37*
G36*
X011310Y019410D02*
X011251Y019307D01*
X011242Y019312D01*
X011301Y019415D01*
X011310Y019410D01*
G37*
G36*
X011319Y019405D02*
X011260Y019302D01*
X011251Y019307D01*
X011310Y019410D01*
X011319Y019405D01*
G37*
G36*
X011328Y019400D02*
X011269Y019297D01*
X011260Y019302D01*
X011319Y019405D01*
X011328Y019400D01*
G37*
G36*
X011336Y019395D02*
X011277Y019292D01*
X011268Y019297D01*
X011327Y019400D01*
X011336Y019395D01*
G37*
G36*
X011345Y019390D02*
X011286Y019287D01*
X011277Y019292D01*
X011336Y019395D01*
X011345Y019390D01*
G37*
G36*
X011354Y019385D02*
X011295Y019282D01*
X011286Y019287D01*
X011345Y019390D01*
X011354Y019385D01*
G37*
G36*
X011366Y019366D02*
X011307Y019263D01*
X011298Y019268D01*
X011357Y019371D01*
X011366Y019366D01*
G37*
G36*
X011470Y019526D02*
X011411Y019423D01*
X011402Y019428D01*
X011461Y019531D01*
X011470Y019526D01*
G37*
G36*
X011478Y019521D02*
X011419Y019418D01*
X011410Y019423D01*
X011469Y019526D01*
X011478Y019521D01*
G37*
G36*
X011487Y019516D02*
X011428Y019413D01*
X011419Y019418D01*
X011478Y019521D01*
X011487Y019516D01*
G37*
G36*
X011496Y019511D02*
X011437Y019408D01*
X011428Y019413D01*
X011487Y019516D01*
X011496Y019511D01*
G37*
G36*
X011504Y019506D02*
X011445Y019403D01*
X011436Y019408D01*
X011495Y019511D01*
X011504Y019506D01*
G37*
G36*
X011513Y019501D02*
X011454Y019398D01*
X011445Y019403D01*
X011504Y019506D01*
X011513Y019501D01*
G37*
G36*
X011522Y019496D02*
X011463Y019393D01*
X011454Y019398D01*
X011513Y019501D01*
X011522Y019496D01*
G37*
G36*
X011530Y019491D02*
X011471Y019388D01*
X011462Y019393D01*
X011521Y019496D01*
X011530Y019491D01*
G37*
G36*
X011539Y019486D02*
X011480Y019383D01*
X011471Y019388D01*
X011530Y019491D01*
X011539Y019486D01*
G37*
G36*
X011548Y019481D02*
X011489Y019378D01*
X011480Y019383D01*
X011539Y019486D01*
X011548Y019481D01*
G37*
G36*
X011556Y019476D02*
X011497Y019373D01*
X011488Y019378D01*
X011547Y019481D01*
X011556Y019476D01*
G37*
G36*
X011565Y019471D02*
X011506Y019368D01*
X011497Y019373D01*
X011556Y019476D01*
X011565Y019471D01*
G37*
G36*
X011574Y019466D02*
X011515Y019363D01*
X011506Y019368D01*
X011565Y019471D01*
X011574Y019466D01*
G37*
G36*
X011582Y019461D02*
X011523Y019358D01*
X011514Y019363D01*
X011573Y019466D01*
X011582Y019461D01*
G37*
G36*
X011591Y019456D02*
X011532Y019353D01*
X011523Y019358D01*
X011582Y019461D01*
X011591Y019456D01*
G37*
G36*
X011600Y019451D02*
X011541Y019348D01*
X011532Y019353D01*
X011591Y019456D01*
X011600Y019451D01*
G37*
G36*
X011608Y019446D02*
X011549Y019343D01*
X011540Y019348D01*
X011599Y019451D01*
X011608Y019446D01*
G37*
G36*
X011617Y019441D02*
X011558Y019338D01*
X011549Y019343D01*
X011608Y019446D01*
X011617Y019441D01*
G37*
G36*
X011461Y019531D02*
X011402Y019428D01*
X011393Y019433D01*
X011452Y019536D01*
X011461Y019531D01*
G37*
G36*
X011452Y019536D02*
X011393Y019433D01*
X011384Y019438D01*
X011443Y019541D01*
X011452Y019536D01*
G37*
G36*
X011444Y019541D02*
X011385Y019438D01*
X011376Y019443D01*
X011435Y019546D01*
X011444Y019541D01*
G37*
G36*
X011435Y019546D02*
X011376Y019443D01*
X011367Y019448D01*
X011426Y019551D01*
X011435Y019546D01*
G37*
G36*
X011426Y019551D02*
X011367Y019448D01*
X011358Y019453D01*
X011417Y019556D01*
X011426Y019551D01*
G37*
G36*
X011418Y019556D02*
X011359Y019453D01*
X011350Y019458D01*
X011409Y019561D01*
X011418Y019556D01*
G37*
G36*
X011409Y019561D02*
X011350Y019458D01*
X011341Y019463D01*
X011400Y019566D01*
X011409Y019561D01*
G37*
G36*
X011400Y019566D02*
X011341Y019463D01*
X011332Y019468D01*
X011391Y019571D01*
X011400Y019566D01*
G37*
G36*
X011392Y019571D02*
X011333Y019468D01*
X011324Y019473D01*
X011383Y019576D01*
X011392Y019571D01*
G37*
G36*
X011383Y019576D02*
X011324Y019473D01*
X011315Y019478D01*
X011374Y019581D01*
X011383Y019576D01*
G37*
G36*
X011374Y019581D02*
X011315Y019478D01*
X011306Y019483D01*
X011365Y019586D01*
X011374Y019581D01*
G37*
G36*
X011366Y019586D02*
X011307Y019483D01*
X011298Y019488D01*
X011357Y019591D01*
X011366Y019586D01*
G37*
G36*
X011357Y019591D02*
X011298Y019488D01*
X011289Y019493D01*
X011348Y019596D01*
X011357Y019591D01*
G37*
G36*
X011348Y019596D02*
X011289Y019493D01*
X011280Y019498D01*
X011339Y019601D01*
X011348Y019596D01*
G37*
G36*
X011340Y019601D02*
X011281Y019498D01*
X011272Y019503D01*
X011331Y019606D01*
X011340Y019601D01*
G37*
G36*
X011331Y019606D02*
X011272Y019503D01*
X011263Y019508D01*
X011322Y019611D01*
X011331Y019606D01*
G37*
G36*
X011322Y019611D02*
X011263Y019508D01*
X011254Y019513D01*
X011313Y019616D01*
X011322Y019611D01*
G37*
G36*
X011314Y019616D02*
X011255Y019513D01*
X011246Y019518D01*
X011305Y019621D01*
X011314Y019616D01*
G37*
G36*
X011305Y019621D02*
X011246Y019518D01*
X011237Y019523D01*
X011296Y019626D01*
X011305Y019621D01*
G37*
G36*
X011206Y019470D02*
X011147Y019367D01*
X011138Y019372D01*
X011197Y019475D01*
X011206Y019470D01*
G37*
G36*
X011492Y019905D02*
X011433Y019802D01*
X011424Y019807D01*
X011483Y019910D01*
X011492Y019905D01*
G37*
G36*
X011506Y019909D02*
X011447Y019806D01*
X011438Y019811D01*
X011497Y019914D01*
X011506Y019909D01*
G37*
G36*
X011515Y019904D02*
X011456Y019801D01*
X011447Y019806D01*
X011506Y019909D01*
X011515Y019904D01*
G37*
G36*
X011523Y019899D02*
X011464Y019796D01*
X011455Y019801D01*
X011514Y019904D01*
X011523Y019899D01*
G37*
G36*
X011532Y019894D02*
X011473Y019791D01*
X011464Y019796D01*
X011523Y019899D01*
X011532Y019894D01*
G37*
G36*
X011541Y019889D02*
X011482Y019786D01*
X011473Y019791D01*
X011532Y019894D01*
X011541Y019889D01*
G37*
G36*
X011549Y019884D02*
X011490Y019781D01*
X011481Y019786D01*
X011540Y019889D01*
X011549Y019884D01*
G37*
G36*
X011558Y019879D02*
X011499Y019776D01*
X011490Y019781D01*
X011549Y019884D01*
X011558Y019879D01*
G37*
G36*
X011567Y019874D02*
X011508Y019771D01*
X011499Y019776D01*
X011558Y019879D01*
X011567Y019874D01*
G37*
G36*
X011575Y019869D02*
X011516Y019766D01*
X011507Y019771D01*
X011566Y019874D01*
X011575Y019869D01*
G37*
G36*
X011584Y019864D02*
X011525Y019761D01*
X011516Y019766D01*
X011575Y019869D01*
X011584Y019864D01*
G37*
G36*
X011593Y019859D02*
X011534Y019756D01*
X011525Y019761D01*
X011584Y019864D01*
X011593Y019859D01*
G37*
G36*
X011601Y019854D02*
X011542Y019751D01*
X011533Y019756D01*
X011592Y019859D01*
X011601Y019854D01*
G37*
G36*
X011610Y019849D02*
X011551Y019746D01*
X011542Y019751D01*
X011601Y019854D01*
X011610Y019849D01*
G37*
G36*
X011619Y019844D02*
X011560Y019741D01*
X011551Y019746D01*
X011610Y019849D01*
X011619Y019844D01*
G37*
G36*
X011627Y019839D02*
X011568Y019736D01*
X011559Y019741D01*
X011618Y019844D01*
X011627Y019839D01*
G37*
G36*
X011640Y019820D02*
X011581Y019717D01*
X011572Y019722D01*
X011631Y019825D01*
X011640Y019820D01*
G37*
G36*
X011527Y020105D02*
X011468Y020002D01*
X011459Y020007D01*
X011518Y020110D01*
X011527Y020105D01*
G37*
G36*
X011518Y020110D02*
X011459Y020007D01*
X011450Y020012D01*
X011509Y020115D01*
X011518Y020110D01*
G37*
G36*
X011509Y020115D02*
X011450Y020012D01*
X011441Y020017D01*
X011500Y020120D01*
X011509Y020115D01*
G37*
G36*
X011501Y020120D02*
X011442Y020017D01*
X011433Y020022D01*
X011492Y020125D01*
X011501Y020120D01*
G37*
G36*
X011492Y020125D02*
X011433Y020022D01*
X011424Y020027D01*
X011483Y020130D01*
X011492Y020125D01*
G37*
G36*
X011669Y020231D02*
X011610Y020128D01*
X011601Y020133D01*
X011660Y020236D01*
X011669Y020231D01*
G37*
G36*
X011677Y020226D02*
X011618Y020123D01*
X011609Y020128D01*
X011668Y020231D01*
X011677Y020226D01*
G37*
G36*
X011686Y020221D02*
X011627Y020118D01*
X011618Y020123D01*
X011677Y020226D01*
X011686Y020221D01*
G37*
G36*
X011695Y020216D02*
X011636Y020113D01*
X011627Y020118D01*
X011686Y020221D01*
X011695Y020216D01*
G37*
G36*
X011703Y020211D02*
X011644Y020108D01*
X011635Y020113D01*
X011694Y020216D01*
X011703Y020211D01*
G37*
G36*
X011712Y020206D02*
X011653Y020103D01*
X011644Y020108D01*
X011703Y020211D01*
X011712Y020206D01*
G37*
G36*
X011721Y020201D02*
X011662Y020098D01*
X011653Y020103D01*
X011712Y020206D01*
X011721Y020201D01*
G37*
G36*
X011729Y020196D02*
X011670Y020093D01*
X011661Y020098D01*
X011720Y020201D01*
X011729Y020196D01*
G37*
G36*
X011738Y020191D02*
X011679Y020088D01*
X011670Y020093D01*
X011729Y020196D01*
X011738Y020191D01*
G37*
G36*
X011747Y020186D02*
X011688Y020083D01*
X011679Y020088D01*
X011738Y020191D01*
X011747Y020186D01*
G37*
G36*
X011755Y020181D02*
X011696Y020078D01*
X011687Y020083D01*
X011746Y020186D01*
X011755Y020181D01*
G37*
G36*
X011764Y020176D02*
X011705Y020073D01*
X011696Y020078D01*
X011755Y020181D01*
X011764Y020176D01*
G37*
G36*
X011773Y020171D02*
X011714Y020068D01*
X011705Y020073D01*
X011764Y020176D01*
X011773Y020171D01*
G37*
G36*
X011781Y020166D02*
X011722Y020063D01*
X011713Y020068D01*
X011772Y020171D01*
X011781Y020166D01*
G37*
G36*
X011790Y020161D02*
X011731Y020058D01*
X011722Y020063D01*
X011781Y020166D01*
X011790Y020161D01*
G37*
G36*
X011799Y020156D02*
X011740Y020053D01*
X011731Y020058D01*
X011790Y020161D01*
X011799Y020156D01*
G37*
G36*
X011830Y020149D02*
X011771Y020046D01*
X011762Y020051D01*
X011821Y020154D01*
X011830Y020149D01*
G37*
G36*
X011995Y020435D02*
X011936Y020332D01*
X011927Y020337D01*
X011986Y020440D01*
X011995Y020435D01*
G37*
G36*
X011974Y020459D02*
X011915Y020356D01*
X011906Y020361D01*
X011965Y020464D01*
X011974Y020459D01*
G37*
G36*
X011965Y020464D02*
X011906Y020361D01*
X011897Y020366D01*
X011956Y020469D01*
X011965Y020464D01*
G37*
G36*
X011956Y020469D02*
X011897Y020366D01*
X011888Y020371D01*
X011947Y020474D01*
X011956Y020469D01*
G37*
G36*
X011948Y020474D02*
X011889Y020371D01*
X011880Y020376D01*
X011939Y020479D01*
X011948Y020474D01*
G37*
G36*
X011939Y020479D02*
X011880Y020376D01*
X011871Y020381D01*
X011930Y020484D01*
X011939Y020479D01*
G37*
G36*
X011930Y020484D02*
X011871Y020381D01*
X011862Y020386D01*
X011921Y020489D01*
X011930Y020484D01*
G37*
G36*
X011922Y020489D02*
X011863Y020386D01*
X011854Y020391D01*
X011913Y020494D01*
X011922Y020489D01*
G37*
G36*
X011913Y020494D02*
X011854Y020391D01*
X011845Y020396D01*
X011904Y020499D01*
X011913Y020494D01*
G37*
G36*
X011904Y020499D02*
X011845Y020396D01*
X011836Y020401D01*
X011895Y020504D01*
X011904Y020499D01*
G37*
G36*
X011896Y020504D02*
X011837Y020401D01*
X011828Y020406D01*
X011887Y020509D01*
X011896Y020504D01*
G37*
G36*
X011887Y020509D02*
X011828Y020406D01*
X011819Y020411D01*
X011878Y020514D01*
X011887Y020509D01*
G37*
G36*
X011878Y020514D02*
X011819Y020411D01*
X011810Y020416D01*
X011869Y020519D01*
X011878Y020514D01*
G37*
G36*
X011870Y020519D02*
X011811Y020416D01*
X011802Y020421D01*
X011861Y020524D01*
X011870Y020519D01*
G37*
G36*
X011861Y020524D02*
X011802Y020421D01*
X011793Y020426D01*
X011852Y020529D01*
X011861Y020524D01*
G37*
G36*
X011852Y020529D02*
X011793Y020426D01*
X011784Y020431D01*
X011843Y020534D01*
X011852Y020529D01*
G37*
G36*
X011937Y020676D02*
X011878Y020573D01*
X011869Y020578D01*
X011928Y020681D01*
X011937Y020676D01*
G37*
G36*
X011946Y020671D02*
X011887Y020568D01*
X011878Y020573D01*
X011937Y020676D01*
X011946Y020671D01*
G37*
G36*
X011955Y020666D02*
X011896Y020563D01*
X011887Y020568D01*
X011946Y020671D01*
X011955Y020666D01*
G37*
G36*
X011963Y020661D02*
X011904Y020558D01*
X011895Y020563D01*
X011954Y020666D01*
X011963Y020661D01*
G37*
G36*
X011972Y020656D02*
X011913Y020553D01*
X011904Y020558D01*
X011963Y020661D01*
X011972Y020656D01*
G37*
G36*
X011981Y020651D02*
X011922Y020548D01*
X011913Y020553D01*
X011972Y020656D01*
X011981Y020651D01*
G37*
G36*
X011989Y020646D02*
X011930Y020543D01*
X011921Y020548D01*
X011980Y020651D01*
X011989Y020646D01*
G37*
G36*
X011998Y020641D02*
X011939Y020538D01*
X011930Y020543D01*
X011989Y020646D01*
X011998Y020641D01*
G37*
G36*
X012007Y020636D02*
X011948Y020533D01*
X011939Y020538D01*
X011998Y020641D01*
X012007Y020636D01*
G37*
G36*
X012015Y020631D02*
X011956Y020528D01*
X011947Y020533D01*
X012006Y020636D01*
X012015Y020631D01*
G37*
G36*
X012024Y020626D02*
X011965Y020523D01*
X011956Y020528D01*
X012015Y020631D01*
X012024Y020626D01*
G37*
G36*
X012033Y020621D02*
X011974Y020518D01*
X011965Y020523D01*
X012024Y020626D01*
X012033Y020621D01*
G37*
G36*
X012041Y020616D02*
X011982Y020513D01*
X011973Y020518D01*
X012032Y020621D01*
X012041Y020616D01*
G37*
G36*
X012050Y020611D02*
X011991Y020508D01*
X011982Y020513D01*
X012041Y020616D01*
X012050Y020611D01*
G37*
G36*
X012081Y020605D02*
X012022Y020502D01*
X012013Y020507D01*
X012072Y020610D01*
X012081Y020605D01*
G37*
G36*
X012059Y020606D02*
X012000Y020503D01*
X011991Y020508D01*
X012050Y020611D01*
X012059Y020606D01*
G37*
G36*
X011929Y020681D02*
X011870Y020578D01*
X011861Y020583D01*
X011920Y020686D01*
X011929Y020681D01*
G37*
G36*
X011920Y020686D02*
X011861Y020583D01*
X011852Y020588D01*
X011911Y020691D01*
X011920Y020686D01*
G37*
G36*
X011911Y020691D02*
X011852Y020588D01*
X011843Y020593D01*
X011902Y020696D01*
X011911Y020691D01*
G37*
G36*
X011903Y020696D02*
X011844Y020593D01*
X011835Y020598D01*
X011894Y020701D01*
X011903Y020696D01*
G37*
G36*
X011894Y020701D02*
X011835Y020598D01*
X011826Y020603D01*
X011885Y020706D01*
X011894Y020701D01*
G37*
G36*
X011885Y020706D02*
X011826Y020603D01*
X011817Y020608D01*
X011876Y020711D01*
X011885Y020706D01*
G37*
G36*
X011877Y020711D02*
X011818Y020608D01*
X011809Y020613D01*
X011868Y020716D01*
X011877Y020711D01*
G37*
G36*
X011868Y020716D02*
X011809Y020613D01*
X011800Y020618D01*
X011859Y020721D01*
X011868Y020716D01*
G37*
G36*
X012146Y021018D02*
X012087Y020915D01*
X012078Y020920D01*
X012137Y021023D01*
X012146Y021018D01*
G37*
G36*
X012155Y021013D02*
X012096Y020910D01*
X012087Y020915D01*
X012146Y021018D01*
X012155Y021013D01*
G37*
G36*
X012163Y021008D02*
X012104Y020905D01*
X012095Y020910D01*
X012154Y021013D01*
X012163Y021008D01*
G37*
G36*
X012172Y021003D02*
X012113Y020900D01*
X012104Y020905D01*
X012163Y021008D01*
X012172Y021003D01*
G37*
G36*
X012181Y020998D02*
X012122Y020895D01*
X012113Y020900D01*
X012172Y021003D01*
X012181Y020998D01*
G37*
G36*
X012189Y020993D02*
X012130Y020890D01*
X012121Y020895D01*
X012180Y020998D01*
X012189Y020993D01*
G37*
G36*
X012198Y020988D02*
X012139Y020885D01*
X012130Y020890D01*
X012189Y020993D01*
X012198Y020988D01*
G37*
G36*
X012207Y020983D02*
X012148Y020880D01*
X012139Y020885D01*
X012198Y020988D01*
X012207Y020983D01*
G37*
G36*
X012215Y020978D02*
X012156Y020875D01*
X012147Y020880D01*
X012206Y020983D01*
X012215Y020978D01*
G37*
G36*
X012224Y020973D02*
X012165Y020870D01*
X012156Y020875D01*
X012215Y020978D01*
X012224Y020973D01*
G37*
G36*
X012233Y020968D02*
X012174Y020865D01*
X012165Y020870D01*
X012224Y020973D01*
X012233Y020968D01*
G37*
G36*
X012241Y020963D02*
X012182Y020860D01*
X012173Y020865D01*
X012232Y020968D01*
X012241Y020963D01*
G37*
G36*
X012272Y020956D02*
X012213Y020853D01*
X012204Y020858D01*
X012263Y020961D01*
X012272Y020956D01*
G37*
G36*
X012250Y020958D02*
X012191Y020855D01*
X012182Y020860D01*
X012241Y020963D01*
X012250Y020958D01*
G37*
G36*
X012425Y021261D02*
X012366Y021158D01*
X012357Y021163D01*
X012416Y021266D01*
X012425Y021261D01*
G37*
G36*
X012434Y021256D02*
X012375Y021153D01*
X012366Y021158D01*
X012425Y021261D01*
X012434Y021256D01*
G37*
G36*
X012442Y021251D02*
X012383Y021148D01*
X012374Y021153D01*
X012433Y021256D01*
X012442Y021251D01*
G37*
G36*
X012451Y021246D02*
X012392Y021143D01*
X012383Y021148D01*
X012442Y021251D01*
X012451Y021246D01*
G37*
G36*
X012416Y021266D02*
X012357Y021163D01*
X012348Y021168D01*
X012407Y021271D01*
X012416Y021266D01*
G37*
G36*
X012408Y021271D02*
X012349Y021168D01*
X012340Y021173D01*
X012399Y021276D01*
X012408Y021271D01*
G37*
G36*
X012399Y021276D02*
X012340Y021173D01*
X012331Y021178D01*
X012390Y021281D01*
X012399Y021276D01*
G37*
G36*
X012390Y021281D02*
X012331Y021178D01*
X012322Y021183D01*
X012381Y021286D01*
X012390Y021281D01*
G37*
G36*
X012382Y021286D02*
X012323Y021183D01*
X012314Y021188D01*
X012373Y021291D01*
X012382Y021286D01*
G37*
G36*
X012373Y021291D02*
X012314Y021188D01*
X012305Y021193D01*
X012364Y021296D01*
X012373Y021291D01*
G37*
G36*
X012364Y021296D02*
X012305Y021193D01*
X012296Y021198D01*
X012355Y021301D01*
X012364Y021296D01*
G37*
G36*
X012356Y021301D02*
X012297Y021198D01*
X012288Y021203D01*
X012347Y021306D01*
X012356Y021301D01*
G37*
G36*
X012347Y021306D02*
X012288Y021203D01*
X012279Y021208D01*
X012338Y021311D01*
X012347Y021306D01*
G37*
G36*
X012338Y021311D02*
X012279Y021208D01*
X012270Y021213D01*
X012329Y021316D01*
X012338Y021311D01*
G37*
G36*
X012330Y021316D02*
X012271Y021213D01*
X012262Y021218D01*
X012321Y021321D01*
X012330Y021316D01*
G37*
G36*
X012321Y021321D02*
X012262Y021218D01*
X012253Y021223D01*
X012312Y021326D01*
X012321Y021321D01*
G37*
G36*
X012312Y021326D02*
X012253Y021223D01*
X012244Y021228D01*
X012303Y021331D01*
X012312Y021326D01*
G37*
G36*
X012304Y021331D02*
X012245Y021228D01*
X012236Y021233D01*
X012295Y021336D01*
X012304Y021331D01*
G37*
G36*
X012295Y021336D02*
X012236Y021233D01*
X012227Y021238D01*
X012286Y021341D01*
X012295Y021336D01*
G37*
G36*
X012286Y021341D02*
X012227Y021238D01*
X012218Y021243D01*
X012277Y021346D01*
X012286Y021341D01*
G37*
G36*
X012278Y021346D02*
X012219Y021243D01*
X012210Y021248D01*
X012269Y021351D01*
X012278Y021346D01*
G37*
G36*
X012269Y021351D02*
X012210Y021248D01*
X012201Y021253D01*
X012260Y021356D01*
X012269Y021351D01*
G37*
G36*
X012260Y021356D02*
X012201Y021253D01*
X012192Y021258D01*
X012251Y021361D01*
X012260Y021356D01*
G37*
G36*
X012252Y021361D02*
X012193Y021258D01*
X012184Y021263D01*
X012243Y021366D01*
X012252Y021361D01*
G37*
G36*
X012243Y021366D02*
X012184Y021263D01*
X012175Y021268D01*
X012234Y021371D01*
X012243Y021366D01*
G37*
G36*
X012234Y021371D02*
X012175Y021268D01*
X012166Y021273D01*
X012225Y021376D01*
X012234Y021371D01*
G37*
G36*
X012226Y021376D02*
X012167Y021273D01*
X012158Y021278D01*
X012217Y021381D01*
X012226Y021376D01*
G37*
G36*
X012217Y021381D02*
X012158Y021278D01*
X012149Y021283D01*
X012208Y021386D01*
X012217Y021381D01*
G37*
G36*
X012195Y021382D02*
X012136Y021279D01*
X012127Y021284D01*
X012186Y021387D01*
X012195Y021382D01*
G37*
G36*
X010507Y018338D02*
X010448Y018235D01*
X010439Y018240D01*
X010498Y018343D01*
X010507Y018338D01*
G37*
G36*
X010515Y018333D02*
X010456Y018230D01*
X010447Y018235D01*
X010506Y018338D01*
X010515Y018333D01*
G37*
G36*
X010524Y018328D02*
X010465Y018225D01*
X010456Y018230D01*
X010515Y018333D01*
X010524Y018328D01*
G37*
G36*
X010533Y018323D02*
X010474Y018220D01*
X010465Y018225D01*
X010524Y018328D01*
X010533Y018323D01*
G37*
G36*
X010541Y018318D02*
X010482Y018215D01*
X010473Y018220D01*
X010532Y018323D01*
X010541Y018318D01*
G37*
G36*
X010550Y018313D02*
X010491Y018210D01*
X010482Y018215D01*
X010541Y018318D01*
X010550Y018313D01*
G37*
G36*
X010395Y018045D02*
X010336Y017942D01*
X010327Y017947D01*
X010386Y018050D01*
X010395Y018045D01*
G37*
G36*
X010404Y018040D02*
X010345Y017937D01*
X010336Y017942D01*
X010395Y018045D01*
X010404Y018040D01*
G37*
G36*
X010386Y018050D02*
X010327Y017947D01*
X010318Y017952D01*
X010377Y018055D01*
X010386Y018050D01*
G37*
G36*
X010378Y018055D02*
X010319Y017952D01*
X010310Y017957D01*
X010369Y018060D01*
X010378Y018055D01*
G37*
G36*
X010369Y018060D02*
X010310Y017957D01*
X010301Y017962D01*
X010360Y018065D01*
X010369Y018060D01*
G37*
G36*
X010360Y018065D02*
X010301Y017962D01*
X010292Y017967D01*
X010351Y018070D01*
X010360Y018065D01*
G37*
G36*
X010352Y018070D02*
X010293Y017967D01*
X010284Y017972D01*
X010343Y018075D01*
X010352Y018070D01*
G37*
G36*
X009865Y017127D02*
X009806Y017024D01*
X009797Y017029D01*
X009856Y017132D01*
X009865Y017127D01*
G37*
G36*
X009908Y017102D02*
X009849Y016999D01*
X009840Y017004D01*
X009899Y017107D01*
X009908Y017102D01*
G37*
G36*
X009813Y016937D02*
X009754Y016834D01*
X009745Y016839D01*
X009804Y016942D01*
X009813Y016937D01*
G37*
G36*
X009822Y016932D02*
X009763Y016829D01*
X009754Y016834D01*
X009813Y016937D01*
X009822Y016932D01*
G37*
G36*
X009831Y016927D02*
X009772Y016824D01*
X009763Y016829D01*
X009822Y016932D01*
X009831Y016927D01*
G37*
G36*
X009839Y016922D02*
X009780Y016819D01*
X009771Y016824D01*
X009830Y016927D01*
X009839Y016922D01*
G37*
G36*
X009848Y016917D02*
X009789Y016814D01*
X009780Y016819D01*
X009839Y016922D01*
X009848Y016917D01*
G37*
G36*
X009857Y016912D02*
X009798Y016809D01*
X009789Y016814D01*
X009848Y016917D01*
X009857Y016912D01*
G37*
G36*
X009865Y016907D02*
X009806Y016804D01*
X009797Y016809D01*
X009856Y016912D01*
X009865Y016907D01*
G37*
G36*
X009874Y016902D02*
X009815Y016799D01*
X009806Y016804D01*
X009865Y016907D01*
X009874Y016902D01*
G37*
G36*
X009883Y016897D02*
X009824Y016794D01*
X009815Y016799D01*
X009874Y016902D01*
X009883Y016897D01*
G37*
G36*
X009891Y016892D02*
X009832Y016789D01*
X009823Y016794D01*
X009882Y016897D01*
X009891Y016892D01*
G37*
G36*
X009900Y016887D02*
X009841Y016784D01*
X009832Y016789D01*
X009891Y016892D01*
X009900Y016887D01*
G37*
G36*
X009909Y016882D02*
X009850Y016779D01*
X009841Y016784D01*
X009900Y016887D01*
X009909Y016882D01*
G37*
G36*
X009917Y016877D02*
X009858Y016774D01*
X009849Y016779D01*
X009908Y016882D01*
X009917Y016877D01*
G37*
G36*
X009926Y016872D02*
X009867Y016769D01*
X009858Y016774D01*
X009917Y016877D01*
X009926Y016872D01*
G37*
G36*
X010030Y016812D02*
X009971Y016709D01*
X009962Y016714D01*
X010021Y016817D01*
X010030Y016812D01*
G37*
G36*
X010039Y016807D02*
X009980Y016704D01*
X009971Y016709D01*
X010030Y016812D01*
X010039Y016807D01*
G37*
G36*
X010047Y016802D02*
X009988Y016699D01*
X009979Y016704D01*
X010038Y016807D01*
X010047Y016802D01*
G37*
G36*
X010056Y016797D02*
X009997Y016694D01*
X009988Y016699D01*
X010047Y016802D01*
X010056Y016797D01*
G37*
G36*
X009805Y016942D02*
X009746Y016839D01*
X009737Y016844D01*
X009796Y016947D01*
X009805Y016942D01*
G37*
G36*
X009796Y016947D02*
X009737Y016844D01*
X009728Y016849D01*
X009787Y016952D01*
X009796Y016947D01*
G37*
G36*
X009787Y016952D02*
X009728Y016849D01*
X009719Y016854D01*
X009778Y016957D01*
X009787Y016952D01*
G37*
G36*
X009779Y016957D02*
X009720Y016854D01*
X009711Y016859D01*
X009770Y016962D01*
X009779Y016957D01*
G37*
G36*
X009770Y016962D02*
X009711Y016859D01*
X009702Y016864D01*
X009761Y016967D01*
X009770Y016962D01*
G37*
G36*
X009761Y016967D02*
X009702Y016864D01*
X009693Y016869D01*
X009752Y016972D01*
X009761Y016967D01*
G37*
G36*
X009753Y016972D02*
X009694Y016869D01*
X009685Y016874D01*
X009744Y016977D01*
X009753Y016972D01*
G37*
G36*
X009744Y016977D02*
X009685Y016874D01*
X009676Y016879D01*
X009735Y016982D01*
X009744Y016977D01*
G37*
G36*
X009735Y016982D02*
X009676Y016879D01*
X009667Y016884D01*
X009726Y016987D01*
X009735Y016982D01*
G37*
G36*
X009727Y016987D02*
X009668Y016884D01*
X009659Y016889D01*
X009718Y016992D01*
X009727Y016987D01*
G37*
G36*
X009718Y016992D02*
X009659Y016889D01*
X009650Y016894D01*
X009709Y016997D01*
X009718Y016992D01*
G37*
G36*
X009709Y016997D02*
X009650Y016894D01*
X009641Y016899D01*
X009700Y017002D01*
X009709Y016997D01*
G37*
G36*
X009701Y017002D02*
X009642Y016899D01*
X009633Y016904D01*
X009692Y017007D01*
X009701Y017002D01*
G37*
G36*
X009678Y017004D02*
X009619Y016901D01*
X009610Y016906D01*
X009669Y017009D01*
X009678Y017004D01*
G37*
D181*
G36*
X010148Y017818D02*
X010059Y017663D01*
X010050Y017668D01*
X010139Y017823D01*
X010148Y017818D01*
G37*
G36*
X010473Y017619D02*
X010384Y017464D01*
X010375Y017469D01*
X010464Y017624D01*
X010473Y017619D01*
G37*
G36*
X010898Y019036D02*
X010809Y018881D01*
X010800Y018886D01*
X010889Y019041D01*
X010898Y019036D01*
G37*
G36*
X011278Y019775D02*
X011189Y019620D01*
X011180Y019625D01*
X011269Y019780D01*
X011278Y019775D01*
G37*
G36*
X011666Y019666D02*
X011577Y019511D01*
X011568Y019516D01*
X011657Y019671D01*
X011666Y019666D01*
G37*
G36*
X012003Y020269D02*
X011914Y020114D01*
X011905Y020119D01*
X011994Y020274D01*
X012003Y020269D01*
G37*
G36*
X011678Y020468D02*
X011589Y020313D01*
X011580Y020318D01*
X011669Y020473D01*
X011678Y020468D01*
G37*
G36*
X012146Y021237D02*
X012057Y021082D01*
X012048Y021087D01*
X012137Y021242D01*
X012146Y021237D01*
G37*
G36*
X012508Y021144D02*
X012419Y020989D01*
X012410Y020994D01*
X012499Y021149D01*
X012508Y021144D01*
G37*
D182*
G36*
X010915Y019026D02*
X010816Y018853D01*
X010807Y018858D01*
X010906Y019031D01*
X010915Y019026D01*
G37*
G36*
X010919Y019013D02*
X010820Y018840D01*
X010811Y018845D01*
X010910Y019018D01*
X010919Y019013D01*
G37*
G36*
X010658Y018701D02*
X010559Y018528D01*
X010550Y018533D01*
X010649Y018706D01*
X010658Y018701D01*
G37*
D183*
G36*
X010818Y018759D02*
X010764Y018664D01*
X010756Y018669D01*
X010810Y018764D01*
X010818Y018759D01*
G37*
G36*
X010827Y018754D02*
X010773Y018659D01*
X010765Y018664D01*
X010819Y018759D01*
X010827Y018754D01*
G37*
G36*
X010836Y018749D02*
X010782Y018654D01*
X010774Y018659D01*
X010828Y018754D01*
X010836Y018749D01*
G37*
G36*
X010965Y018674D02*
X010911Y018579D01*
X010903Y018584D01*
X010957Y018679D01*
X010965Y018674D01*
G37*
G36*
X010795Y018379D02*
X010741Y018284D01*
X010733Y018289D01*
X010787Y018384D01*
X010795Y018379D01*
G37*
G36*
X010787Y018384D02*
X010733Y018289D01*
X010725Y018294D01*
X010779Y018389D01*
X010787Y018384D01*
G37*
G36*
X010778Y018389D02*
X010724Y018294D01*
X010716Y018299D01*
X010770Y018394D01*
X010778Y018389D01*
G37*
G36*
X010640Y018469D02*
X010586Y018374D01*
X010578Y018379D01*
X010632Y018474D01*
X010640Y018469D01*
G37*
G36*
X010631Y018474D02*
X010577Y018379D01*
X010569Y018384D01*
X010623Y018479D01*
X010631Y018474D01*
G37*
G36*
X010553Y018300D02*
X010499Y018205D01*
X010491Y018210D01*
X010545Y018305D01*
X010553Y018300D01*
G37*
G36*
X010683Y018225D02*
X010629Y018130D01*
X010621Y018135D01*
X010675Y018230D01*
X010683Y018225D01*
G37*
G36*
X010438Y017801D02*
X010384Y017706D01*
X010376Y017711D01*
X010430Y017806D01*
X010438Y017801D01*
G37*
G36*
X010447Y017796D02*
X010393Y017701D01*
X010385Y017706D01*
X010439Y017801D01*
X010447Y017796D01*
G37*
G36*
X010455Y017791D02*
X010401Y017696D01*
X010393Y017701D01*
X010447Y017796D01*
X010455Y017791D01*
G37*
G36*
X010308Y017876D02*
X010254Y017781D01*
X010246Y017786D01*
X010300Y017881D01*
X010308Y017876D01*
G37*
G36*
X010300Y017881D02*
X010246Y017786D01*
X010238Y017791D01*
X010292Y017886D01*
X010300Y017881D01*
G37*
G36*
X010277Y017501D02*
X010223Y017406D01*
X010215Y017411D01*
X010269Y017506D01*
X010277Y017501D01*
G37*
G36*
X010177Y017328D02*
X010123Y017233D01*
X010115Y017238D01*
X010169Y017333D01*
X010177Y017328D01*
G37*
G36*
X009894Y017098D02*
X009840Y017003D01*
X009832Y017008D01*
X009886Y017103D01*
X009894Y017098D01*
G37*
G36*
X009886Y017103D02*
X009832Y017008D01*
X009824Y017013D01*
X009878Y017108D01*
X009886Y017103D01*
G37*
G36*
X009877Y017108D02*
X009823Y017013D01*
X009815Y017018D01*
X009869Y017113D01*
X009877Y017108D01*
G37*
G36*
X009868Y017113D02*
X009814Y017018D01*
X009806Y017023D01*
X009860Y017118D01*
X009868Y017113D01*
G37*
G36*
X009687Y016999D02*
X009633Y016904D01*
X009625Y016909D01*
X009679Y017004D01*
X009687Y016999D01*
G37*
G36*
X011048Y019157D02*
X010994Y019062D01*
X010986Y019067D01*
X011040Y019162D01*
X011048Y019157D01*
G37*
G36*
X011057Y019152D02*
X011003Y019057D01*
X010995Y019062D01*
X011049Y019157D01*
X011057Y019152D01*
G37*
G36*
X011066Y019147D02*
X011012Y019052D01*
X011004Y019057D01*
X011058Y019152D01*
X011066Y019147D01*
G37*
G36*
X011074Y019142D02*
X011020Y019047D01*
X011012Y019052D01*
X011066Y019147D01*
X011074Y019142D01*
G37*
G36*
X011357Y019372D02*
X011303Y019277D01*
X011295Y019282D01*
X011349Y019377D01*
X011357Y019372D01*
G37*
G36*
X011630Y019826D02*
X011576Y019731D01*
X011568Y019736D01*
X011622Y019831D01*
X011630Y019826D01*
G37*
G36*
X011815Y020146D02*
X011761Y020051D01*
X011753Y020056D01*
X011807Y020151D01*
X011815Y020146D01*
G37*
G36*
X011807Y020151D02*
X011753Y020056D01*
X011745Y020061D01*
X011799Y020156D01*
X011807Y020151D01*
G37*
G36*
X011660Y020236D02*
X011606Y020141D01*
X011598Y020146D01*
X011652Y020241D01*
X011660Y020236D01*
G37*
G36*
X011830Y020531D02*
X011776Y020436D01*
X011768Y020441D01*
X011822Y020536D01*
X011830Y020531D01*
G37*
G36*
X011838Y020526D02*
X011784Y020431D01*
X011776Y020436D01*
X011830Y020531D01*
X011838Y020526D01*
G37*
G36*
X011977Y020446D02*
X011923Y020351D01*
X011915Y020356D01*
X011969Y020451D01*
X011977Y020446D01*
G37*
G36*
X011985Y020441D02*
X011931Y020346D01*
X011923Y020351D01*
X011977Y020446D01*
X011985Y020441D01*
G37*
G36*
X012067Y020601D02*
X012013Y020506D01*
X012005Y020511D01*
X012059Y020606D01*
X012067Y020601D01*
G37*
G36*
X012258Y020953D02*
X012204Y020858D01*
X012196Y020863D01*
X012250Y020958D01*
X012258Y020953D01*
G37*
G36*
X012137Y021023D02*
X012083Y020928D01*
X012075Y020933D01*
X012129Y021028D01*
X012137Y021023D01*
G37*
G36*
X012203Y021377D02*
X012149Y021282D01*
X012141Y021287D01*
X012195Y021382D01*
X012203Y021377D01*
G37*
D184*
G36*
X012017Y020353D02*
X011848Y020060D01*
X011839Y020065D01*
X012008Y020358D01*
X012017Y020353D01*
G37*
G36*
X011132Y019501D02*
X010963Y019208D01*
X010954Y019213D01*
X011123Y019506D01*
X011132Y019501D01*
G37*
G36*
X010866Y018720D02*
X010697Y018427D01*
X010688Y018432D01*
X010857Y018725D01*
X010866Y018720D01*
G37*
G36*
X010214Y017872D02*
X010045Y017579D01*
X010036Y017584D01*
X010205Y017877D01*
X010214Y017872D01*
G37*
G36*
X010487Y017703D02*
X010318Y017410D01*
X010309Y017415D01*
X010478Y017708D01*
X010487Y017703D01*
G37*
G36*
X009952Y017457D02*
X009783Y017164D01*
X009774Y017169D01*
X009943Y017462D01*
X009952Y017457D01*
G37*
D185*
G36*
X010172Y017838D02*
X010048Y017623D01*
X010040Y017628D01*
X010164Y017843D01*
X010172Y017838D01*
G37*
G36*
X010478Y017650D02*
X010354Y017435D01*
X010346Y017440D01*
X010470Y017655D01*
X010478Y017650D01*
G37*
G36*
X010077Y017235D02*
X009953Y017020D01*
X009945Y017025D01*
X010069Y017240D01*
X010077Y017235D01*
G37*
G36*
X010616Y018228D02*
X010492Y018013D01*
X010484Y018018D01*
X010608Y018233D01*
X010616Y018228D01*
G37*
G36*
X010644Y018236D02*
X010520Y018021D01*
X010512Y018026D01*
X010636Y018241D01*
X010644Y018236D01*
G37*
G36*
X010630Y018232D02*
X010506Y018017D01*
X010498Y018022D01*
X010622Y018237D01*
X010630Y018232D01*
G37*
G36*
X010583Y018271D02*
X010459Y018056D01*
X010451Y018061D01*
X010575Y018276D01*
X010583Y018271D01*
G37*
G36*
X010587Y018257D02*
X010463Y018042D01*
X010455Y018047D01*
X010579Y018262D01*
X010587Y018257D01*
G37*
G36*
X010590Y018243D02*
X010466Y018028D01*
X010458Y018033D01*
X010582Y018248D01*
X010590Y018243D01*
G37*
G36*
X011257Y019279D02*
X011133Y019064D01*
X011125Y019069D01*
X011249Y019284D01*
X011257Y019279D01*
G37*
G36*
X011702Y020488D02*
X011578Y020273D01*
X011570Y020278D01*
X011694Y020493D01*
X011702Y020488D01*
G37*
D186*
G36*
X012256Y020689D02*
X012232Y020646D01*
X012224Y020651D01*
X012248Y020694D01*
X012256Y020689D01*
G37*
G36*
X012117Y021208D02*
X012093Y021165D01*
X012085Y021170D01*
X012109Y021213D01*
X012117Y021208D01*
G37*
D187*
G36*
X011758Y020525D02*
X011574Y020206D01*
X011566Y020211D01*
X011750Y020530D01*
X011758Y020525D01*
G37*
G36*
X012017Y020375D02*
X011833Y020056D01*
X011825Y020061D01*
X012009Y020380D01*
X012017Y020375D01*
G37*
G36*
X011374Y019881D02*
X011190Y019562D01*
X011182Y019567D01*
X011366Y019886D01*
X011374Y019881D01*
G37*
G36*
X011140Y019496D02*
X010956Y019177D01*
X010948Y019182D01*
X011132Y019501D01*
X011140Y019496D01*
G37*
G36*
X011395Y019257D02*
X011211Y018938D01*
X011203Y018943D01*
X011387Y019262D01*
X011395Y019257D01*
G37*
G36*
X011006Y018604D02*
X010822Y018285D01*
X010814Y018290D01*
X010998Y018609D01*
X011006Y018604D01*
G37*
G36*
X010873Y018692D02*
X010689Y018373D01*
X010681Y018378D01*
X010865Y018697D01*
X010873Y018692D01*
G37*
G36*
X010876Y018679D02*
X010692Y018360D01*
X010684Y018365D01*
X010868Y018684D01*
X010876Y018679D01*
G37*
G36*
X010875Y018656D02*
X010691Y018337D01*
X010683Y018342D01*
X010867Y018661D01*
X010875Y018656D01*
G37*
G36*
X010228Y017875D02*
X010044Y017556D01*
X010036Y017561D01*
X010220Y017880D01*
X010228Y017875D01*
G37*
G36*
X010487Y017725D02*
X010303Y017406D01*
X010295Y017411D01*
X010479Y017730D01*
X010487Y017725D01*
G37*
G36*
X009960Y017452D02*
X009776Y017133D01*
X009768Y017138D01*
X009952Y017457D01*
X009960Y017452D01*
G37*
G36*
X010215Y017213D02*
X010031Y016894D01*
X010023Y016899D01*
X010207Y017218D01*
X010215Y017213D01*
G37*
D188*
G36*
X009985Y016815D02*
X009946Y016746D01*
X009937Y016751D01*
X009976Y016820D01*
X009985Y016815D01*
G37*
G36*
X009951Y016835D02*
X009912Y016766D01*
X009903Y016771D01*
X009942Y016840D01*
X009951Y016835D01*
G37*
G36*
X010081Y016760D02*
X010042Y016691D01*
X010033Y016696D01*
X010072Y016765D01*
X010081Y016760D01*
G37*
G36*
X010723Y017833D02*
X010684Y017764D01*
X010675Y017769D01*
X010714Y017838D01*
X010723Y017833D01*
G37*
G36*
X010791Y018151D02*
X010752Y018082D01*
X010743Y018087D01*
X010782Y018156D01*
X010791Y018151D01*
G37*
G36*
X010656Y018437D02*
X010617Y018368D01*
X010608Y018373D01*
X010647Y018442D01*
X010656Y018437D01*
G37*
G36*
X010935Y018680D02*
X010896Y018611D01*
X010887Y018616D01*
X010926Y018685D01*
X010935Y018680D01*
G37*
G36*
X011228Y018707D02*
X011189Y018638D01*
X011180Y018643D01*
X011219Y018712D01*
X011228Y018707D01*
G37*
G36*
X011633Y019409D02*
X011594Y019340D01*
X011585Y019345D01*
X011624Y019414D01*
X011633Y019409D01*
G37*
G36*
X010316Y018068D02*
X010277Y017999D01*
X010268Y018004D01*
X010307Y018073D01*
X010316Y018068D01*
G37*
D189*
G36*
X010863Y018595D02*
X010704Y018318D01*
X010695Y018323D01*
X010854Y018600D01*
X010863Y018595D01*
G37*
G36*
X010706Y018743D02*
X010547Y018466D01*
X010538Y018471D01*
X010697Y018748D01*
X010706Y018743D01*
G37*
D190*
G36*
X011231Y019294D02*
X011087Y019043D01*
X011079Y019048D01*
X011223Y019299D01*
X011231Y019294D01*
G37*
G36*
X011245Y019298D02*
X011101Y019047D01*
X011093Y019052D01*
X011237Y019303D01*
X011245Y019298D01*
G37*
G36*
X011382Y019196D02*
X011238Y018945D01*
X011230Y018950D01*
X011374Y019201D01*
X011382Y019196D01*
G37*
G36*
X011664Y019783D02*
X011520Y019532D01*
X011512Y019537D01*
X011656Y019788D01*
X011664Y019783D01*
G37*
G36*
X011660Y019797D02*
X011516Y019546D01*
X011508Y019551D01*
X011652Y019802D01*
X011660Y019797D01*
G37*
G36*
X011720Y020501D02*
X011576Y020250D01*
X011568Y020255D01*
X011712Y020506D01*
X011720Y020501D01*
G37*
G36*
X012251Y020761D02*
X012107Y020510D01*
X012099Y020515D01*
X012243Y020766D01*
X012251Y020761D01*
G37*
G36*
X012206Y021202D02*
X012062Y020951D01*
X012054Y020956D01*
X012198Y021207D01*
X012206Y021202D01*
G37*
G36*
X012190Y021235D02*
X012046Y020984D01*
X012038Y020989D01*
X012182Y021240D01*
X012190Y021235D01*
G37*
G36*
X010065Y017254D02*
X009921Y017003D01*
X009913Y017008D01*
X010057Y017259D01*
X010065Y017254D01*
G37*
G36*
X010051Y017250D02*
X009907Y016999D01*
X009899Y017004D01*
X010043Y017255D01*
X010051Y017250D01*
G37*
G36*
X010202Y017152D02*
X010058Y016901D01*
X010050Y016906D01*
X010194Y017157D01*
X010202Y017152D01*
G37*
D191*
G36*
X010874Y018634D02*
X010695Y018323D01*
X010686Y018328D01*
X010865Y018639D01*
X010874Y018634D01*
G37*
G36*
X010869Y018706D02*
X010690Y018395D01*
X010681Y018400D01*
X010860Y018711D01*
X010869Y018706D01*
G37*
G36*
X010724Y018755D02*
X010545Y018444D01*
X010536Y018449D01*
X010715Y018760D01*
X010724Y018755D01*
G37*
D192*
G36*
X011005Y018582D02*
X010841Y018297D01*
X010833Y018302D01*
X010997Y018587D01*
X011005Y018582D01*
G37*
G36*
X011388Y019226D02*
X011224Y018941D01*
X011216Y018946D01*
X011380Y019231D01*
X011388Y019226D01*
G37*
G36*
X011739Y020513D02*
X011575Y020228D01*
X011567Y020233D01*
X011731Y020518D01*
X011739Y020513D01*
G37*
G36*
X010208Y017182D02*
X010044Y016897D01*
X010036Y016902D01*
X010200Y017187D01*
X010208Y017182D01*
G37*
D193*
G36*
X010816Y018494D02*
X010707Y018305D01*
X010698Y018310D01*
X010807Y018499D01*
X010816Y018494D01*
G37*
G36*
X010853Y018738D02*
X010744Y018549D01*
X010735Y018554D01*
X010844Y018743D01*
X010853Y018738D01*
G37*
G36*
X011673Y019697D02*
X011564Y019508D01*
X011555Y019513D01*
X011664Y019702D01*
X011673Y019697D01*
G37*
G36*
X012159Y021240D02*
X012050Y021051D01*
X012041Y021056D01*
X012150Y021245D01*
X012159Y021240D01*
G37*
D194*
G36*
X012173Y021245D02*
X012044Y021020D01*
X012035Y021025D01*
X012164Y021250D01*
X012173Y021245D01*
G37*
G36*
X012195Y021163D02*
X012066Y020938D01*
X012057Y020943D01*
X012186Y021168D01*
X012195Y021163D01*
G37*
G36*
X012014Y020309D02*
X011885Y020084D01*
X011876Y020089D01*
X012005Y020314D01*
X012014Y020309D01*
G37*
G36*
X011657Y019811D02*
X011528Y019586D01*
X011519Y019591D01*
X011648Y019816D01*
X011657Y019811D01*
G37*
D195*
G36*
X011425Y019909D02*
X011211Y019538D01*
X011203Y019543D01*
X011417Y019914D01*
X011425Y019909D01*
G37*
G36*
X011799Y020536D02*
X011585Y020165D01*
X011577Y020170D01*
X011791Y020541D01*
X011799Y020536D01*
G37*
G36*
X012006Y020416D02*
X011792Y020045D01*
X011784Y020050D01*
X011998Y020421D01*
X012006Y020416D01*
G37*
G36*
X012485Y021225D02*
X012271Y020854D01*
X012263Y020859D01*
X012477Y021230D01*
X012485Y021225D01*
G37*
G36*
X011171Y019490D02*
X010957Y019119D01*
X010949Y019124D01*
X011163Y019495D01*
X011171Y019490D01*
G37*
G36*
X010770Y018775D02*
X010556Y018404D01*
X010548Y018409D01*
X010762Y018780D01*
X010770Y018775D01*
G37*
G36*
X010995Y018645D02*
X010781Y018274D01*
X010773Y018279D01*
X010987Y018650D01*
X010995Y018645D01*
G37*
G36*
X010476Y017766D02*
X010262Y017395D01*
X010254Y017400D01*
X010468Y017771D01*
X010476Y017766D01*
G37*
G36*
X010269Y017886D02*
X010055Y017515D01*
X010047Y017520D01*
X010261Y017891D01*
X010269Y017886D01*
G37*
G36*
X009991Y017446D02*
X009777Y017075D01*
X009769Y017080D01*
X009983Y017451D01*
X009991Y017446D01*
G37*
D196*
G36*
X010000Y017442D02*
X009781Y017061D01*
X009772Y017066D01*
X009991Y017447D01*
X010000Y017442D01*
G37*
G36*
X010468Y017772D02*
X010249Y017391D01*
X010240Y017396D01*
X010459Y017777D01*
X010468Y017772D01*
G37*
G36*
X011180Y019485D02*
X010961Y019104D01*
X010952Y019109D01*
X011171Y019490D01*
X011180Y019485D01*
G37*
G36*
X011439Y019913D02*
X011220Y019532D01*
X011211Y019537D01*
X011430Y019918D01*
X011439Y019913D01*
G37*
G36*
X012477Y021231D02*
X012258Y020850D01*
X012249Y020855D01*
X012468Y021236D01*
X012477Y021231D01*
G37*
D197*
G36*
X012468Y021236D02*
X012244Y020847D01*
X012236Y020852D01*
X012460Y021241D01*
X012468Y021236D01*
G37*
G36*
X011812Y020540D02*
X011588Y020151D01*
X011580Y020156D01*
X011804Y020545D01*
X011812Y020540D01*
G37*
G36*
X011452Y019917D02*
X011228Y019528D01*
X011220Y019533D01*
X011444Y019922D01*
X011452Y019917D01*
G37*
G36*
X011461Y019912D02*
X011237Y019523D01*
X011229Y019528D01*
X011453Y019917D01*
X011461Y019912D01*
G37*
G36*
X011197Y019475D02*
X010973Y019086D01*
X010965Y019091D01*
X011189Y019480D01*
X011197Y019475D01*
G37*
G36*
X011189Y019480D02*
X010965Y019091D01*
X010957Y019096D01*
X011181Y019485D01*
X011189Y019480D01*
G37*
G36*
X010784Y018779D02*
X010560Y018390D01*
X010552Y018395D01*
X010776Y018784D01*
X010784Y018779D01*
G37*
G36*
X010792Y018774D02*
X010568Y018385D01*
X010560Y018390D01*
X010784Y018779D01*
X010792Y018774D01*
G37*
G36*
X010983Y018664D02*
X010759Y018275D01*
X010751Y018280D01*
X010975Y018669D01*
X010983Y018664D01*
G37*
G36*
X010991Y018659D02*
X010767Y018270D01*
X010759Y018275D01*
X010983Y018664D01*
X010991Y018659D01*
G37*
G36*
X010282Y017890D02*
X010058Y017501D01*
X010050Y017506D01*
X010274Y017895D01*
X010282Y017890D01*
G37*
G36*
X010017Y017431D02*
X009793Y017042D01*
X009785Y017047D01*
X010009Y017436D01*
X010017Y017431D01*
G37*
G36*
X010009Y017436D02*
X009785Y017047D01*
X009777Y017052D01*
X010001Y017441D01*
X010009Y017436D01*
G37*
D198*
G36*
X010141Y017625D02*
X010067Y017496D01*
X010059Y017501D01*
X010133Y017630D01*
X010141Y017625D01*
G37*
G36*
X010571Y018290D02*
X010497Y018161D01*
X010489Y018166D01*
X010563Y018295D01*
X010571Y018290D01*
G37*
G36*
X010911Y018959D02*
X010837Y018830D01*
X010829Y018835D01*
X010903Y018964D01*
X010911Y018959D01*
G37*
G36*
X011853Y020170D02*
X011779Y020041D01*
X011771Y020046D01*
X011845Y020175D01*
X011853Y020170D01*
G37*
D199*
G36*
X011661Y020258D02*
X011597Y020147D01*
X011589Y020152D01*
X011653Y020263D01*
X011661Y020258D01*
G37*
G36*
X011821Y020535D02*
X011757Y020424D01*
X011749Y020429D01*
X011813Y020540D01*
X011821Y020535D01*
G37*
G36*
X012138Y021045D02*
X012074Y020934D01*
X012066Y020939D01*
X012130Y021050D01*
X012138Y021045D01*
G37*
G36*
X011483Y019910D02*
X011419Y019799D01*
X011411Y019804D01*
X011475Y019915D01*
X011483Y019910D01*
G37*
G36*
X011648Y019815D02*
X011584Y019704D01*
X011576Y019709D01*
X011640Y019820D01*
X011648Y019815D01*
G37*
G36*
X011102Y019149D02*
X011038Y019038D01*
X011030Y019043D01*
X011094Y019154D01*
X011102Y019149D01*
G37*
G36*
X010905Y018928D02*
X010841Y018817D01*
X010833Y018822D01*
X010897Y018933D01*
X010905Y018928D01*
G37*
G36*
X010801Y018768D02*
X010737Y018657D01*
X010729Y018662D01*
X010793Y018773D01*
X010801Y018768D01*
G37*
G36*
X010974Y018668D02*
X010910Y018557D01*
X010902Y018562D01*
X010966Y018673D01*
X010974Y018668D01*
G37*
G36*
X010562Y018294D02*
X010498Y018183D01*
X010490Y018188D01*
X010554Y018299D01*
X010562Y018294D01*
G37*
G36*
X010291Y017885D02*
X010227Y017774D01*
X010219Y017779D01*
X010283Y017890D01*
X010291Y017885D01*
G37*
G36*
X010464Y017785D02*
X010400Y017674D01*
X010392Y017679D01*
X010456Y017790D01*
X010464Y017785D01*
G37*
G36*
X010140Y017603D02*
X010076Y017492D01*
X010068Y017497D01*
X010132Y017608D01*
X010140Y017603D01*
G37*
G36*
X009922Y017105D02*
X009858Y016994D01*
X009850Y016999D01*
X009914Y017110D01*
X009922Y017105D01*
G37*
D200*
G36*
X011475Y019915D02*
X011396Y019778D01*
X011387Y019783D01*
X011466Y019920D01*
X011475Y019915D01*
G37*
D201*
G36*
X011266Y019274D02*
X011152Y019075D01*
X011144Y019080D01*
X011258Y019279D01*
X011266Y019274D01*
G37*
G36*
X010574Y018276D02*
X010460Y018077D01*
X010452Y018082D01*
X010566Y018281D01*
X010574Y018276D01*
G37*
G36*
X010086Y017230D02*
X009972Y017031D01*
X009964Y017036D01*
X010078Y017235D01*
X010086Y017230D01*
G37*
G36*
X012263Y020742D02*
X012149Y020543D01*
X012141Y020548D01*
X012255Y020747D01*
X012263Y020742D01*
G37*
D202*
G36*
X010655Y018414D02*
X010636Y018381D01*
X010627Y018386D01*
X010646Y018419D01*
X010655Y018414D01*
G37*
G36*
X010790Y018128D02*
X010771Y018095D01*
X010762Y018100D01*
X010781Y018133D01*
X010790Y018128D01*
G37*
G36*
X009958Y016807D02*
X009939Y016774D01*
X009930Y016779D01*
X009949Y016812D01*
X009958Y016807D01*
G37*
G36*
X009949Y016812D02*
X009930Y016779D01*
X009921Y016784D01*
X009940Y016817D01*
X009949Y016812D01*
G37*
D203*
G36*
X010338Y017847D02*
X010294Y017770D01*
X010286Y017775D01*
X010330Y017852D01*
X010338Y017847D01*
G37*
D204*
G36*
X010342Y017833D02*
X010308Y017774D01*
X010300Y017779D01*
X010334Y017838D01*
X010342Y017833D01*
G37*
G36*
X010402Y017798D02*
X010368Y017739D01*
X010360Y017744D01*
X010394Y017803D01*
X010402Y017798D01*
G37*
D205*
G36*
X010384Y017786D02*
X010370Y017761D01*
X010362Y017766D01*
X010376Y017791D01*
X010384Y017786D01*
G37*
D206*
G36*
X010911Y018659D02*
X010902Y018642D01*
X010893Y018647D01*
X010902Y018664D01*
X010911Y018659D01*
G37*
D207*
G36*
X012460Y021240D02*
X012231Y020843D01*
X012222Y020848D01*
X012451Y021245D01*
X012460Y021240D01*
G37*
D208*
G36*
X012498Y021207D02*
X012299Y020862D01*
X012290Y020867D01*
X012489Y021212D01*
X012498Y021207D01*
G37*
G36*
X012014Y020389D02*
X011815Y020044D01*
X011806Y020049D01*
X012005Y020394D01*
X012014Y020389D01*
G37*
G36*
X011393Y019293D02*
X011194Y018948D01*
X011185Y018953D01*
X011384Y019298D01*
X011393Y019293D01*
G37*
G36*
X010484Y017739D02*
X010285Y017394D01*
X010276Y017399D01*
X010475Y017744D01*
X010484Y017739D01*
G37*
G36*
X010213Y017249D02*
X010014Y016904D01*
X010005Y016909D01*
X010204Y017254D01*
X010213Y017249D01*
G37*
D209*
G36*
X021013Y012584D02*
X020875Y012344D01*
X020869Y012348D01*
X021007Y012588D01*
X021013Y012584D01*
G37*
G36*
X021021Y012580D02*
X020883Y012340D01*
X020877Y012344D01*
X021015Y012584D01*
X021021Y012580D01*
G37*
G36*
X021029Y012575D02*
X020891Y012335D01*
X020885Y012339D01*
X021023Y012579D01*
X021029Y012575D01*
G37*
G36*
X021045Y012566D02*
X020907Y012326D01*
X020901Y012330D01*
X021039Y012570D01*
X021045Y012566D01*
G37*
G36*
X021052Y012562D02*
X020914Y012322D01*
X020908Y012326D01*
X021046Y012566D01*
X021052Y012562D01*
G37*
G36*
X021060Y012557D02*
X020922Y012317D01*
X020916Y012321D01*
X021054Y012561D01*
X021060Y012557D01*
G37*
G36*
X021068Y012553D02*
X020930Y012313D01*
X020924Y012317D01*
X021062Y012557D01*
X021068Y012553D01*
G37*
G36*
X021084Y012544D02*
X020946Y012304D01*
X020940Y012308D01*
X021078Y012548D01*
X021084Y012544D01*
G37*
G36*
X021091Y012539D02*
X020953Y012299D01*
X020947Y012303D01*
X021085Y012543D01*
X021091Y012539D01*
G37*
G36*
X021099Y012535D02*
X020961Y012295D01*
X020955Y012299D01*
X021093Y012539D01*
X021099Y012535D01*
G37*
G36*
X021107Y012530D02*
X020969Y012290D01*
X020963Y012294D01*
X021101Y012534D01*
X021107Y012530D01*
G37*
G36*
X021123Y012521D02*
X020985Y012281D01*
X020979Y012285D01*
X021117Y012525D01*
X021123Y012521D01*
G37*
G36*
X021130Y012517D02*
X020992Y012277D01*
X020986Y012281D01*
X021124Y012521D01*
X021130Y012517D01*
G37*
G36*
X021138Y012512D02*
X021000Y012272D01*
X020994Y012276D01*
X021132Y012516D01*
X021138Y012512D01*
G37*
G36*
X021146Y012508D02*
X021008Y012268D01*
X021002Y012272D01*
X021140Y012512D01*
X021146Y012508D01*
G37*
G36*
X021162Y012499D02*
X021024Y012259D01*
X021018Y012263D01*
X021156Y012503D01*
X021162Y012499D01*
G37*
G36*
X021169Y012494D02*
X021031Y012254D01*
X021025Y012258D01*
X021163Y012498D01*
X021169Y012494D01*
G37*
G36*
X021177Y012490D02*
X021039Y012250D01*
X021033Y012254D01*
X021171Y012494D01*
X021177Y012490D01*
G37*
G36*
X021185Y012485D02*
X021047Y012245D01*
X021041Y012249D01*
X021179Y012489D01*
X021185Y012485D01*
G37*
G36*
X021201Y012476D02*
X021063Y012236D01*
X021057Y012240D01*
X021195Y012480D01*
X021201Y012476D01*
G37*
G36*
X021208Y012472D02*
X021070Y012232D01*
X021064Y012236D01*
X021202Y012476D01*
X021208Y012472D01*
G37*
G36*
X021216Y012467D02*
X021078Y012227D01*
X021072Y012231D01*
X021210Y012471D01*
X021216Y012467D01*
G37*
G36*
X021224Y012463D02*
X021086Y012223D01*
X021080Y012227D01*
X021218Y012467D01*
X021224Y012463D01*
G37*
G36*
X021239Y012454D02*
X021101Y012214D01*
X021095Y012218D01*
X021233Y012458D01*
X021239Y012454D01*
G37*
G36*
X021247Y012449D02*
X021109Y012209D01*
X021103Y012213D01*
X021241Y012453D01*
X021247Y012449D01*
G37*
G36*
X021255Y012445D02*
X021117Y012205D01*
X021111Y012209D01*
X021249Y012449D01*
X021255Y012445D01*
G37*
G36*
X021263Y012440D02*
X021125Y012200D01*
X021119Y012204D01*
X021257Y012444D01*
X021263Y012440D01*
G37*
G36*
X021278Y012431D02*
X021140Y012191D01*
X021134Y012195D01*
X021272Y012435D01*
X021278Y012431D01*
G37*
G36*
X021286Y012427D02*
X021148Y012187D01*
X021142Y012191D01*
X021280Y012431D01*
X021286Y012427D01*
G37*
G36*
X021294Y012422D02*
X021156Y012182D01*
X021150Y012186D01*
X021288Y012426D01*
X021294Y012422D01*
G37*
G36*
X021302Y012418D02*
X021164Y012178D01*
X021158Y012182D01*
X021296Y012422D01*
X021302Y012418D01*
G37*
G36*
X021317Y012409D02*
X021179Y012169D01*
X021173Y012173D01*
X021311Y012413D01*
X021317Y012409D01*
G37*
G36*
X021325Y012404D02*
X021187Y012164D01*
X021181Y012168D01*
X021319Y012408D01*
X021325Y012404D01*
G37*
G36*
X021333Y012400D02*
X021195Y012160D01*
X021189Y012164D01*
X021327Y012404D01*
X021333Y012400D01*
G37*
G36*
X021341Y012395D02*
X021203Y012155D01*
X021197Y012159D01*
X021335Y012399D01*
X021341Y012395D01*
G37*
G36*
X021356Y012386D02*
X021218Y012146D01*
X021212Y012150D01*
X021350Y012390D01*
X021356Y012386D01*
G37*
G36*
X021364Y012382D02*
X021226Y012142D01*
X021220Y012146D01*
X021358Y012386D01*
X021364Y012382D01*
G37*
G36*
X021372Y012377D02*
X021234Y012137D01*
X021228Y012141D01*
X021366Y012381D01*
X021372Y012377D01*
G37*
G36*
X021380Y012373D02*
X021242Y012133D01*
X021236Y012137D01*
X021374Y012377D01*
X021380Y012373D01*
G37*
G36*
X021395Y012364D02*
X021257Y012124D01*
X021251Y012128D01*
X021389Y012368D01*
X021395Y012364D01*
G37*
G36*
X021403Y012359D02*
X021265Y012119D01*
X021259Y012123D01*
X021397Y012363D01*
X021403Y012359D01*
G37*
G36*
X021411Y012355D02*
X021273Y012115D01*
X021267Y012119D01*
X021405Y012359D01*
X021411Y012355D01*
G37*
G36*
X021419Y012350D02*
X021281Y012110D01*
X021275Y012114D01*
X021413Y012354D01*
X021419Y012350D01*
G37*
G36*
X021434Y012341D02*
X021296Y012101D01*
X021290Y012105D01*
X021428Y012345D01*
X021434Y012341D01*
G37*
G36*
X021442Y012337D02*
X021304Y012097D01*
X021298Y012101D01*
X021436Y012341D01*
X021442Y012337D01*
G37*
G36*
X021450Y012332D02*
X021312Y012092D01*
X021306Y012096D01*
X021444Y012336D01*
X021450Y012332D01*
G37*
G36*
X021458Y012328D02*
X021320Y012088D01*
X021314Y012092D01*
X021452Y012332D01*
X021458Y012328D01*
G37*
G36*
X021473Y012319D02*
X021335Y012079D01*
X021329Y012083D01*
X021467Y012323D01*
X021473Y012319D01*
G37*
G36*
X021481Y012314D02*
X021343Y012074D01*
X021337Y012078D01*
X021475Y012318D01*
X021481Y012314D01*
G37*
G36*
X021715Y012179D02*
X021577Y011939D01*
X021571Y011943D01*
X021709Y012183D01*
X021715Y012179D01*
G37*
G36*
X021723Y012175D02*
X021585Y011935D01*
X021579Y011939D01*
X021717Y012179D01*
X021723Y012175D01*
G37*
G36*
X021731Y012170D02*
X021593Y011930D01*
X021587Y011934D01*
X021725Y012174D01*
X021731Y012170D01*
G37*
G36*
X021746Y012161D02*
X021608Y011921D01*
X021602Y011925D01*
X021740Y012165D01*
X021746Y012161D01*
G37*
G36*
X021754Y012157D02*
X021616Y011917D01*
X021610Y011921D01*
X021748Y012161D01*
X021754Y012157D01*
G37*
G36*
X021762Y012152D02*
X021624Y011912D01*
X021618Y011916D01*
X021756Y012156D01*
X021762Y012152D01*
G37*
G36*
X021770Y012148D02*
X021632Y011908D01*
X021626Y011912D01*
X021764Y012152D01*
X021770Y012148D01*
G37*
G36*
X021785Y012139D02*
X021647Y011899D01*
X021641Y011903D01*
X021779Y012143D01*
X021785Y012139D01*
G37*
G36*
X021793Y012134D02*
X021655Y011894D01*
X021649Y011898D01*
X021787Y012138D01*
X021793Y012134D01*
G37*
G36*
X021801Y012130D02*
X021663Y011890D01*
X021657Y011894D01*
X021795Y012134D01*
X021801Y012130D01*
G37*
G36*
X021982Y012659D02*
X021844Y012419D01*
X021838Y012423D01*
X021976Y012663D01*
X021982Y012659D01*
G37*
G36*
X021966Y012668D02*
X021828Y012428D01*
X021822Y012432D01*
X021960Y012672D01*
X021966Y012668D01*
G37*
G36*
X021958Y012673D02*
X021820Y012433D01*
X021814Y012437D01*
X021952Y012677D01*
X021958Y012673D01*
G37*
G36*
X021950Y012677D02*
X021812Y012437D01*
X021806Y012441D01*
X021944Y012681D01*
X021950Y012677D01*
G37*
G36*
X021943Y012682D02*
X021805Y012442D01*
X021799Y012446D01*
X021937Y012686D01*
X021943Y012682D01*
G37*
G36*
X021927Y012691D02*
X021789Y012451D01*
X021783Y012455D01*
X021921Y012695D01*
X021927Y012691D01*
G37*
G36*
X021919Y012695D02*
X021781Y012455D01*
X021775Y012459D01*
X021913Y012699D01*
X021919Y012695D01*
G37*
G36*
X021912Y012700D02*
X021774Y012460D01*
X021768Y012464D01*
X021906Y012704D01*
X021912Y012700D01*
G37*
G36*
X021904Y012704D02*
X021766Y012464D01*
X021760Y012468D01*
X021898Y012708D01*
X021904Y012704D01*
G37*
G36*
X021888Y012713D02*
X021750Y012473D01*
X021744Y012477D01*
X021882Y012717D01*
X021888Y012713D01*
G37*
G36*
X021880Y012718D02*
X021742Y012478D01*
X021736Y012482D01*
X021874Y012722D01*
X021880Y012718D01*
G37*
G36*
X021873Y012722D02*
X021735Y012482D01*
X021729Y012486D01*
X021867Y012726D01*
X021873Y012722D01*
G37*
G36*
X021865Y012727D02*
X021727Y012487D01*
X021721Y012491D01*
X021859Y012731D01*
X021865Y012727D01*
G37*
G36*
X021849Y012736D02*
X021711Y012496D01*
X021705Y012500D01*
X021843Y012740D01*
X021849Y012736D01*
G37*
G36*
X021841Y012740D02*
X021703Y012500D01*
X021697Y012504D01*
X021835Y012744D01*
X021841Y012740D01*
G37*
G36*
X021834Y012745D02*
X021696Y012505D01*
X021690Y012509D01*
X021828Y012749D01*
X021834Y012745D01*
G37*
G36*
X021826Y012749D02*
X021688Y012509D01*
X021682Y012513D01*
X021820Y012753D01*
X021826Y012749D01*
G37*
G36*
X021810Y012758D02*
X021672Y012518D01*
X021666Y012522D01*
X021804Y012762D01*
X021810Y012758D01*
G37*
G36*
X021802Y012763D02*
X021664Y012523D01*
X021658Y012527D01*
X021796Y012767D01*
X021802Y012763D01*
G37*
G36*
X021795Y012767D02*
X021657Y012527D01*
X021651Y012531D01*
X021789Y012771D01*
X021795Y012767D01*
G37*
G36*
X021787Y012772D02*
X021649Y012532D01*
X021643Y012536D01*
X021781Y012776D01*
X021787Y012772D01*
G37*
G36*
X021771Y012781D02*
X021633Y012541D01*
X021627Y012545D01*
X021765Y012785D01*
X021771Y012781D01*
G37*
G36*
X021763Y012785D02*
X021625Y012545D01*
X021619Y012549D01*
X021757Y012789D01*
X021763Y012785D01*
G37*
G36*
X021756Y012790D02*
X021618Y012550D01*
X021612Y012554D01*
X021750Y012794D01*
X021756Y012790D01*
G37*
G36*
X021748Y012794D02*
X021610Y012554D01*
X021604Y012558D01*
X021742Y012798D01*
X021748Y012794D01*
G37*
G36*
X021732Y012803D02*
X021594Y012563D01*
X021588Y012567D01*
X021726Y012807D01*
X021732Y012803D01*
G37*
G36*
X021724Y012808D02*
X021586Y012568D01*
X021580Y012572D01*
X021718Y012812D01*
X021724Y012808D01*
G37*
G36*
X021717Y012812D02*
X021579Y012572D01*
X021573Y012576D01*
X021711Y012816D01*
X021717Y012812D01*
G37*
G36*
X021709Y012817D02*
X021571Y012577D01*
X021565Y012581D01*
X021703Y012821D01*
X021709Y012817D01*
G37*
G36*
X021693Y012826D02*
X021555Y012586D01*
X021549Y012590D01*
X021687Y012830D01*
X021693Y012826D01*
G37*
G36*
X021685Y012830D02*
X021547Y012590D01*
X021541Y012594D01*
X021679Y012834D01*
X021685Y012830D01*
G37*
G36*
X021678Y012835D02*
X021540Y012595D01*
X021534Y012599D01*
X021672Y012839D01*
X021678Y012835D01*
G37*
G36*
X021670Y012839D02*
X021532Y012599D01*
X021526Y012603D01*
X021664Y012843D01*
X021670Y012839D01*
G37*
G36*
X021654Y012848D02*
X021516Y012608D01*
X021510Y012612D01*
X021648Y012852D01*
X021654Y012848D01*
G37*
G36*
X021647Y012853D02*
X021509Y012613D01*
X021503Y012617D01*
X021641Y012857D01*
X021647Y012853D01*
G37*
G36*
X021639Y012857D02*
X021501Y012617D01*
X021495Y012621D01*
X021633Y012861D01*
X021639Y012857D01*
G37*
G36*
X021631Y012862D02*
X021493Y012622D01*
X021487Y012626D01*
X021625Y012866D01*
X021631Y012862D01*
G37*
G36*
X021615Y012871D02*
X021477Y012631D01*
X021471Y012635D01*
X021609Y012875D01*
X021615Y012871D01*
G37*
G36*
X021608Y012875D02*
X021470Y012635D01*
X021464Y012639D01*
X021602Y012879D01*
X021608Y012875D01*
G37*
G36*
X021600Y012880D02*
X021462Y012640D01*
X021456Y012644D01*
X021594Y012884D01*
X021600Y012880D01*
G37*
G36*
X021592Y012884D02*
X021454Y012644D01*
X021448Y012648D01*
X021586Y012888D01*
X021592Y012884D01*
G37*
G36*
X021576Y012893D02*
X021438Y012653D01*
X021432Y012657D01*
X021570Y012897D01*
X021576Y012893D01*
G37*
G36*
X021569Y012898D02*
X021431Y012658D01*
X021425Y012662D01*
X021563Y012902D01*
X021569Y012898D01*
G37*
G36*
X021561Y012902D02*
X021423Y012662D01*
X021417Y012666D01*
X021555Y012906D01*
X021561Y012902D01*
G37*
G36*
X021553Y012907D02*
X021415Y012667D01*
X021409Y012671D01*
X021547Y012911D01*
X021553Y012907D01*
G37*
G36*
X021537Y012916D02*
X021399Y012676D01*
X021393Y012680D01*
X021531Y012920D01*
X021537Y012916D01*
G37*
G36*
X021530Y012920D02*
X021392Y012680D01*
X021386Y012684D01*
X021524Y012924D01*
X021530Y012920D01*
G37*
G36*
X021522Y012925D02*
X021384Y012685D01*
X021378Y012689D01*
X021516Y012929D01*
X021522Y012925D01*
G37*
G36*
X021514Y012929D02*
X021376Y012689D01*
X021370Y012693D01*
X021508Y012933D01*
X021514Y012929D01*
G37*
G36*
X021498Y012938D02*
X021360Y012698D01*
X021354Y012702D01*
X021492Y012942D01*
X021498Y012938D01*
G37*
G36*
X021491Y012943D02*
X021353Y012703D01*
X021347Y012707D01*
X021485Y012947D01*
X021491Y012943D01*
G37*
G36*
X021483Y012947D02*
X021345Y012707D01*
X021339Y012711D01*
X021477Y012951D01*
X021483Y012947D01*
G37*
G36*
X021475Y012952D02*
X021337Y012712D01*
X021331Y012716D01*
X021469Y012956D01*
X021475Y012952D01*
G37*
G36*
X021459Y012961D02*
X021321Y012721D01*
X021315Y012725D01*
X021453Y012965D01*
X021459Y012961D01*
G37*
G36*
X021452Y012965D02*
X021314Y012725D01*
X021308Y012729D01*
X021446Y012969D01*
X021452Y012965D01*
G37*
G36*
X021444Y012970D02*
X021306Y012730D01*
X021300Y012734D01*
X021438Y012974D01*
X021444Y012970D01*
G37*
G36*
X021436Y012974D02*
X021298Y012734D01*
X021292Y012738D01*
X021430Y012978D01*
X021436Y012974D01*
G37*
G36*
X021420Y012983D02*
X021282Y012743D01*
X021276Y012747D01*
X021414Y012987D01*
X021420Y012983D01*
G37*
G36*
X021413Y012988D02*
X021275Y012748D01*
X021269Y012752D01*
X021407Y012992D01*
X021413Y012988D01*
G37*
G36*
X021405Y012992D02*
X021267Y012752D01*
X021261Y012756D01*
X021399Y012996D01*
X021405Y012992D01*
G37*
G36*
X021397Y012997D02*
X021259Y012757D01*
X021253Y012761D01*
X021391Y013001D01*
X021397Y012997D01*
G37*
G36*
X021381Y013006D02*
X021243Y012766D01*
X021237Y012770D01*
X021375Y013010D01*
X021381Y013006D01*
G37*
G36*
X021834Y013628D02*
X021696Y013388D01*
X021690Y013392D01*
X021828Y013632D01*
X021834Y013628D01*
G37*
G36*
X021862Y013622D02*
X021724Y013382D01*
X021718Y013386D01*
X021856Y013626D01*
X021862Y013622D01*
G37*
G36*
X021870Y013618D02*
X021732Y013378D01*
X021726Y013382D01*
X021864Y013622D01*
X021870Y013618D01*
G37*
G36*
X021878Y013613D02*
X021740Y013373D01*
X021734Y013377D01*
X021872Y013617D01*
X021878Y013613D01*
G37*
G36*
X021885Y013609D02*
X021747Y013369D01*
X021741Y013373D01*
X021879Y013613D01*
X021885Y013609D01*
G37*
G36*
X021901Y013600D02*
X021763Y013360D01*
X021757Y013364D01*
X021895Y013604D01*
X021901Y013600D01*
G37*
G36*
X021909Y013595D02*
X021771Y013355D01*
X021765Y013359D01*
X021903Y013599D01*
X021909Y013595D01*
G37*
G36*
X021917Y013591D02*
X021779Y013351D01*
X021773Y013355D01*
X021911Y013595D01*
X021917Y013591D01*
G37*
G36*
X021924Y013586D02*
X021786Y013346D01*
X021780Y013350D01*
X021918Y013590D01*
X021924Y013586D01*
G37*
G36*
X021940Y013577D02*
X021802Y013337D01*
X021796Y013341D01*
X021934Y013581D01*
X021940Y013577D01*
G37*
G36*
X021948Y013573D02*
X021810Y013333D01*
X021804Y013337D01*
X021942Y013577D01*
X021948Y013573D01*
G37*
G36*
X021956Y013568D02*
X021818Y013328D01*
X021812Y013332D01*
X021950Y013572D01*
X021956Y013568D01*
G37*
G36*
X021963Y013564D02*
X021825Y013324D01*
X021819Y013328D01*
X021957Y013568D01*
X021963Y013564D01*
G37*
G36*
X021979Y013555D02*
X021841Y013315D01*
X021835Y013319D01*
X021973Y013559D01*
X021979Y013555D01*
G37*
G36*
X021987Y013550D02*
X021849Y013310D01*
X021843Y013314D01*
X021981Y013554D01*
X021987Y013550D01*
G37*
G36*
X021995Y013546D02*
X021857Y013306D01*
X021851Y013310D01*
X021989Y013550D01*
X021995Y013546D01*
G37*
G36*
X022002Y013541D02*
X021864Y013301D01*
X021858Y013305D01*
X021996Y013545D01*
X022002Y013541D01*
G37*
G36*
X022018Y013532D02*
X021880Y013292D01*
X021874Y013296D01*
X022012Y013536D01*
X022018Y013532D01*
G37*
G36*
X022021Y013520D02*
X021883Y013280D01*
X021877Y013284D01*
X022015Y013524D01*
X022021Y013520D01*
G37*
G36*
X022291Y013375D02*
X022153Y013135D01*
X022147Y013139D01*
X022285Y013379D01*
X022291Y013375D01*
G37*
G36*
X022330Y013352D02*
X022192Y013112D01*
X022186Y013116D01*
X022324Y013356D01*
X022330Y013352D01*
G37*
G36*
X022337Y013348D02*
X022199Y013108D01*
X022193Y013112D01*
X022331Y013352D01*
X022337Y013348D01*
G37*
G36*
X022341Y013335D02*
X022203Y013095D01*
X022197Y013099D01*
X022335Y013339D01*
X022341Y013335D01*
G37*
G36*
X022343Y013916D02*
X022205Y013676D01*
X022199Y013680D01*
X022337Y013920D01*
X022343Y013916D01*
G37*
G36*
X022328Y013925D02*
X022190Y013685D01*
X022184Y013689D01*
X022322Y013929D01*
X022328Y013925D01*
G37*
G36*
X022320Y013929D02*
X022182Y013689D01*
X022176Y013693D01*
X022314Y013933D01*
X022320Y013929D01*
G37*
G36*
X022312Y013934D02*
X022174Y013694D01*
X022168Y013698D01*
X022306Y013938D01*
X022312Y013934D01*
G37*
G36*
X022304Y013938D02*
X022166Y013698D01*
X022160Y013702D01*
X022298Y013942D01*
X022304Y013938D01*
G37*
G36*
X022289Y013947D02*
X022151Y013707D01*
X022145Y013711D01*
X022283Y013951D01*
X022289Y013947D01*
G37*
G36*
X022281Y013952D02*
X022143Y013712D01*
X022137Y013716D01*
X022275Y013956D01*
X022281Y013952D01*
G37*
G36*
X022273Y013956D02*
X022135Y013716D01*
X022129Y013720D01*
X022267Y013960D01*
X022273Y013956D01*
G37*
G36*
X022265Y013961D02*
X022127Y013721D01*
X022121Y013725D01*
X022259Y013965D01*
X022265Y013961D01*
G37*
G36*
X022250Y013970D02*
X022112Y013730D01*
X022106Y013734D01*
X022244Y013974D01*
X022250Y013970D01*
G37*
G36*
X022242Y013974D02*
X022104Y013734D01*
X022098Y013738D01*
X022236Y013978D01*
X022242Y013974D01*
G37*
G36*
X022234Y013979D02*
X022096Y013739D01*
X022090Y013743D01*
X022228Y013983D01*
X022234Y013979D01*
G37*
G36*
X022226Y013983D02*
X022088Y013743D01*
X022082Y013747D01*
X022220Y013987D01*
X022226Y013983D01*
G37*
G36*
X022211Y013992D02*
X022073Y013752D01*
X022067Y013756D01*
X022205Y013996D01*
X022211Y013992D01*
G37*
G36*
X022203Y013997D02*
X022065Y013757D01*
X022059Y013761D01*
X022197Y014001D01*
X022203Y013997D01*
G37*
G36*
X022195Y014001D02*
X022057Y013761D01*
X022051Y013765D01*
X022189Y014005D01*
X022195Y014001D01*
G37*
G36*
X022187Y014006D02*
X022049Y013766D01*
X022043Y013770D01*
X022181Y014010D01*
X022187Y014006D01*
G37*
G36*
X022172Y014015D02*
X022034Y013775D01*
X022028Y013779D01*
X022166Y014019D01*
X022172Y014015D01*
G37*
G36*
X022164Y014019D02*
X022026Y013779D01*
X022020Y013783D01*
X022158Y014023D01*
X022164Y014019D01*
G37*
G36*
X022156Y014024D02*
X022018Y013784D01*
X022012Y013788D01*
X022150Y014028D01*
X022156Y014024D01*
G37*
G36*
X022148Y014028D02*
X022010Y013788D01*
X022004Y013792D01*
X022142Y014032D01*
X022148Y014028D01*
G37*
G36*
X022133Y014037D02*
X021995Y013797D01*
X021989Y013801D01*
X022127Y014041D01*
X022133Y014037D01*
G37*
G36*
X022125Y014042D02*
X021987Y013802D01*
X021981Y013806D01*
X022119Y014046D01*
X022125Y014042D01*
G37*
G36*
X022117Y014046D02*
X021979Y013806D01*
X021973Y013810D01*
X022111Y014050D01*
X022117Y014046D01*
G37*
G36*
X022110Y014051D02*
X021972Y013811D01*
X021966Y013815D01*
X022104Y014055D01*
X022110Y014051D01*
G37*
G36*
X022094Y014060D02*
X021956Y013820D01*
X021950Y013824D01*
X022088Y014064D01*
X022094Y014060D01*
G37*
G36*
X022086Y014064D02*
X021948Y013824D01*
X021942Y013828D01*
X022080Y014068D01*
X022086Y014064D01*
G37*
G36*
X022078Y014069D02*
X021940Y013829D01*
X021934Y013833D01*
X022072Y014073D01*
X022078Y014069D01*
G37*
G36*
X022071Y014073D02*
X021933Y013833D01*
X021927Y013837D01*
X022065Y014077D01*
X022071Y014073D01*
G37*
G36*
X022055Y014082D02*
X021917Y013842D01*
X021911Y013846D01*
X022049Y014086D01*
X022055Y014082D01*
G37*
G36*
X022047Y014087D02*
X021909Y013847D01*
X021903Y013851D01*
X022041Y014091D01*
X022047Y014087D01*
G37*
G36*
X022039Y014091D02*
X021901Y013851D01*
X021895Y013855D01*
X022033Y014095D01*
X022039Y014091D01*
G37*
G36*
X022032Y014096D02*
X021894Y013856D01*
X021888Y013860D01*
X022026Y014100D01*
X022032Y014096D01*
G37*
G36*
X021996Y014574D02*
X021858Y014334D01*
X021852Y014338D01*
X021990Y014578D01*
X021996Y014574D01*
G37*
G36*
X022383Y014776D02*
X022245Y014536D01*
X022239Y014540D01*
X022377Y014780D01*
X022383Y014776D01*
G37*
G36*
X022655Y015212D02*
X022517Y014972D01*
X022511Y014976D01*
X022649Y015216D01*
X022655Y015212D01*
G37*
G36*
X022630Y015673D02*
X022492Y015433D01*
X022486Y015437D01*
X022624Y015677D01*
X022630Y015673D01*
G37*
G36*
X023037Y015874D02*
X022899Y015634D01*
X022893Y015638D01*
X023031Y015878D01*
X023037Y015874D01*
G37*
G36*
X023365Y015685D02*
X023227Y015445D01*
X023221Y015449D01*
X023359Y015689D01*
X023365Y015685D01*
G37*
G36*
X022749Y014565D02*
X022611Y014325D01*
X022605Y014329D01*
X022743Y014569D01*
X022749Y014565D01*
G37*
D210*
G36*
X022036Y014624D02*
X021839Y014282D01*
X021832Y014286D01*
X022029Y014628D01*
X022036Y014624D01*
G37*
G36*
X022670Y015723D02*
X022473Y015381D01*
X022466Y015385D01*
X022663Y015727D01*
X022670Y015723D01*
G37*
D211*
G36*
X022700Y015757D02*
X022463Y015345D01*
X022456Y015349D01*
X022693Y015761D01*
X022700Y015757D01*
G37*
G36*
X022066Y014658D02*
X021829Y014246D01*
X021822Y014250D01*
X022059Y014662D01*
X022066Y014658D01*
G37*
D212*
G36*
X021313Y013337D02*
X021121Y013003D01*
X021115Y013007D01*
X021307Y013341D01*
X021313Y013337D01*
G37*
G36*
X022303Y012765D02*
X022111Y012431D01*
X022105Y012435D01*
X022297Y012769D01*
X022303Y012765D01*
G37*
D213*
G36*
X022087Y014677D02*
X021823Y014219D01*
X021817Y014223D01*
X022081Y014681D01*
X022087Y014677D01*
G37*
G36*
X022721Y015776D02*
X022457Y015318D01*
X022451Y015322D01*
X022715Y015780D01*
X022721Y015776D01*
G37*
D214*
G36*
X020876Y012560D02*
X020823Y012468D01*
X020816Y012472D01*
X020869Y012564D01*
X020876Y012560D01*
G37*
G36*
X021577Y012155D02*
X021524Y012063D01*
X021517Y012067D01*
X021570Y012159D01*
X021577Y012155D01*
G37*
G36*
X021850Y011998D02*
X021797Y011906D01*
X021790Y011910D01*
X021843Y012002D01*
X021850Y011998D01*
G37*
D215*
G36*
X022358Y012878D02*
X022067Y012374D01*
X022060Y012378D01*
X022351Y012882D01*
X022358Y012878D01*
G37*
G36*
X021384Y013441D02*
X021093Y012937D01*
X021086Y012941D01*
X021377Y013445D01*
X021384Y013441D01*
G37*
D216*
G36*
X022113Y014704D02*
X021817Y014190D01*
X021811Y014194D01*
X022107Y014708D01*
X022113Y014704D01*
G37*
G36*
X022747Y015803D02*
X022451Y015289D01*
X022445Y015293D01*
X022741Y015807D01*
X022747Y015803D01*
G37*
D217*
G36*
X020897Y012579D02*
X020822Y012449D01*
X020815Y012453D01*
X020890Y012583D01*
X020897Y012579D01*
G37*
G36*
X021536Y012210D02*
X021461Y012080D01*
X021454Y012084D01*
X021529Y012214D01*
X021536Y012210D01*
G37*
G36*
X021598Y012174D02*
X021523Y012044D01*
X021516Y012048D01*
X021591Y012178D01*
X021598Y012174D01*
G37*
G36*
X021855Y012025D02*
X021780Y011895D01*
X021773Y011899D01*
X021848Y012029D01*
X021855Y012025D01*
G37*
D218*
G36*
X022377Y012930D02*
X022050Y012362D01*
X022043Y012366D01*
X022370Y012934D01*
X022377Y012930D01*
G37*
G36*
X022822Y014295D02*
X022495Y013727D01*
X022488Y013731D01*
X022815Y014299D01*
X022822Y014295D01*
G37*
G36*
X021419Y013484D02*
X021092Y012916D01*
X021085Y012920D01*
X021412Y013488D01*
X021419Y013484D01*
G37*
D219*
G36*
X022129Y014715D02*
X021811Y014163D01*
X021805Y014167D01*
X022123Y014719D01*
X022129Y014715D01*
G37*
D220*
G36*
X022764Y015814D02*
X022446Y015262D01*
X022440Y015266D01*
X022758Y015818D01*
X022764Y015814D01*
G37*
D221*
G36*
X020909Y012582D02*
X020820Y012428D01*
X020813Y012432D01*
X020902Y012586D01*
X020909Y012582D01*
G37*
G36*
X021852Y012038D02*
X021763Y011884D01*
X021756Y011888D01*
X021845Y012042D01*
X021852Y012038D01*
G37*
D222*
G36*
X022387Y012965D02*
X022033Y012351D01*
X022027Y012355D01*
X022381Y012969D01*
X022387Y012965D01*
G37*
G36*
X021444Y013510D02*
X021090Y012896D01*
X021084Y012900D01*
X021438Y013514D01*
X021444Y013510D01*
G37*
G36*
X022691Y014608D02*
X022337Y013994D01*
X022331Y013998D01*
X022685Y014612D01*
X022691Y014608D01*
G37*
G36*
X023326Y015707D02*
X022972Y015093D01*
X022966Y015097D01*
X023320Y015711D01*
X023326Y015707D01*
G37*
D223*
G36*
X023342Y015699D02*
X023001Y015107D01*
X022994Y015111D01*
X023335Y015703D01*
X023342Y015699D01*
G37*
G36*
X022786Y015833D02*
X022445Y015241D01*
X022438Y015245D01*
X022779Y015837D01*
X022786Y015833D01*
G37*
G36*
X022151Y014734D02*
X021810Y014142D01*
X021803Y014146D01*
X022144Y014738D01*
X022151Y014734D01*
G37*
G36*
X022139Y013380D02*
X021798Y012788D01*
X021791Y012792D01*
X022132Y013384D01*
X022139Y013380D01*
G37*
D224*
G36*
X021533Y012243D02*
X021431Y012065D01*
X021425Y012069D01*
X021527Y012247D01*
X021533Y012243D01*
G37*
G36*
X021627Y012189D02*
X021525Y012011D01*
X021519Y012015D01*
X021621Y012193D01*
X021627Y012189D01*
G37*
G36*
X021853Y012058D02*
X021751Y011880D01*
X021745Y011884D01*
X021847Y012062D01*
X021853Y012058D01*
G37*
G36*
X020925Y012594D02*
X020823Y012416D01*
X020817Y012420D01*
X020919Y012598D01*
X020925Y012594D01*
G37*
D225*
G36*
X021465Y013529D02*
X021093Y012883D01*
X021087Y012887D01*
X021459Y013533D01*
X021465Y013529D01*
G37*
G36*
X022593Y014655D02*
X022221Y014009D01*
X022215Y014013D01*
X022587Y014659D01*
X022593Y014655D01*
G37*
G36*
X022609Y014646D02*
X022237Y014000D01*
X022231Y014004D01*
X022603Y014650D01*
X022609Y014646D01*
G37*
G36*
X022617Y014642D02*
X022245Y013996D01*
X022239Y014000D01*
X022611Y014646D01*
X022617Y014642D01*
G37*
D226*
G36*
X022566Y014660D02*
X022207Y014038D01*
X022200Y014042D01*
X022559Y014664D01*
X022566Y014660D01*
G37*
G36*
X022168Y014745D02*
X021809Y014123D01*
X021802Y014127D01*
X022161Y014749D01*
X022168Y014745D01*
G37*
G36*
X022803Y015844D02*
X022444Y015222D01*
X022437Y015226D01*
X022796Y015848D01*
X022803Y015844D01*
G37*
G36*
X023201Y015759D02*
X022842Y015137D01*
X022835Y015141D01*
X023194Y015763D01*
X023201Y015759D01*
G37*
D227*
G36*
X023087Y015814D02*
X022976Y015622D01*
X022969Y015626D01*
X023080Y015818D01*
X023087Y015814D01*
G37*
G36*
X022452Y014715D02*
X022341Y014523D01*
X022334Y014527D01*
X022445Y014719D01*
X022452Y014715D01*
G37*
G36*
X020938Y012596D02*
X020827Y012404D01*
X020820Y012408D01*
X020931Y012600D01*
X020938Y012596D01*
G37*
G36*
X021640Y012191D02*
X021529Y011999D01*
X021522Y012003D01*
X021633Y012195D01*
X021640Y012191D01*
G37*
G36*
X021850Y012070D02*
X021739Y011878D01*
X021732Y011882D01*
X021843Y012074D01*
X021850Y012070D01*
G37*
D228*
G36*
X021487Y013548D02*
X021101Y012878D01*
X021095Y012882D01*
X021481Y013552D01*
X021487Y013548D01*
G37*
G36*
X022830Y014363D02*
X022444Y013693D01*
X022438Y013697D01*
X022824Y014367D01*
X022830Y014363D01*
G37*
D229*
G36*
X022638Y014640D02*
X022261Y013986D01*
X022254Y013990D01*
X022631Y014644D01*
X022638Y014640D01*
G37*
G36*
X022630Y014645D02*
X022253Y013991D01*
X022246Y013995D01*
X022623Y014649D01*
X022630Y014645D01*
G37*
G36*
X022185Y014756D02*
X021808Y014102D01*
X021801Y014106D01*
X022178Y014760D01*
X022185Y014756D01*
G37*
G36*
X022819Y015855D02*
X022442Y015201D01*
X022435Y015205D01*
X022812Y015859D01*
X022819Y015855D01*
G37*
G36*
X023264Y015744D02*
X022887Y015090D01*
X022880Y015094D01*
X023257Y015748D01*
X023264Y015744D01*
G37*
G36*
X023272Y015739D02*
X022895Y015085D01*
X022888Y015089D01*
X023265Y015743D01*
X023272Y015739D01*
G37*
G36*
X022398Y013002D02*
X022021Y012348D01*
X022014Y012352D01*
X022391Y013006D01*
X022398Y013002D01*
G37*
D230*
G36*
X021651Y012195D02*
X021531Y011987D01*
X021525Y011991D01*
X021645Y012199D01*
X021651Y012195D01*
G37*
G36*
X020950Y012600D02*
X020830Y012392D01*
X020824Y012396D01*
X020944Y012604D01*
X020950Y012600D01*
G37*
G36*
X022441Y014732D02*
X022321Y014524D01*
X022315Y014528D01*
X022435Y014736D01*
X022441Y014732D01*
G37*
G36*
X023075Y015831D02*
X022955Y015623D01*
X022949Y015627D01*
X023069Y015835D01*
X023075Y015831D01*
G37*
D231*
G36*
X021504Y013559D02*
X021105Y012867D01*
X021098Y012871D01*
X021497Y013563D01*
X021504Y013559D01*
G37*
D232*
G36*
X022196Y014759D02*
X021806Y014083D01*
X021800Y014087D01*
X022190Y014763D01*
X022196Y014759D01*
G37*
G36*
X022831Y015858D02*
X022441Y015182D01*
X022435Y015186D01*
X022825Y015862D01*
X022831Y015858D01*
G37*
D233*
G36*
X023083Y015827D02*
X022963Y015619D01*
X022957Y015623D01*
X023077Y015831D01*
X023083Y015827D01*
G37*
G36*
X022449Y014728D02*
X022329Y014520D01*
X022323Y014524D01*
X022443Y014732D01*
X022449Y014728D01*
G37*
G36*
X020958Y012595D02*
X020838Y012387D01*
X020832Y012391D01*
X020952Y012599D01*
X020958Y012595D01*
G37*
G36*
X021519Y012271D02*
X021399Y012063D01*
X021393Y012067D01*
X021513Y012275D01*
X021519Y012271D01*
G37*
G36*
X021659Y012190D02*
X021539Y011982D01*
X021533Y011986D01*
X021653Y012194D01*
X021659Y012190D01*
G37*
G36*
X021838Y012087D02*
X021718Y011879D01*
X021712Y011883D01*
X021832Y012091D01*
X021838Y012087D01*
G37*
D234*
G36*
X021525Y013577D02*
X021108Y012855D01*
X021101Y012859D01*
X021518Y013581D01*
X021525Y013577D01*
G37*
G36*
X022226Y014773D02*
X021809Y014051D01*
X021802Y014055D01*
X022219Y014777D01*
X022226Y014773D01*
G37*
G36*
X022860Y015872D02*
X022443Y015150D01*
X022436Y015154D01*
X022853Y015876D01*
X022860Y015872D01*
G37*
D235*
G36*
X022213Y014770D02*
X021805Y014062D01*
X021799Y014066D01*
X022207Y014774D01*
X022213Y014770D01*
G37*
D236*
G36*
X022848Y015869D02*
X022440Y015161D01*
X022434Y015165D01*
X022842Y015873D01*
X022848Y015869D01*
G37*
D237*
G36*
X023049Y015857D02*
X022920Y015633D01*
X022913Y015637D01*
X023042Y015861D01*
X023049Y015857D01*
G37*
G36*
X023057Y015853D02*
X022928Y015629D01*
X022921Y015633D01*
X023050Y015857D01*
X023057Y015853D01*
G37*
G36*
X023065Y015848D02*
X022936Y015624D01*
X022929Y015628D01*
X023058Y015852D01*
X023065Y015848D01*
G37*
G36*
X023072Y015844D02*
X022943Y015620D01*
X022936Y015624D01*
X023065Y015848D01*
X023072Y015844D01*
G37*
G36*
X022438Y014745D02*
X022309Y014521D01*
X022302Y014525D01*
X022431Y014749D01*
X022438Y014745D01*
G37*
G36*
X022430Y014749D02*
X022301Y014525D01*
X022294Y014529D01*
X022423Y014753D01*
X022430Y014749D01*
G37*
G36*
X022422Y014754D02*
X022293Y014530D01*
X022286Y014534D01*
X022415Y014758D01*
X022422Y014754D01*
G37*
G36*
X022415Y014758D02*
X022286Y014534D01*
X022279Y014538D01*
X022408Y014762D01*
X022415Y014758D01*
G37*
G36*
X021002Y012581D02*
X020873Y012357D01*
X020866Y012361D01*
X020995Y012585D01*
X021002Y012581D01*
G37*
G36*
X020986Y012590D02*
X020857Y012366D01*
X020850Y012370D01*
X020979Y012594D01*
X020986Y012590D01*
G37*
G36*
X020978Y012594D02*
X020849Y012370D01*
X020842Y012374D01*
X020971Y012598D01*
X020978Y012594D01*
G37*
G36*
X020970Y012599D02*
X020841Y012375D01*
X020834Y012379D01*
X020963Y012603D01*
X020970Y012599D01*
G37*
G36*
X021485Y012302D02*
X021356Y012078D01*
X021349Y012082D01*
X021478Y012306D01*
X021485Y012302D01*
G37*
G36*
X021493Y012297D02*
X021364Y012073D01*
X021357Y012077D01*
X021486Y012301D01*
X021493Y012297D01*
G37*
G36*
X021508Y012288D02*
X021379Y012064D01*
X021372Y012068D01*
X021501Y012292D01*
X021508Y012288D01*
G37*
G36*
X021516Y012284D02*
X021387Y012060D01*
X021380Y012064D01*
X021509Y012288D01*
X021516Y012284D01*
G37*
G36*
X021672Y012194D02*
X021543Y011970D01*
X021536Y011974D01*
X021665Y012198D01*
X021672Y012194D01*
G37*
G36*
X021680Y012189D02*
X021551Y011965D01*
X021544Y011969D01*
X021673Y012193D01*
X021680Y012189D01*
G37*
G36*
X021688Y012185D02*
X021559Y011961D01*
X021552Y011965D01*
X021681Y012189D01*
X021688Y012185D01*
G37*
G36*
X021703Y012176D02*
X021574Y011952D01*
X021567Y011956D01*
X021696Y012180D01*
X021703Y012176D01*
G37*
G36*
X021804Y012117D02*
X021675Y011893D01*
X021668Y011897D01*
X021797Y012121D01*
X021804Y012117D01*
G37*
G36*
X021820Y012108D02*
X021691Y011884D01*
X021684Y011888D01*
X021813Y012112D01*
X021820Y012108D01*
G37*
G36*
X021828Y012104D02*
X021699Y011880D01*
X021692Y011884D01*
X021821Y012108D01*
X021828Y012104D01*
G37*
G36*
X021836Y012099D02*
X021707Y011875D01*
X021700Y011879D01*
X021829Y012103D01*
X021836Y012099D01*
G37*
D238*
G36*
X022410Y013078D02*
X021988Y012346D01*
X021982Y012350D01*
X022404Y013082D01*
X022410Y013078D01*
G37*
G36*
X021537Y013582D02*
X021115Y012850D01*
X021109Y012854D01*
X021531Y013586D01*
X021537Y013582D01*
G37*
D239*
G36*
X021555Y013593D02*
X021124Y012845D01*
X021117Y012849D01*
X021548Y013597D01*
X021555Y013593D01*
G37*
G36*
X022412Y013098D02*
X021981Y012350D01*
X021974Y012354D01*
X022405Y013102D01*
X022412Y013098D01*
G37*
D240*
G36*
X022243Y014784D02*
X021808Y014030D01*
X021801Y014034D01*
X022236Y014788D01*
X022243Y014784D01*
G37*
G36*
X022877Y015883D02*
X022442Y015129D01*
X022435Y015133D01*
X022870Y015887D01*
X022877Y015883D01*
G37*
D241*
G36*
X023460Y015526D02*
X023020Y014764D01*
X023014Y014768D01*
X023454Y015530D01*
X023460Y015526D01*
G37*
G36*
X022826Y014427D02*
X022386Y013665D01*
X022380Y013669D01*
X022820Y014431D01*
X022826Y014427D01*
G37*
G36*
X021571Y013603D02*
X021131Y012841D01*
X021125Y012845D01*
X021565Y013607D01*
X021571Y013603D01*
G37*
D242*
G36*
X022255Y014788D02*
X021811Y014018D01*
X021805Y014022D01*
X022249Y014792D01*
X022255Y014788D01*
G37*
G36*
X022889Y015887D02*
X022445Y015117D01*
X022439Y015121D01*
X022883Y015891D01*
X022889Y015887D01*
G37*
G36*
X022417Y013125D02*
X021973Y012355D01*
X021967Y012359D01*
X022411Y013129D01*
X022417Y013125D01*
G37*
D243*
G36*
X021812Y012113D02*
X021683Y011889D01*
X021676Y011893D01*
X021805Y012117D01*
X021812Y012113D01*
G37*
G36*
X021695Y012180D02*
X021566Y011956D01*
X021559Y011960D01*
X021688Y012184D01*
X021695Y012180D01*
G37*
G36*
X021501Y012293D02*
X021372Y012069D01*
X021365Y012073D01*
X021494Y012297D01*
X021501Y012293D01*
G37*
G36*
X020994Y012585D02*
X020865Y012361D01*
X020858Y012365D01*
X020987Y012589D01*
X020994Y012585D01*
G37*
D244*
G36*
X021583Y013607D02*
X021139Y012837D01*
X021133Y012841D01*
X021577Y013611D01*
X021583Y013607D01*
G37*
D245*
G36*
X022267Y014791D02*
X021814Y014005D01*
X021807Y014009D01*
X022260Y014795D01*
X022267Y014791D01*
G37*
D246*
G36*
X022902Y015890D02*
X022449Y015104D01*
X022442Y015108D01*
X022895Y015894D01*
X022902Y015890D01*
G37*
D247*
G36*
X021600Y013618D02*
X021147Y012832D01*
X021140Y012836D01*
X021593Y013622D01*
X021600Y013618D01*
G37*
D248*
G36*
X021612Y013620D02*
X021150Y012820D01*
X021144Y012824D01*
X021606Y013624D01*
X021612Y013620D01*
G37*
G36*
X022279Y014794D02*
X021817Y013994D01*
X021811Y013998D01*
X022273Y014798D01*
X022279Y014794D01*
G37*
G36*
X022914Y015893D02*
X022452Y015093D01*
X022446Y015097D01*
X022908Y015897D01*
X022914Y015893D01*
G37*
D249*
G36*
X022922Y015889D02*
X022451Y015073D01*
X022444Y015077D01*
X022915Y015893D01*
X022922Y015889D01*
G37*
G36*
X022287Y014790D02*
X021816Y013974D01*
X021809Y013978D01*
X022280Y014794D01*
X022287Y014790D01*
G37*
G36*
X021629Y013632D02*
X021158Y012816D01*
X021151Y012820D01*
X021622Y013636D01*
X021629Y013632D01*
G37*
D250*
G36*
X021641Y013636D02*
X021165Y012810D01*
X021159Y012814D01*
X021635Y013640D01*
X021641Y013636D01*
G37*
G36*
X022300Y014794D02*
X021824Y013968D01*
X021818Y013972D01*
X022294Y014798D01*
X022300Y014794D01*
G37*
G36*
X022934Y015893D02*
X022458Y015067D01*
X022452Y015071D01*
X022928Y015897D01*
X022934Y015893D01*
G37*
G36*
X022413Y013191D02*
X021937Y012365D01*
X021931Y012369D01*
X022407Y013195D01*
X022413Y013191D01*
G37*
D251*
G36*
X021666Y013642D02*
X021181Y012802D01*
X021174Y012806D01*
X021659Y013646D01*
X021666Y013642D01*
G37*
G36*
X022312Y014797D02*
X021827Y013957D01*
X021820Y013961D01*
X022305Y014801D01*
X022312Y014797D01*
G37*
D252*
G36*
X022947Y015896D02*
X022462Y015056D01*
X022455Y015060D01*
X022940Y015900D01*
X022947Y015896D01*
G37*
D253*
G36*
X023357Y015690D02*
X023219Y015450D01*
X023213Y015454D01*
X023351Y015694D01*
X023357Y015690D01*
G37*
G36*
X022063Y014078D02*
X021925Y013838D01*
X021919Y013842D01*
X022057Y014082D01*
X022063Y014078D01*
G37*
G36*
X022102Y014055D02*
X021964Y013815D01*
X021958Y013819D01*
X022096Y014059D01*
X022102Y014055D01*
G37*
G36*
X022141Y014033D02*
X022003Y013793D01*
X021997Y013797D01*
X022135Y014037D01*
X022141Y014033D01*
G37*
G36*
X022180Y014010D02*
X022042Y013770D01*
X022036Y013774D01*
X022174Y014014D01*
X022180Y014010D01*
G37*
G36*
X022219Y013988D02*
X022081Y013748D01*
X022075Y013752D01*
X022213Y013992D01*
X022219Y013988D01*
G37*
G36*
X022258Y013965D02*
X022120Y013725D01*
X022114Y013729D01*
X022252Y013969D01*
X022258Y013965D01*
G37*
G36*
X022297Y013943D02*
X022159Y013703D01*
X022153Y013707D01*
X022291Y013947D01*
X022297Y013943D01*
G37*
G36*
X022336Y013920D02*
X022198Y013680D01*
X022192Y013684D01*
X022330Y013924D01*
X022336Y013920D01*
G37*
G36*
X022010Y013537D02*
X021872Y013297D01*
X021866Y013301D01*
X022004Y013541D01*
X022010Y013537D01*
G37*
G36*
X021971Y013559D02*
X021833Y013319D01*
X021827Y013323D01*
X021965Y013563D01*
X021971Y013559D01*
G37*
G36*
X021932Y013582D02*
X021794Y013342D01*
X021788Y013346D01*
X021926Y013586D01*
X021932Y013582D01*
G37*
G36*
X021893Y013604D02*
X021755Y013364D01*
X021749Y013368D01*
X021887Y013608D01*
X021893Y013604D01*
G37*
G36*
X021854Y013627D02*
X021716Y013387D01*
X021710Y013391D01*
X021848Y013631D01*
X021854Y013627D01*
G37*
G36*
X022322Y013357D02*
X022184Y013117D01*
X022178Y013121D01*
X022316Y013361D01*
X022322Y013357D01*
G37*
G36*
X021896Y012709D02*
X021758Y012469D01*
X021752Y012473D01*
X021890Y012713D01*
X021896Y012709D01*
G37*
G36*
X021935Y012686D02*
X021797Y012446D01*
X021791Y012450D01*
X021929Y012690D01*
X021935Y012686D01*
G37*
G36*
X021974Y012664D02*
X021836Y012424D01*
X021830Y012428D01*
X021968Y012668D01*
X021974Y012664D01*
G37*
G36*
X021857Y012731D02*
X021719Y012491D01*
X021713Y012495D01*
X021851Y012735D01*
X021857Y012731D01*
G37*
G36*
X021818Y012754D02*
X021680Y012514D01*
X021674Y012518D01*
X021812Y012758D01*
X021818Y012754D01*
G37*
G36*
X021779Y012776D02*
X021641Y012536D01*
X021635Y012540D01*
X021773Y012780D01*
X021779Y012776D01*
G37*
G36*
X021740Y012799D02*
X021602Y012559D01*
X021596Y012563D01*
X021734Y012803D01*
X021740Y012799D01*
G37*
G36*
X021701Y012821D02*
X021563Y012581D01*
X021557Y012585D01*
X021695Y012825D01*
X021701Y012821D01*
G37*
G36*
X021662Y012844D02*
X021524Y012604D01*
X021518Y012608D01*
X021656Y012848D01*
X021662Y012844D01*
G37*
G36*
X021623Y012866D02*
X021485Y012626D01*
X021479Y012630D01*
X021617Y012870D01*
X021623Y012866D01*
G37*
G36*
X021584Y012889D02*
X021446Y012649D01*
X021440Y012653D01*
X021578Y012893D01*
X021584Y012889D01*
G37*
G36*
X021545Y012911D02*
X021407Y012671D01*
X021401Y012675D01*
X021539Y012915D01*
X021545Y012911D01*
G37*
G36*
X021506Y012934D02*
X021368Y012694D01*
X021362Y012698D01*
X021500Y012938D01*
X021506Y012934D01*
G37*
G36*
X021467Y012956D02*
X021329Y012716D01*
X021323Y012720D01*
X021461Y012960D01*
X021467Y012956D01*
G37*
G36*
X021428Y012979D02*
X021290Y012739D01*
X021284Y012743D01*
X021422Y012983D01*
X021428Y012979D01*
G37*
G36*
X021389Y013001D02*
X021251Y012761D01*
X021245Y012765D01*
X021383Y013005D01*
X021389Y013001D01*
G37*
G36*
X021115Y012526D02*
X020977Y012286D01*
X020971Y012290D01*
X021109Y012530D01*
X021115Y012526D01*
G37*
G36*
X021154Y012503D02*
X021016Y012263D01*
X021010Y012267D01*
X021148Y012507D01*
X021154Y012503D01*
G37*
G36*
X021193Y012481D02*
X021055Y012241D01*
X021049Y012245D01*
X021187Y012485D01*
X021193Y012481D01*
G37*
G36*
X021232Y012458D02*
X021094Y012218D01*
X021088Y012222D01*
X021226Y012462D01*
X021232Y012458D01*
G37*
G36*
X021271Y012436D02*
X021133Y012196D01*
X021127Y012200D01*
X021265Y012440D01*
X021271Y012436D01*
G37*
G36*
X021310Y012413D02*
X021172Y012173D01*
X021166Y012177D01*
X021304Y012417D01*
X021310Y012413D01*
G37*
G36*
X021349Y012391D02*
X021211Y012151D01*
X021205Y012155D01*
X021343Y012395D01*
X021349Y012391D01*
G37*
G36*
X021388Y012368D02*
X021250Y012128D01*
X021244Y012132D01*
X021382Y012372D01*
X021388Y012368D01*
G37*
G36*
X021427Y012346D02*
X021289Y012106D01*
X021283Y012110D01*
X021421Y012350D01*
X021427Y012346D01*
G37*
G36*
X021466Y012323D02*
X021328Y012083D01*
X021322Y012087D01*
X021460Y012327D01*
X021466Y012323D01*
G37*
G36*
X021738Y012166D02*
X021600Y011926D01*
X021594Y011930D01*
X021732Y012170D01*
X021738Y012166D01*
G37*
G36*
X021777Y012143D02*
X021639Y011903D01*
X021633Y011907D01*
X021771Y012147D01*
X021777Y012143D01*
G37*
G36*
X021076Y012548D02*
X020938Y012308D01*
X020932Y012312D01*
X021070Y012552D01*
X021076Y012548D01*
G37*
G36*
X021037Y012571D02*
X020899Y012331D01*
X020893Y012335D01*
X021031Y012575D01*
X021037Y012571D01*
G37*
D254*
G36*
X021653Y013638D02*
X021173Y012806D01*
X021167Y012810D01*
X021647Y013642D01*
X021653Y013638D01*
G37*
D255*
G36*
X022320Y014792D02*
X021831Y013944D01*
X021824Y013948D01*
X022313Y014796D01*
X022320Y014792D01*
G37*
G36*
X022954Y015891D02*
X022465Y015043D01*
X022458Y015047D01*
X022947Y015895D01*
X022954Y015891D01*
G37*
D256*
G36*
X022966Y015895D02*
X022468Y015031D01*
X022462Y015035D01*
X022960Y015899D01*
X022966Y015895D01*
G37*
G36*
X023429Y015617D02*
X022931Y014753D01*
X022925Y014757D01*
X023423Y015621D01*
X023429Y015617D01*
G37*
G36*
X022795Y014518D02*
X022297Y013654D01*
X022291Y013658D01*
X022789Y014522D01*
X022795Y014518D01*
G37*
G36*
X022332Y014796D02*
X021834Y013932D01*
X021828Y013936D01*
X022326Y014800D01*
X022332Y014796D01*
G37*
G36*
X021703Y013652D02*
X021205Y012788D01*
X021199Y012792D01*
X021697Y013656D01*
X021703Y013652D01*
G37*
G36*
X022404Y013247D02*
X021906Y012383D01*
X021900Y012387D01*
X022398Y013251D01*
X022404Y013247D01*
G37*
D257*
G36*
X022411Y013222D02*
X021922Y012374D01*
X021915Y012378D01*
X022404Y013226D01*
X022411Y013222D01*
G37*
G36*
X022806Y014501D02*
X022317Y013653D01*
X022310Y013657D01*
X022799Y014505D01*
X022806Y014501D01*
G37*
G36*
X023441Y015600D02*
X022952Y014752D01*
X022945Y014756D01*
X023434Y015604D01*
X023441Y015600D01*
G37*
G36*
X021678Y013645D02*
X021189Y012797D01*
X021182Y012801D01*
X021671Y013649D01*
X021678Y013645D01*
G37*
D258*
G36*
X021723Y013651D02*
X021220Y012779D01*
X021213Y012783D01*
X021716Y013655D01*
X021723Y013651D01*
G37*
G36*
X022340Y014791D02*
X021837Y013919D01*
X021830Y013923D01*
X022333Y014795D01*
X022340Y014791D01*
G37*
G36*
X022975Y015890D02*
X022472Y015018D01*
X022465Y015022D01*
X022968Y015894D01*
X022975Y015890D01*
G37*
G36*
X022394Y013264D02*
X021891Y012392D01*
X021884Y012396D01*
X022387Y013268D01*
X022394Y013264D01*
G37*
G36*
X022401Y013259D02*
X021898Y012387D01*
X021891Y012391D01*
X022394Y013263D01*
X022401Y013259D01*
G37*
D259*
G36*
X022798Y014505D02*
X022304Y013649D01*
X022298Y013653D01*
X022792Y014509D01*
X022798Y014505D01*
G37*
G36*
X023433Y015604D02*
X022939Y014748D01*
X022933Y014752D01*
X023427Y015608D01*
X023433Y015604D01*
G37*
G36*
X021690Y013649D02*
X021196Y012793D01*
X021190Y012797D01*
X021684Y013653D01*
X021690Y013649D01*
G37*
D260*
G36*
X022352Y014794D02*
X021845Y013916D01*
X021838Y013920D01*
X022345Y014798D01*
X022352Y014794D01*
G37*
D261*
G36*
X022987Y015893D02*
X022480Y015015D01*
X022473Y015019D01*
X022980Y015897D01*
X022987Y015893D01*
G37*
G36*
X021735Y013653D02*
X021228Y012775D01*
X021221Y012779D01*
X021728Y013657D01*
X021735Y013653D01*
G37*
G36*
X022390Y013275D02*
X021883Y012397D01*
X021876Y012401D01*
X022383Y013279D01*
X022390Y013275D01*
G37*
D262*
G36*
X022076Y014299D02*
X021848Y013903D01*
X021842Y013907D01*
X022070Y014303D01*
X022076Y014299D01*
G37*
G36*
X022711Y015398D02*
X022483Y015002D01*
X022477Y015006D01*
X022705Y015402D01*
X022711Y015398D01*
G37*
D263*
G36*
X023171Y015206D02*
X022911Y014754D01*
X022905Y014758D01*
X023165Y015210D01*
X023171Y015206D01*
G37*
G36*
X022360Y014791D02*
X022100Y014339D01*
X022094Y014343D01*
X022354Y014795D01*
X022360Y014791D01*
G37*
G36*
X022809Y014219D02*
X022549Y013767D01*
X022543Y013771D01*
X022803Y014223D01*
X022809Y014219D01*
G37*
G36*
X022536Y014107D02*
X022276Y013655D01*
X022270Y013659D01*
X022530Y014111D01*
X022536Y014107D01*
G37*
D264*
G36*
X023444Y015318D02*
X023184Y014866D01*
X023178Y014870D01*
X023438Y015322D01*
X023444Y015318D01*
G37*
G36*
X022994Y015890D02*
X022734Y015438D01*
X022728Y015442D01*
X022988Y015894D01*
X022994Y015890D01*
G37*
D265*
G36*
X023422Y015621D02*
X022919Y014749D01*
X022912Y014753D01*
X023415Y015625D01*
X023422Y015621D01*
G37*
G36*
X022788Y014522D02*
X022285Y013650D01*
X022278Y013654D01*
X022781Y014526D01*
X022788Y014522D01*
G37*
G36*
X021716Y013655D02*
X021213Y012783D01*
X021206Y012787D01*
X021709Y013659D01*
X021716Y013655D01*
G37*
D266*
G36*
X022030Y014201D02*
X021856Y013899D01*
X021850Y013903D01*
X022024Y014205D01*
X022030Y014201D01*
G37*
G36*
X022664Y015299D02*
X022490Y014997D01*
X022484Y015001D01*
X022658Y015303D01*
X022664Y015299D01*
G37*
D267*
G36*
X022368Y014786D02*
X022198Y014490D01*
X022192Y014494D01*
X022362Y014790D01*
X022368Y014786D01*
G37*
D268*
G36*
X023002Y015885D02*
X022832Y015589D01*
X022826Y015593D01*
X022996Y015889D01*
X023002Y015885D01*
G37*
D269*
G36*
X022654Y015263D02*
X022498Y014993D01*
X022492Y014997D01*
X022648Y015267D01*
X022654Y015263D01*
G37*
G36*
X022020Y014164D02*
X021864Y013894D01*
X021858Y013898D01*
X022014Y014168D01*
X022020Y014164D01*
G37*
G36*
X021803Y013645D02*
X021647Y013375D01*
X021641Y013379D01*
X021797Y013649D01*
X021803Y013645D01*
G37*
D270*
G36*
X021819Y013637D02*
X021672Y013381D01*
X021665Y013385D01*
X021812Y013641D01*
X021819Y013637D01*
G37*
G36*
X022037Y013511D02*
X021890Y013255D01*
X021883Y013259D01*
X022030Y013515D01*
X022037Y013511D01*
G37*
G36*
X022376Y014781D02*
X022229Y014525D01*
X022222Y014529D01*
X022369Y014785D01*
X022376Y014781D01*
G37*
D271*
G36*
X023010Y015880D02*
X022863Y015624D01*
X022856Y015628D01*
X023003Y015884D01*
X023010Y015880D01*
G37*
D272*
G36*
X023400Y015655D02*
X023248Y015391D01*
X023242Y015395D01*
X023394Y015659D01*
X023400Y015655D01*
G37*
G36*
X022653Y015244D02*
X022501Y014980D01*
X022495Y014984D01*
X022647Y015248D01*
X022653Y015244D01*
G37*
G36*
X023035Y015024D02*
X022883Y014760D01*
X022877Y014764D01*
X023029Y015028D01*
X023035Y015024D01*
G37*
G36*
X022765Y014556D02*
X022613Y014292D01*
X022607Y014296D01*
X022759Y014560D01*
X022765Y014556D01*
G37*
G36*
X022401Y013925D02*
X022249Y013661D01*
X022243Y013665D01*
X022395Y013929D01*
X022401Y013925D01*
G37*
G36*
X022019Y014145D02*
X021867Y013881D01*
X021861Y013885D01*
X022013Y014149D01*
X022019Y014145D01*
G37*
G36*
X022275Y013384D02*
X022123Y013120D01*
X022117Y013124D01*
X022269Y013388D01*
X022275Y013384D01*
G37*
D273*
G36*
X022020Y014113D02*
X021882Y013873D01*
X021876Y013877D01*
X022014Y014117D01*
X022020Y014113D01*
G37*
G36*
X022403Y014775D02*
X022265Y014535D01*
X022259Y014539D01*
X022397Y014779D01*
X022403Y014775D01*
G37*
G36*
X022666Y015195D02*
X022528Y014955D01*
X022522Y014959D01*
X022660Y015199D01*
X022666Y015195D01*
G37*
G36*
X022674Y015190D02*
X022536Y014950D01*
X022530Y014954D01*
X022668Y015194D01*
X022674Y015190D01*
G37*
G36*
X022682Y015186D02*
X022544Y014946D01*
X022538Y014950D01*
X022676Y015190D01*
X022682Y015186D01*
G37*
G36*
X022689Y015181D02*
X022551Y014941D01*
X022545Y014945D01*
X022683Y015185D01*
X022689Y015181D01*
G37*
G36*
X022705Y015172D02*
X022567Y014932D01*
X022561Y014936D01*
X022699Y015176D01*
X022705Y015172D01*
G37*
G36*
X022713Y015168D02*
X022575Y014928D01*
X022569Y014932D01*
X022707Y015172D01*
X022713Y015168D01*
G37*
G36*
X022721Y015163D02*
X022583Y014923D01*
X022577Y014927D01*
X022715Y015167D01*
X022721Y015163D01*
G37*
G36*
X022728Y015159D02*
X022590Y014919D01*
X022584Y014923D01*
X022722Y015163D01*
X022728Y015159D01*
G37*
G36*
X022744Y015150D02*
X022606Y014910D01*
X022600Y014914D01*
X022738Y015154D01*
X022744Y015150D01*
G37*
G36*
X022752Y015145D02*
X022614Y014905D01*
X022608Y014909D01*
X022746Y015149D01*
X022752Y015145D01*
G37*
G36*
X022760Y015141D02*
X022622Y014901D01*
X022616Y014905D01*
X022754Y015145D01*
X022760Y015141D01*
G37*
G36*
X022767Y015136D02*
X022629Y014896D01*
X022623Y014900D01*
X022761Y015140D01*
X022767Y015136D01*
G37*
G36*
X022783Y015127D02*
X022645Y014887D01*
X022639Y014891D01*
X022777Y015131D01*
X022783Y015127D01*
G37*
G36*
X022791Y015123D02*
X022653Y014883D01*
X022647Y014887D01*
X022785Y015127D01*
X022791Y015123D01*
G37*
G36*
X022799Y015118D02*
X022661Y014878D01*
X022655Y014882D01*
X022793Y015122D01*
X022799Y015118D01*
G37*
G36*
X022806Y015114D02*
X022668Y014874D01*
X022662Y014878D01*
X022800Y015118D01*
X022806Y015114D01*
G37*
G36*
X022822Y015105D02*
X022684Y014865D01*
X022678Y014869D01*
X022816Y015109D01*
X022822Y015105D01*
G37*
G36*
X022830Y015100D02*
X022692Y014860D01*
X022686Y014864D01*
X022824Y015104D01*
X022830Y015100D01*
G37*
G36*
X022838Y015096D02*
X022700Y014856D01*
X022694Y014860D01*
X022832Y015100D01*
X022838Y015096D01*
G37*
G36*
X022845Y015091D02*
X022707Y014851D01*
X022701Y014855D01*
X022839Y015095D01*
X022845Y015091D01*
G37*
G36*
X022861Y015082D02*
X022723Y014842D01*
X022717Y014846D01*
X022855Y015086D01*
X022861Y015082D01*
G37*
G36*
X022869Y015078D02*
X022731Y014838D01*
X022725Y014842D01*
X022863Y015082D01*
X022869Y015078D01*
G37*
G36*
X022877Y015073D02*
X022739Y014833D01*
X022733Y014837D01*
X022871Y015077D01*
X022877Y015073D01*
G37*
G36*
X022884Y015069D02*
X022746Y014829D01*
X022740Y014833D01*
X022878Y015073D01*
X022884Y015069D01*
G37*
G36*
X022900Y015060D02*
X022762Y014820D01*
X022756Y014824D01*
X022894Y015064D01*
X022900Y015060D01*
G37*
G36*
X022908Y015055D02*
X022770Y014815D01*
X022764Y014819D01*
X022902Y015059D01*
X022908Y015055D01*
G37*
G36*
X022916Y015051D02*
X022778Y014811D01*
X022772Y014815D01*
X022910Y015055D01*
X022916Y015051D01*
G37*
G36*
X022923Y015046D02*
X022785Y014806D01*
X022779Y014810D01*
X022917Y015050D01*
X022923Y015046D01*
G37*
G36*
X022939Y015037D02*
X022801Y014797D01*
X022795Y014801D01*
X022933Y015041D01*
X022939Y015037D01*
G37*
G36*
X022947Y015033D02*
X022809Y014793D01*
X022803Y014797D01*
X022941Y015037D01*
X022947Y015033D01*
G37*
G36*
X022954Y015028D02*
X022816Y014788D01*
X022810Y014792D01*
X022948Y015032D01*
X022954Y015028D01*
G37*
G36*
X022962Y015024D02*
X022824Y014784D01*
X022818Y014788D01*
X022956Y015028D01*
X022962Y015024D01*
G37*
G36*
X022978Y015015D02*
X022840Y014775D01*
X022834Y014779D01*
X022972Y015019D01*
X022978Y015015D01*
G37*
G36*
X023384Y015664D02*
X023246Y015424D01*
X023240Y015428D01*
X023378Y015668D01*
X023384Y015664D01*
G37*
G36*
X023017Y015875D02*
X022879Y015635D01*
X022873Y015639D01*
X023011Y015879D01*
X023017Y015875D01*
G37*
G36*
X022730Y014586D02*
X022592Y014346D01*
X022586Y014350D01*
X022724Y014590D01*
X022730Y014586D01*
G37*
D274*
G36*
X021747Y013658D02*
X021235Y012770D01*
X021229Y012774D01*
X021741Y013662D01*
X021747Y013658D01*
G37*
G36*
X022379Y013293D02*
X021867Y012405D01*
X021861Y012409D01*
X022373Y013297D01*
X022379Y013293D01*
G37*
D275*
G36*
X022349Y013331D02*
X022206Y013083D01*
X022199Y013087D01*
X022342Y013335D01*
X022349Y013331D01*
G37*
G36*
X022030Y013515D02*
X021887Y013267D01*
X021880Y013271D01*
X022023Y013519D01*
X022030Y013515D01*
G37*
G36*
X021847Y013631D02*
X021704Y013383D01*
X021697Y013387D01*
X021840Y013635D01*
X021847Y013631D01*
G37*
G36*
X021827Y013632D02*
X021684Y013384D01*
X021677Y013388D01*
X021820Y013636D01*
X021827Y013632D01*
G37*
G36*
X022018Y014125D02*
X021875Y013877D01*
X021868Y013881D01*
X022011Y014129D01*
X022018Y014125D01*
G37*
G36*
X022652Y015224D02*
X022509Y014976D01*
X022502Y014980D01*
X022645Y015228D01*
X022652Y015224D01*
G37*
D276*
G36*
X022986Y015010D02*
X022852Y014778D01*
X022846Y014782D01*
X022980Y015014D01*
X022986Y015010D01*
G37*
G36*
X022994Y015006D02*
X022860Y014774D01*
X022854Y014778D01*
X022988Y015010D01*
X022994Y015006D01*
G37*
G36*
X023001Y015001D02*
X022867Y014769D01*
X022861Y014773D01*
X022995Y015005D01*
X023001Y015001D01*
G37*
G36*
X023409Y015202D02*
X023275Y014970D01*
X023269Y014974D01*
X023403Y015206D01*
X023409Y015202D01*
G37*
G36*
X023376Y015668D02*
X023242Y015436D01*
X023236Y015440D01*
X023370Y015672D01*
X023376Y015668D01*
G37*
G36*
X023368Y015673D02*
X023234Y015441D01*
X023228Y015445D01*
X023362Y015677D01*
X023368Y015673D01*
G37*
G36*
X023025Y015871D02*
X022891Y015639D01*
X022885Y015643D01*
X023019Y015875D01*
X023025Y015871D01*
G37*
G36*
X022391Y014772D02*
X022257Y014540D01*
X022251Y014544D01*
X022385Y014776D01*
X022391Y014772D01*
G37*
G36*
X022734Y014574D02*
X022600Y014342D01*
X022594Y014346D01*
X022728Y014578D01*
X022734Y014574D01*
G37*
G36*
X022742Y014569D02*
X022608Y014337D01*
X022602Y014341D01*
X022736Y014573D01*
X022742Y014569D01*
G37*
G36*
X022774Y014103D02*
X022640Y013871D01*
X022634Y013875D01*
X022768Y014107D01*
X022774Y014103D01*
G37*
G36*
X022367Y013902D02*
X022233Y013670D01*
X022227Y013674D01*
X022361Y013906D01*
X022367Y013902D01*
G37*
G36*
X022359Y013907D02*
X022225Y013675D01*
X022219Y013679D01*
X022353Y013911D01*
X022359Y013907D01*
G37*
G36*
X022351Y013911D02*
X022217Y013679D01*
X022211Y013683D01*
X022345Y013915D01*
X022351Y013911D01*
G37*
G36*
X022299Y013370D02*
X022165Y013138D01*
X022159Y013142D01*
X022293Y013374D01*
X022299Y013370D01*
G37*
G36*
X022307Y013365D02*
X022173Y013133D01*
X022167Y013137D01*
X022301Y013369D01*
X022307Y013365D01*
G37*
G36*
X022314Y013361D02*
X022180Y013129D01*
X022174Y013133D01*
X022308Y013365D01*
X022314Y013361D01*
G37*
D277*
G36*
X021755Y013653D02*
X021549Y013295D01*
X021543Y013299D01*
X021749Y013657D01*
X021755Y013653D01*
G37*
D278*
G36*
X021767Y013656D02*
X021575Y013322D01*
X021569Y013326D01*
X021761Y013660D01*
X021767Y013656D01*
G37*
D279*
G36*
X022024Y014100D02*
X021890Y013868D01*
X021884Y013872D01*
X022018Y014104D01*
X022024Y014100D01*
G37*
G36*
X022407Y014763D02*
X022273Y014531D01*
X022267Y014535D01*
X022401Y014767D01*
X022407Y014763D01*
G37*
G36*
X022659Y015199D02*
X022525Y014967D01*
X022519Y014971D01*
X022653Y015203D01*
X022659Y015199D01*
G37*
G36*
X023041Y015862D02*
X022907Y015630D01*
X022901Y015634D01*
X023035Y015866D01*
X023041Y015862D01*
G37*
D280*
G36*
X023411Y015638D02*
X023232Y015328D01*
X023225Y015332D01*
X023404Y015642D01*
X023411Y015638D01*
G37*
G36*
X022777Y014539D02*
X022598Y014229D01*
X022591Y014233D01*
X022770Y014543D01*
X022777Y014539D01*
G37*
G36*
X022056Y013489D02*
X021877Y013179D01*
X021870Y013183D01*
X022049Y013493D01*
X022056Y013489D01*
G37*
G36*
X021776Y013651D02*
X021597Y013341D01*
X021590Y013345D01*
X021769Y013655D01*
X021776Y013651D01*
G37*
D281*
G36*
X021783Y013648D02*
X021613Y013352D01*
X021607Y013356D01*
X021777Y013652D01*
X021783Y013648D01*
G37*
D282*
G36*
X021796Y013650D02*
X021631Y013364D01*
X021624Y013368D01*
X021789Y013654D01*
X021796Y013650D01*
G37*
G36*
X022268Y013388D02*
X022103Y013102D01*
X022096Y013106D01*
X022261Y013392D01*
X022268Y013388D01*
G37*
G36*
X022422Y013943D02*
X022257Y013657D01*
X022250Y013661D01*
X022415Y013947D01*
X022422Y013943D01*
G37*
G36*
X022773Y014551D02*
X022608Y014265D01*
X022601Y014269D01*
X022766Y014555D01*
X022773Y014551D01*
G37*
G36*
X023057Y015042D02*
X022892Y014756D01*
X022885Y014760D01*
X023050Y015046D01*
X023057Y015042D01*
G37*
G36*
X023408Y015650D02*
X023243Y015364D01*
X023236Y015368D01*
X023401Y015654D01*
X023408Y015650D01*
G37*
D283*
G36*
X022045Y013507D02*
X021893Y013243D01*
X021887Y013247D01*
X022039Y013511D01*
X022045Y013507D01*
G37*
G36*
X021811Y013642D02*
X021659Y013378D01*
X021653Y013382D01*
X021805Y013646D01*
X021811Y013642D01*
G37*
D284*
G36*
X022723Y014591D02*
X022585Y014351D01*
X022579Y014355D01*
X022717Y014595D01*
X022723Y014591D01*
G37*
G36*
X022970Y015019D02*
X022832Y014779D01*
X022826Y014783D01*
X022964Y015023D01*
X022970Y015019D01*
G37*
G36*
X022931Y015042D02*
X022793Y014802D01*
X022787Y014806D01*
X022925Y015046D01*
X022931Y015042D01*
G37*
G36*
X022892Y015064D02*
X022754Y014824D01*
X022748Y014828D01*
X022886Y015068D01*
X022892Y015064D01*
G37*
G36*
X022853Y015087D02*
X022715Y014847D01*
X022709Y014851D01*
X022847Y015091D01*
X022853Y015087D01*
G37*
G36*
X022814Y015109D02*
X022676Y014869D01*
X022670Y014873D01*
X022808Y015113D01*
X022814Y015109D01*
G37*
G36*
X022775Y015132D02*
X022637Y014892D01*
X022631Y014896D01*
X022769Y015136D01*
X022775Y015132D01*
G37*
G36*
X022736Y015154D02*
X022598Y014914D01*
X022592Y014918D01*
X022730Y015158D01*
X022736Y015154D01*
G37*
G36*
X022697Y015177D02*
X022559Y014937D01*
X022553Y014941D01*
X022691Y015181D01*
X022697Y015177D01*
G37*
D285*
G36*
X022455Y014704D02*
X022353Y014526D01*
X022347Y014530D01*
X022449Y014708D01*
X022455Y014704D01*
G37*
G36*
X023090Y015803D02*
X022988Y015625D01*
X022982Y015629D01*
X023084Y015807D01*
X023090Y015803D01*
G37*
D286*
G36*
X022459Y014691D02*
X022366Y014529D01*
X022359Y014533D01*
X022452Y014695D01*
X022459Y014691D01*
G37*
D287*
G36*
X023093Y015790D02*
X023000Y015628D01*
X022993Y015632D01*
X023086Y015794D01*
X023093Y015790D01*
G37*
G36*
X021615Y012185D02*
X021522Y012023D01*
X021515Y012027D01*
X021608Y012189D01*
X021615Y012185D01*
G37*
D288*
G36*
X022458Y014671D02*
X022383Y014541D01*
X022376Y014545D01*
X022451Y014675D01*
X022458Y014671D01*
G37*
G36*
X023092Y015770D02*
X023017Y015640D01*
X023010Y015644D01*
X023085Y015774D01*
X023092Y015770D01*
G37*
D289*
G36*
X022452Y014643D02*
X022404Y014559D01*
X022398Y014563D01*
X022446Y014647D01*
X022452Y014643D01*
G37*
D290*
G36*
X023086Y015742D02*
X023038Y015658D01*
X023032Y015662D01*
X023080Y015746D01*
X023086Y015742D01*
G37*
G36*
X021530Y012182D02*
X021482Y012098D01*
X021476Y012102D01*
X021524Y012186D01*
X021530Y012182D01*
G37*
D291*
G36*
X022456Y014579D02*
X022219Y014167D01*
X022212Y014171D01*
X022449Y014583D01*
X022456Y014579D01*
G37*
D292*
G36*
X023091Y015678D02*
X022854Y015266D01*
X022847Y015270D01*
X023084Y015682D01*
X023091Y015678D01*
G37*
D293*
G36*
X022500Y014637D02*
X022195Y014107D01*
X022188Y014111D01*
X022493Y014641D01*
X022500Y014637D01*
G37*
D294*
G36*
X023135Y015736D02*
X022830Y015206D01*
X022823Y015210D01*
X023128Y015740D01*
X023135Y015736D01*
G37*
D295*
G36*
X023152Y015746D02*
X022829Y015186D01*
X022822Y015190D01*
X023145Y015750D01*
X023152Y015746D01*
G37*
G36*
X022517Y014647D02*
X022194Y014087D01*
X022187Y014091D01*
X022510Y014651D01*
X022517Y014647D01*
G37*
G36*
X022068Y013473D02*
X021745Y012913D01*
X021738Y012917D01*
X022061Y013477D01*
X022068Y013473D01*
G37*
D296*
G36*
X022078Y013455D02*
X021742Y012873D01*
X021736Y012877D01*
X022072Y013459D01*
X022078Y013455D01*
G37*
G36*
X022081Y013443D02*
X021745Y012861D01*
X021739Y012865D01*
X022075Y013447D01*
X022081Y013443D01*
G37*
G36*
X022084Y013431D02*
X021748Y012849D01*
X021742Y012853D01*
X022078Y013435D01*
X022084Y013431D01*
G37*
G36*
X022088Y013419D02*
X021752Y012837D01*
X021746Y012841D01*
X022082Y013423D01*
X022088Y013419D01*
G37*
G36*
X022099Y013402D02*
X021763Y012820D01*
X021757Y012824D01*
X022093Y013406D01*
X022099Y013402D01*
G37*
G36*
X022533Y014658D02*
X022197Y014076D01*
X022191Y014080D01*
X022527Y014662D01*
X022533Y014658D01*
G37*
G36*
X023168Y015757D02*
X022832Y015175D01*
X022826Y015179D01*
X023162Y015761D01*
X023168Y015757D01*
G37*
D297*
G36*
X023334Y015703D02*
X022984Y015097D01*
X022978Y015101D01*
X023328Y015707D01*
X023334Y015703D01*
G37*
G36*
X022699Y014604D02*
X022349Y013998D01*
X022343Y014002D01*
X022693Y014608D01*
X022699Y014604D01*
G37*
G36*
X022546Y014661D02*
X022196Y014055D01*
X022190Y014059D01*
X022540Y014665D01*
X022546Y014661D01*
G37*
G36*
X022207Y013392D02*
X021857Y012786D01*
X021851Y012790D01*
X022201Y013396D01*
X022207Y013392D01*
G37*
G36*
X022195Y013388D02*
X021845Y012782D01*
X021839Y012786D01*
X022189Y013392D01*
X022195Y013388D01*
G37*
D298*
G36*
X022175Y013389D02*
X021825Y012783D01*
X021819Y012787D01*
X022169Y013393D01*
X022175Y013389D01*
G37*
G36*
X023180Y015760D02*
X022830Y015154D01*
X022824Y015158D01*
X023174Y015764D01*
X023180Y015760D01*
G37*
D299*
G36*
X023193Y015764D02*
X022834Y015142D01*
X022827Y015146D01*
X023186Y015768D01*
X023193Y015764D01*
G37*
G36*
X022558Y014665D02*
X022199Y014043D01*
X022192Y014047D01*
X022551Y014669D01*
X022558Y014665D01*
G37*
D300*
G36*
X022578Y014664D02*
X022210Y014026D01*
X022204Y014030D01*
X022572Y014668D01*
X022578Y014664D01*
G37*
G36*
X022586Y014660D02*
X022218Y014022D01*
X022212Y014026D01*
X022580Y014664D01*
X022586Y014660D01*
G37*
G36*
X022668Y014622D02*
X022300Y013984D01*
X022294Y013988D01*
X022662Y014626D01*
X022668Y014622D01*
G37*
G36*
X022676Y014618D02*
X022308Y013980D01*
X022302Y013984D01*
X022670Y014622D01*
X022676Y014618D01*
G37*
G36*
X022829Y014342D02*
X022461Y013704D01*
X022455Y013708D01*
X022823Y014346D01*
X022829Y014342D01*
G37*
G36*
X023463Y015441D02*
X023095Y014803D01*
X023089Y014807D01*
X023457Y015445D01*
X023463Y015441D01*
G37*
G36*
X023311Y015717D02*
X022943Y015079D01*
X022937Y015083D01*
X023305Y015721D01*
X023311Y015717D01*
G37*
G36*
X023303Y015721D02*
X022935Y015083D01*
X022929Y015087D01*
X023297Y015725D01*
X023303Y015721D01*
G37*
G36*
X023220Y015758D02*
X022852Y015120D01*
X022846Y015124D01*
X023214Y015762D01*
X023220Y015758D01*
G37*
G36*
X023213Y015763D02*
X022845Y015125D01*
X022839Y015129D01*
X023207Y015767D01*
X023213Y015763D01*
G37*
D301*
G36*
X023287Y015730D02*
X022915Y015084D01*
X022909Y015088D01*
X023281Y015734D01*
X023287Y015730D01*
G37*
G36*
X023295Y015726D02*
X022923Y015080D01*
X022917Y015084D01*
X023289Y015730D01*
X023295Y015726D01*
G37*
G36*
X023251Y015741D02*
X022879Y015095D01*
X022873Y015099D01*
X023245Y015745D01*
X023251Y015741D01*
G37*
G36*
X023243Y015745D02*
X022871Y015099D01*
X022865Y015103D01*
X023237Y015749D01*
X023243Y015745D01*
G37*
G36*
X023228Y015754D02*
X022856Y015108D01*
X022850Y015112D01*
X023222Y015758D01*
X023228Y015754D01*
G37*
G36*
X022652Y014631D02*
X022280Y013985D01*
X022274Y013989D01*
X022646Y014635D01*
X022652Y014631D01*
G37*
G36*
X022660Y014627D02*
X022288Y013981D01*
X022282Y013985D01*
X022654Y014631D01*
X022660Y014627D01*
G37*
D302*
G36*
X022601Y014651D02*
X022229Y014005D01*
X022223Y014009D01*
X022595Y014655D01*
X022601Y014651D01*
G37*
D303*
G36*
X023236Y015750D02*
X022864Y015104D01*
X022858Y015108D01*
X023230Y015754D01*
X023236Y015750D01*
G37*
D304*
G36*
X023280Y015735D02*
X022903Y015081D01*
X022896Y015085D01*
X023273Y015739D01*
X023280Y015735D01*
G37*
G36*
X022645Y014636D02*
X022268Y013982D01*
X022261Y013986D01*
X022638Y014640D01*
X022645Y014636D01*
G37*
D305*
G36*
X022684Y014613D02*
X022321Y013983D01*
X022314Y013987D01*
X022677Y014617D01*
X022684Y014613D01*
G37*
D306*
G36*
X023319Y015712D02*
X022956Y015082D01*
X022949Y015086D01*
X023312Y015716D01*
X023319Y015712D01*
G37*
D307*
G36*
X022049Y013494D02*
X021888Y013214D01*
X021881Y013218D01*
X022042Y013498D01*
X022049Y013494D01*
G37*
G36*
X022365Y013322D02*
X022204Y013042D01*
X022197Y013046D01*
X022358Y013326D01*
X022365Y013322D01*
G37*
D308*
G36*
X022063Y013485D02*
X021763Y012965D01*
X021757Y012969D01*
X022057Y013489D01*
X022063Y013485D01*
G37*
D309*
G36*
X022708Y014600D02*
X022367Y014008D01*
X022360Y014012D01*
X022701Y014604D01*
X022708Y014600D01*
G37*
D310*
G36*
X022715Y014595D02*
X022406Y014059D01*
X022399Y014063D01*
X022708Y014599D01*
X022715Y014595D01*
G37*
G36*
X022821Y014274D02*
X022512Y013738D01*
X022505Y013742D01*
X022814Y014278D01*
X022821Y014274D01*
G37*
G36*
X023456Y015373D02*
X023147Y014837D01*
X023140Y014841D01*
X023449Y015377D01*
X023456Y015373D01*
G37*
G36*
X023350Y015694D02*
X023041Y015158D01*
X023034Y015162D01*
X023343Y015698D01*
X023350Y015694D01*
G37*
D311*
G36*
X022071Y013461D02*
X021744Y012893D01*
X021737Y012897D01*
X022064Y013465D01*
X022071Y013461D01*
G37*
D312*
G36*
X022235Y013385D02*
X021899Y012803D01*
X021893Y012807D01*
X022229Y013389D01*
X022235Y013385D01*
G37*
G36*
X022096Y013414D02*
X021760Y012832D01*
X021754Y012836D01*
X022090Y013418D01*
X022096Y013414D01*
G37*
D313*
G36*
X022284Y013379D02*
X022141Y013131D01*
X022134Y013135D01*
X022277Y013383D01*
X022284Y013379D01*
G37*
G36*
X022384Y013913D02*
X022241Y013665D01*
X022234Y013669D01*
X022377Y013917D01*
X022384Y013913D01*
G37*
G36*
X022758Y014560D02*
X022615Y014312D01*
X022608Y014316D01*
X022751Y014564D01*
X022758Y014560D01*
G37*
G36*
X023019Y015012D02*
X022876Y014764D01*
X022869Y014768D01*
X023012Y015016D01*
X023019Y015012D01*
G37*
G36*
X023392Y015659D02*
X023249Y015411D01*
X023242Y015415D01*
X023385Y015663D01*
X023392Y015659D01*
G37*
D314*
G36*
X023457Y015394D02*
X023130Y014826D01*
X023123Y014830D01*
X023450Y015398D01*
X023457Y015394D01*
G37*
G36*
X022098Y013382D02*
X021771Y012814D01*
X021764Y012818D01*
X022091Y013386D01*
X022098Y013382D01*
G37*
G36*
X022101Y013370D02*
X021774Y012802D01*
X021767Y012806D01*
X022094Y013374D01*
X022101Y013370D01*
G37*
G36*
X022109Y013366D02*
X021782Y012798D01*
X021775Y012802D01*
X022102Y013370D01*
X022109Y013366D01*
G37*
D315*
G36*
X022452Y013978D02*
X022269Y013660D01*
X022262Y013664D01*
X022445Y013982D01*
X022452Y013978D01*
G37*
G36*
X023087Y015077D02*
X022904Y014759D01*
X022897Y014763D01*
X023080Y015081D01*
X023087Y015077D01*
G37*
D316*
G36*
X023419Y015634D02*
X023182Y015222D01*
X023175Y015226D01*
X023412Y015638D01*
X023419Y015634D01*
G37*
G36*
X022784Y014535D02*
X022547Y014123D01*
X022540Y014127D01*
X022777Y014539D01*
X022784Y014535D01*
G37*
D317*
G36*
X022121Y013369D02*
X021789Y012793D01*
X021783Y012797D01*
X022115Y013373D01*
X022121Y013369D01*
G37*
D318*
G36*
X022228Y013390D02*
X021883Y012792D01*
X021876Y012796D01*
X022221Y013394D01*
X022228Y013390D01*
G37*
G36*
X022215Y013387D02*
X021870Y012789D01*
X021863Y012793D01*
X022208Y013391D01*
X022215Y013387D01*
G37*
G36*
X022163Y013386D02*
X021818Y012788D01*
X021811Y012792D01*
X022156Y013390D01*
X022163Y013386D01*
G37*
G36*
X022151Y013383D02*
X021806Y012785D01*
X021799Y012789D01*
X022144Y013387D01*
X022151Y013383D01*
G37*
D319*
G36*
X021527Y012268D02*
X021411Y012066D01*
X021405Y012070D01*
X021521Y012272D01*
X021527Y012268D01*
G37*
D320*
G36*
X022409Y013202D02*
X021929Y012370D01*
X021923Y012374D01*
X022403Y013206D01*
X022409Y013202D01*
G37*
G36*
X022809Y014488D02*
X022329Y013656D01*
X022323Y013660D01*
X022803Y014492D01*
X022809Y014488D01*
G37*
G36*
X023444Y015587D02*
X022964Y014755D01*
X022958Y014759D01*
X023438Y015591D01*
X023444Y015587D01*
G37*
D321*
G36*
X021530Y012254D02*
X021419Y012062D01*
X021412Y012066D01*
X021523Y012258D01*
X021530Y012254D01*
G37*
D322*
G36*
X022183Y013385D02*
X021838Y012787D01*
X021831Y012791D01*
X022176Y013389D01*
X022183Y013385D01*
G37*
D323*
G36*
X022813Y014476D02*
X022342Y013660D01*
X022335Y013664D01*
X022806Y014480D01*
X022813Y014476D01*
G37*
G36*
X023447Y015575D02*
X022976Y014759D01*
X022969Y014763D01*
X023440Y015579D01*
X023447Y015575D01*
G37*
D324*
G36*
X023451Y015563D02*
X022984Y014753D01*
X022977Y014757D01*
X023444Y015567D01*
X023451Y015563D01*
G37*
G36*
X022817Y014464D02*
X022350Y013654D01*
X022343Y013658D01*
X022810Y014468D01*
X022817Y014464D01*
G37*
G36*
X022417Y013178D02*
X021950Y012368D01*
X021943Y012372D01*
X022410Y013182D01*
X022417Y013178D01*
G37*
D325*
G36*
X021532Y012222D02*
X021448Y012076D01*
X021442Y012080D01*
X021526Y012226D01*
X021532Y012222D01*
G37*
D326*
G36*
X022819Y014452D02*
X022361Y013658D01*
X022355Y013662D01*
X022813Y014456D01*
X022819Y014452D01*
G37*
G36*
X023454Y015551D02*
X022996Y014757D01*
X022990Y014761D01*
X023448Y015555D01*
X023454Y015551D01*
G37*
D327*
G36*
X023458Y015538D02*
X023009Y014760D01*
X023002Y014764D01*
X023451Y015542D01*
X023458Y015538D01*
G37*
G36*
X022823Y014439D02*
X022374Y013661D01*
X022367Y013665D01*
X022816Y014443D01*
X022823Y014439D01*
G37*
G36*
X022414Y013137D02*
X021965Y012359D01*
X021958Y012363D01*
X022407Y013141D01*
X022414Y013137D01*
G37*
D328*
G36*
X022825Y014407D02*
X022403Y013675D01*
X022397Y013679D01*
X022819Y014411D01*
X022825Y014407D01*
G37*
G36*
X023459Y015506D02*
X023037Y014774D01*
X023031Y014778D01*
X023453Y015510D01*
X023459Y015506D01*
G37*
D329*
G36*
X022247Y013390D02*
X021915Y012814D01*
X021909Y012818D01*
X022241Y013394D01*
X022247Y013390D01*
G37*
D330*
G36*
X022828Y014395D02*
X022415Y013679D01*
X022408Y013683D01*
X022821Y014399D01*
X022828Y014395D01*
G37*
G36*
X023463Y015494D02*
X023050Y014778D01*
X023043Y014782D01*
X023456Y015498D01*
X023463Y015494D01*
G37*
D331*
G36*
X023428Y015254D02*
X023240Y014928D01*
X023234Y014932D01*
X023422Y015258D01*
X023428Y015254D01*
G37*
G36*
X022793Y014155D02*
X022605Y013829D01*
X022599Y013833D01*
X022787Y014159D01*
X022793Y014155D01*
G37*
G36*
X022255Y013385D02*
X022067Y013059D01*
X022061Y013063D01*
X022249Y013389D01*
X022255Y013385D01*
G37*
D332*
G36*
X022827Y014375D02*
X022428Y013683D01*
X022421Y013687D01*
X022820Y014379D01*
X022827Y014375D01*
G37*
G36*
X023462Y015474D02*
X023063Y014782D01*
X023056Y014786D01*
X023455Y015478D01*
X023462Y015474D01*
G37*
D333*
G36*
X023465Y015462D02*
X023079Y014792D01*
X023073Y014796D01*
X023459Y015466D01*
X023465Y015462D01*
G37*
D334*
G36*
X023462Y015421D02*
X023108Y014807D01*
X023102Y014811D01*
X023456Y015425D01*
X023462Y015421D01*
G37*
G36*
X022827Y014322D02*
X022473Y013708D01*
X022467Y013712D01*
X022821Y014326D01*
X022827Y014322D01*
G37*
D335*
G36*
X022816Y014247D02*
X022529Y013749D01*
X022522Y013753D01*
X022809Y014251D01*
X022816Y014247D01*
G37*
G36*
X023450Y015346D02*
X023163Y014848D01*
X023156Y014852D01*
X023443Y015350D01*
X023450Y015346D01*
G37*
D336*
G36*
X023438Y015290D02*
X023210Y014894D01*
X023204Y014898D01*
X023432Y015294D01*
X023438Y015290D01*
G37*
G36*
X022803Y014191D02*
X022575Y013795D01*
X022569Y013799D01*
X022797Y014195D01*
X022803Y014191D01*
G37*
D337*
G36*
X022357Y013326D02*
X022210Y013070D01*
X022203Y013074D01*
X022350Y013330D01*
X022357Y013326D01*
G37*
D338*
G36*
X022367Y013309D02*
X021851Y012415D01*
X021845Y012419D01*
X022361Y013313D01*
X022367Y013309D01*
G37*
G36*
X022375Y013305D02*
X021859Y012411D01*
X021853Y012415D01*
X022369Y013309D01*
X022375Y013305D01*
G37*
D339*
G36*
X022387Y013289D02*
X021875Y012401D01*
X021869Y012405D01*
X022381Y013293D01*
X022387Y013289D01*
G37*
D340*
G36*
X022408Y013235D02*
X021914Y012379D01*
X021908Y012383D01*
X022402Y013239D01*
X022408Y013235D01*
G37*
D341*
G36*
X022415Y013158D02*
X021957Y012364D01*
X021951Y012368D01*
X022409Y013162D01*
X022415Y013158D01*
G37*
D342*
G36*
X021846Y012083D02*
X021730Y011881D01*
X021724Y011885D01*
X021840Y012087D01*
X021846Y012083D01*
G37*
D343*
G36*
X022409Y013057D02*
X022001Y012349D01*
X021995Y012353D01*
X022403Y013061D01*
X022409Y013057D01*
G37*
D344*
G36*
X022403Y013029D02*
X022013Y012353D01*
X022007Y012357D01*
X022397Y013033D01*
X022403Y013029D01*
G37*
M02*
